<?xml version="1.0" encoding="UTF-8"?>
<svg xmlns="http://www.w3.org/2000/svg" version="1.1" viewBox="0 0 109 114">
  <!-- Generator: Adobe Illustrator 28.7.1, SVG Export Plug-In . SVG Version: 1.2.0 Build 142)  -->
  <g>
    <g id="Calque_1">
      <g>
        <path d="M16.62,22.08c.05,0,.11.8.16,2.34.05,1.54.1,3.82.14,6.76.01.98.03,2.04.05,3.16.03,1.13.06,2.33.04,3.59-.14,1.27.26,2.61.04,4.01-.06,1.4,0,2.87.04,4.41.05,1.53-.09,3.13.04,4.79.27,1.66-.3,3.38.04,5.16.07,1.78.05,3.62.04,5.51-.21,1.89,0,3.85.03,5.85-.25,2.01-.14,4.06.03,6.18-.34,2.11-.29,4.27.03,6.48.01,2.21-.12,4.47.03,6.78,0,.45.01.89.02,1.34v.34s0,.11,0,.11v.17s.15,0,.15,0h.07s.13,0,.13,0c.36,0,.72,0,1.08,0,.73,0,1.46,0,2.19.03,2.4-.23,4.84-.22,7.32-.02,2.48-.25,5-.15,7.56-.02,2.56.14,5.16-.22,7.8-.02,2.63.02,5.31-.06,8.01-.02,2.71.1,5.44.21,8.21-.01,1.38-.03,2.78-.07,4.18-.08h.49s.06,0,.1,0c0-.02-.01-.05-.02-.08,0-.02,0-.04,0-.06h0s0,0,0-.01v-.03s-.07-.13-.07-.13l-.11-.25c-.76-1.28-1.28-2.72-1.57-4.2l-.09-.56c-.03-.19-.06-.37-.08-.56-.03-.38-.07-.75-.09-1.13,0-.38,0-.76,0-1.14,0-.19.02-.38.03-.57.01-.19.02-.38.04-.57.07-1.51.37-3.02.86-4.46.49-1.44,1.14-2.83,1.91-4.16.84-1.29,1.82-2.49,2.95-3.57.57-.53,1.16-1.03,1.81-1.48.31-.23.65-.43.98-.64.17-.1.34-.19.51-.28.17-.09.34-.19.52-.27l.53-.25c.18-.08.36-.15.54-.23.36-.16.73-.28,1.09-.42.74-.24,1.48-.47,2.24-.62,1.51-.34,3.04-.48,4.58-.51,1.54-.04,3.08.25,4.53.72.73.23,1.44.53,2.13.84l.51.25.26.12.25.13.5.27.49.29c.33.23.64.48.96.72.16.12.31.25.47.37.16.12.32.24.46.37l.13.11.06.04.1.08c.07.05.12.09.16.12.01.02,0-.03,0-.04v-.07s-.02-.12-.02-.12l-.02-.19v-.04s0,0,0,0c0,0,0,0,0-.02v-.13s0-.5,0-.5c0-.33,0-.67.01-1-.02-2.83.14-5.63.01-8.4-.05-2.77-.09-5.51.01-8.21-.38-2.71.1-5.38.02-8.01.16-2.63-.02-5.24.02-7.8-.07-2.56.17-5.08.02-7.56,0-.51,0-1.01,0-1.52v-.38s0-.09,0-.09v-.05s0-.01,0-.01v-.04s-.01-.16-.01-.16h-.12s-.06.01-.06.01c-.03,0,0,0-.13,0-.36,0-.72,0-1.08,0-.71,0-1.43-.02-2.13-.06-2.4.19-4.75-.16-7.05-.03-2.31,0-4.57.01-6.78-.03-2.21-.29-4.37-.05-6.48-.03-2.11-.03-4.17.17-6.18-.03-2.01-.02-3.96-.15-5.85-.03-1.9.04-3.74-.43-5.52-.04-1.78.07-3.5-.3-5.16-.04-1.66.24-3.26-.03-4.79-.04-1.53-.01-3-.03-4.41-.04-6.32-.06-11.28-.13-14.67-.21-1.69-.04-3-.07-3.87-.11-.88-.04-1.33-.08-1.33-.12,0-.04.56-.09,1.64-.13,1.08-.04,2.67-.08,4.75-.12,4.15-.08,10.22-.15,17.89-.22,1.53-.01,3.13-.22,4.79-.04,1.66,0,3.38-.16,5.16-.04,1.78-.27,3.62-.05,5.52-.04,1.89-.01,3.85.07,5.85-.04,2-.16,4.07.08,6.18-.03,2.11.17,4.27.12,6.48-.03,2.21.16,4.47-.03,6.78-.03,2.31.25,4.66.08,7.05-.03.71-.03,1.42-.04,2.13-.03.97,0,1.95.01,2.93.02,0,.76,0,1.52,0,2.28,0,.5,0,1.01.02,1.52-.05,2.48.06,5,.02,7.56.12,2.56.16,5.16.02,7.8.08,2.64.02,5.31.02,8.01.1,2.7-.01,5.44.01,8.21.05,2.77-.27,5.57.01,8.4,0,.33,0,.66,0,1,0,.44,0,.88,0,1.31,0,.62,0,1.25,0,1.88v.93s0,.47,0,.47c0,.15,0,.33,0,.44-.53-.54-1.03-1.07-1.58-1.62l-.4-.41-.2-.2-.1-.1-.1-.09-.4-.35-.2-.18-.12-.1c-.14-.12-.28-.23-.43-.34-.15-.11-.29-.22-.44-.32-.3-.2-.6-.41-.92-.58-.15-.09-.29-.18-.44-.27l-.45-.25-.22-.13-.23-.11-.46-.23c-.63-.28-1.27-.54-1.93-.74-1.32-.4-2.71-.63-4.1-.64-1.39-.18-2.82-.1-4.19.24-.69.15-1.36.4-2.02.65-.32.15-.65.27-.96.44l-.47.24-.46.26c-2.46,1.38-4.59,3.3-6.12,5.63-.75,1.18-1.32,2.45-1.75,3.76-.42,1.31-.67,2.67-.76,4.04,0,.17,0,.34,0,.51,0,.17-.01.34,0,.51.02.34.03.68.04,1.02.03.34.06.68.1,1.01,0,.17.04.34.07.5l.08.5c.24,1.33.66,2.64,1.29,3.83l.29.52c.17.3.34.61.51.89l.5.87.25.43.12.22.06.11.03.05s-.04,0-.06,0c-.67,0-1.34,0-2.01-.01h-.99s-.6-.02-.6-.02c-1.4-.03-2.79-.06-4.18,0-2.77.08-5.51.12-8.21-.01-2.71,0-5.38-.25-8.01-.02-2.64.05-5.24.37-7.8-.02-2.56.09-5.08-.19-7.56-.02-2.48-.28-4.92-.01-7.32-.02-.73-.02-1.46-.04-2.19-.05-.36,0-.72-.01-1.08-.02-.58,0-1.17,0-1.75,0,0-.38,0-.76,0-1.14v-.55s0-.34,0-.34c0-.45-.03-.9-.05-1.34-.13-2.31.07-4.57.03-6.78-.16-2.21.21-4.37.03-6.48.04-2.11-.02-4.17.03-6.18-.38-2.01,0-3.96.04-5.85.05-1.9-.25-3.73.04-5.51-.29-1.78-.04-3.5.04-5.16.08-1.66-.12-3.26.04-4.79-.2-1.54.11-3.01.04-4.41.13-1.4,0-2.74.04-4.01-.05-1.27-.03-2.47.04-3.59.02-1.13.03-2.18.05-3.17.05-2.94.09-5.22.15-6.76.05-1.54.1-2.34.15-2.34Z"/>
        <path d="M93.02,37.06c0,.11-.84.21-2.39.3-.26.01-.53.03-.83.05-.3.03-.61.06-.94.05-.33-.14-.68.26-1.05.04-.37-.06-.75,0-1.16.04-.4.05-.82-.09-1.26.04-.43.27-.89-.3-1.35.04-.47.07-.95.05-1.45.04-.5-.21-1.01,0-1.54.03-.53-.25-1.07-.14-1.62.03-.55-.34-1.12-.29-1.7.03-.58.01-1.17-.12-1.78.03-.6.02-1.22.09-1.85.03-.63.23-1.27.22-1.92.02-.65.25-1.31.15-1.99.02-.67-.14-1.35.22-2.05.02-.69-.01-1.39.06-2.1.02-.71-.1-1.43-.21-2.16.01-.73.06-1.46.14-2.2.01-.74.26-1.49.15-2.25,0-.75.04-1.52-.14-2.29,0-.77-.04-1.55.12-2.33,0-.78-.08-1.56-.15-2.33,0-.77.17-1.53-.07-2.29,0-.76-.24-1.51.08-2.25,0-.74.02-1.48-.14-2.2-.01-.73.05-1.45.09-2.16-.01-.71.38-1.41-.1-2.1-.02-.69-.16-1.37.02-2.04-.02-.67.07-1.33-.17-1.98-.02-.65-.03-1.29.12-1.92-.02-.63.19-1.25-.16-1.85-.03-.61,0-1.2.01-1.78-.03-.58-.29-1.15-.05-1.7-.03-.55-.03-1.09.17-1.62-.03-.53-.02-1.04-.15-1.54-.03-.5.04-.98-.43-1.45-.04-.47.07-.92-.3-1.35-.04-.44.24-.85-.03-1.26-.04-.4-.01-.79-.03-1.16-.04-3.31-.13-5.21-.28-5.21-.44,0-.18,2.35-.34,6.37-.48.4-.01.82-.22,1.26-.04.43,0,.89-.16,1.35-.04.47-.27.95-.05,1.45-.04.5-.01,1.01.08,1.54-.04.53-.16,1.07.08,1.62-.03.55.17,1.12.13,1.7-.03.58.16,1.17-.04,1.78-.03.61.25,1.22.08,1.85-.03.63-.09,1.27.04,1.92-.02.65.05,1.31-.06,1.98-.02.67-.12,1.35-.16,2.04-.02.69-.08,1.39-.02,2.1-.02.71-.1,1.43.01,2.16-.01.73-.05,1.46.27,2.2,0,.74-.04,1.49.04,2.25,0,.76.04,1.52.07,2.29,0,.77.28,1.54.11,2.33,0,.78-.08,1.56-.04,2.33,0,.77-.03,1.53-.01,2.29,0,.76-.08,1.51.12,2.25,0,.74-.12,1.48.12,2.2,0,.73-.08,1.45-.12,2.16.01.71,0,1.41.25,2.1.02.69-.05,1.37-.37,2.05.02.67-.09,1.33.19,1.99.02.65.28,1.29.01,1.92.02.63.05,1.25.15,1.85.03.61-.13,1.2.07,1.78.03.58-.16,1.15.21,1.7.03.55.04,1.09-.02,1.62.03.53-.38,1.04,0,1.54.04.5.05.98-.25,1.45.04.47-.29.92-.04,1.35.04.44.08.86-.12,1.26.04.4-.2.79.11,1.16.04.37.13.72,0,1.05.04.33-.04.65-.03.94.05.29.01.57.03.83.05,1.55.09,2.39.19,2.39.3Z"/>
        <path d="M25.11,42.19c.1,0,.21.36.3,1.01.01.11.03.23.05.35.03.12.06.26.04.4-.14.14.26.29.04.45-.06.16,0,.32.04.49.05.17-.09.35.04.53.27.18-.3.38.04.57.07.2.05.4.04.61-.21.21,0,.43.03.65-.25.22-.14.45.03.69-.34.23-.29.47.03.72,0,.12-.02.25-.04.37,0,.06,0,.12,0,.19,0,.03.01.06.02.09,0,.02.01.03.02.05,0,.02.02.03.02.03.01.04.03.07.04.09.01.03.01.05-.02.11.05-.03.09-.05.12-.07.12-.09.06-.05.06.1.04-.06.06-.1.07-.12,0-.01,0-.02.01-.02,0,0,0,0,0,0,.02,0,.04,0,.05,0,.14,0,.28.06.42.13.29.14.57-.22.86-.02.29.01.59-.06.89-.02.3.1.6.21.91-.01.31-.06.62-.14.93,0,.31-.26.63-.15.95,0,.32-.04.65.14.96,0,.03.02.05,0,.06-.03.01-.02,0-.03.08.03h0s.08,0,.09-.03c0-.03,0-.09-.09-.11-.17-.31.07-.64,0-.96.25-.32-.08-.64,0-.95-.02-.31.14-.62,0-.93-.04-.31-.09-.61.01-.91-.38-.3.1-.59.02-.89.16-.29-.02-.58.02-.86-.04-.14,0-.28.04-.42.02-.07.03-.14.03-.21,0-.02,0-.03,0-.05,0-.01,0-.01,0-.02,0,0-.02-.02-.04-.02.02-.04-.02-.06-.03-.08-.02-.02-.02-.03.06-.14h-.02c-.1.08-.08.04-.08,0,0-.05-.04-.09-.09-.03-.07,0-.14,0-.21,0-.13,0-.25,0-.37-.03-.25-.29-.49-.05-.72-.03-.23-.03-.46.17-.68-.03-.22-.02-.44-.15-.65-.04-.21.04-.41-.43-.61-.04-.2.07-.39-.3-.57-.04-.18.24-.36-.03-.53-.04-.17-.02-.33-.03-.49-.04-1.4-.13-2.2-.28-2.2-.43,0-.18.99-.34,2.69-.48.17-.01.35-.22.53-.04.18,0,.37-.16.57-.04.2-.27.4-.05.61-.04.21-.01.43.08.65-.03.22-.16.45.08.68-.03.23.17.47.12.72-.03.12.08.25.07.37.04l.09-.02h.05s.08-.03.08-.03c.11-.01.22-.03.33-.02.18.12.36.14.57.12.21-.02.47-.09.75-.14v.04c.06.19.05.45.03.7-.01.25-.03.49,0,.73,0,.06,0,.12-.01.19v.14c0,.07.01.14.02.21.02.14.04.28.01.42.12.28.16.57.02.86.08.29.02.59.02.89.1.3-.01.6.01.91.05.31-.27.62.01.93.04.31-.04.63,0,.95-.03.32-.07.63,0,.97-.14.3-.16.55-.14.85.02.29.09.63.14,1h0c-.27.04-.59.05-.91.04-.32,0-.64-.03-.94-.05-.34.03-.65.01-.97,0-.32.08-.64-.12-.95,0-.31.12-.62-.13-.93-.01-.31.08-.61.12-.91-.01-.3,0-.6-.25-.89-.02-.29.05-.58.37-.86-.02-.14.05-.28,0-.42-.04h-.05s-.09-.03-.09-.03c-.06,0-.12-.01-.18-.01-.12,0-.24.01-.38.05-.15-.11-.3-.13-.48-.13-.18,0-.39.05-.6.08-.02-.09-.03-.19-.03-.29.03-.26.06-.5.08-.73.02-.23,0-.43-.05-.65v-.04s-.02-.02-.02-.03c0-.01-.01-.03-.01-.05,0-.03-.01-.06-.01-.09,0-.06.01-.13.03-.19.03-.13.07-.25.05-.37-.16-.25.21-.49.03-.72.04-.23-.02-.46.03-.69-.38-.22,0-.44.04-.65.06-.21-.25-.41.04-.61-.29-.2-.04-.39.04-.57.08-.18-.12-.36.04-.53-.2-.17.11-.33.04-.49.13-.16,0-.3.04-.45-.05-.14-.03-.27.04-.4.02-.12.03-.24.05-.35.09-.65.19-1.01.3-1.01Z"/>
        <path d="M42.26,42.19c.11,0,.21.36.3,1.01.01.11.03.23.05.35.03.12.06.26.04.4-.14.14.26.29.04.45-.06.16,0,.32.04.49.05.17-.09.35.04.53.27.18-.3.38.04.57.07.2.05.4.04.61-.21.21,0,.43.03.65-.25.22-.14.45.03.68-.34.23-.29.47.03.72,0,.12-.03.25-.04.37,0,.06,0,.12,0,.19,0,.03.01.06.02.09,0,.01.01.03.02.05,0,0,0,.02.01.02h.01s.03.07.04.1c.01.03.01.05-.02.11.05-.03.09-.05.12-.07.12-.09.06-.05.05.1.04-.06.06-.1.07-.12,0-.01,0-.02.01-.02,0,0,0,0,0,0,.02,0,.04,0,.05,0,.14,0,.28.06.42.13.28.14.57-.22.86-.02.29.01.59-.06.89-.02.3.1.6.21.91-.01.31-.06.62-.14.93,0,.31-.26.63-.15.95,0,.32-.04.65.14.96,0,.03.02.05,0,.06-.03.01-.02,0-.03.08.03h0s.08,0,.09-.03c0-.03-.01-.09-.09-.11-.17-.31.07-.64,0-.96.25-.32-.08-.64,0-.95-.02-.31.14-.62.01-.93-.05-.31-.09-.61.01-.91-.38-.3.1-.6.02-.89.16-.29-.02-.58.02-.86-.04-.14,0-.28.04-.42.02-.07.03-.14.03-.21,0-.02,0-.03,0-.05,0-.01,0-.01,0-.02,0,0-.02-.02-.04-.02.02-.04-.01-.06-.03-.08-.02-.02-.02-.03.05-.14h-.02c-.1.08-.07.04-.08,0,0-.05-.04-.09-.09-.03-.07,0-.14,0-.21,0-.12,0-.25,0-.37-.03-.24-.29-.48-.05-.72-.03-.24-.03-.46.17-.69-.03-.22-.02-.44-.15-.65-.04-.21.04-.41-.43-.61-.04-.2.07-.39-.3-.57-.04-.18.24-.36-.03-.53-.04-.17-.02-.33-.03-.49-.04-1.4-.13-2.2-.28-2.2-.43,0-.18.99-.34,2.69-.48.17-.01.35-.22.53-.04.18,0,.37-.16.57-.04.2-.27.4-.05.61-.04.21-.01.43.08.65-.03.22-.16.45.08.69-.03.23.17.47.12.72-.03.12.08.25.07.37.04l.09-.02h.05s.08-.03.08-.03c.11-.01.22-.03.33-.02.18.12.36.14.57.12.21-.02.47-.08.75-.14v.04c.06.19.05.45.03.7-.01.25-.03.49,0,.73,0,.06,0,.12-.01.19v.09s0,.05,0,.05c0,.07.01.14.02.21.02.14.03.28.01.42.12.28.16.57.02.86.08.29.02.59.02.89.1.3-.01.6.01.91.05.31-.27.62.01.93.04.31-.04.63,0,.95-.03.32-.07.63,0,.97-.14.3-.17.55-.14.85.02.29.09.63.14,1h0c-.27.04-.59.05-.91.04-.32,0-.64-.03-.95-.05-.34.03-.65.01-.97,0-.32.08-.64-.12-.95,0-.31.12-.62-.13-.93-.01-.31.08-.61.12-.91-.01-.3,0-.6-.25-.89-.02-.29.05-.58.37-.86-.02-.14.05-.28,0-.42-.04h-.05s-.09-.03-.09-.03c-.06,0-.12-.01-.18-.01-.12,0-.24.01-.38.05-.15-.11-.3-.13-.48-.13-.18,0-.38.05-.59.08-.02-.09-.03-.19-.03-.29.03-.26.06-.5.08-.73.01-.23,0-.43-.05-.65v-.04s-.02-.02-.02-.03c0-.02-.01-.03-.01-.05,0-.03,0-.06,0-.09,0-.06.01-.13.03-.19.03-.13.07-.25.05-.37-.16-.25.21-.48.03-.72.04-.23-.02-.46.03-.68-.38-.22,0-.44.04-.65.05-.21-.25-.41.04-.61-.29-.2-.04-.39.04-.57.08-.18-.12-.36.04-.53-.2-.17.11-.33.04-.49.13-.16,0-.3.04-.45-.04-.14-.03-.27.04-.4.02-.12.03-.24.05-.35.09-.65.19-1.01.3-1.01Z"/>
        <path d="M59.4,42.19c.1,0,.21.36.3,1.01.01.11.03.23.05.35.03.12.06.26.04.4-.14.14.26.29.04.45-.06.16,0,.32.04.49.05.17-.09.35.04.53.27.18-.3.38.04.57.07.2.05.4.04.61-.21.21,0,.43.04.65-.25.22-.14.45.03.69-.34.23-.29.47.03.72,0,.12-.02.25-.04.37,0,.06,0,.12,0,.19,0,.03.01.06.02.09,0,.01.01.03.02.05,0,0,0,.02.01.02h.01s.03.07.04.1c.01.03.01.05-.02.11.05-.03.09-.05.12-.07.12-.09.06-.05.05.1.04-.06.06-.1.07-.12,0-.01,0-.02.01-.02,0,0,0,0,0,0,.02,0,.04,0,.06,0,.14,0,.28.06.42.13.28.14.57-.22.86-.02.29.01.59-.06.89-.02.3.1.6.21.91-.01.31-.06.62-.14.93,0,.31-.26.63-.15.95,0,.32-.04.65.14.96,0,.03.02.05,0,.06-.03.01-.02,0-.03.08.03h0s.08,0,.09-.03c0-.03,0-.09-.09-.11-.17-.31.07-.64,0-.96.25-.32-.08-.64,0-.95-.02-.31.14-.62,0-.93-.04-.31-.09-.61.01-.91-.38-.3.1-.6.02-.89.16-.29-.02-.58.02-.86-.04-.14,0-.28.04-.42.02-.07.03-.14.03-.21,0-.02,0-.03,0-.05,0-.01,0-.01,0-.02,0,0-.02-.02-.04-.02.02-.04-.01-.06-.03-.08-.02-.02-.02-.03.05-.14h-.02c-.1.08-.08.04-.08,0,0-.05-.04-.09-.09-.03-.07,0-.14,0-.21,0-.12,0-.25,0-.37-.03-.25-.29-.48-.05-.72-.03-.23-.03-.46.17-.68-.03-.22-.02-.44-.15-.65-.04-.21.04-.41-.43-.61-.04-.2.07-.39-.3-.57-.04-.18.24-.36-.03-.53-.04-.17-.02-.33-.03-.49-.04-1.4-.13-2.2-.28-2.2-.43,0-.18.99-.34,2.69-.48.17-.01.35-.22.53-.04.18,0,.37-.16.57-.04.2-.27.4-.05.61-.04.21-.01.43.08.65-.03.22-.16.45.08.68-.03.23.17.47.12.72-.03.12.08.25.07.37.04l.09-.02h.05s.08-.03.08-.03c.11-.01.22-.03.33-.02.18.12.36.14.57.12.21-.02.47-.08.75-.14v.04c.06.19.05.45.04.7-.01.25-.03.49,0,.73,0,.06,0,.12-.01.19v.09s0,.05,0,.05c0,.07.01.14.02.21.02.14.03.28.01.42.12.28.16.57.02.86.08.29.02.59.02.89.1.3-.01.6.01.91.05.31-.27.62.01.93.04.31-.04.63,0,.95-.04.32-.07.63,0,.97-.14.3-.16.55-.14.85.02.29.09.63.14,1h0c-.27.04-.59.05-.91.04-.32,0-.64-.03-.94-.05-.34.03-.65.01-.98,0-.32.08-.63-.12-.95,0-.31.12-.62-.13-.93-.01-.31.08-.61.12-.91-.01-.3,0-.6-.25-.89-.02-.29.05-.58.37-.86-.02-.14.05-.28,0-.42-.04h-.05s-.09-.03-.09-.03c-.06,0-.12-.01-.18-.01-.12,0-.24.01-.38.05-.15-.11-.3-.13-.48-.13-.18,0-.39.05-.6.08-.02-.09-.03-.19-.03-.29.03-.26.07-.5.08-.73.01-.23,0-.43-.05-.65v-.04s-.02-.02-.02-.02c0-.02,0-.03-.01-.05,0-.03,0-.06,0-.09,0-.06.01-.13.03-.19.03-.13.07-.25.05-.37-.16-.25.21-.49.03-.72.04-.23-.02-.46.03-.69-.38-.22,0-.44.04-.65.05-.21-.25-.41.04-.61-.29-.2-.04-.39.04-.57.08-.18-.12-.36.04-.53-.2-.17.11-.33.04-.49.13-.16,0-.3.04-.45-.04-.14-.03-.27.05-.4.02-.12.03-.24.05-.35.09-.65.2-1.01.3-1.01Z"/>
        <path d="M76.55,42.19c.11,0,.21.36.3,1.01.01.11.03.23.05.35.03.12.06.26.04.4-.14.14.26.29.04.45-.06.16,0,.32.04.49.05.17-.09.35.04.53.27.18-.3.38.04.57.07.2.05.4.04.61-.21.21,0,.43.03.65-.25.22-.14.45.03.68-.34.23-.29.47.03.72,0,.12-.03.25-.04.37,0,.06,0,.12,0,.19,0,.03.01.06.02.09,0,.02.01.03.02.05,0,.02.02.03.03.03.01.04.03.07.04.09.01.03.01.05-.02.11.05-.03.09-.05.12-.07.12-.09.06-.05.05.1.04-.06.06-.1.07-.12,0-.01,0-.02.01-.02,0,0,0,0,0,0,.02,0,.04,0,.06,0,.14,0,.28.06.42.13.28.14.57-.22.86-.02.29.01.59-.06.89-.02.3.1.6.21.91-.01.31-.06.62-.14.93,0,.31-.26.63-.15.95,0,.32-.04.65.14.96,0,.03.02.05,0,.06-.03.01-.02,0-.03.08.03h0s.08,0,.09-.03c.01-.03,0-.09-.09-.11-.17-.31.07-.64,0-.96.24-.32-.08-.64,0-.95-.02-.31.14-.62,0-.93-.04-.31-.09-.61.01-.91-.38-.3.1-.59.02-.89.16-.29-.02-.58.02-.86-.04-.14,0-.28.04-.42.02-.07.03-.14.03-.21,0-.02,0-.03,0-.05,0-.01,0-.01,0-.02,0,0-.02-.02-.04-.02.02-.04-.01-.06-.03-.08-.02-.02-.02-.03.06-.14h-.02c-.1.08-.08.04-.08,0,0-.05-.04-.09-.09-.03-.07,0-.14,0-.21,0-.12,0-.25,0-.37-.03-.25-.29-.49-.05-.72-.03-.23-.03-.46.17-.68-.03-.22-.02-.44-.15-.65-.04-.21.04-.41-.43-.61-.04-.2.07-.39-.3-.57-.04-.18.24-.36-.03-.53-.04-.17-.02-.33-.03-.49-.04-1.4-.13-2.2-.28-2.2-.43,0-.18.99-.34,2.69-.48.17-.01.35-.22.53-.04.18,0,.37-.16.57-.04.2-.27.4-.05.61-.04.21-.01.43.08.65-.03.22-.16.45.08.68-.03.23.17.47.12.72-.03.12.08.25.07.37.04l.09-.02h.05s.08-.03.08-.03c.11-.01.22-.03.33-.02.18.12.36.14.57.12.21-.02.47-.09.75-.14v.04c.06.19.05.45.04.7-.01.25-.03.49,0,.73,0,.06,0,.12-.01.19v.09s0,.05,0,.05c0,.07.01.14.02.21.02.14.03.28.01.42.12.28.16.57.02.86.08.29.02.59.02.89.1.3-.01.6.01.91.05.31-.27.62.01.93.04.31-.04.63,0,.95-.04.32-.07.63,0,.97-.14.3-.16.55-.14.85.02.29.09.63.14,1h0c-.27.04-.59.05-.91.04-.32,0-.64-.03-.94-.05-.34.03-.65.01-.97,0-.32.08-.64-.12-.95,0-.31.12-.62-.13-.93-.01-.31.08-.61.12-.91-.01-.3,0-.6-.25-.89-.02-.29.05-.58.37-.86-.02-.14.05-.28,0-.42-.04h-.05s-.09-.03-.09-.03c-.06,0-.12-.01-.18-.01-.12,0-.24.01-.38.05-.15-.11-.3-.13-.48-.13-.18,0-.39.05-.6.08-.02-.09-.03-.19-.03-.29.03-.26.06-.5.08-.73.02-.23,0-.43-.05-.65v-.04s-.02-.02-.02-.03c0-.01-.01-.03-.01-.05,0-.03,0-.06-.01-.09,0-.06.01-.13.03-.19.03-.13.07-.25.05-.37-.16-.25.21-.49.03-.72.04-.23-.02-.46.03-.68-.38-.22,0-.44.03-.65.06-.21-.25-.41.04-.61-.29-.2-.04-.39.04-.57.08-.18-.12-.36.04-.53-.2-.17.11-.33.04-.49.13-.16,0-.3.04-.45-.04-.14-.03-.27.04-.4.02-.12.03-.24.04-.35.09-.65.2-1.01.3-1.01Z"/>
        <path d="M25.11,59.36c.1,0,.21.36.3,1.01.01.11.03.23.05.35.03.12.06.26.04.4-.14.14.26.29.04.44-.06.16,0,.32.04.49.05.17-.09.35.04.53.27.18-.3.38.04.57.07.2.05.4.04.61-.21.21,0,.43.03.65-.25.22-.14.45.03.68-.34.24-.29.47.03.72,0,.12-.02.25-.04.37,0,.06,0,.13,0,.19,0,.03.01.06.02.09,0,.02.01.03.02.05,0,0,0,.02.01.02h.01s.03.07.04.1c.01.03.01.05-.02.11.05-.03.09-.05.12-.07.12-.09.06-.05.05.1.04-.06.06-.1.07-.13,0-.01,0-.02.01-.02,0,0,0,0,0,0,.02,0,.03,0,.05,0,.14,0,.28.07.42.13.28.14.57-.22.87-.02.29.02.59-.06.89-.02.3.1.6.21.91-.01.31-.06.62-.14.93-.01.32-.26.63-.14.95,0,.32-.04.65.14.96,0,.03.02.05,0,.06-.03.01-.02,0-.03.08.03h0s.08,0,.09-.03c0-.03,0-.09-.09-.12-.17-.31.07-.64,0-.96.25-.32-.08-.64,0-.95-.02-.31.14-.62,0-.93-.04-.31-.09-.61.01-.91-.38-.3.1-.6.02-.89.16-.29-.02-.58.02-.86-.04-.14,0-.28.04-.42.02-.07.03-.14.03-.21,0-.02,0-.03,0-.05,0-.01,0-.01,0-.02,0,0-.02-.02-.04-.02.02-.04-.02-.06-.03-.08-.02-.02-.02-.03.06-.14h-.02c-.1.08-.07.04-.08,0,0-.04-.04-.09-.09-.03h-.21c-.12,0-.25,0-.37-.03-.25-.29-.48-.05-.72-.03-.23-.03-.46.17-.68-.03-.22-.02-.44-.15-.65-.04-.21.04-.41-.43-.61-.04-.2.07-.39-.3-.57-.04-.19.24-.36-.03-.53-.04-.17-.01-.33-.03-.49-.04-1.4-.13-2.2-.28-2.2-.43,0-.18.99-.34,2.69-.48.17-.01.35-.22.53-.04.18,0,.37-.16.57-.04.2-.27.4-.05.61-.04.21-.01.43.08.65-.04.22-.16.45.08.68-.03.24.17.47.12.72-.03.12.08.25.07.37.05l.09-.02h.05s.08-.02.08-.02c.11-.02.22-.03.33-.03.18.12.35.14.57.12.21-.02.47-.09.75-.14v.04c.06.19.05.45.04.7-.01.25-.03.49,0,.73,0,.06,0,.12-.01.18v.14c0,.07.01.14.02.21.02.14.04.28.01.42.12.28.16.57.02.86.08.29.02.59.02.89.1.3-.01.6.01.91.05.31-.27.62.01.93.04.31-.04.63,0,.95-.03.32-.07.64,0,.97-.14.3-.16.55-.14.85.02.29.09.63.14,1h0c-.27.04-.59.05-.91.04-.32,0-.64-.03-.94-.05-.34.03-.65.01-.97,0-.32.08-.64-.12-.95,0-.31.12-.62-.12-.93,0-.31.08-.61.12-.91-.01-.3,0-.6-.25-.89-.02-.29.05-.58.36-.87-.02-.14.05-.28,0-.42-.04h-.05s-.09-.02-.09-.02c-.06,0-.12-.01-.18-.01-.12,0-.24.01-.38.05-.15-.11-.3-.14-.48-.13-.18,0-.39.05-.59.08-.02-.09-.03-.19-.03-.3.03-.26.06-.5.08-.73.02-.23,0-.43-.05-.65v-.04s-.02-.03-.02-.03c0-.02-.01-.03-.01-.05,0-.03-.01-.06-.01-.09,0-.06.01-.13.03-.19.03-.13.07-.25.05-.37-.16-.25.21-.48.03-.72.04-.23-.02-.46.03-.68-.38-.22,0-.44.04-.65.06-.21-.25-.41.04-.61-.29-.2-.04-.39.04-.57.08-.18-.12-.36.04-.53-.2-.17.11-.33.04-.49.13-.16,0-.3.04-.44-.05-.14-.03-.27.04-.4.02-.12.03-.24.05-.35.09-.65.19-1.01.3-1.01Z"/>
        <path d="M42.26,59.36c.11,0,.21.36.3,1.01.01.11.03.23.05.35.03.12.06.26.04.4-.14.14.26.29.04.44-.06.16,0,.32.04.49.05.17-.09.35.04.53.27.18-.3.38.04.57.07.2.05.4.04.61-.21.21,0,.43.03.65-.25.22-.14.45.03.68-.34.23-.29.47.03.72,0,.12-.03.25-.04.37,0,.06,0,.13,0,.19,0,.03.01.06.02.1,0,.02.01.03.02.05,0,0,0,.02.01.02h.01s.03.07.04.1c.01.03.01.05-.02.11.05-.03.09-.05.12-.07.12-.09.06-.05.05.1.04-.06.06-.1.07-.13,0-.01,0-.02.01-.02,0,0,0,0,0,0,.02,0,.04,0,.05,0,.14,0,.28.07.42.13.28.14.57-.22.86-.02.29.02.59-.06.89-.02.3.1.6.21.91-.01.31-.06.62-.14.93-.01.31-.26.63-.14.95,0,.32-.04.65.14.96,0,.03.02.05,0,.06-.03.01-.02,0-.03.08.03h0s.08,0,.09-.03c0-.03-.01-.09-.09-.12-.17-.31.07-.64,0-.96.25-.32-.08-.64,0-.95-.02-.31.14-.62.01-.93-.05-.31-.09-.61.01-.91-.38-.3.1-.6.02-.89.16-.29-.02-.58.02-.87-.04-.14,0-.28.04-.42.02-.07.03-.14.03-.21,0-.02,0-.04,0-.05,0-.02,0-.01,0-.02,0,0-.02-.02-.04-.02.02-.04-.01-.06-.03-.08-.02-.02-.02-.03.05-.14h-.02c-.1.08-.07.04-.08,0,0-.04-.04-.09-.09-.03h-.21c-.12,0-.25,0-.37-.03-.25-.29-.48-.05-.72-.03-.23-.03-.46.17-.69-.03-.22-.02-.44-.15-.65-.04-.21.04-.41-.43-.61-.04-.2.07-.39-.3-.57-.04-.18.24-.36-.03-.53-.04-.17-.01-.33-.03-.49-.04-1.4-.13-2.2-.28-2.2-.43,0-.18.99-.34,2.69-.48.17-.01.35-.22.53-.04.18,0,.37-.16.57-.04.2-.27.4-.05.61-.04.21-.01.43.08.65-.04.22-.16.45.08.69-.03.23.17.47.12.72-.03.12.08.25.07.37.05l.09-.02h.05s.08-.02.08-.02c.11-.02.22-.03.33-.03.18.12.35.14.57.12.21-.02.47-.09.75-.14v.04c.06.19.05.45.04.7-.01.25-.03.49,0,.73,0,.06,0,.12-.01.19v.09s0,.05,0,.05c0,.07.01.14.02.21.02.14.03.28.01.42.12.28.16.57.02.87.08.29.02.59.02.89.1.3-.01.6.01.91.05.31-.27.62.01.93.04.31-.04.63,0,.95-.03.32-.07.64,0,.97-.14.3-.17.55-.14.85.02.29.09.63.14,1h0c-.27.04-.59.05-.91.04-.32,0-.64-.03-.95-.05-.34.03-.65.01-.97,0-.32.08-.64-.12-.95,0-.31.12-.62-.12-.93,0-.31.08-.61.12-.91-.01-.3,0-.6-.25-.89-.02-.29.05-.58.36-.86-.02-.14.05-.28,0-.42-.04h-.05s-.09-.02-.09-.02c-.06,0-.12-.01-.18-.01-.12,0-.24.01-.38.05-.15-.11-.3-.14-.48-.13-.18,0-.38.05-.59.08-.02-.09-.03-.19-.03-.3.03-.26.06-.5.08-.73.01-.23,0-.43-.05-.65v-.04s-.02-.02-.02-.02c0-.02-.01-.03-.01-.05,0-.03,0-.06,0-.1,0-.06.01-.13.03-.19.03-.13.07-.25.05-.37-.16-.25.21-.49.03-.72.04-.23-.02-.46.03-.68-.38-.22,0-.44.04-.65.05-.21-.25-.41.04-.61-.29-.2-.04-.39.04-.57.08-.18-.12-.36.04-.53-.2-.17.11-.33.04-.49.13-.16,0-.3.04-.44-.04-.14-.03-.27.04-.4.02-.12.03-.24.05-.35.09-.65.19-1.01.3-1.01Z"/>
        <path d="M59.4,59.36c.1,0,.21.36.3,1.01.01.11.03.23.05.35.03.12.06.26.04.4-.14.14.26.29.04.44-.06.16,0,.32.04.49.05.17-.09.35.04.53.27.18-.3.38.04.57.07.2.05.4.04.61-.21.21,0,.43.04.65-.25.22-.14.45.03.68-.34.23-.29.47.03.72,0,.12-.02.25-.04.37,0,.06,0,.13,0,.19,0,.03.01.06.02.09,0,.02.01.03.02.05v.02s.03,0,.03,0c.01.04.03.07.04.09.01.03.01.05-.02.11.05-.03.09-.05.12-.07.12-.09.06-.05.05.1.04-.06.06-.1.07-.13,0-.01,0-.02.01-.02,0,0,0,0,0,0,.02,0,.04,0,.06,0,.14,0,.28.07.42.13.28.14.57-.22.87-.02.29.02.59-.06.89-.02.3.1.6.21.91-.01.31-.06.62-.14.93-.01.31-.26.63-.14.95,0,.32-.04.65.14.96,0,.03.02.05,0,.06-.03.01-.02,0-.03.08.03h0s.08,0,.09-.03c0-.03,0-.09-.09-.12-.17-.31.07-.64,0-.96.25-.32-.08-.64,0-.95-.02-.31.14-.62,0-.93-.04-.31-.09-.61.01-.91-.38-.3.1-.6.02-.89.16-.29-.02-.58.02-.87-.04-.14,0-.28.04-.42.02-.07.03-.14.03-.21,0-.02,0-.04,0-.05,0-.02,0-.01,0-.02,0,0-.02-.02-.04-.02.02-.04-.01-.06-.03-.08-.02-.02-.02-.03.05-.14h-.02c-.1.08-.07.04-.08,0,0-.04-.04-.09-.09-.03h-.21c-.13,0-.25,0-.37-.03-.25-.29-.49-.05-.72-.03-.23-.03-.46.17-.68-.03-.22-.02-.44-.15-.65-.04-.21.04-.41-.43-.61-.04-.2.07-.39-.3-.57-.04-.18.24-.36-.03-.53-.04-.17-.01-.33-.03-.49-.04-1.4-.13-2.2-.28-2.2-.43,0-.18.99-.34,2.69-.48.17-.01.35-.22.53-.04.18,0,.37-.16.57-.04.2-.27.4-.05.61-.04.21-.01.43.08.65-.04.22-.16.45.08.68-.03.23.17.47.12.72-.03.12.08.25.07.37.05l.09-.02h.05s.08-.02.08-.02c.11-.02.22-.03.33-.03.18.12.35.14.57.12.21-.02.47-.09.75-.14v.04c.06.19.05.45.04.7-.01.25-.03.49,0,.73,0,.06,0,.12-.01.19v.09s0,.05,0,.05c0,.07.01.14.02.21.02.14.03.28.01.42.12.28.16.57.02.87.08.29.02.59.02.89.1.3-.01.6.01.91.05.31-.27.62.01.93.04.31-.04.63,0,.95-.04.32-.07.64,0,.97-.14.3-.16.55-.14.85.02.29.09.63.14,1h0c-.27.04-.59.05-.91.04-.32,0-.64-.03-.94-.05-.34.03-.65.01-.97,0-.32.08-.64-.12-.95,0-.31.12-.62-.12-.93,0-.31.08-.61.12-.91-.01-.3,0-.6-.25-.89-.02-.29.05-.58.36-.87-.02-.14.05-.28,0-.42-.04h-.05s-.09-.02-.09-.02c-.06,0-.12-.01-.18-.01-.12,0-.24.01-.38.05-.15-.11-.3-.14-.48-.13-.18,0-.39.05-.59.08-.02-.09-.03-.19-.03-.3.03-.26.07-.5.08-.73.01-.23,0-.43-.05-.65v-.04s-.02-.02-.02-.02c0-.02,0-.03-.01-.05,0-.03,0-.06,0-.09,0-.06.01-.13.03-.19.03-.13.07-.25.05-.37-.16-.25.21-.49.03-.72.04-.23-.02-.46.03-.68-.38-.22,0-.44.04-.65.05-.21-.25-.41.04-.61-.29-.2-.04-.39.04-.57.08-.18-.12-.36.04-.53-.2-.17.11-.33.04-.49.13-.16,0-.3.04-.44-.04-.14-.03-.27.05-.4.02-.12.03-.24.05-.35.09-.65.2-1.01.3-1.01Z"/>
        <path d="M76.55,59.36c.11,0,.21.28.3.79.01.08.03.18.05.28.03.1.06.2.04.31-.14.11.26.23.04.35-.06.12,0,.25.04.38.05.13-.09.27.04.42.27.14-.3.3.04.45.07.16.05.31.04.48-.1.06-.1.09-.07.13.03.04.09.05.11.07-.12.1-.16.18-.14.21.02.03.09.02.18-.04-.09.1-.15.2-.19.27,0,.02-.02.03-.02.05,0,.01,0,.01,0,.02,0,0,.02,0,.03,0,.06-.02.2-.14.33-.33.03-.01.05.01.08.02.03,0,.08,0,.11-.09.01,0,.02-.02.03-.03,0,0,.03-.01.05-.02l.08-.02c.1-.03.21-.04.32-.03.18-.26.41-.29.66-.11.2-.27.45-.19.69-.08.24.12.46-.23.71-.05.24,0,.48-.08.73-.02.25.11.49.23.75,0,.25-.04.52-.1.77.06.14-.12.28-.15.41-.12.13.03.25.12.37.2.13,0,.26.05.39.09.05.01.03.02.04.02,0,0,0,0,0,0,.01,0,.02-.02.03-.05.02.03.04,0,.04-.02,0-.02,0-.03.07.04.05.04.08.05.09.03.01-.02,0-.08-.09-.13-.08-.06-.07-.05-.04-.06,0,0,.02,0,.02-.02,0-.03.02-.06.02-.09.01-.06.01-.13,0-.19.24-.25-.08-.5,0-.75-.02-.25.14-.49,0-.73-.04-.24-.09-.48.01-.72-.09-.02-.14,0-.15-.01-.01,0,.01,0,.04-.02.06-.03.16-.11.12-.11.07-.07.07-.11.06-.12-.05.02-.11.07-.12.04-.07.07-.03-.17-.18-.02-.22-.03-.43.12-.64-.02-.21.19-.41-.16-.62-.03-.2,0-.4.01-.59-.03-.19-.29-.38-.05-.56-.03-.18-.03-.36.17-.54-.03-.17-.02-.34-.15-.51-.04-.17.04-.33-.43-.48-.04-.16.07-.31-.3-.45-.04-.15.24-.28-.03-.42-.04-.13-.01-.26-.03-.38-.04-1.1-.13-1.73-.28-1.73-.43,0-.18.78-.34,2.12-.48.13-.01.27-.22.42-.04.14,0,.29-.16.45-.04.16-.27.32-.05.48-.04.17-.01.33.08.51-.04.18-.16.35.08.54-.03.18.17.37.12.56-.03.19.16.39-.03.59-.03.2.25.41.08.62-.03.21-.09.42.04.64-.02.01,0,.03,0,.04,0,.01,0,.04,0,.07,0,.05,0,.1,0,.15,0,.1,0,.2-.01.3-.02.2-.02.42-.03.61-.01.27-.07.55-.11.8-.11,0,.19-.03.41-.09.64.08.37.02.86.02,1.27.1.24-.01.47.01.72.05.24-.27.49.01.73.04.25-.04.5,0,.75l-.03.19v.09s-.01.17-.01.17c0,.23,0,.46.04.72-.14.17-.16.36-.14.6.01.12.03.25.06.4.01.07.03.15.04.22l.02.12v.03s0,0-.01,0h-.03c-.41,0-.95-.15-1.43-.29-.12-.02-.23-.04-.35-.06-.11-.02-.23-.04-.34-.06-.12-.02-.23-.05-.35-.07-.12.02-.24-.02-.35-.07-.11-.04-.23-.07-.35-.03-.24.1-.45-.17-.69-.07-.24.07-.46.11-.68-.03-.22-.01-.45-.25-.67-.01-.22.06-.41.37-.65,0-.2.12-.44-.15-.63.03-.24-.27-.41.03-.61.05-.1-.01-.21-.03-.31-.03-.02,0-.05,0-.07,0-.02,0-.04,0-.09.02-.09.02-.17.06-.26.1-.17.1-.36.12-.51.12-.16,0-.3,0-.47.05-.21.12-.35.1-.46.07-.03,0-.05-.01-.08-.02-.01,0-.04,0-.04-.01,0-.02,0-.05,0-.07,0-.08,0-.15-.05-.18.02-.17.01-.32,0-.46,0-.15,0-.3.02-.46-.19-.05-.19-.23-.14-.39.05-.16.15-.33.17-.43.06-.17-.25-.33.04-.48-.29-.16-.04-.31.04-.45.08-.14-.12-.28.04-.42-.2-.13.11-.26.04-.38.13-.12,0-.24.04-.35-.04-.11-.03-.22.04-.31.02-.1.03-.19.04-.28.09-.51.2-.79.3-.79Z"/>
        <path d="M25.11,76.53c.1,0,.21.36.3,1.01.01.11.03.23.05.35.03.13.06.26.04.4-.14.14.26.29.04.45-.06.16,0,.32.04.49.05.17-.09.35.04.53.27.18-.3.37.04.57.07.2.05.4.04.61-.21.21,0,.43.03.65-.25.22-.14.45.03.68-.34.23-.29.47.03.72,0,.12-.02.25-.04.37,0,.06,0,.13,0,.19,0,.03.01.06.02.09,0,.02.01.03.02.05v.02s.02,0,.02,0c.01.04.03.07.04.09.01.03.01.05-.02.11.05-.03.09-.05.12-.07.12-.09.05-.05.05.1.04-.06.06-.1.07-.12,0-.01,0-.02.01-.02,0,0,0,0,0,0,.02,0,.04,0,.05,0,.14,0,.28.06.42.13.28.14.57-.22.86-.02.29.01.59-.06.89-.02.3.1.6.21.91-.01.31-.06.62-.14.93,0,.31-.26.63-.15.95,0,.32-.04.65.14.96,0,.03.02.05,0,.06-.03.01-.02,0-.03.08.03h0s.08,0,.09-.03c0-.03,0-.09-.09-.11-.17-.31.07-.65,0-.96.25-.32-.08-.64,0-.95-.02-.31.14-.62,0-.93-.04-.31-.09-.61.01-.91-.38-.3.1-.6.02-.89.16-.29-.02-.58.02-.87-.04-.14,0-.28.04-.42.02-.07.03-.14.03-.21,0-.02,0-.04,0-.05,0-.02,0-.01,0-.02,0,0-.02-.02-.04-.02.02-.04-.02-.06-.03-.08-.02-.02-.02-.03.06-.14h-.02c-.1.08-.07.04-.08,0,0-.04-.04-.09-.09-.03h-.21c-.12,0-.25,0-.37-.03-.25-.29-.49-.05-.72-.03-.23-.03-.46.17-.68-.03-.22-.02-.44-.15-.65-.04-.21.04-.41-.43-.61-.04-.2.07-.39-.3-.57-.04-.18.24-.36-.03-.53-.04-.17-.01-.33-.03-.49-.04-1.4-.13-2.2-.28-2.2-.43,0-.18.99-.34,2.69-.48.17-.01.35-.22.53-.04.18,0,.37-.16.57-.04.2-.27.4-.05.61-.04.21-.01.43.08.65-.04.22-.16.45.08.68-.03.23.17.47.12.72-.03.12.08.25.07.37.04l.09-.02h.05s.08-.02.08-.02c.11-.02.22-.03.33-.03.18.12.35.14.57.12.21-.02.47-.09.75-.14v.04c.06.19.05.45.04.7-.01.25-.03.49,0,.73,0,.06,0,.12-.01.19v.14c0,.07.01.14.02.21.02.14.04.28.01.42.12.28.16.57.02.87.08.29.02.59.02.89.1.3-.01.6.01.91.05.31-.27.62.01.93.04.31-.04.63,0,.95-.03.32-.07.64,0,.97-.14.3-.16.55-.14.85.02.29.09.64.14,1h0c-.27.04-.59.05-.91.04-.32,0-.64-.03-.94-.05-.34.03-.65.01-.97,0-.32.08-.64-.12-.95,0-.31.12-.62-.13-.93,0-.31.08-.61.12-.91-.01-.3,0-.6-.25-.89-.02-.29.05-.58.37-.86-.02-.14.05-.28,0-.42-.04h-.05s-.09-.02-.09-.02c-.06,0-.12-.01-.18-.01-.12,0-.24.01-.38.05-.15-.11-.3-.14-.48-.13-.18,0-.39.05-.59.08-.02-.09-.03-.19-.03-.3.03-.26.06-.5.08-.73.02-.23,0-.43-.05-.65v-.04s-.02-.02-.02-.02c0-.02-.01-.03-.01-.05,0-.03-.01-.06-.01-.09,0-.06.01-.13.03-.19.03-.12.07-.25.05-.37-.16-.25.21-.49.03-.72.04-.23-.02-.46.03-.68-.38-.22,0-.44.04-.65.06-.21-.25-.41.04-.61-.29-.2-.04-.39.04-.57.08-.18-.12-.36.04-.53-.2-.17.11-.33.04-.49.13-.16,0-.3.04-.45-.05-.14-.03-.27.04-.4.02-.12.03-.24.05-.35.09-.65.19-1.01.3-1.01Z"/>
        <path d="M42.26,76.53c.11,0,.21.36.3,1.01.01.11.03.23.05.35.03.13.06.26.04.4-.14.14.26.29.04.45-.06.16,0,.32.04.49.05.17-.09.35.04.53.27.18-.3.37.04.57.07.2.05.4.04.61-.21.21,0,.43.03.65-.25.22-.14.45.03.68-.34.23-.29.47.03.72,0,.12-.03.25-.04.37,0,.06,0,.13,0,.19,0,.03.01.06.02.1,0,.02.01.03.02.05v.02s.02,0,.03,0c.01.04.03.07.04.09.01.03.01.05-.02.11.05-.03.09-.05.12-.07.12-.09.06-.05.05.1.04-.06.06-.1.07-.12,0-.01,0-.02.01-.02,0,0,0,0,0,0,.02,0,.04,0,.05,0,.14,0,.28.06.42.13.28.14.57-.22.87-.02.29.01.59-.06.89-.02.3.1.6.21.91-.01.31-.06.62-.14.93,0,.32-.26.63-.15.95,0,.32-.04.65.14.96,0,.03.02.05,0,.06-.03.01-.02,0-.03.08.03h0s.08,0,.09-.03c0-.03-.01-.09-.09-.11-.17-.31.07-.65,0-.96.25-.32-.08-.64,0-.95-.02-.31.14-.62.01-.93-.05-.31-.09-.61.01-.91-.38-.3.1-.6.02-.89.16-.29-.02-.58.02-.86-.04-.14,0-.28.04-.42.02-.07.03-.14.03-.21,0-.02,0-.03,0-.05,0-.02,0-.01,0-.02,0,0-.02-.02-.04-.02.02-.04-.01-.06-.03-.08-.02-.02-.02-.03.05-.14h-.02c-.1.08-.07.04-.08,0,0-.04-.04-.09-.09-.03h-.21c-.13,0-.25,0-.37-.03-.24-.29-.48-.05-.72-.03-.23-.03-.46.17-.68-.03-.22-.02-.44-.15-.65-.04-.21.04-.41-.43-.61-.04-.2.07-.39-.3-.57-.04-.18.24-.36-.03-.53-.04-.17-.01-.33-.03-.49-.04-1.4-.13-2.2-.28-2.2-.43,0-.18.99-.34,2.69-.48.17-.01.35-.22.53-.04.18,0,.37-.16.57-.04.2-.27.4-.05.61-.04.21-.01.43.08.65-.04.22-.16.45.08.68-.03.23.17.47.12.72-.03.12.08.25.07.37.04l.09-.02h.05s.08-.02.08-.02c.11-.02.22-.03.33-.03.18.12.35.14.57.12.21-.02.47-.08.75-.14v.04c.06.19.05.45.04.7-.01.25-.03.49,0,.73,0,.06,0,.12-.01.19v.08s0,.05,0,.05c0,.07.01.14.02.21.02.14.03.28.01.42.12.28.16.57.02.86.08.29.02.59.02.89.1.3-.01.6.01.91.05.31-.27.62.01.93.04.31-.04.63,0,.95-.03.32-.07.64,0,.97-.14.3-.17.55-.14.85.02.29.09.63.14,1h0c-.27.04-.59.05-.91.04-.32,0-.64-.03-.94-.05-.34.03-.65.01-.97,0-.32.08-.64-.12-.95,0-.31.12-.62-.13-.93,0-.31.08-.61.12-.91-.01-.3,0-.6-.25-.89-.02-.29.05-.58.37-.87-.02-.14.05-.28,0-.42-.04h-.05s-.09-.02-.09-.02c-.06,0-.12-.01-.18-.01-.12,0-.24.01-.38.05-.15-.11-.3-.14-.48-.13-.18,0-.38.05-.59.08-.02-.09-.03-.19-.03-.3.03-.26.06-.5.08-.73.01-.23,0-.43-.05-.65v-.04s-.02-.02-.02-.02c0-.02-.01-.03-.01-.05,0-.03,0-.06,0-.1,0-.06.01-.12.03-.19.03-.12.07-.25.05-.37-.16-.24.21-.48.03-.72.04-.23-.02-.46.03-.68-.38-.22,0-.44.04-.65.05-.21-.25-.41.04-.61-.29-.2-.04-.39.04-.57.08-.18-.12-.36.04-.53-.2-.17.11-.33.04-.49.13-.16,0-.3.04-.45-.04-.14-.03-.27.04-.4.02-.12.03-.24.05-.35.09-.65.19-1.01.3-1.01Z"/>
        <path d="M59.4,76.53c.1,0,.21.28.3.8.01.09.03.18.05.28.03.1.06.2.04.32-.14.11.26.23.04.35-.06.12,0,.25.04.39.05.14-.09.28.04.42.27.15-.3.3.04.45.07.16.05.32.04.48-.21.17,0,.34.04.52-.25.18-.14.36.03.54-.34.19-.29.38.03.57.01.19-.12.39.03.6.02.2.09.41.03.62.23.21.22.42.02.64.06.05.1.11.13.16,0,.01,0,.03.01.04h0s0,0,0,.01c0,0-.07.03-.13.09-.05.04-.03.06,0,.06.03,0,.08-.03.08-.02,0,0,0,.02-.03.06.02,0,.05,0,.08-.02.03-.01.05-.02.06,0,0,.01,0,.03.01.04,0,0,0,.01.01.02l.04.02c.06.02.12.04.18.04.12.01.24-.02.36-.13.24-.06.49-.14.74,0,.25-.26.5-.15.75,0,.06-.01.13,0,.19,0l.1.02s.02.01.02.02c.02.02.07.03.05-.04.03.02.04,0,.03-.03,0-.02,0-.02.07.02.04.02.08.02.09,0,0-.02-.03-.07-.11-.1-.05-.02-.06-.02-.07-.03h0s0,0,0,0c0,0,0-.03,0-.04,0-.14.03-.28-.02-.4.2-.3-.16-.51-.09-.78-.05-.26.09-.53-.06-.77-.05-.25-.11-.51,0-.76-.19-.12-.17-.25-.11-.37.06-.12.17-.25.13-.37.17-.24,0-.48.04-.72-.05-.24.22-.45.08-.69.03-.11,0-.23,0-.34,0-.11.01-.22.1-.32-.08-.12-.02-.22.04-.32.03-.05.06-.1.08-.15,0-.03.02-.05.02-.08,0-.03,0-.06-.02-.06,0-.01,0-.04.01-.07,0-.03.02-.06.05-.1.17-.1.2-.17.17-.19-.01-.01-.03-.01-.06-.01h-.03s-.01,0-.03,0c-.01-.02-.09.03-.14.05-.05.02-.06.02-.03-.08-.03-.01-.04-.05-.07-.07-.03-.02-.08-.02-.12.04-.02.01-.03,0-.05-.04-.04-.03-.08-.08-.12-.11-.08-.06-.16-.08-.24.11-.16.07-.31-.3-.45-.04-.15.24-.29-.03-.42-.04-.13-.01-.26-.03-.39-.04-1.11-.13-1.75-.28-1.75-.43,0-.18.79-.34,2.13-.48.14-.01.28-.22.42-.04.15,0,.3-.16.45-.04.08-.14.16-.15.24-.13.04.01.08.03.12.05.07.02.13.04.2.04.14,0,.27.01.4.02.13,0,.27,0,.45-.05.2-.08.35-.06.47-.03.13.03.24.06.46,0h.01s.01.02,0,.04c-.01.03-.03.05-.04.08-.03.05-.05.1-.07.14-.04.09-.06.16-.07.23-.02.14,0,.25.06.38-.12.2-.15.34-.15.5,0,.16,0,.32-.03.51-.04.05-.07.06-.09.08-.02.02-.04.04-.05.07-.03.05-.03.1-.03.15.01.1.06.21.1.32.03.11,0,.2-.02.3-.02.1-.05.2-.03.31-.07.2.03.42-.04.63.11.22.15.44,0,.65.04.11.04.22.03.33,0,.11-.02.22-.01.34.11.22,0,.45.03.68.07.22-.22.49.08.7.05.23.01.48.1.71,0,.12,0,.24.02.37,0,.02,0,.02,0,.05l.02.09c.01.06.03.12.04.19.03.12.07.23.11.35-.1.21-.08.4-.01.63.07.23.2.51.31.8l.02.05v.03s0,0,0,0h-.08c-.05.02-.11.02-.17.03-.12,0-.24,0-.37,0-.25,0-.52-.03-.77-.05-.24.01-.48.02-.72.02h-.17s-.1,0-.1,0h-.19c-.25.07-.51-.13-.75-.02-.25.12-.5-.13-.74,0-.12.04-.24.07-.36.07-.06,0-.12,0-.18-.02h-.04s-.05-.02-.08-.03c-.06-.01-.11-.03-.16-.04-.22,0-.42-.06-.61-.1-.19-.03-.37-.04-.68.08-.1.01-.22.04-.35.06-.05-.12-.1-.25-.11-.43,0-.17.04-.39.19-.62-.05-.18,0-.41.04-.61.01-.05.02-.1.03-.15v-.07s.01-.03.01-.04c0-.06-.01-.11-.05-.16.28-.22.01-.43.02-.64.06-.21.15-.42.03-.62-.13-.2.07-.4.03-.6-.16-.2.21-.39.03-.57.04-.19-.02-.37.03-.54-.38-.18,0-.35.04-.52.05-.17-.25-.33.04-.48-.29-.16-.04-.31.04-.45.08-.15-.12-.29.04-.42-.2-.13.11-.26.04-.39.13-.12,0-.24.04-.35-.04-.11-.03-.22.05-.32.02-.1.03-.19.05-.28.09-.52.2-.8.3-.8Z"/>
        <path d="M32.07,30.37c-.11,0-.21-.18-.3-.51-.02-.05-.03-.11-.05-.18-.03-.06-.06-.13-.04-.2.14-.07-.26-.15-.04-.22.06-.08,0-.16-.04-.25-.05-.09.09-.17-.04-.27-.27-.09.3-.19-.04-.29-.07-.1-.05-.2-.04-.31.21-.11,0-.22-.04-.33.25-.11.14-.23-.03-.35.34-.12.29-.24-.03-.36-.01-.12.12-.25-.03-.38-.02-.13-.09-.26-.03-.39-.23-.13-.22-.27-.02-.41-.25-.14-.15-.28-.02-.42.14-.14-.22-.29-.02-.44.01-.15-.06-.3-.02-.45.1-.15.21-.3-.01-.46-.06-.16-.14-.31,0-.47-.26-.16-.15-.32,0-.48-.04-.16.14-.32,0-.49.04-.16-.11-.33,0-.5.08-.17.16-.33,0-.5-.17-.17.07-.33,0-.49.25-.16-.08-.32,0-.48-.02-.16.14-.31,0-.47-.04-.15-.09-.31.01-.46-.38-.15.1-.3.02-.45.16-.15-.02-.29.02-.44-.07-.14.17-.28.02-.42.03-.14-.12-.28.02-.41-.19-.13.16-.26.03-.39,0-.13-.01-.26.03-.38.29-.12.05-.25.03-.36.03-.12-.17-.23.03-.34.02-.11.15-.22.04-.33-.04-.11.43-.21.04-.31-.07-.1.3-.2.04-.29-.24-.09.03-.18.04-.27.01-.09.03-.17.04-.25.13-.71.28-1.11.43-1.11.18,0,.34.5.48,1.36.01.09.22.18.04.27,0,.09.16.19.04.29.27.1.05.2.04.31.01.11-.08.21.03.33.16.11-.08.23.03.34-.17.12-.12.24.03.36-.16.12.04.25.03.38-.25.13-.08.26.03.39.09.13-.04.27.02.41-.05.14.06.28.02.42.12.14.16.29.02.44.08.15.02.3.02.45.1.15-.01.31.01.46.05.16-.27.31.01.47.04.16-.04.32,0,.48-.04.16-.07.32,0,.49-.27.16-.1.33,0,.5.08.17.04.33,0,.5.03.16.01.33,0,.49.08.16-.12.32,0,.48.12.16-.13.31-.01.47.08.16.12.31-.01.46,0,.15-.25.3-.02.45.05.15.36.29-.02.44.1.14-.19.29-.02.42-.28.14-.01.27-.02.41-.06.13-.15.27-.03.39.13.13-.07.26-.03.38.16.12-.21.25-.03.36-.04.12.02.23-.03.35.38.11,0,.22-.03.33-.05.11.25.21-.04.31.29.1.04.2-.04.29-.08.09.12.18-.04.27.2.09-.11.17-.04.25-.13.08,0,.15-.04.22.04.07.03.14-.05.2-.01.06-.03.12-.05.18-.09.33-.2.51-.3.51Z"/>
        <path d="M77.61,30.37c-.11,0-.21-.18-.3-.51-.02-.05-.03-.11-.05-.18-.03-.06-.06-.13-.04-.2.14-.07-.26-.15-.04-.22.06-.08,0-.16-.04-.25-.05-.09.09-.17-.04-.27-.27-.09.3-.19-.04-.29-.07-.1-.05-.2-.04-.31.21-.11,0-.22-.04-.33.25-.11.14-.23-.03-.35.34-.12.29-.24-.03-.36-.01-.12.12-.25-.03-.38-.02-.13-.09-.26-.03-.39-.23-.13-.22-.27-.02-.41-.25-.14-.15-.28-.02-.42.14-.14-.22-.29-.02-.44.01-.15-.06-.3-.02-.45.1-.15.21-.3-.01-.46-.06-.16-.14-.31,0-.47-.26-.16-.15-.32,0-.48-.04-.16.14-.32,0-.49.04-.16-.12-.33,0-.5.08-.17.15-.33,0-.5-.17-.17.07-.33,0-.49.25-.16-.08-.32,0-.48-.02-.16.14-.31,0-.47-.04-.15-.09-.31.01-.46-.38-.15.1-.3.02-.45.16-.15-.02-.29.02-.44-.07-.14.17-.28.02-.42.03-.14-.12-.28.02-.41-.19-.13.16-.26.03-.39,0-.13-.01-.26.03-.38.29-.12.05-.25.03-.36.03-.12-.17-.23.03-.34.02-.11.15-.22.04-.33-.04-.11.43-.21.04-.31-.07-.1.3-.2.04-.29-.24-.09.03-.18.04-.27.01-.09.03-.17.04-.25.13-.71.28-1.11.44-1.11.17,0,.34.5.48,1.36.01.09.22.18.04.27,0,.09.16.19.04.29.27.1.05.2.04.31.01.11-.07.21.04.33.16.11-.08.23.03.34-.17.12-.12.24.03.36-.16.12.04.25.03.38-.25.13-.08.26.03.39.09.13-.04.27.02.41-.05.14.06.28.02.42.12.14.16.29.02.44.08.15.02.3.02.45.1.15-.01.31.01.46.05.16-.27.31.01.47.04.16-.04.32,0,.48-.04.16-.07.32,0,.49-.28.16-.11.33,0,.5.08.17.04.33,0,.5.03.16.01.33,0,.49.08.16-.12.32,0,.48.12.16-.13.31-.01.47.08.16.12.31-.01.46,0,.15-.25.3-.02.45.05.15.37.29-.02.44.1.14-.18.29-.02.42-.28.14-.01.27-.02.41-.05.13-.15.27-.03.39.13.13-.07.26-.03.38.16.12-.21.25-.03.36-.04.12.03.23-.03.35.38.11,0,.22-.04.33-.05.11.25.21-.04.31.29.1.04.2-.04.29-.08.09.12.18-.04.27.2.09-.11.17-.04.25-.13.08,0,.15-.04.22.04.07.03.14-.04.2-.02.06-.03.12-.05.18-.09.33-.19.51-.3.51Z"/>
        <path d="M80.54,63.57c0,.13-1.19.13-3.27.62-.17.04-.35.09-.53.14-.18.05-.37.1-.57.17-.19.07-.39.14-.59.21-.2.08-.41.15-.63.22-.24,0-.43.16-.64.3-.21.13-.41.28-.68.29-.24.07-.48.19-.7.32-.11.07-.23.13-.34.21-.11.08-.22.15-.34.23-.23.15-.47.29-.72.43-.25.14-.49.31-.69.54-.16.28-.43.41-.72.54-.28.14-.55.31-.68.64-.41.49-.89.93-1.34,1.43-.61.37-.86,1.07-1.23,1.67-.6.46-.89,1.17-1.06,1.91-.63.52-.9,1.29-.83,2.13-.22.74-.56,1.49-.54,2.33-.11.81-.13,1.63-.2,2.47.22.85.25,1.67.19,2.56.37.82.46,1.68.61,2.58.04.22.11.44.19.65.09.21.2.41.3.61.1.2.22.4.32.61.09.21.19.42.25.65.41.83.97,1.59,1.51,2.37.49.82,1.07,1.63,1.94,2.12.76.62,1.57,1.14,2.33,1.78.97.31,1.78.85,2.67,1.36.94.33,1.88.8,2.92.85,1,.24,2.04.18,3.08.29,1.04.08,2.1.05,3.08-.29.49-.18.98-.28,1.48-.4.25-.05.49-.12.74-.19.25-.07.48-.16.71-.27.13-.02.26-.04.38-.08.12-.04.24-.08.35-.13.12-.05.23-.1.34-.16.11-.06.22-.13.32-.19l.32-.2.31-.21c.1-.07.21-.13.32-.2.11-.06.21-.13.32-.19.82-.55,1.71-1.02,2.33-1.78.68-.69,1.29-1.43,1.94-2.12.13-.49.41-.85.71-1.22.16-.18.3-.36.44-.55.07-.09.14-.19.2-.29.06-.1.11-.21.15-.31.57-.75.75-1.68,1.06-2.52.09-.44.26-.85.39-1.28.03-.11.06-.21.1-.32.03-.11.05-.21.07-.32.04-.22.07-.43.06-.66.04-.21.06-.43.08-.65,0-.22.01-.43.02-.65.01-.21,0-.43.02-.64.01-.21.04-.42.06-.63-.05-.21-.07-.42-.07-.63-.01-.21,0-.42,0-.62.01-.21,0-.42,0-.62-.02-.21-.04-.41-.12-.6-.12-.8-.34-1.57-.54-2.33,0-.21-.02-.41-.06-.6-.05-.19-.13-.37-.21-.54-.08-.18-.18-.34-.28-.5-.1-.16-.19-.33-.28-.49-.16-.34-.36-.65-.56-.95-.19-.31-.39-.6-.5-.96-.38-.6-.69-1.24-1.23-1.67-.23-.24-.38-.55-.57-.84-.18-.29-.42-.52-.77-.59-.26-.18-.44-.45-.65-.68-.21-.23-.43-.45-.75-.51-.31-.07-.54-.25-.76-.43-.11-.09-.21-.19-.32-.29-.1-.1-.22-.18-.33-.25-.12-.07-.23-.14-.35-.21-.12-.07-.23-.13-.35-.19-.23-.13-.46-.25-.68-.36-1.02-.5-1.97-.85-2.82-1.1-.21-.06-.42-.11-.62-.17-.2-.05-.39-.09-.57-.13-.37-.09-.71-.14-1.01-.2-.61-.1-1.08-.17-1.4-.21-.32-.05-.49-.09-.49-.13,0-.04.21-.08.61-.11.2-.02.45-.02.74-.02.15,0,.31,0,.48.01.17.01.35.02.55.04.77.07,1.72.2,2.81.5,1.08.3,2.3.76,3.58,1.46.13.07.26.13.4.19.14.06.27.13.41.2.28.13.53.31.74.57.26.18.53.36.8.54.27.19.53.4.74.67.68.27,1.03.92,1.49,1.48.49.53.86,1.18,1.38,1.75.27.28.47.62.64.97.18.35.33.72.56,1.05.19.8.55,1.53.95,2.29.03.21.07.42.12.63.05.21.12.41.18.62.06.21.13.42.19.62.06.21.11.43.14.64-.11.91.16,1.77.27,2.69.1.92-.07,1.86-.15,2.8-.18.93-.29,1.91-.62,2.84-.18.98-.54,1.94-1.13,2.78-.39.94-1,1.79-1.63,2.62-.55.9-1.35,1.61-2.12,2.35-.38.38-.83.68-1.28.98-.22.16-.45.29-.66.46-.21.17-.42.34-.62.55-.91.62-1.93,1.05-2.94,1.51-1.05.38-2.13.66-3.23.95-1.16-.06-2.25.22-3.4.33-1.15.08-2.3-.07-3.41-.33-1.12-.19-2.2-.52-3.23-.95-1.07-.34-1.97-1.02-2.94-1.51-.25-.12-.48-.26-.7-.43-.22-.16-.43-.33-.63-.51-.41-.35-.8-.73-1.23-1.04-.84-.66-1.6-1.44-2.12-2.35-.31-.42-.56-.88-.8-1.33-.13-.22-.24-.45-.38-.66-.07-.11-.14-.21-.21-.32-.07-.11-.15-.21-.23-.31-.13-.22-.27-.43-.4-.65-.13-.22-.27-.43-.38-.66-.11-.23-.21-.46-.27-.7-.06-.25-.09-.5-.08-.76-.19-.46-.28-.94-.34-1.43-.02-.12-.04-.24-.06-.36-.02-.12-.03-.24-.05-.36-.04-.24-.1-.47-.17-.7.04-.25.04-.49.03-.72,0-.23-.03-.47-.06-.7-.04-.23-.06-.46-.09-.69-.03-.23-.05-.46-.04-.69.06-.92.25-1.8.27-2.69,0-.22.03-.44.07-.66.05-.21.11-.42.17-.63.06-.21.14-.41.21-.61.07-.2.13-.41.19-.61.03-.21.09-.42.17-.61.08-.19.19-.38.28-.56.1-.18.2-.36.29-.55.09-.18.16-.37.21-.57.39-.71.73-1.42,1.2-2.03.02-.21.1-.39.2-.56.1-.16.21-.31.35-.44.27-.26.58-.49.83-.75.5-.51.79-1.22,1.49-1.48.16-.33.41-.56.68-.74.28-.17.58-.32.86-.46.28-.15.51-.36.76-.53.24-.18.49-.35.78-.42.1-.12.22-.2.34-.27.12-.07.26-.12.39-.16.27-.09.53-.16.76-.29.53-.1.95-.4,1.41-.53.22-.1.44-.18.65-.24.22-.06.44-.09.65-.12.21-.05.41-.09.6-.12.19-.04.38-.08.56-.1,2.19-.32,3.39-.11,3.39-.03Z"/>
        <path d="M80.54,73.04s.05-.06.15-.09c.05-.01.11-.03.18-.05.07-.02.15-.05.24-.08.37-.12.87-.37,1.51-.78.21-.14.44-.29.69-.44.24-.17.51-.35.83-.49.19,0,.32-.15.48-.26.15-.12.34-.22.56-.17.1-.01.21-.02.31-.04.05,0,.1-.02.16-.03.05,0,.11-.01.16-.02.21-.03.45-.05.69-.03.12,0,.24.03.35.08.06.02.11.04.17.06l.16.08c.22.11.43.25.67.35.14.03.25.11.34.2.08.1.15.22.2.35.11.25.19.48.46.64.31.45.45,1,.49,1.56-.04.15-.06.29-.06.42-.01.13-.01.26,0,.4,0,.13.03.27.04.4,0,.07.02.14.02.21,0,.07,0,.14,0,.21-.08.13-.14.26-.18.4-.04.13-.06.27-.09.41-.02.14-.03.28-.03.43,0,.15,0,.3,0,.45-.5.47-.65.99-.67,1.69-.08.14-.16.27-.24.4-.09.13-.2.25-.29.38-.1.12-.18.26-.29.39-.05.06-.1.13-.14.2l-.02.03s0,0,0,.01v.02s0,.03,0,.04c-.04.03-.01.08,0,.12v.02s0,.06,0,.06v.11s0,.23,0,.23c0,.31-.01.62-.06.94.2.64.15,1.29-.1,1.93.19.68.02,1.34-.2,2-.12.33-.11.68-.13,1.03,0,.18-.02.35-.05.53-.02.09-.04.17-.07.26-.02.05-.04.1-.05.15-.02.07-.05.14-.08.21-.15.59-.33,1.19-.55,1.69l-.08.19-.09.16-.09.16-.1.14c-.13.19-.27.31-.41.42-.15.08-.29.14-.45.19-.16.04-.35.08-.57.04-.05,0-.11-.01-.16-.03-.05-.02-.1-.04-.15-.06-.09-.04-.15-.09-.2-.13-.1-.08-.17-.13-.28-.16-.08-.09-.17-.21-.25-.39l-.05-.17s-.02-.05-.03-.09v-.11s-.05-.23-.05-.23v-.27c0-.37,0-.74,0-1.11,0-.18-.01-.36-.01-.53,0-.05,0-.08,0-.14,0-.03,0-.05,0-.07v-.13c-.34-.63-.38-1.29-.47-2.01-.13-.33-.22-.67-.34-1.01-.06-.17-.13-.34-.21-.5-.04-.08-.08-.16-.13-.24l-.04-.06s-.03-.04-.03-.04c0,0-.02,0-.03-.01,0-.03-.02-.06-.04-.07-.07.02-.14.04-.21.06-.03,0-.06.02-.1.03-.11,0-.21.01-.32.02-.21,0-.42,0-.63-.01-.21-.03-.42-.06-.63-.08l-.31-.04-.12-.03c-.08-.02-.16-.03-.23-.02-.02.04-.02.11,0,.15v.03s.02,0,.01.01v.03s-.03.07-.03.07c-.03.08-.07.17-.1.25-.07.17-.16.32-.24.48-.17.32-.33.64-.42.98-.23.29-.31.64-.35.99-.04.35-.04.69-.13,1.02v.13s-.02.06-.02.06v.14c-.03.17-.05.34-.06.51,0,.17-.02.33-.03.51v.51s-.02.25-.02.25l-.03.22c-.01.16-.05.25-.07.38-.06.21-.12.38-.16.54-.07.13-.12.22-.22.32-.05.05-.11.1-.21.14-.05.02-.1.04-.15.06-.05.02-.11.02-.17.03-.11.02-.22.02-.32,0-.1-.01-.19-.04-.28-.08-.17-.07-.32-.18-.46-.33-.15,0-.31-.06-.45-.24-.04-.04-.07-.09-.11-.13-.03-.05-.07-.11-.1-.17-.03-.06-.06-.12-.09-.18l-.08-.22-.08-.22c-.02-.08-.04-.16-.06-.24-.04-.16-.08-.3-.12-.46-.03-.16-.07-.31-.11-.45-.03-.15-.07-.3-.12-.44,0-.08-.02-.15-.03-.23v-.05s0-.03,0-.03v-.07c-.02-.09-.03-.18-.04-.26-.03-.17-.07-.35-.11-.51-.08-.34-.17-.68-.2-1.02-.16-.67,0-1.36-.2-2-.02-.65-.22-1.29-.1-1.93-.11-.31-.08-.62-.05-.94,0-.08.02-.15.03-.23v-.12s.01-.06.01-.06v-.02s.02-.11-.05-.12c-.07-.08-.14-.17-.22-.25l-.08-.09-.07-.1-.14-.2c-.09-.13-.19-.26-.27-.4-.08-.14-.15-.28-.22-.42-.04-.34-.13-.62-.28-.89-.04-.07-.08-.13-.11-.2l-.1-.2c-.07-.13-.13-.27-.18-.41-.04-.14-.08-.28-.12-.42-.04-.14-.09-.28-.13-.42-.05-.14-.07-.28-.08-.42s0-.29.03-.43c-.04-.28.01-.55.01-.82,0-.13,0-.26,0-.4,0-.14-.01-.28-.03-.42,0-.28.16-.54.3-.78.07-.12.12-.24.16-.36.02-.06.03-.13.03-.2,0-.07,0-.14-.01-.22.09-.26.3-.44.5-.61.1-.08.2-.16.28-.26.09-.09.16-.19.22-.32.13-.25.36-.4.61-.46.06-.02.13-.03.19-.05.06,0,.13-.02.19-.02.12-.02.25-.02.37-.04.24-.04.48-.03.69,0,.11,0,.22.02.32.05.1.02.21.04.3.07.88.27,1.5.7,2.04,1.04.54.35.98.64,1.36.83.38.2.69.29.9.36.21.05.33.09.33.13,0,.04-.15.09-.44.1-.3,0-.74-.08-1.26-.28-.53-.2-1.13-.53-1.81-.86-.34-.16-.71-.32-1.09-.43-.1-.02-.19-.05-.29-.07-.1-.01-.2-.03-.3-.04-.1,0-.2,0-.3,0-.1.02-.19.01-.29.04-.08.02-.15.05-.22.09l-.1.06s-.07.05-.1.07c-.13.09-.26.18-.45.22-.07.05-.12.13-.18.19-.05.08-.1.15-.15.23-.09.16-.19.31-.32.46,0,.06.01.11,0,.16,0,.05,0,.1-.01.15-.02.09-.05.19-.09.28-.08.18-.17.37-.2.58,0,.1,0,.21-.02.32,0,.11,0,.24,0,.35,0,.24,0,.49.1.72.06.12.09.23.1.36.02.12.02.25.04.37.01.12.03.25.05.37.03.12.05.25.12.36-.01.53.22,1.03.62,1.41.03.13.08.26.14.38.07.11.16.21.24.32l.13.15.07.08.08.07s.1.09.15.14l.05.06.06.07.13.15c.03.06.06.11.09.17l.02.04v.02s0,.02,0,.02v.1c-.03.13-.04.26-.04.38v.15s0,.07,0,.11c0,.08,0,.15.02.23.04.3.12.6.18.91.12.61.03,1.24.15,1.87,0,.64.19,1.26.23,1.91.1.31.19.63.26.94.03.16.06.32.08.48,0,.08.02.16.02.24v.06s0,.03,0,.03c0,0,0,0,0,.01,0,0-.01.02-.02.03.05.04.06.06.07.12,0,.05.02.13.05.18.04-.08.05-.05.1,0,.06.04.08.02.07-.06-.01-.05,0-.05.01-.05.02,0,.04,0,.06-.02.02-.02.03-.06.03-.11,0-.02-.01-.05-.03-.07,0,0,0-.01-.01,0v-.08c-.02-.05-.02-.1-.04-.15.07-.8.34-1.56.54-2.33.15-.37.3-.74.46-1.1.17-.41.35-.81.53-1.23.11-.14.21-.27.3-.41.05-.07.09-.13.14-.2l.07-.1.03-.05.02-.03h.03c.31.07.6.11.89.14.15.01.3.03.44.04l.27-.02c.18-.02.35-.04.53-.06.17-.03.35-.05.52-.06.09,0,.17-.01.26-.02l.48-.07c.32-.04.64-.08.96-.12.02-.01.03.02.04.04l.03.06.06.12.12.25.24.49.2.39c.04.09.09.18.13.27.08.18.17.36.24.55.16.37.29.75.41,1.12.33.74.33,1.56.54,2.33.01.05.03.1.04.15v.07s.02,0,.02,0c0,0,0,.02,0,.03,0,.02-.02.05-.03.09-.03.08-.06.22,0,.16.04-.03.07-.09.1-.1.03-.01.03.05.07.16.02-.04.07.03.13-.02.05-.03.09-.17,0-.28,0,0,0-.02,0-.03,0,0,0-.02,0-.04v-.06c0-.08.01-.16.01-.25,0-.16,0-.33.01-.49.02-.33.09-.64.32-.93,0-.65.34-1.26.23-1.91.33-.61.11-1.26.15-1.87.04-.3.09-.61.12-.91,0-.08.01-.15.01-.23v-.11s0-.15,0-.15c0-.13,0-.26,0-.39v-.1s0-.03.01-.04l.03-.04.11-.16c.03-.05.07-.11.11-.16l.06-.08.03-.04v-.02c.05-.06.09-.11.14-.16.09-.1.17-.21.26-.3.09-.1.18-.2.26-.3.07-.11.14-.22.2-.34.07-.26.2-.48.36-.69.08-.1.14-.22.19-.34s.08-.25.07-.38c.05-.11.08-.24.11-.36.03-.12.05-.25.08-.37.03-.12.04-.24.06-.36.02-.12.04-.24.07-.36-.04-.06-.07-.13-.08-.19-.02-.06-.04-.12-.04-.18-.01-.12,0-.24.04-.35.03-.12.08-.24.11-.35.03-.1.06-.21.05-.32,0-.21-.09-.41-.18-.59-.04-.09-.08-.18-.11-.27-.01-.05-.02-.1-.02-.15,0-.05,0-.11,0-.16-.21-.11-.32-.24-.4-.4-.04-.08-.08-.16-.12-.25-.04-.08-.09-.16-.14-.23-.11-.14-.28-.21-.43-.25-.04-.01-.08-.02-.11-.04-.04,0-.08-.02-.11-.03-.07-.03-.14-.06-.21-.12-.17.07-.3.04-.46.01l-.12-.03s-.08,0-.12,0c-.08,0-.16,0-.24.04-.17-.02-.33.02-.48.09-.15.06-.28.16-.43.2-.26.18-.53.31-.82.39-.26.13-.5.26-.74.37-.7.34-1.31.53-1.73.56-.11,0-.2.01-.28.01-.08,0-.15-.02-.2-.03-.11-.02-.16-.04-.16-.07Z"/>
      </g>
    </g>
  </g>
</svg>