<?xml version="1.0" encoding="UTF-8"?>
<svg xmlns="http://www.w3.org/2000/svg" version="1.1" viewBox="0 0 109 114">
  <!-- Generator: Adobe Illustrator 28.7.1, SVG Export Plug-In . SVG Version: 1.2.0 Build 142)  -->
  <g>
    <g id="Calque_1">
      <g>
        <path d="M13.51,40.84s.47.37,1.25,1.17c.78.81,1.92,2.01,3.37,3.58.48.53,1,1.09,1.56,1.69.57.6,1.17,1.23,1.77,1.93.51.78,1.45,1.25,1.97,2.15.63.81,1.38,1.57,2.16,2.37.78.8,1.44,1.76,2.34,2.58,1,.72,1.41,2.04,2.52,2.79.91.92,1.79,1.94,2.69,2.98.76,1.17,1.85,2.1,2.85,3.16.78,1.26,1.85,2.31,3,3.34.38.69.84,1.32,1.37,1.9.26.29.55.57.84.84.15.13.3.27.46.39.08.07.15.12.23.17l.22.14c.51.46,1.13.81,1.82.98l.26.05c.09.02.17.03.26.03h.27c.09.02.2.01.31,0,.42,0,.83-.03,1.25-.06,1.68-.02,3.39-.08,5.13-.02,1.74-.23,3.52-.22,5.32-.02,1.81-.24,3.64-.15,5.5-.02,1.86.14,3.75-.21,5.67-.01.33,0,.66,0,.99,0,.4,0,.81,0,1.21,0,.61.35,1.23.7,1.85,1.05.56.32,1.11.64,1.66.97,1.65,1.07,3.32,2.17,5.18,2.98,1.78.96,3.58,1.9,5.3,3.05,1.91.8,3.66,1.94,5.4,3.11.75.4,1.62.6,2.5.48.86-.12,1.7-.59,2.2-1.3.29-.32.51-.71.66-1.12.15-.41.21-.85.2-1.28-.01-.87-.34-1.72-.86-2.43-.27-.35-.6-.64-.99-.89-.46-.28-.92-.56-1.38-.84-.93-.55-1.86-1.06-2.83-1.53-1.93-.92-3.65-2.19-5.5-3.18-1.7-1.26-3.66-2.02-5.4-3.12-.9-.5-1.77-1.05-2.64-1.58-.44-.26-.87-.52-1.31-.78-.22-.12-.44-.25-.66-.37l-.08-.04-.04-.02s-.05-.03-.09-.05c-.04-.03-.03-.02-.05-.03l-.03-.02-.07-.04c-.09-.06-.18-.1-.28-.14-.37-.18-.76-.31-1.17-.36l-.31-.03h-.31c-.25,0-.5,0-.75,0-1,0-1.99-.01-2.97-.06-1.97.38-3.91-.1-5.83-.01-1.92-.16-3.81.02-5.67-.02-1.86.07-3.7-.17-5.5-.02-.6,0-1.2,0-1.79.01-.3,0-.59.01-.89.02h-.45c-.27,0-.53,0-.8.01-.18-.2-.35-.4-.52-.6l-.29-.34c-.19-.23-.37-.46-.54-.69-1.3-1.18-2.17-2.69-3.38-3.86-1.11-1.26-2.21-2.48-3.25-3.71-.85-1.4-2.07-2.41-3.1-3.55-.99-1.17-2.14-2.16-2.95-3.39-.95-1.11-1.79-2.26-2.8-3.21-.95-1-1.48-2.32-2.63-3.03-.91-.92-1.46-2.11-2.46-2.84-.98-.74-1.55-1.79-2.28-2.64-.73-.85-1.43-1.66-2.09-2.43-.69-.81-1.6-1.3-2.53-1.46-.46-.08-.93-.07-1.37,0-.22.03-.43.09-.64.15-.2.08-.4.14-.58.24-.19.08-.36.2-.53.3-.08.06-.16.12-.24.18l-.12.09-.11.1c-.07.07-.14.13-.21.2-.06.07-.12.14-.19.21l-.09.1s-.05.07-.08.11c-.05.07-.1.15-.16.22-.39.6-.59,1.24-.67,1.82-.08.58-.03,1.11.06,1.56.09.45.25.8.38,1.09.14.28.26.49.35.62.09.14.12.21.11.23-.02.01-.1-.05-.24-.2-.04-.04-.08-.08-.12-.12-.04-.05-.08-.11-.13-.17-.05-.06-.09-.13-.15-.2-.05-.07-.09-.16-.15-.24-.11-.17-.19-.38-.29-.62-.04-.12-.08-.25-.12-.38-.04-.13-.06-.28-.1-.42-.11-.59-.12-1.31.09-2.08.09-.39.27-.78.49-1.17.23-.38.52-.76.88-1.1.37-.33.8-.63,1.29-.86.49-.23,1.05-.37,1.64-.42.59-.05,1.21,0,1.82.19.61.18,1.21.49,1.74.92.07.05.13.11.2.16l.18.18.18.18.16.18c.22.24.44.48.66.72.45.49.9.99,1.37,1.51.75.83,1.68,1.56,2.34,2.58.8.9,1.75,1.74,2.52,2.79,1.06.79,1.78,1.94,2.69,2.98.93,1.03,1.8,2.15,2.85,3.16,1.09.99,1.9,2.27,3,3.34.89,1.26,1.97,2.41,3.15,3.51.94,1.31,2.18,2.41,3.29,3.67.92,1.42,2.19,2.59,3.42,3.83.21.21.41.42.6.64l.29.32.06.07h.09s.44,0,.44,0c.3,0,.59,0,.89.01.6,0,1.19,0,1.79-.01,1.81.05,3.64-.06,5.5-.02,1.86-.12,3.75-.16,5.67-.02,1.92-.08,3.86-.02,5.83-.02.98-.05,1.97-.05,2.97-.03.25,0,.5,0,.75,0l.44.02.44.06c.59.1,1.16.29,1.69.57.13.07.27.14.39.22l.17.11s-.01,0,0,0l.04.02.08.05c.22.13.43.26.65.4.43.27.86.54,1.29.82.86.54,1.74,1.06,2.7,1.46,1.8,1,3.56,2.11,5.4,3.11,1.8,1.08,3.61,2.17,5.5,3.17.86.65,1.77,1.21,2.71,1.73.47.26.95.51,1.43.76.55.28,1.08.67,1.51,1.15.87.96,1.36,2.25,1.34,3.54,0,1.29-.5,2.56-1.34,3.51-.81.98-1.98,1.65-3.23,1.86-1.25.21-2.56-.04-3.64-.66-1.86-.98-3.56-2.19-5.4-3.12-1.84-.93-3.48-2.16-5.29-3.06-1.79-.94-3.53-1.9-5.17-3-.56-.32-1.1-.67-1.64-1.01-.27-.17-.54-.34-.81-.51-.22-.13-.43-.27-.65-.4h-.07s-.24,0-.24,0c-.17,0-.33,0-.5.01-.33.02-.66.04-.99.08-1.92.05-3.81.36-5.67-.02-1.86.09-3.7-.19-5.5-.03-1.8-.28-3.58-.02-5.32-.03-1.74-.06-3.46-.15-5.13-.03-.42.03-.84.04-1.25.04-.11,0-.2,0-.32,0l-.36-.02c-.12,0-.24-.03-.36-.05-.12-.02-.24-.04-.35-.07-.93-.24-1.76-.71-2.46-1.32-.09-.08-.18-.15-.26-.23l-.13-.12s-.07-.07-.11-.11c-.14-.15-.27-.3-.4-.45-.26-.3-.5-.62-.74-.93-.48-.62-.96-1.23-1.54-1.75-.99-1.17-2.03-2.25-2.95-3.39-1.25-.84-1.91-2.16-2.8-3.21-.87-1.07-1.99-1.87-2.63-3.03-1.07-.78-1.72-1.88-2.46-2.84-.74-.96-1.66-1.69-2.28-2.63-.89-.7-1.37-1.71-2.1-2.43-.58-.85-1.32-1.5-1.9-2.21-.64-.66-1.21-1.32-1.7-1.99-.53-.62-1.03-1.21-1.49-1.75-1.39-1.63-2.45-2.91-3.15-3.78-.71-.87-1.05-1.35-1.01-1.38Z"/>
        <path d="M60.71,56.48c.09.05.14.18.14.38,0,.03,0,.07,0,.1,0,.04.02.09,0,.12-.14-.03.19.19-.02.13-.07,0-.04.07-.02.14.02.06-.12.04-.03.14.22.17-.31-.05-.04.15.04.08,0,.12-.04.16-.21-.05-.05.1-.05.17-.25-.06-.18.04-.06.18-.33-.1-.32-.02-.06.18-.02.06-.17.06-.07.19-.01.07.01.16-.07.2.17.17.13.23-.08.2.18.18.06.2-.08.21-.16,0,.12.24-.09.21-.05.06-.02.17-.1.22-.13.02-.27.04-.1.22.02.1.05.21-.11.23.19.2.05.22-.11.23,0,.1-.21.09-.12.23-.08.06.02.21-.12.23-.11.04-.22.08-.12.23.11.16-.14.12-.12.23-.26-.04,0,.19-.13.22-.02.09-.2.08-.12.22,0,.09,0,.19-.13.21.3.25-.16.1-.12.2-.18,0-.05.15-.12.2.03.1-.22.05-.12.19-.06.05.04.19-.12.18.13.15-.2.05-.12.17-.03.06-.05.13-.12.17-.29-.08-.1.09-.12.16-.06.04.09.19-.11.15-.05.04-.19.03-.11.14.01.07-.43-.1-.11.13.04.08-.32-.05-.11.12.19.16-.07.07-.1.11-.03.03-.07.07-.1.1-.29.27-.52.4-.66.32-.16-.08-.18-.39-.09-.86,0-.05-.15-.18.03-.14.02-.04-.09-.16.04-.15-.22-.17,0-.12.04-.16.01-.06.12-.07.05-.17-.11-.13.13-.07.06-.18.18.02.17-.05.06-.18.18.02.03-.13.07-.19.26.06.13-.09.07-.2-.05-.11.1-.11.08-.2.08-.04.01-.16.08-.21-.07-.12-.07-.21.09-.21-.04-.11.06-.15.1-.22-.05-.12.09-.14.1-.22,0-.1.31-.02.11-.23,0-.09.12-.13.11-.23.07-.06.14-.12.12-.23.28.05.18-.11.12-.23-.03-.12.05-.17.12-.23.02-.09.07-.16.12-.23-.03-.11.18-.1.12-.22-.06-.13.19-.09.13-.22-.03-.11-.03-.2.13-.21.04-.07.3-.03.12-.2-.01-.09-.25-.31.12-.2-.05-.11.23-.05.12-.19.28.06.08-.12.12-.18.08-.04.2-.06.12-.17-.09-.12.13-.09.12-.17-.11-.13.25-.02.12-.16.06-.04.04-.12.11-.15-.31-.23.06-.1.11-.14.07-.03-.17-.21.11-.13-.23-.18.01-.11.11-.12.1,0-.06-.14.1-.11-.16-.13.14-.03.1-.1.14.02.04-.07.09-.09-.02-.05,0-.08.09-.07.03-.02.06-.04.08-.06.16-.11.3-.15.39-.1Z"/>
        <path d="M69.89,56.47c0,.1-.22.21-.62.3-.07.01-.14.03-.22.05-.08.03-.16.06-.25.04-.09-.14-.18.26-.27.04-.1-.06-.2,0-.3.04-.1.05-.21-.09-.33.04-.11.27-.23-.3-.35.04-.12.07-.25.05-.38.04-.13-.21-.26,0-.4.04-.14-.25-.28-.14-.42.03-.14-.34-.29-.29-.44.03-.15.01-.31-.12-.46.03-.16.02-.32.09-.48.03-.16.23-.33.22-.5.02-.17.25-.34.15-.52.02-.18-.14-.35.22-.53.02-.18-.02-.36.06-.55.02-.19-.1-.37-.21-.56.01-.19.06-.38.14-.57,0-.19.26-.39.15-.59,0-.2.04-.4-.14-.6,0-.2-.04-.4.11-.61,0-.2-.08-.4-.16-.6,0-.2.17-.4-.07-.6,0-.2-.25-.39.08-.59,0-.19.02-.38-.14-.57,0-.19.04-.38.09-.56-.01-.19.38-.37-.1-.55-.02-.18-.16-.36.02-.53-.02-.18.07-.35-.17-.52-.02-.17-.03-.34.12-.5-.02-.16.19-.32-.16-.48-.03-.16,0-.31.01-.46-.03-.15-.29-.3-.05-.44-.03-.15-.03-.29.17-.42-.03-.14-.02-.27-.15-.4-.04-.13.04-.26-.43-.38-.04-.12.07-.24-.3-.35-.04-.11.24-.22-.03-.33-.04-.1-.02-.21-.03-.3-.04-.86-.13-1.36-.28-1.36-.43,0-.18.61-.34,1.66-.48.11-.01.21-.22.33-.04.11,0,.23-.16.35-.04.12-.27.25-.05.38-.04.13-.01.26.08.4-.03.14-.16.28.08.42-.03.14.17.29.12.44-.03.15.16.3-.04.46-.03.16.25.32.08.48-.03.16-.09.33.04.5-.02.17.05.34-.07.52-.02.18-.12.35-.16.53-.02.18-.08.36-.02.55-.02.19-.1.37.01.56-.01.19-.05.38.27.57-.01.19-.04.39.04.59,0,.2.04.4.07.6,0,.2.27.4.1.6,0,.2-.08.41-.04.61,0,.2-.03.4-.01.6,0,.2-.08.39.12.59,0,.19-.12.38.13.57.01.19-.08.38-.12.56.01.19,0,.37.25.55.02.18-.05.36-.36.53.02.18-.1.35.18.52.02.17.28.34.01.5.02.16.06.32.15.48.03.16-.13.31.07.46.03.15-.16.3.21.44.03.14.04.29-.02.42.03.14-.38.27,0,.4.03.13.05.26-.25.38.04.12-.29.24-.04.35.04.11.08.22-.12.33.04.11-.2.21.11.3.04.1.13.19,0,.27.04.09-.04.17-.03.25.04.08.02.15.03.22.05.4.09.62.2.62.3Z"/>
        <path d="M45.23,86.18c-.11,0-.21-.14-.3-.39-.02-.04-.03-.09-.05-.14-.03-.05-.06-.1-.05-.15.14-.05-.26-.11-.04-.17.06-.06,0-.12-.04-.19-.05-.07.09-.13-.04-.21-.27-.07.3-.15-.04-.22-.07-.08-.05-.15-.04-.24.21-.08,0-.16-.04-.25.25-.09.14-.17-.03-.26.34-.09.29-.18-.03-.28-.01-.09.12-.19-.03-.29-.02-.1-.09-.2-.03-.3-.23-.1-.22-.21-.02-.31-.25-.11-.15-.21-.02-.32.14-.11-.22-.22-.02-.33.02-.11-.06-.23-.02-.34.1-.12.21-.23-.02-.35-.06-.12-.14-.24-.01-.36-.26-.12-.15-.24,0-.37-.04-.12.14-.25,0-.37.04-.12-.12-.25,0-.38.08-.13.15-.25,0-.38-.17-.12.07-.25,0-.37.24-.12-.08-.24,0-.37-.02-.12.14-.24,0-.36-.05-.12-.09-.23.01-.35-.38-.11.1-.23.01-.34.16-.11-.02-.22.02-.33-.07-.11.17-.22.02-.32.03-.11-.12-.21.02-.31-.19-.1.16-.2.02-.3,0-.1-.01-.2.03-.29.29-.1.05-.19.03-.28.03-.09-.17-.18.03-.26.02-.09.15-.17.03-.25-.04-.08.43-.16.04-.24-.07-.08.3-.15.04-.22-.24-.07.03-.14.04-.2.01-.07.03-.13.04-.19.12-.54.27-.85.43-.85.18,0,.34.38.48,1.03.02.07.22.13.04.2,0,.07.16.14.04.22.27.07.05.15.04.24.01.08-.07.16.04.25.16.08-.08.17.03.26-.17.09-.12.18.03.28-.16.09.04.19.03.29-.25.1-.07.2.03.3.09.1-.04.21.02.31-.05.11.07.21.02.32.12.11.16.22.02.33.08.11.02.23.02.34.1.11-.01.23.02.35.05.12-.27.24.01.36.04.12-.04.24,0,.37-.03.12-.07.25,0,.37-.27.13-.1.25,0,.38.08.13.04.25,0,.38.03.12.01.25,0,.37.08.12-.12.25,0,.37.12.12-.13.24,0,.36.08.12.12.23-.01.35,0,.11-.25.23-.01.34.05.11.37.22-.02.33.1.11-.18.22-.02.32-.28.11-.01.21-.02.31-.05.1-.15.2-.02.3.13.1-.07.2-.03.29.16.09-.21.19-.03.28-.04.09.03.18-.03.26.38.08,0,.17-.03.25-.05.08.25.16-.04.23.29.08.04.15-.04.22-.08.07.12.14-.04.2.2.07-.11.13-.04.19-.13.06,0,.12-.04.17.04.05.03.1-.04.15-.01.05-.03.09-.05.14-.09.25-.19.39-.3.39Z"/>
        <path d="M64.15,86.18c-.1,0-.21-.13-.31-.38-.02-.04-.03-.09-.05-.13-.03-.05-.06-.1-.05-.15.14-.06-.26-.11-.05-.17.06-.06,0-.12-.04-.19-.05-.07.09-.14-.04-.2-.27-.07.3-.15-.04-.22-.07-.07-.06-.15-.04-.23.21-.08,0-.16-.04-.25.25-.09.14-.18-.04-.26.34-.09.29-.19-.03-.28-.01-.09.12-.19-.03-.29-.02-.1-.09-.2-.03-.3-.23-.1-.22-.2-.03-.31-.25-.1-.15-.21-.03-.32.14-.11-.22-.22-.02-.33.01-.11-.06-.22-.02-.34.1-.12.21-.23-.02-.35-.06-.12-.15-.24-.02-.36-.26-.12-.15-.24-.01-.37-.04-.12.14-.25,0-.37.04-.12-.12-.25,0-.38.08-.13.15-.25,0-.38-.17-.12.07-.25,0-.37.24-.13-.08-.24,0-.37-.03-.12.14-.24,0-.36-.05-.12-.1-.23,0-.35-.38-.11.09-.23.01-.34.16-.11-.03-.22.01-.33-.07-.11.17-.22.02-.32.03-.11-.12-.21.02-.31-.19-.1.16-.21.02-.3,0-.1-.01-.2.02-.29.29-.1.05-.19.03-.28.03-.09-.17-.17.03-.26.02-.09.15-.17.03-.25-.04-.08.43-.17.03-.23-.07-.08.3-.15.04-.22-.24-.07.03-.14.04-.21.01-.07.03-.13.04-.19.12-.54.26-.85.42-.85.18,0,.35.38.49,1.03.01.06.22.13.04.2,0,.07.16.14.04.22.27.07.05.15.04.23.01.08-.07.17.04.25.16.08-.08.18.04.26-.17.09-.12.18.03.28-.16.1.04.19.03.29-.25.1-.07.2.03.3.09.1-.04.21.03.31-.05.11.07.21.02.32.12.11.17.22.02.33.08.11.02.23.02.34.1.12,0,.23.02.35.05.12-.27.24.02.36.04.12-.04.24.01.37-.03.12-.07.25,0,.37-.27.13-.1.25,0,.38.08.13.04.25,0,.38.03.13.02.25,0,.37.08.12-.11.25,0,.37.12.12-.12.24,0,.36.08.12.13.23,0,.35,0,.12-.25.23-.01.34.06.11.37.22-.01.33.1.11-.18.22-.02.32-.28.11-.01.21-.02.31-.05.1-.15.2-.02.3.14.1-.07.2-.02.29.16.09-.21.19-.03.28-.04.09.03.18-.03.26.38.08,0,.17-.03.25-.05.08.25.16-.03.24.29.07.04.15-.04.22-.08.07.12.14-.04.21.2.06-.11.13-.04.19-.13.06,0,.12-.04.17.05.05.03.1-.04.15-.01.05-.03.09-.04.14-.09.25-.19.39-.29.39Z"/>
        <path d="M32.51,86.18c.11,0,.21,1.21.3,3.43.01.37.03.77.05,1.19.03.42.06.88.04,1.35-.04.12-.04.24-.02.36,0,.06.02.12.03.19l.02.09v.05s.02.02.02.03c.03.07.05.13.06.19,0,.06-.01.13-.06.25,0,.04-.01.08-.02.12.13.02.28.01.43,0h.11s.03-.02.06-.02h.09c.13-.02.25-.03.38-.04.58-.05,1.18.09,1.81-.04.63-.27,1.27.3,1.95-.04.67-.07,1.36-.05,2.08-.04.71.21,1.45,0,2.21-.03.76.25,1.53.14,2.33-.03.8.34,1.61.29,2.44-.03.83-.01,1.69.12,2.55-.03.87-.02,1.76-.09,2.66-.03.9-.23,1.82-.22,2.76-.02.93-.25,1.88-.15,2.85-.02.97.14,1.94-.22,2.94-.02.99.02,2-.06,3.02-.02,1.02.1,2.05.21,3.1-.01,1.04-.06,2.1-.14,3.17-.01,1.07-.26,2.14-.15,3.23,0,1.09-.04,2.18.14,3.29,0,.55.02,1.11,0,1.66-.03h.42s.21-.02.21-.02h.07s.06.01.13.04h0s.04-.06.05-.11v-.02s0,0,0-.02v-.05s.01-.21.01-.21v-.42c.02-.56,0-1.11-.07-1.66-.17-1.11.07-2.2,0-3.29,0-.06.02-.05.03-.06,0,0,.02-.02.02-.03.01-.02.02-.04.03-.07.01-.05.02-.09.01-.13-.05,0-.1.01-.15.03-.02,0-.04.01-.06.02h-.03s-.02.01-.05.02h-.07c-.37.03-.73.05-1.09.02-1.07.02-2.12-.14-3.17,0-1.04.04-2.08.09-3.1-.01-1.02.38-2.03-.1-3.02-.02-.99-.16-1.97.02-2.94-.02-.96.07-1.91-.17-2.85-.02-.93-.03-1.85.12-2.76-.02-.9.19-1.79-.16-2.66-.03-.87,0-1.72.01-2.55-.03-.83-.3-1.65-.05-2.44-.03-.8-.03-1.57.17-2.33-.03-.76-.02-1.49-.15-2.21-.03-.72.04-1.41-.43-2.08-.04-.67.07-1.32-.3-1.94-.04-.63.24-1.23-.03-1.81-.04-.58-.02-1.13-.03-1.66-.04-4.76-.13-7.49-.28-7.49-.43,0-.09.84-.17,2.41-.25,1.56-.08,3.85-.15,6.74-.22.58-.01,1.18-.22,1.81-.04.62,0,1.27-.16,1.94-.04.67-.27,1.36-.05,2.08-.04.71-.01,1.45.08,2.21-.03.76-.16,1.53.08,2.33-.03.8.17,1.61.12,2.44-.03.83.16,1.68-.04,2.55-.03.87.25,1.76.08,2.66-.03.9-.09,1.82.04,2.76-.02.94.05,1.88-.06,2.85-.02.97-.12,1.94-.16,2.94-.02.99-.08,2-.02,3.02-.02,1.02-.1,2.05.01,3.1-.01,1.04-.05,2.1.27,3.17-.01.36-.01.73-.01,1.09,0,.65,0,1.3.01,1.95.02,0,.32,0,.64,0,.96v.48s.02.45.02.45c-.03,1.09-.07,2.18,0,3.29-.14.55-.16,1.11-.14,1.66,0,.14.01.28.02.42l.02.21v.05s0,.09,0,.09v.19c.04.53.07,1.06.09,1.59h0c-.51.02-1.04.03-1.58.04h-.56s-.42,0-.42,0c-.56,0-1.11-.03-1.66-.05-1.11.03-2.2.01-3.29,0-1.09.08-2.16-.12-3.23,0-1.07.12-2.12-.12-3.17-.01-1.04.08-2.08.12-3.1-.01-1.02,0-2.03-.25-3.02-.02-.99.05-1.97.36-2.94-.02-.96.1-1.92-.19-2.85-.02-.93-.28-1.85-.01-2.76-.02-.9-.05-1.79-.15-2.66-.03-.87.13-1.72-.07-2.55-.03-.83.16-1.65-.21-2.44-.03-.8-.04-1.57.02-2.33-.03-.76.38-1.49,0-2.21-.03-.71-.06-1.41.25-2.08-.04-.67.29-1.32.04-1.95-.04-.63-.08-1.23.12-1.81-.04-.13.04-.26.06-.38.07-.03,0-.06,0-.09,0h-.14c-.1,0-.19-.02-.28-.03-.38-.04-.69-.09-1.02-.09,0-.08,0-.17-.01-.24.07-.44.07-.77.06-1.13,0-.13-.01-.26-.02-.39,0-.12,0-.24,0-.36-.05-.48-.03-.93.04-1.35.02-.43.03-.82.05-1.19.09-2.22.19-3.43.3-3.43Z"/>
        <path d="M77.09,67.02c-.11,0-.21-.84-.3-2.37-.01-.26-.03-.53-.05-.82-.03-.29-.06-.61-.04-.93.14-.33-.26-.68-.04-1.04.06-.37,0-.75-.04-1.15-.05-.4.09-.82-.04-1.25-.27-.43.3-.88-.04-1.34-.07-.46-.05-.94-.04-1.44.21-.49,0-1-.03-1.52.25-.52.14-1.06-.03-1.61.34-.55.29-1.11-.03-1.69-.01-.58.12-1.16-.03-1.76-.02-.6-.09-1.21-.03-1.84-.23-.62-.22-1.26-.02-1.91-.25-.65-.15-1.3-.02-1.97.14-.67-.22-1.34-.02-2.03.02-.69-.06-1.38-.02-2.09.1-.7.21-1.42-.01-2.14-.06-.72-.14-1.45-.01-2.19-.26-.74-.15-1.48,0-2.23-.04-.75.14-1.51,0-2.27.04-.76-.12-1.53,0-2.31.08-.78.16-1.55,0-2.31-.17-.76.07-1.52,0-2.27.25-.75-.08-1.5,0-2.23-.01-.37.02-.73.05-1.1v-.14s.01-.02.01-.04c0-.02,0-.04,0-.06,0-.04-.02-.07-.05-.07h0s-.1.02-.1.02h-.04s-.02.01-.02.01h0s-.06,0-.06,0c-.35,0-.69-.01-1.04-.06-.7.38-1.4-.1-2.09-.02-.69-.16-1.36.02-2.03-.02-.67.07-1.32-.17-1.97-.02-.65-.03-1.28.12-1.9-.02-.62.19-1.24-.16-1.84-.03-.6,0-1.19.01-1.76-.03-.58-.29-1.14-.05-1.69-.03-.55-.03-1.08.17-1.61-.03-.52-.02-1.03-.15-1.52-.04-.1,0-.2,0-.29-.02-.05-.01-.1-.02-.15-.04-.06-.01-.06-.03-.09-.04-.1-.06-.26-.11-.35-.08,0,.07,0,.17.05.27,0,.06-.03.1-.07.14-.06.09-.13.18-.19.27-.13.19-.24.38-.2.63.06.49-.35.77-.51,1.14-.16.37-.32.71-.47,1.05-1.35,3-2.2,4.69-2.35,4.63-.16-.07.56-2.29,1.93-6.04.14-.38.1-.84.43-1.17.08-.2.13-.42.19-.63.02-.06.03-.11.05-.16l.03-.08.04-.1c.07-.17.15-.34.24-.48.01-.18.05-.36.1-.53.29-.04.63-.02.96,0h.12s.06.02.06.02h.04s.15.03.15.03c.1.01.19.02.29.03.49-.01,1,.08,1.52-.03.52-.16,1.06.08,1.61-.03.55.17,1.11.12,1.69-.03.57.16,1.16-.04,1.76-.03.6.25,1.21.07,1.84-.03.62-.09,1.26.04,1.9-.02.65.05,1.3-.06,1.97-.02.67-.12,1.34-.16,2.03-.02.69-.08,1.38-.02,2.09-.02.34-.05.69-.05,1.04-.04.31,0,.61.01.92.02.32,0,.64,0,.97,0v.1c.02.32,0,.67-.01,1.01-.01.17-.02.34-.03.5l-.02.24-.02.14c-.04.37-.05.73.09,1.1.04.74-.04,1.48,0,2.23-.03.75-.07,1.51,0,2.27-.28.76-.11,1.53,0,2.31.08.77.04,1.54,0,2.31.03.76.01,1.52,0,2.27.08.75-.12,1.49,0,2.23.12.74-.13,1.47-.01,2.19.08.72.12,1.43-.01,2.14,0,.71-.25,1.4-.02,2.09.05.69.36,1.36-.02,2.03.1.67-.18,1.32-.02,1.97-.28.65-.01,1.28-.02,1.91-.05.62-.15,1.24-.03,1.84.13.6-.07,1.19-.03,1.76.16.58-.21,1.14-.03,1.69-.04.55.02,1.08-.03,1.61.38.52,0,1.03-.03,1.52-.05.49.25.97-.04,1.44.29.46.04.91-.04,1.34-.08.43.12.85-.04,1.25.2.4-.11.78-.04,1.15-.13.37,0,.71-.04,1.04.05.33.03.64-.04.93-.02.29-.03.57-.05.82-.09,1.53-.2,2.37-.3,2.37Z"/>
        <path d="M59,36.7c-.05-.01-.09-.12-.11-.3-.01-.09-.02-.21-.02-.34,0-.07,0-.14,0-.21,0-.08-.01-.16-.02-.24,0-.11-.01-.23-.02-.36-.01-.13-.05-.26-.04-.41.13-.15-.27-.28-.06-.45.04-.16-.04-.32-.11-.48-.06-.16.02-.36-.15-.51-.15-.05-.1-.16-.06-.27.04-.11.05-.22-.14-.26-.07-.08-.11-.16-.15-.25-.04-.09-.08-.18-.11-.28.05-.14,0-.23-.07-.31-.08-.08-.19-.14-.26-.22.05-.16.02-.28-.06-.36-.08-.08-.21-.12-.35-.16.03-.1.04-.18.04-.25,0-.07-.04-.12-.09-.16-.09-.08-.24-.1-.44-.07-.08-.08-.16-.17-.24-.26-.09-.09-.18-.17-.32-.17-.11-.06-.22-.11-.33-.17-.11-.07-.22-.12-.31-.21-.33.06-.54-.03-.71-.32-.17.07-.3.06-.42,0-.06-.03-.12-.07-.17-.11-.06-.04-.11-.08-.17-.13-.11-.1-.26-.09-.4-.06-.14.02-.28.04-.41-.08-.14-.03-.28-.02-.42-.02-.07,0-.14,0-.21,0-.07,0-.14,0-.21,0-.28-.11-.6-.18-.85.08-.14.06-.27.12-.41.16-.14.04-.28.08-.44.05-.05.08-.11.14-.16.19-.06.05-.12.08-.19.1-.14.04-.3.03-.46.05-.12.09-.27.12-.41.18-.14.07-.27.14-.35.29-.13.07-.23.2-.33.31-.11.11-.2.23-.34.3-.13.08-.27.17-.37.29-.1.12-.18.25-.21.42,0,.18-.1.29-.21.41-.11.11-.2.24-.24.38-.09.04-.15.1-.18.17-.02.03-.03.07-.04.1,0,.04-.01.08-.02.12,0,.08,0,.16-.02.24,0,.03-.02.08-.02.1,0,0,0,.01-.02.02,0,.03-.04.05-.08.09-.03.04-.06.09.02.07.06-.01.1-.03.12-.03.02,0,.03.02.04.07,0-.09.13-.11.2-.11.08,0,.15.04.22.09.14.09.28.22.44.21.27.22.61.1.9.21.31,0,.56.29.87.2.28.09.6,0,.85.2.32-.12.52.27.82.2.27.06.53.1.78.19.2.34.5.16.75.19.24.08.52-.06.71.18.23.07.43.25.67.18.23,0,.35.51.63.17.22-.03.35.38.59.16.24-.2.37.11.55.15.18.05.34.1.5.15,1.44.43,2.26.75,2.22.91-.04.17-1.11.12-2.92-.12-.18-.02-.41.14-.56-.08-.19-.04-.43.07-.61-.09-.26.22-.43-.04-.65-.1-.22-.03-.43-.17-.69-.11-.27.11-.46-.18-.72-.12-.21-.22-.47-.23-.76-.13-.22-.21-.53-.07-.79-.14-.22-.3-.53-.18-.82-.14-.3.03-.55-.15-.86-.15-.28-.11-.6-.06-.88-.16-.32.05-.63.03-.91-.17-.16,0-.32-.02-.47-.06-.08-.02-.15-.04-.23-.06-.08-.02-.13-.04-.3-.07-.3-.02-.61-.08-.89-.16-.29-.08-.56-.16-.87-.21.01-.13.07-.29.13-.45.06-.15.12-.31.18-.46.12-.3.18-.55.15-.87.02-.07.04-.15.06-.22.02-.06.03-.09.05-.14.03-.09.07-.17.11-.26l.05-.13.06-.13c.04-.09.08-.17.11-.27.18-.34.43-.64.57-1.02.22-.08.37-.22.47-.39.1-.17.18-.36.28-.54.21-.36.56-.59.9-.8.16-.12.32-.24.48-.35.17-.1.35-.18.53-.27.15-.13.35-.17.54-.23.09-.03.19-.05.28-.08.09-.03.18-.06.26-.12.17-.11.36-.15.55-.15.19,0,.38-.01.55-.1.35-.12.73-.21,1.09-.07.09,0,.18.01.27.03.09.02.18.05.26.07.17.05.34.06.53-.03.18,0,.36-.06.54-.07.18-.01.35.06.46.29.09,0,.17.02.25.05.08.03.15.08.22.13.14.09.29.17.47.15.19.39.59.27.86.45.12.1.24.2.36.31.12.1.25.18.41.22.17.03.27.15.36.27.09.12.18.24.3.33.16.05.22.19.29.33.03.07.06.13.1.19.04.06.09.11.17.13.07.12.16.22.25.33.08.11.15.22.2.35.23.01.31.13.32.27.01.14-.02.3.02.42.03.12.15.2.22.31.07.1.12.21.02.37.17.06.23.17.23.29,0,.12-.06.25-.07.36-.03.22.22.38.08.61.23.17-.06.39.03.56-.13.19,0,.34-.02.51.05.16.04.31-.05.45-.03.14-.05.27-.07.39-.02.09-.04.17-.05.25-.03.08-.05.15-.07.22-.04.13-.09.24-.13.33-.08.18-.15.26-.2.25Z"/>
        <path d="M60.9,90c0,.11-.27.21-.76.3-.08.01-.17.03-.26.05-.09.03-.19.06-.3.04-.1-.14-.22.26-.33.04-.12-.06-.24,0-.37.04-.13.05-.26-.09-.4.04-.14.27-.28-.3-.43.04-.15.07-.3.05-.46.04-.16-.21-.32,0-.49.03-.17-.25-.34-.14-.51.03-.17-.34-.36-.29-.54.03-.19.01-.37-.12-.57.03-.19.02-.39.09-.59.03-.2.23-.4.22-.61.02-.21.25-.42.15-.63.02-.21-.14-.43.22-.65.02-.22-.01-.44.06-.67.02-.22-.1-.45-.21-.69.01-.23.06-.46.14-.7,0-.24.26-.47.15-.71,0-.24.04-.48-.14-.73,0-.24-.04-.49.12-.74,0-.25-.08-.5-.16-.74,0-.24.17-.49-.07-.73,0-.24-.25-.48.08-.71,0-.24.02-.47-.14-.7,0-.23.05-.46.09-.68-.01-.23.38-.45-.1-.67-.02-.22-.16-.44.02-.65-.02-.21.07-.42-.17-.63-.02-.21-.03-.41.12-.61-.02-.2.19-.4-.16-.59-.03-.19,0-.38.01-.56-.03-.18-.3-.36-.05-.54-.03-.18-.03-.35.17-.52-.03-.17-.02-.33-.15-.49-.03-.16.04-.31-.43-.46-.04-.15.07-.29-.3-.43-.04-.14.24-.27-.03-.4-.04-.13-.02-.25-.03-.37-.04-1.05-.13-1.66-.28-1.66-.43,0-.18.75-.34,2.02-.48.13-.01.26-.22.4-.04.14,0,.28-.16.43-.04.15-.27.3-.05.46-.04.16-.01.32.08.49-.03.17-.16.34.08.52-.03.18.17.36.12.54-.03.18.16.37-.04.56-.03.19.25.39.08.59-.03.2-.09.4.04.61-.02.21.05.42-.06.63-.02.21-.12.43-.16.65-.02.22-.08.44-.02.67-.02.23-.1.45.01.68-.01.23-.05.46.27.7-.01.24-.04.47.04.71,0,.24.04.48.07.73,0,.24.27.49.1.74,0,.25-.08.49-.04.74,0,.24-.03.49-.01.73,0,.24-.08.48.12.71,0,.24-.12.47.13.7.01.23-.08.46-.12.69.01.23,0,.45.25.67.02.22-.05.44-.37.65.02.21-.1.42.18.63.02.21.28.41.01.61.02.2.05.4.15.59.03.19-.13.38.07.57.03.18-.16.36.21.54.03.18.04.35-.02.51.03.17-.38.33,0,.49.03.16.05.31-.25.46.04.15-.29.29-.04.43.04.14.08.27-.12.4.04.13-.2.25.11.37.04.12.13.23,0,.33.04.11-.04.21-.03.3.04.09.02.18.03.26.05.49.09.76.19.76.3Z"/>
      </g>
    </g>
  </g>
</svg>