<?xml version="1.0" encoding="UTF-8"?>
<svg xmlns="http://www.w3.org/2000/svg" version="1.1" viewBox="0 0 109 114">
  <!-- Generator: Adobe Illustrator 28.7.1, SVG Export Plug-In . SVG Version: 1.2.0 Build 142)  -->
  <g>
    <g id="Calque_1">
      <g>
        <path d="M25.98,42.3c0,.05-.25.12-.7.19-.11.01-.24.05-.38.08-.14.03-.29.07-.45.11-.16.04-.33.11-.52.17-.09.03-.19.06-.28.09-.09.04-.19.08-.29.13-.13.06-.27.12-.41.18-.14.08-.28.15-.42.23-.07.04-.14.08-.22.13-.07.04-.14.1-.21.15-.14.1-.3.19-.46.29-.19.05-.3.22-.42.38-.03.04-.06.08-.09.12-.03.04-.06.08-.1.11-.07.07-.15.12-.26.15-.09.06-.17.12-.25.19-.07.08-.14.16-.21.24-.13.17-.27.34-.37.54-.23.37-.6.69-.71,1.18,0,.14-.03.25-.09.35-.06.1-.15.2-.22.3-.07.1-.15.21-.19.33-.04.12-.07.25-.01.39-.01.13-.03.26-.06.38-.02.13-.06.25-.07.38-.02.13-.04.26-.06.39l-.04.2c0,.07-.01.13-.02.2-.06.13-.09.27-.11.4,0,.07-.01.14-.01.21,0,.07.02.14.03.21.05.28.11.56.18.83-.04.15-.06.3-.06.45,0,.15.04.29.09.43.05.14.1.28.18.41.08.13.17.26.26.38-.01.09-.02.17-.02.25,0,.08.02.16.03.24.03.15.09.3.16.44.08.13.19.25.31.36.12.11.25.21.41.29.09.12.18.25.27.38.09.13.19.25.29.37.19.25.45.46.73.62.52.38,1.08.71,1.67,1.03.09,0,.17.02.25.04.09.01.17.02.25.04.17.03.32.08.48.13.16.04.32.09.48.16.08.03.15.08.24.11.08.03.16.06.24.1.18-.04.35-.04.52-.05.09,0,.17-.01.26-.01h.13s.06,0,.19,0c.4.01.75.02,1.1.04h.13s.06.01.06.01h.03s.02,0,.02.02l.03.28c.02.18.04.37.06.55.02.18.04.35.07.52.02.09.05.18.08.27.03.09.06.18.1.26l.05.13.07.12c.09.16.17.32.24.48.08.16.15.33.18.51.33.65.83,1.2,1.33,1.75.12.14.23.3.36.44.14.13.27.27.42.39.16.11.32.21.49.3.17.08.36.14.56.18.71.29,1.44.45,2.18.7.1-.02.2-.03.3-.04.1,0,.19,0,.29-.02.19-.02.38-.01.58,0,.19,0,.38,0,.58.02h.15s.15.02.15.02h.3c.1-.02.19-.03.29-.05.1-.02.19-.05.29-.07.19-.05.39-.06.58-.13.19-.06.39-.11.57-.2.18-.09.35-.19.52-.31.18-.09.35-.2.52-.31l.13-.08.12-.1.23-.19c.08-.07.16-.12.23-.19.07-.07.14-.14.22-.21.08-.07.15-.13.23-.2.08-.07.15-.14.23-.2.31-.27.58-.58.83-.91.11-.17.21-.35.31-.53.08-.19.14-.38.19-.58.03-.1.05-.2.07-.3.03-.1.06-.19.09-.28.08-.18.13-.37.19-.56l.1-.28c.03-.09.05-.19.07-.29.02-.1.04-.2.05-.29.02-.1.03-.2.02-.3.07-.19.11-.39.12-.59,0-.2-.02-.4-.05-.59-.07-.39-.18-.76-.24-1.17l-.04-.15v-.02s-.01-.03-.01-.03l-.02-.07-.04-.14-.16-.57-.08-.28-.02-.07s-.02-.03,0-.03l.03-.02.13-.08.51-.3c.08-.05.17-.1.25-.15l.21-.14c.08-.05.16-.11.24-.17.14-.13.29-.25.41-.41.53-.55.96-1.15,1.43-1.73.02-.42.2-.72.39-1.03l.15-.24c.05-.08.09-.16.13-.25.04-.08.08-.17.11-.25.03-.09.05-.18.06-.27.16-.33.21-.7.22-1.06.01-.18,0-.36,0-.54,0-.18-.03-.36-.02-.53-.01-.09-.02-.18-.03-.26l-.03-.26c-.02-.17-.02-.35-.04-.53-.06-.34-.1-.7-.31-.99-.03-.08-.05-.16-.08-.24l-.05-.12s-.04-.08-.06-.11c-.08-.15-.16-.3-.24-.45-.08-.15-.18-.28-.26-.43-.04-.07-.08-.15-.11-.22-.03-.08-.08-.15-.11-.22-.14-.11-.25-.23-.34-.36-.11-.12-.2-.26-.29-.39-.05-.07-.09-.14-.14-.2-.05-.06-.11-.12-.16-.18-.11-.12-.23-.23-.38-.31-.13-.1-.26-.19-.39-.29-.06-.05-.13-.1-.19-.14l-.2-.12c-.13-.08-.27-.17-.4-.25-.14-.07-.28-.14-.41-.22-.05-.07-.11-.13-.17-.18-.06-.05-.13-.09-.2-.12-.14-.07-.29-.12-.44-.16-.15-.03-.31-.04-.46-.06-.15-.01-.3-.05-.45-.06-.15-.03-.29-.04-.44-.06-.07,0-.15-.01-.22-.01h-.22c-.14.01-.29,0-.43,0-.14-.02-.28-.03-.43-.08-.56,0-1.15-.05-1.64.22-.13.04-.26.06-.4.07-.14.01-.28,0-.41.03-.13.02-.27.05-.38.11-.11.07-.21.16-.28.31-.11.07-.22.12-.34.17-.12.05-.24.07-.36.12-.23.09-.46.21-.56.47-.12.24-.28.39-.48.51-.1.06-.19.13-.29.19-.09.06-.19.13-.26.21-.15.16-.3.32-.43.49l-.1.12-.05.06s-.03.04-.05.07c-.08.12-.16.24-.24.36-.05.07-.09.14-.14.21-.04.08-.09.15-.13.23-.09.15-.17.3-.26.44-.24-.18-.48-.36-.71-.53-.11-.08-.23-.15-.34-.23-.09-.06-.17-.11-.26-.17-.15-.1-.31-.17-.46-.26-.15-.09-.3-.15-.44-.22-.29-.14-.57-.23-.82-.32-.26-.09-.49-.14-.71-.21-.22-.05-.41-.09-.57-.13-.17-.04-.31-.05-.42-.08-.23-.05-.35-.09-.35-.12s.12-.07.36-.09c.12,0,.27-.03.45-.03.18,0,.38.01.61.03.23.03.49.06.77.12.28.07.59.13.91.25.16.05.33.11.5.19.17.08.35.14.52.24.04.02.09.05.13.07l.1.06c.05.03.11.05.16.08.1.06.19.12.29.18.04-.09.08-.17.13-.27.05-.09.11-.2.17-.29l.02-.04v-.02s.03-.03.03-.03l.08-.12c.06-.08.11-.15.16-.23.11-.16.24-.3.36-.46.08-.1.16-.2.23-.3.08-.1.15-.21.23-.31.17-.2.37-.39.64-.48.42-.33.82-.77,1.39-.94.1-.12.22-.22.34-.3.13-.07.27-.13.42-.18.14-.05.3-.07.45-.1.15-.03.3-.06.46-.1.6-.18,1.24-.19,1.89-.33.16-.04.33-.08.5-.06.17,0,.34.03.51.05l.25.03c.08.01.17.03.25.05.17.03.34.05.52.05.17.06.32.15.49.2.16.06.33.1.5.15.17.06.34.1.52.14.09.02.18.04.27.05.09.02.18.05.27.07.15.12.31.21.47.3.16.09.32.18.48.27l.25.13c.08.04.16.1.24.15.16.1.32.21.47.32.11.17.22.33.35.47.07.07.13.14.21.2.07.07.13.14.2.21.14.13.29.26.44.39.14.14.28.28.42.42.07.08.14.15.2.23.06.08.11.17.17.25.1.17.21.34.3.53.08.19.17.37.25.56l.06.14.06.14c.04.1.08.19.12.29.14.39.23.8.36,1.2.05.21.08.42.12.63.02.1.04.21.04.32,0,.11,0,.21,0,.32.19.85.15,1.77-.19,2.6-.12.89-.52,1.72-.98,2.5-.38.84-1.06,1.5-1.73,2.14-.16.17-.36.3-.55.44-.1.06-.2.12-.3.18l-.04.02s0,0-.01,0h-.02s-.02,0-.04,0c-.05.02-.14.03-.09.09.01.03.03.05.06.07,0,0,.01,0,.02.01h.01s0,0,0,0v.02c.03.05.06.11.09.16.03.11.06.22.08.34l.04.17c.01.06.02.12.02.18.03.24.06.48.07.72,0,.24.02.48.02.72-.01.24-.02.48-.02.73-.13.97-.4,1.91-.72,2.85-.17.2-.31.4-.44.61-.15.2-.27.41-.39.62-.26.41-.5.86-.81,1.26-.63.79-1.47,1.39-2.36,1.83-.86.5-1.82.79-2.79.93-.12.03-.24.05-.36.07l-.18.03h-.18c-.24.01-.48.01-.73.01-.24-.02-.48-.05-.72-.06-.12,0-.24-.02-.36-.03-.12-.01-.24-.02-.36-.02-.24,0-.48-.05-.71-.11-.12-.03-.23-.06-.34-.1l-.33-.13c-.22-.09-.44-.17-.65-.28-.11-.05-.21-.09-.32-.14l-.17-.06-.16-.07c-.21-.1-.43-.19-.64-.3-.2-.12-.4-.24-.59-.37-.19-.14-.36-.29-.53-.45-.17-.15-.31-.34-.46-.52-.17-.15-.3-.34-.44-.52l-.2-.27-.18-.29c-.25-.37-.46-.75-.78-1.08-.11-.19-.23-.38-.36-.56-.11-.19-.22-.39-.32-.59l-.07-.15c-.02-.05-.03-.1-.05-.15-.03-.1-.05-.21-.07-.31-.02-.1-.03-.21-.03-.32.03-.01.06-.04.1-.08-.02-.01-.02-.02-.03-.04,0,0,0-.02,0-.03,0,0-.01,0-.02,0-.02-.01-.06-.03-.08-.05.01,0-.06-.01-.11-.02l-.16-.02c-.1-.01-.21-.02-.31-.03-.21-.01-.41-.04-.62-.03-.1-.05-.19-.09-.29-.13-.1-.03-.19-.08-.29-.11-.19-.06-.39-.11-.59-.14-.2-.05-.39-.1-.59-.15-.1-.03-.2-.05-.29-.08-.09-.04-.19-.08-.27-.12-.17-.1-.35-.2-.51-.3-.16-.11-.32-.23-.48-.33-.17-.1-.32-.23-.47-.33-.16-.11-.33-.2-.49-.31-.33-.21-.61-.47-.83-.78-.11-.15-.24-.29-.34-.45-.1-.16-.21-.3-.33-.45-.15-.12-.24-.28-.33-.44-.09-.16-.16-.33-.23-.5-.06-.17-.11-.34-.18-.5-.04-.08-.07-.16-.12-.23-.04-.08-.08-.16-.13-.23-.05-.17-.11-.33-.17-.49-.06-.16-.09-.33-.14-.49-.04-.17-.09-.33-.12-.49-.02-.17-.04-.33-.05-.5-.25-.3-.25-.64-.22-.97,0-.08.02-.16.04-.24.02-.08.04-.16.06-.24.04-.16.08-.31.1-.47.01-.08.01-.15.02-.23,0-.08.01-.15.02-.23,0-.15,0-.31.01-.46,0-.15.03-.3.08-.45.05-.14.12-.28.23-.4-.04-.16-.02-.31.02-.45.03-.14.09-.27.16-.4.06-.13.16-.24.24-.36.09-.11.17-.22.25-.33.07-.11.15-.22.21-.34.06-.12.12-.24.18-.35.03-.06.06-.12.09-.17.04-.05.07-.1.11-.15.08-.1.17-.19.28-.27.06-.27.26-.43.45-.57.1-.07.19-.14.28-.22.1-.07.19-.14.26-.23.11-.05.2-.11.29-.18.04-.03.08-.07.12-.1.04-.03.09-.07.13-.1.16-.14.32-.28.49-.39.16-.13.33-.24.49-.33.08-.05.17-.09.26-.12.09-.03.18-.06.27-.08.16-.07.33-.14.48-.2.16-.05.32-.1.46-.15.11-.03.22-.07.33-.1.11-.02.21-.04.31-.06.2-.04.39-.08.57-.1.18-.01.34-.03.49-.04.15,0,.28-.02.4-.01.48.03.73.06.73.12Z"/>
        <path d="M70.71,37.53s-.18.24-.57.56c-.1.07-.2.18-.32.29-.11.11-.24.22-.38.35-.13.13-.26.28-.41.44-.07.08-.15.16-.22.24-.07.09-.14.18-.21.28-.1.13-.2.26-.3.4-.09.15-.18.29-.28.45-.04.08-.09.16-.14.24-.05.08-.08.17-.13.26-.08.17-.18.35-.28.53-.14.16-.17.38-.2.6,0,.05-.02.11-.03.16,0,.05-.02.11-.03.16-.03.11-.08.21-.16.3-.05.1-.09.21-.13.32-.03.11-.05.23-.07.34-.04.23-.07.47-.07.72,0,.12-.02.25-.04.37-.01.06-.02.12-.03.19,0,.06,0,.13-.01.19,0,.13-.01.26-.01.39s.01.26.06.39c.08.13.1.26.1.39,0,.13-.03.27-.04.41,0,.14-.02.28,0,.42.03.14.07.27.19.39.06.13.11.26.15.4.05.13.08.27.14.4.05.13.11.27.16.41l.08.21c.03.07.06.13.09.2.02.15.07.3.13.44.03.07.06.14.1.21.04.06.09.13.14.19.2.24.4.48.62.71.05.16.12.31.2.45.09.14.21.25.33.36.12.11.24.22.39.3.15.08.3.16.45.23.04.09.08.17.12.25.05.07.11.14.17.2.12.13.25.24.4.33.15.08.32.14.49.19.17.04.35.08.55.06.16.06.32.14.47.22.16.08.32.13.49.19.33.14.69.19,1.05.2.71.09,1.43.09,2.17.07.09-.04.18-.07.27-.09.09-.03.18-.07.26-.1.18-.06.35-.1.54-.14.18-.05.36-.09.55-.12.09-.02.19-.02.28-.04.09-.02.19-.03.29-.04.15-.13.32-.22.48-.33.16-.11.32-.2.5-.28.18-.1.36-.2.54-.3.17-.09.34-.19.51-.28l.13-.07.06-.03.03-.02h.02s0,0,.01,0l.18.25c.12.16.23.32.35.48.11.16.23.31.35.45.07.08.14.14.22.21.08.07.15.13.23.19l.12.09.13.08c.17.11.34.22.5.34.17.11.32.23.46.38.68.44,1.46.7,2.25.95l.29.11c.1.04.2.08.3.1.2.05.41.1.62.14.21.02.43.03.64.02.21-.01.43-.06.64-.12.85-.11,1.64-.36,2.49-.54.09-.07.18-.14.27-.2.09-.06.19-.11.27-.18.18-.12.37-.22.56-.32.18-.11.37-.21.57-.31l.15-.07.14-.08.29-.17c.08-.07.17-.14.25-.21.08-.08.16-.15.24-.23.16-.15.34-.28.48-.45.15-.17.31-.32.44-.51.12-.19.24-.38.33-.58.12-.19.22-.39.33-.59l.08-.15.06-.16.12-.31c.04-.11.09-.21.12-.32.03-.11.06-.21.1-.32.04-.11.07-.21.12-.32.04-.11.06-.22.1-.32.15-.43.24-.88.28-1.33,0-.23.01-.46,0-.68-.03-.22-.07-.45-.13-.67-.02-.11-.06-.22-.09-.32-.03-.11-.05-.21-.07-.32-.03-.22-.09-.43-.13-.65l-.07-.33c-.02-.11-.06-.21-.1-.32-.04-.1-.07-.21-.11-.31-.04-.1-.08-.21-.14-.3-.05-.22-.12-.43-.22-.63-.11-.19-.24-.37-.37-.55-.28-.34-.59-.64-.86-.98l-.11-.12v-.02s-.04-.03-.04-.03l-.06-.05-.12-.11-.46-.44-.22-.22-.05-.05s-.03-.02-.02-.03l.02-.04.08-.14.32-.56c.26-.47.29-.56.39-.77.07-.2.14-.4.17-.62.22-.82.3-1.64.42-2.47-.19-.41-.19-.8-.19-1.21v-.31c0-.1,0-.2-.01-.31-.01-.1-.02-.2-.04-.3-.03-.1-.06-.2-.09-.29-.04-.41-.2-.79-.38-1.14-.09-.18-.21-.34-.3-.52-.1-.17-.22-.33-.32-.5-.06-.08-.12-.16-.17-.24l-.17-.23c-.12-.16-.22-.33-.33-.48-.25-.3-.49-.61-.85-.78-.07-.06-.14-.13-.22-.19l-.11-.09-.12-.08c-.16-.1-.32-.2-.48-.3-.16-.1-.33-.17-.49-.27-.08-.05-.16-.1-.24-.15-.08-.05-.16-.09-.24-.15-.19-.03-.36-.09-.53-.17-.17-.06-.34-.13-.5-.21-.08-.04-.16-.08-.25-.11-.09-.03-.17-.06-.26-.08-.17-.05-.35-.09-.53-.09-.18-.02-.35-.04-.53-.06-.09,0-.17-.03-.26-.03h-.26c-.17,0-.35-.02-.52-.02-.17,0-.35.02-.52.02-.09-.03-.18-.05-.27-.07-.09,0-.17,0-.26,0-.17.01-.34.05-.51.09-.16.05-.32.12-.47.19-.15.07-.31.12-.46.19-.16.05-.31.12-.45.19-.07.04-.15.07-.22.11l-.21.13c-.14.08-.28.16-.42.22-.15.06-.29.13-.45.17-.54.32-1.12.6-1.45,1.12-.1.11-.21.21-.33.29-.12.09-.26.17-.37.27-.11.1-.22.2-.3.32-.07.13-.12.27-.11.44-.07.12-.14.24-.23.35-.08.11-.19.21-.27.32-.08.11-.16.23-.22.35-.06.12-.08.26-.07.41,0,.29-.07.53-.19.75-.05.12-.11.23-.16.34-.05.12-.11.23-.13.35-.05.24-.11.47-.13.71-.02.12-.04.23-.05.34,0,.06,0,.12-.01.17,0,.09,0,.17-.01.25-.02.38,0,.74-.02,1.08v.06h0s0,0,0,0h-.02s-.03,0-.03,0h-.13c-.09-.03-.18-.04-.26-.04-.17-.02-.34-.04-.51-.06-.08,0-.17-.01-.25-.02-.08,0-.15,0-.23-.01-.11,0-.22-.01-.33-.02-.21,0-.42,0-.62.01-.1,0-.2,0-.29.02-.09,0-.19.02-.28.03-.09,0-.18.02-.27.03-.09.01-.17.03-.26.05-.17.03-.33.05-.48.09-.15.04-.29.08-.43.11-.27.06-.5.16-.71.22-.21.06-.37.13-.51.18-.28.1-.43.14-.45.1-.02-.04.12-.16.43-.37.15-.11.35-.22.6-.34.24-.14.54-.24.87-.38.68-.23,1.55-.45,2.61-.48.06,0,.12,0,.18,0,.04,0,.07,0,.11,0,.08,0,.15,0,.23,0,.04,0,.08,0,.11,0h.06s.02,0,.03,0v-.03c0-.08-.01-.17-.02-.25,0-.08,0-.17,0-.25v-.19c0-.08,0-.16.02-.24.01-.16.03-.32.04-.49.03-.16.05-.33.08-.5.02-.13.04-.27.06-.41.02-.14.03-.28.05-.42.06-.28.14-.57.34-.8.21-.55.36-1.17.81-1.65.03-.17.09-.33.17-.47.09-.14.19-.27.3-.39.11-.13.24-.23.36-.35.13-.11.25-.23.38-.34.47-.5,1.07-.86,1.62-1.34.13-.12.28-.25.44-.33.16-.09.33-.16.5-.23l.26-.11c.09-.04.18-.06.27-.09.18-.06.35-.14.52-.23.19-.04.39-.04.57-.08.19-.03.37-.09.56-.13.19-.04.38-.09.57-.14.09-.03.19-.06.29-.09.1-.02.19-.05.29-.07.2.03.4.03.6.02.2,0,.4,0,.61,0,.1,0,.2-.01.31-.02.1,0,.21,0,.31,0,.21,0,.42.02.62.05.2.1.39.18.59.24.1.03.2.06.3.08.1.03.2.06.3.08.21.05.42.09.63.14.21.06.42.12.63.18.1.03.21.07.31.11.1.05.2.1.29.15.19.11.39.21.57.34.18.13.36.26.55.39l.14.1.13.11c.09.07.18.14.27.21.34.3.66.63,1,.94.16.17.3.35.45.53.07.09.15.18.22.28.06.1.12.2.18.3.63.7,1.09,1.59,1.24,2.56.36.91.44,1.91.44,2.9.09,1-.19,2-.47,2.97-.06.25-.17.48-.28.71-.06.11-.12.22-.19.34-.09.16-.07.1-.1.14-.04.04-.12.1-.03.14.03.02.07.04.1.05,0,0,.02,0,.03,0h.01s0,0,0,0h.02c.05.05.11.09.16.13.75.74,1.28,1.66,1.77,2.6.41.98.67,2.02.87,3.08-.05.28-.07.55-.07.82-.03.27-.03.53-.03.8-.02.53-.01,1.08-.09,1.63-.17,1.09-.63,2.11-1.23,3.01-.55.94-1.29,1.74-2.12,2.4-.1.09-.2.18-.3.26l-.15.13-.17.11c-.23.14-.45.27-.68.4-.24.11-.48.22-.71.34-.12.06-.24.11-.35.16-.12.05-.24.11-.35.17-.23.13-.48.21-.73.28-.12.04-.25.07-.38.1l-.38.06c-.26.04-.51.08-.77.09-.13.01-.25.03-.38.05l-.19.03-.19.02c-.25.02-.51.06-.76.06-.25,0-.51,0-.76-.03-.25-.03-.5-.08-.75-.13-.12-.02-.24-.06-.36-.11-.12-.04-.24-.08-.35-.13-.24-.05-.47-.16-.7-.25l-.34-.15-.32-.17c-.22-.11-.44-.21-.65-.33-.21-.11-.45-.19-.68-.27-.21-.12-.42-.23-.64-.34-.21-.12-.42-.25-.62-.39l-.15-.11s-.09-.08-.13-.12c-.09-.08-.17-.17-.25-.26-.08-.09-.15-.19-.21-.29.01-.03.03-.07.04-.13-.02,0-.04-.02-.05-.03,0,0-.01-.01-.02-.02,0,0-.02,0-.02,0-.03,0-.06,0-.11.01-.21.09-.42.18-.63.28-.2.1-.41.18-.61.3-.12,0-.23.02-.34.05-.11.02-.22.03-.33.06-.22.05-.43.11-.64.18-.21.06-.43.11-.64.17-.11.03-.21.06-.32.08-.11.01-.22.03-.33.03-.22,0-.44,0-.65,0-.22-.02-.43-.04-.64-.05-.21,0-.42-.04-.63-.06-.21-.02-.42-.01-.63-.03-.42-.02-.83-.12-1.21-.28-.19-.08-.38-.15-.57-.24-.18-.09-.36-.17-.55-.24-.2-.04-.38-.13-.55-.23-.17-.11-.33-.22-.49-.34-.15-.13-.29-.26-.45-.37-.08-.06-.16-.11-.24-.16-.08-.05-.16-.1-.25-.15-.14-.13-.28-.25-.43-.37-.15-.12-.27-.26-.4-.39-.13-.13-.27-.26-.38-.4-.11-.14-.22-.29-.32-.44-.39-.16-.58-.48-.73-.8-.04-.08-.07-.16-.1-.25-.03-.08-.05-.17-.08-.26-.05-.17-.1-.34-.17-.49-.03-.08-.07-.15-.11-.23-.03-.08-.07-.15-.11-.23-.08-.15-.16-.3-.23-.45-.08-.15-.13-.31-.16-.47-.03-.16-.04-.33-.02-.5-.12-.14-.17-.29-.22-.44-.04-.15-.06-.31-.07-.46-.01-.16.01-.31.03-.47.02-.15.04-.3.05-.45,0-.15.01-.29.01-.44,0-.14-.01-.29-.02-.43,0-.07,0-.14,0-.21,0-.07.01-.14.02-.21.02-.14.05-.27.11-.4-.08-.29.02-.54.11-.79.05-.12.1-.24.15-.36.05-.12.1-.23.12-.36.07-.11.12-.22.17-.33.02-.06.04-.11.06-.17.02-.05.04-.11.07-.16.08-.22.15-.44.26-.64.08-.21.18-.4.29-.58.05-.09.11-.18.17-.26.07-.08.14-.15.21-.22.12-.16.23-.31.34-.46.12-.13.24-.27.36-.39.09-.09.17-.19.25-.27.09-.08.18-.16.26-.23.17-.15.32-.29.48-.41.16-.11.31-.21.44-.31.14-.09.25-.18.37-.24.47-.25.73-.35.75-.3Z"/>
        <path d="M16.48,31.99s-.15.2-.46.48c-.32.28-.78.7-1.26,1.32-.16.21-.32.44-.48.69-.15.26-.29.55-.45.84-.14.12-.16.31-.17.49-.02.19-.04.36-.2.5-.18.33-.22.73-.24,1.13-.02.4-.19.81-.06,1.25.14.21.07.43.03.66-.04.23-.07.47.14.67.16.44.27.89.44,1.35,0,.54.43.91.75,1.31.09.57.54.94,1.05,1.17.16.62.7.95,1.35.94.25.13.49.28.75.4.13.06.27.11.41.15.14.04.3.07.43.06.07,0,.14.02.19,0,.02-.06.04-.1.07-.14.12-.17.27-.35.43-.51.29-.71.88-1.24,1.61-1.52.47-.65,1.24-.95,2.01-1.11.39-.08.74-.24,1.12-.38.38-.14.78-.24,1.19-.18.8-.06,1.63-.11,2.44.08.81.25,1.53.6,2.39.77.13.05.27.11.4.17l.2.1s.02,0,.03,0c.03,0,.04,0,.06.02.01-.01.03,0,.08,0,0-.02-.02-.04-.02-.05v-.02s-.01-.01,0-.02l.02-.04c.04-.1.09-.2.15-.3.11-.19.25-.37.4-.53.3-.33.67-.6,1.05-.84.32-.31.7-.54,1.09-.76.39-.22.78-.42,1.16-.67.42-.16.83-.34,1.27-.49.22-.07.44-.13.66-.17.11-.02.22-.04.34-.05h.17s.09-.02.09-.02c.02,0,.07,0,.06,0,.05.02.13.05.22.06.02.01.02-.01.02-.02,0-.01,0-.03,0-.04,0-.03,0-.06-.02-.09-.01-.03-.02-.06-.04-.08,0,0-.03-.07-.05-.12-.02-.05-.05-.1-.07-.16-.17-.33-.27-.66-.39-.99-.12-.32-.27-.66-.5-.93-.09-.29-.27-.53-.48-.74-.05-.05-.11-.1-.17-.14l-.15-.13-.17-.14c-.24-.19-.49-.39-.72-.58.13-.24.27-.48.41-.71.05-.08.09-.16.13-.24.02-.04.04-.08.06-.12l.05-.1.11-.24c.07-.16.15-.32.21-.48.13-.33.22-.67.21-1.02.07-.69.03-1.36.05-2.04-.23-.31-.27-.62-.31-.95-.03-.33-.05-.68-.23-.96-.06-.33-.23-.63-.42-.89-.19-.27-.41-.5-.6-.76-.23-.22-.42-.48-.64-.71-.21-.23-.46-.45-.76-.56-.25-.19-.54-.32-.81-.44-.28-.12-.56-.23-.82-.4-.31,0-.59-.12-.87-.23-.28-.1-.57-.2-.87-.15-.58-.04-1.15,0-1.71.06-.3-.1-.59-.04-.85.06-.26.11-.5.26-.74.38-.25.09-.47.25-.69.4-.22.15-.43.29-.7.35-.43.28-.9.54-1.14.98-.15.2-.38.31-.57.47-.19.16-.34.36-.29.65-.09.22-.26.38-.4.56-.14.18-.25.38-.2.63.04.25-.03.44-.12.63-.09.19-.2.38-.24.57-.04.2-.07.39-.1.58v.07s-.02.09-.02.09c0,.07-.01.15-.02.22,0,.14,0,.29,0,.43,0,.25,0,.49,0,.72-.29-.04-.58-.08-.85-.11-.13-.02-.27-.03-.39-.04-.06,0-.12,0-.18,0-.04,0-.09,0-.13,0-.34-.01-.66,0-.96.03-.6.06-1.1.17-1.5.28-.8.23-1.22.43-1.26.36-.03-.06.31-.39,1.11-.77.4-.19.92-.38,1.56-.51.32-.06.66-.11,1.04-.14.08,0,.15,0,.23-.01.06,0,.11,0,.17,0,.11,0,.22,0,.32,0-.02-.16-.03-.32-.03-.48,0-.04,0-.24.02-.39.01-.16.03-.32.05-.48.06-.44-.02-.97.32-1.38.17-.46.24-1,.61-1.41.02-.3.16-.54.34-.75.18-.21.41-.4.6-.6.37-.44.86-.76,1.28-1.21.2-.24.47-.4.75-.53.28-.13.58-.25.85-.42.65-.1,1.23-.32,1.87-.59.34.02.67-.02,1.02-.07.34-.04.69-.09,1.04-.06.34.15.68.22,1.03.26.35.05.72.07,1.08.14.73.15,1.35.6,2.01.97.6.46,1.26.89,1.74,1.53.6.52,1.09,1.21,1.29,2.01.41.71.58,1.54.69,2.37.21.82.09,1.69-.03,2.53-.04.43-.21.83-.38,1.23-.08.2-.17.39-.24.6-.04.1-.07.2-.1.31-.01.04,0,.04,0,.04,0,0,0,.01,0,.02,0,.01.02.02.04.03,0,.02,0,.03-.02.05.01.01.03.03.04.04h0s0,.02,0,.02h0s.02.02.02.02l.18.2c.24.27.46.55.69.84.24.38.45.77.65,1.19.19.42.35.85.5,1.28,0,.07,0,.15,0,.22,0,.08,0,.12.01.25.02.22.04.44.07.65.02.21.04.42.07.64l.05.33c.01.11.04.24.04.32-.27.02-.54.04-.83.07-.29.03-.58.06-.87.12-.06,0-.06.01-.09.02h-.07s-.13.05-.13.05l-.27.06c-.18.04-.36.09-.53.13-.35.09-.7.2-1.05.33-.66.32-1.28.7-1.83,1.16-.25.27-.52.49-.77.75-.13.13-.25.26-.35.4-.05.07-.1.14-.15.22l-.11.19c-.05.08-.09.16-.13.25-.21.44-.44.92-.67,1.32-.42-.33-.85-.7-1.25-.99-.1-.07-.21-.14-.3-.2-.05-.03-.1-.06-.16-.09-.1-.06-.21-.1-.33-.14-.66-.23-1.3-.4-1.94-.65-.33-.06-.66-.16-1-.2-.34-.05-.68-.04-1,.11-.33.06-.63.2-.93.31-.3.11-.6.18-.97.12-.28.16-.59.25-.89.37-.3.12-.59.27-.79.51-.34.07-.59.27-.8.5-.21.24-.37.5-.57.73-.14.13-.26.26-.39.42-.21.27-.4.56-.58.85-.4-.06-.79-.12-1.21-.18-.74-.06-1.3-.52-1.91-.8-.33-.09-.59-.32-.83-.55-.24-.24-.45-.47-.74-.62-.44-.46-.9-.9-1.19-1.43-.33-.14-.49-.41-.59-.7-.1-.29-.13-.59-.22-.86-.08-.27-.23-.51-.35-.77-.11-.26-.18-.53-.09-.82-.19-.23-.24-.5-.23-.77.01-.26.08-.52.12-.77.08-.49-.08-.99.16-1.41-.06-.24.02-.46.11-.66.1-.2.21-.38.25-.59.26-.34.29-.75.5-1.07.13-.35.33-.65.58-.88.2-.26.4-.49.6-.7.6-.61,1.15-.97,1.54-1.18.39-.21.61-.27.64-.22Z"/>
        <path d="M53.63,35.04s.19-.04.56-.09c.37-.04.91-.12,1.61-.3.7-.18,1.54-.47,2.5-.91.96-.44,2.03-1.03,3.23-1.73.8-.47,1.65-.99,2.58-1.52.92-.55,1.92-1.11,3.04-1.59.59-.17,1.15-.46,1.76-.7.6-.24,1.26-.44,1.96-.42.69-.06,1.39-.09,2.12-.03.73.06,1.47.2,2.19.46.6.21,1.16.52,1.7.88.27.18.53.38.78.59.16.13.34.29.5.44l.25.23.13.12.06.06.03.03v.03c-.1.16-.21.33-.32.5-.05.09-.11.17-.16.26l-.08.14s-.03.05-.04.07l-.02.05c-.26.7-.61,1.35-.88,2.08-.13.36-.24.74-.29,1.13-.03.2-.04.39-.03.59,0,.29.03.62.09.98.01.21.03.42.04.64-.31-.03-.62-.06-.93-.09-.16-.02-.31-.02-.47-.03h-.22s-.14,0-.14,0c-.37,0-.74.03-1.11.08-.74.1-1.48.3-2.2.6-.81.24-1.56.71-2.2,1.3-.64.59-1.17,1.3-1.61,2.07-.57.69-.96,1.54-1.14,2.45-.19.9-.18,1.85,0,2.76-.08.94.12,1.92.55,2.79.43.88,1.09,1.65,1.89,2.21.69.68,1.48,1.27,2.38,1.69.9.42,1.9.68,2.9.67.25.01.5.02.74,0,.12,0,.25-.01.37-.02l.21-.02.35-.04c.24-.04.48-.08.73-.15.25-.06.53-.15.81-.25.58-.19,1.16-.38,1.74-.57l-.04.12-.03.09-.02.05v.02s-.03.04-.03.04l-.09.16-.34.62c-.23.41-.45.82-.7,1.24-.24.42-.51.84-.79,1.26l-.15.22-.13.18c-.09.12-.17.24-.26.36-.3.51-.62,1.01-.98,1.48-.18.24-.37.47-.56.7-.12.14-.24.28-.36.42,0,.17-.02.34-.02.52-.01.29-.03.58-.05.87-.04.58-.1,1.16-.17,1.74.16,2.36-.07,4.75-.38,7.17-.32,2.41-.21,4.9-.73,7.37-.34,2.48-.68,5.01-1.31,7.53-.35,1.25-.74,2.5-1.18,3.75-.22.62-.46,1.25-.72,1.88-.26.63-.54,1.26-.9,1.89-.2.3-.42.6-.68.89-.26.29-.57.57-.96.79-.39.22-.89.39-1.4.37-.13,0-.25-.02-.38-.04-.12-.02-.24-.05-.38-.1-.26-.09-.55-.27-.76-.5-.22-.23-.35-.49-.43-.73-.09-.24-.13-.45-.16-.65-.06-.41-.07-.77-.07-1.12,0-.7.05-1.36.1-2.03-.1-1.33-.15-2.63-.23-3.94-.08-1.31-.19-2.62-.37-3.95-.54-2.6-1.16-5.25-2.31-7.73-.49-1.27-1.07-2.51-1.69-3.74l-.47-.92-.4-.76-.02-.05s-.03,0-.06,0h-.02s0,0-.06,0l-.27.04c-.18.02-.36.04-.54.06-2.88.33-5.74.26-8.58.04-.36-.03-.71-.06-1.06-.11l-.12-.02h-.02s-.04,0-.04,0c-.01,0-.03,0-.03.01-.24.46-.48.91-.73,1.37-.63,1.2-1.23,2.41-1.71,3.66-.62,1.2-1.06,2.46-1.42,3.74-.36,1.28-.64,2.56-.94,3.83-.25,1.28-.48,2.56-.63,3.85-.14,1.29-.19,2.57-.11,3.86.02.64.05,1.29.07,1.95.01.33.02.66.02,1.01,0,.35-.02.71-.1,1.12-.04.2-.1.42-.21.66-.11.23-.28.49-.52.68-.23.2-.51.32-.76.39-.24.06-.48.09-.73.09-.5-.01-.96-.19-1.32-.41-.37-.23-.65-.5-.9-.79-.58-.49-.99-1.07-1.33-1.67-.33-.6-.58-1.22-.79-1.84-.42-1.25-.69-2.5-1.05-3.72-.48-2.49-1.09-4.89-1.4-7.31-.42-2.41-.43-4.82-.79-7.15-.07-.98-.16-1.96-.25-2.93-.04-.49-.08-.97-.11-1.45-.02-.37-.04-.73-.06-1.1l-.03-.64v-.32s-.02-.16-.02-.16v-.08s0-.04,0-.07c.35.06.69.12,1.04.18.17.03.34.06.5.08l.24.02h.12s.07.02.07.02c1.03-.07,2.03-.22,2.99-.56.95-.34,1.84-.88,2.49-1.64.7-.71,1.24-1.56,1.6-2.46.36-.91.54-1.87.55-2.83.06-.41.06-.83,0-1.25-.01-.1-.03-.21-.05-.31l-.03-.15-.02-.08-.03-.1c-.09-.33-.21-.66-.32-.98.19-.12.39-.23.58-.36.1-.06.19-.12.28-.19l.11-.08.08-.06c.21-.17.41-.35.6-.54.38-.38.71-.79,1.01-1.22.55-.74.91-1.59,1.11-2.46.21-.87.28-1.74.3-2.62-.07-.87-.26-1.73-.6-2.52-.34-.79-.83-1.51-1.46-2.06-.59-.58-1.19-1.15-1.9-1.59-.7-.43-1.51-.71-2.32-.63l-.29-.03h-.07s-.1-.02-.1-.02l-.21-.02c-.31-.01-.63-.03-.94-.04-.02-.25-.04-.49-.06-.74,0-.12-.02-.24-.03-.35l-.03-.27c-.03-.29-.08-.58-.16-.85-.15-.56-.41-1.06-.8-1.47-.24-.26-.47-.51-.7-.76l-.17-.18-.1-.1c-.05-.05-.1-.1-.16-.16-.21-.2-.43-.4-.63-.59.17-.28.34-.56.49-.83l.16-.3c.04-.08.08-.16.12-.25.15-.33.28-.67.36-1.02.15-.64.21-1.29.19-1.92,0-.16-.02-.31-.03-.47v-.12s-.02-.03-.02-.03v-.05s-.02-.09-.02-.09c-.02-.12-.04-.23-.06-.35-.1-.47-.25-.96-.39-1.41.03-.02.05-.05.09-.06.52.08,1,.15,1.5.26.12.03.25.06.37.09l.18.05.16.04c.18.05.35.11.52.17.69.23,1.33.5,1.95.79,1.22.58,2.31,1.21,3.31,1.8,1,.59,1.92,1.15,2.77,1.63.85.48,1.63.9,2.35,1.23,1.44.67,2.62.98,3.43,1.11.81.13,1.24.14,1.24.18,0,.03-.43.11-1.28.05-.84-.06-2.09-.31-3.61-.93-.76-.31-1.58-.7-2.46-1.16-.88-.46-1.83-1-2.85-1.56-1.02-.56-2.12-1.15-3.33-1.68-.6-.26-1.23-.5-1.89-.7-.08-.02-.17-.05-.25-.07l-.22-.06c-.1-.02-.2-.05-.3-.07s-.2-.04-.3-.05l-.15-.02h-.07s.01.04.02.06c.06.17.1.34.14.52,0,.04.02.09.02.13v.03s.01.05.01.05l.02.13c.02.18.04.35.05.53.04.71-.02,1.44-.17,2.17-.09.4-.19.79-.32,1.19-.03.1-.07.2-.11.29-.02.05-.04.1-.06.15l-.02.04v.02s-.02.03-.02.03c-.03.08-.06.15-.09.22.06.05.12.09.17.14l.04.04.09.09c.07.07.13.14.2.22.26.3.48.63.67.99.34.52.66,1.11.88,1.73.11.31.2.63.27.95l.04.18.02.09c.01.06.02.12.02.18.08,0,.15,0,.23.02l.22.04c.11.02.22.04.33.06.91,0,1.83.27,2.66.72.83.45,1.57,1.07,2.24,1.76.67.69,1.22,1.51,1.63,2.41.41.9.68,1.87.82,2.88.17,1.01.07,2.08-.22,3.09-.3,1.01-.78,1.97-1.36,2.88-.4.47-.83.91-1.3,1.31-.23.2-.47.39-.72.58l-.24.17-.15.1c.04.09.07.18.1.26,0,0,0,0,0,.01v.04s.04.09.04.09l.05.17c.03.12.06.23.08.35.11.47.18.95.22,1.44-.07,1.13-.26,2.26-.66,3.35-.4,1.08-1.01,2.12-1.84,2.96-.92.76-1.91,1.41-3.01,1.89-1.09.48-2.3.78-3.53.8h-.08s-.03,0-.03,0h-.06s-.07,0-.11,0c0,0,0,0,0,0h0s0,.03,0,.03v.04s.01.07.01.07l.02.34c.03.48.05.96.08,1.44.05.96.12,1.93.23,2.9.15,2.33.52,4.67.82,7.05.46,2.34.93,4.72,1.4,7.14.35,1.17.7,2.34,1.14,3.48.22.56.46,1.12.73,1.64.27.52.59,1.01.95,1.4.19.18.38.34.56.44.18.1.34.14.49.14.07,0,.15,0,.22-.03.07-.02.09-.03.1-.04.01,0,.03-.02.06-.08.03-.06.06-.15.08-.26.05-.23.07-.52.08-.82,0-.3,0-.62,0-.94-.01-.65-.03-1.31-.04-1.97-.04-1.33.07-2.68.23-4.02.16-1.34.38-2.68.52-4.05.52-2.69,1.44-5.3,2.44-7.88.54-1.27,1.13-2.53,1.75-3.78.16-.31.31-.62.47-.93l.25-.48.44-.84.11-.21.03-.05v-.03s.02-.01.02-.01c0,0,0,0,.01,0l.12.02.47.08.46.08.23.04.14.02c.33.05.67.09,1,.13,1.32.31,2.68.42,4.04.4,1.36-.03,2.73-.2,4.07-.44l.5-.09.69-.13.48-.09.25-.05.12-.02h.06s.03-.02.03-.02h.02s0,0,0,0l.48.88.33.63.25.47c.16.32.32.63.47.95.62,1.28,1.18,2.58,1.68,3.89,1.07,2.61,1.89,5.31,2.39,8.05.3,1.36.46,2.75.53,4.13.08,1.38.07,2.76.09,4.11.01.67,0,1.34,0,1.97,0,.31,0,.62.04.87.03.26.1.44.13.46.01.02.02.03.07.06.02.01.06.02.11.03.04.01.08.02.12.02.16.01.33-.02.52-.12.38-.2.77-.64,1.07-1.14.31-.5.58-1.05.81-1.61.24-.57.45-1.15.66-1.74.4-1.18.75-2.39,1.11-3.6.57-2.44,1.22-4.88,1.31-7.37.27-2.46.2-4.91.76-7.28.09-2.41.49-4.76.42-7.1.09-.58.15-1.15.18-1.73.02-.29.03-.57.03-.86,0-.37,0-.74.01-1.11l.46-.51.27-.32c.18-.22.35-.44.52-.66.34-.44.67-.89.99-1.34.08-.11.17-.22.25-.33l.22-.3c.05-.06.1-.12.15-.19.05-.07.11-.15.16-.22l.08-.12.02-.03s0,0,0,0h0s-.01,0-.01,0h-.06c-.15.06-.33.09-.51.12h-.07s-.19.03-.19.03c-.15.01-.29.02-.44.03-.29.01-.58.02-.87.01-1.18-.01-2.34-.33-3.38-.84-1.04-.51-1.96-1.2-2.78-1.97-.86-.74-1.48-1.71-1.9-2.72-.43-1.02-.67-2.07-.87-3.12-.09-1.07-.03-2.13.2-3.15.23-1.02.62-1.99,1.18-2.84.37-.97,1.05-1.78,1.84-2.39.8-.62,1.69-1.04,2.57-1.41.82-.33,1.64-.61,2.5-.76.43-.08.85-.12,1.28-.11h.16s.03,0,.03,0h.04s.06.01.09.02c.07.02.14.04.24.07.01-.03.03-.07.05-.11-.04-.12-.06-.19-.08-.28,0-.23,0-.45.02-.67.04-.44.14-.88.27-1.3.26-.84.68-1.6,1.13-2.29l.03-.05s0-.01.02-.02l.03-.04.06-.08.12-.17h0s0-.02,0-.02l-.02-.02-.04-.04-.09-.08c-.06-.05-.11-.09-.19-.15-.23-.18-.47-.35-.72-.5-.49-.31-.99-.57-1.48-.84-.67-.15-1.29-.33-1.94-.43-.64-.11-1.3-.14-1.92-.02-.64.02-1.26.16-1.84.35-.58.19-1.14.42-1.69.64-1.06.5-2.05,1.02-3.01,1.47-.93.51-1.81,1-2.62,1.44-1.23.67-2.34,1.23-3.34,1.63-1,.41-1.89.66-2.61.79-.73.13-1.29.16-1.67.15-.38,0-.57-.04-.57-.07Z"/>
        <path d="M87.9,67.43c0,.05-.08.11-.24.17-.08.03-.17.05-.28.09-.11.04-.24.09-.38.13-.09.03-.19.08-.29.12-.05.03-.1.06-.16.08-.05.03-.11.05-.17.07-.17-.08-.14.32-.34.19-.15,0-.26.11-.36.23-.1.12-.31.07-.36.28.02.16-.09.14-.2.14-.11,0-.21.02-.16.2-.04.09-.09.14-.15.21-.06.07-.12.12-.19.18-.14,0-.2.07-.23.16-.03.09-.04.2-.08.29-.3.02-.33.26-.25.51-.19.01-.32.08-.34.18-.03.1.02.24.14.38-.03.09-.08.19-.12.28-.02.05-.03.1-.04.15,0,.05.01.11.04.17,0,.11,0,.21,0,.32,0,.11,0,.21-.03.32.11.11.18.21.18.32,0,.05,0,.11-.03.16-.02.06-.04.11-.08.18.27.18.23.39.16.65-.03.13.07.22.15.31.08.09.17.17.13.32.04.11.12.2.19.3.07.1.15.18.2.29.02.06.03.13.05.19.03.06.06.11.09.17.04.05.08.09.14.12.06.03.13.05.21.04.11.06.22.12.33.18.11.06.19.15.26.27.34-.09.48.11.67.33.13.02.23.11.35.16.12.05.24.1.38.05.12.04.25.03.38.03.13-.01.26-.02.39.05.13.03.26.06.4.07.13,0,.26-.05.37-.14.11-.1.23-.13.36-.13.13,0,.26-.01.37-.08.17.07.27-.01.37-.1.1-.08.17-.21.3-.23.1-.07.22-.12.33-.18.12-.05.21-.13.26-.26.04-.05.08-.1.11-.14.03-.05.07-.1.11-.15.04-.05.08-.09.13-.12.04-.04.09-.08.15-.11-.08-.21,0-.28.11-.35.11-.07.27-.11.28-.24.12-.07.17-.18.2-.29.02-.12.03-.23.09-.33,0-.12.06-.22.13-.32.07-.1.09-.21.04-.33.02-.05.02-.11.02-.16,0-.06-.01-.11-.02-.17-.01-.11,0-.21.06-.32-.1-.11-.06-.21-.02-.32.04-.11.07-.22,0-.31l-.02-.15-.04-.15c-.03-.1-.04-.2-.05-.3.1-.14.08-.25.02-.33-.06-.09-.17-.14-.22-.23-.05-.2-.33-.24-.25-.51-.04-.08-.07-.18-.11-.26-.04-.09-.09-.16-.2-.19-.08-.05-.05-.19-.07-.3-.01-.11-.07-.18-.27-.1-.09-.03-.09-.14-.12-.24-.03-.09-.09-.16-.23-.1-.26.1-.24-.19-.36-.28-.12-.09-.24-.16-.36-.23-.53-.31-1-.47-1.33-.58-.33-.1-.52-.18-.52-.26,0-.04.06-.08.18-.12.12-.03.3-.08.53-.08.46-.02,1.17.06,1.98.45.15.08.44,0,.49.27.08.06.18.09.28.13.09.04.18.11.21.22.17-.03.27.03.32.13.06.1.09.22.16.31.08.08.14.18.2.28.06.1.14.18.25.25.26.12.19.45.39.63-.03.3.08.5.32.71-.03.15,0,.28.06.4.03.06.06.12.1.19.03.06.05.13.06.2-.1.16-.1.29-.06.43.03.14.11.27.17.42.05.14.03.29,0,.44-.01.07-.02.15-.03.22-.01.07-.02.15-.02.23-.08.29-.05.62-.18.91,0,.17-.01.33-.06.49-.05.15-.15.29-.29.4-.03.17-.12.31-.21.45-.09.14-.2.26-.3.4-.03.08-.07.16-.12.22-.05.07-.11.13-.17.19l-.19.17c-.06.06-.13.11-.19.17-.11.14-.28.2-.44.27-.16.07-.29.17-.37.37-.28.22-.63.31-.94.49-.17.04-.35.1-.52.14-.18.04-.34.1-.52.17-.21-.11-.38-.1-.56-.06-.18.03-.35.11-.54.17-.19.03-.37.03-.56.02-.18-.03-.36-.08-.54-.12-.18-.02-.36-.07-.53-.11-.17-.05-.34-.13-.5-.2-.19-.02-.33-.14-.48-.23-.15-.09-.28-.22-.46-.26-.18-.04-.3-.18-.42-.3-.12-.12-.22-.27-.39-.34-.08-.04-.15-.09-.22-.14-.07-.05-.13-.11-.19-.17-.06-.06-.11-.13-.16-.2-.04-.08-.07-.16-.1-.25-.1-.13-.15-.3-.2-.46-.05-.16-.14-.29-.31-.38-.09-.13-.25-.24-.35-.38-.09-.14-.13-.31,0-.51-.09-.14-.08-.3-.08-.46,0-.16.01-.31-.1-.45.06-.09.08-.16.09-.24,0-.07,0-.15-.02-.22-.04-.14-.12-.29-.1-.43.03-.15.08-.29.1-.42.02-.14.04-.28,0-.42-.02-.08-.02-.15-.01-.21.02-.07.04-.13.08-.2.07-.12.13-.25.15-.38-.03-.15.07-.26.16-.36.09-.1.2-.19.17-.35.13-.21.22-.45.39-.63-.09-.21-.01-.3.1-.37.11-.06.26-.09.35-.16.1-.06.12-.19.17-.29.05-.11.13-.18.31-.15-.02-.17.05-.26.16-.29.1-.04.23-.03.33-.06.2-.05.25-.31.49-.27.03-.13.12-.16.22-.15.1,0,.2.02.26-.05.2.05.29-.11.44-.13.06-.05.13-.08.19-.09.07,0,.14,0,.21.01.13-.01.25-.04.36-.04.17,0,.31,0,.44,0,.13,0,.23.03.32.05.17.04.25.09.25.14Z"/>
        <path d="M51.86,16.51c0,.05-.09.11-.24.17-.08.03-.17.05-.28.09-.11.04-.23.08-.38.13-.09.03-.19.08-.29.12-.05.03-.1.06-.16.08-.05.03-.11.05-.17.07-.17-.08-.14.32-.34.19-.14,0-.26.11-.35.23-.1.12-.31.08-.36.28.02.16-.09.14-.2.14-.11,0-.21.02-.16.2-.04.08-.09.14-.15.21-.06.07-.12.12-.18.18-.14,0-.2.07-.23.16-.03.09-.04.2-.08.29-.3.02-.33.26-.25.51-.19.01-.31.08-.34.18-.03.1.02.24.14.38-.03.1-.08.19-.12.28-.02.05-.03.1-.04.15,0,.05.01.11.04.17,0,.11,0,.21,0,.32,0,.11,0,.21-.03.32.11.11.18.21.18.32,0,.05,0,.11-.03.16-.02.06-.04.11-.08.17.27.18.23.39.17.65-.03.13.07.22.15.31.08.09.17.17.13.32.04.11.12.2.19.3.06.1.15.18.2.29.02.06.03.13.05.19.02.06.05.12.09.17.04.05.08.09.14.13.06.03.13.05.21.04.11.06.22.12.33.18.11.06.19.15.26.26.34-.09.48.11.67.33.13.02.23.11.35.16.12.05.24.1.38.05.12.04.25.03.38.03.13-.01.26-.02.39.05.13.03.26.06.4.07.13,0,.26-.05.37-.14.11-.1.23-.13.36-.13.13,0,.26-.01.37-.08.17.08.27-.01.37-.1.1-.08.17-.21.3-.23.1-.07.22-.12.33-.18.12-.05.21-.13.26-.26.04-.05.07-.1.11-.14.03-.05.07-.1.11-.15.04-.05.08-.09.13-.12.04-.04.09-.08.15-.11-.08-.21,0-.28.11-.35.11-.07.27-.11.28-.24.12-.07.17-.18.2-.29.02-.12.03-.23.09-.33,0-.12.06-.21.13-.32.07-.1.09-.21.04-.33.02-.05.02-.11.02-.16,0-.06-.01-.11-.02-.17-.01-.11,0-.21.06-.32-.1-.1-.06-.21-.02-.32.04-.11.07-.22,0-.31l-.02-.15-.04-.15c-.03-.1-.04-.2-.05-.3.1-.14.08-.25.02-.33-.06-.09-.17-.14-.22-.23-.05-.2-.33-.24-.25-.51-.04-.08-.07-.18-.11-.26-.04-.09-.09-.16-.2-.19-.08-.05-.05-.19-.07-.3-.01-.11-.07-.18-.27-.09-.09-.03-.09-.14-.12-.24-.03-.09-.09-.16-.23-.1-.26.1-.24-.19-.36-.28-.12-.09-.24-.16-.36-.23-.53-.31-1-.46-1.33-.58-.33-.1-.52-.18-.52-.26,0-.04.06-.08.18-.12.12-.03.3-.08.53-.08.46-.02,1.18.05,1.98.45.15.08.44,0,.49.27.08.06.18.09.28.13.1.04.18.11.22.22.17-.03.27.03.32.13.06.1.09.22.16.31.08.08.14.18.2.28.06.1.14.18.25.25.26.12.19.45.39.63-.03.3.08.51.32.71-.03.15,0,.28.06.4.03.06.06.12.1.19.03.07.05.13.06.2-.11.16-.1.29-.06.43.03.14.11.27.17.42.06.14.03.29,0,.44-.01.08-.02.15-.03.22-.01.08-.02.15-.02.23-.08.29-.05.62-.18.91,0,.16-.01.33-.06.49-.05.15-.15.29-.29.4-.03.17-.12.31-.21.45-.09.14-.2.26-.3.4-.03.08-.07.16-.12.23-.05.07-.11.13-.17.18l-.19.17c-.06.06-.13.11-.19.17-.11.13-.28.2-.44.27-.16.07-.29.17-.37.37-.28.22-.63.31-.94.49-.17.04-.35.1-.52.14-.18.04-.34.1-.52.17-.21-.11-.38-.1-.56-.06-.18.03-.35.11-.54.17-.18.03-.37.03-.56.02-.18-.03-.36-.08-.54-.12-.18-.02-.36-.07-.53-.12-.18-.05-.34-.13-.5-.2-.18-.02-.33-.14-.48-.23-.15-.09-.28-.22-.46-.26-.18-.04-.31-.18-.42-.3-.12-.12-.22-.27-.39-.34-.08-.04-.15-.09-.22-.14-.07-.05-.13-.11-.19-.17-.06-.06-.11-.13-.16-.2-.04-.08-.07-.16-.1-.25-.1-.13-.15-.3-.2-.46-.05-.16-.14-.29-.31-.38-.09-.13-.25-.24-.35-.38-.09-.14-.13-.31,0-.51-.09-.14-.08-.3-.08-.46,0-.16.01-.31-.1-.45.06-.09.08-.16.09-.24.01-.07,0-.15-.02-.22-.03-.14-.12-.29-.1-.43.03-.14.08-.29.1-.42.03-.14.05-.28,0-.42-.02-.08-.02-.15-.01-.22.02-.07.04-.13.08-.2.06-.13.13-.25.15-.38-.03-.15.06-.26.16-.36.09-.11.19-.19.17-.35.13-.21.22-.45.39-.63-.09-.21-.01-.3.1-.37.11-.06.26-.09.35-.16.09-.07.12-.19.17-.29.05-.11.13-.18.31-.15-.02-.17.05-.26.16-.29.1-.04.23-.03.33-.06.2-.05.25-.31.49-.27.03-.13.12-.16.22-.15.1,0,.2.02.26-.04.2.05.29-.11.44-.13.06-.05.12-.08.19-.09.07-.01.14,0,.21.01.13-.02.25-.04.36-.04.17,0,.31,0,.44,0,.13,0,.23.03.32.05.17.04.26.09.26.14Z"/>
        <path d="M83.9,36.49c0,.11-.09.21-.24.3-.03.02-.05.03-.08.04-.03.03-.06.06-.09.04-.03-.14-.07.26-.1.04-.04-.06-.07,0-.11.04-.04.05-.08-.09-.12.04-.05.27-.08-.3-.13.04-.05.07-.09.05-.14.03-.05-.21-.1,0-.15.03-.05-.25-.1-.14-.16.03-.05-.34-.11-.29-.17.03-.06.01-.11-.12-.18.03-.06.02-.12.09-.18.02-.06.23-.13.22-.19.02-.07.24-.13.14-.2.02-.06-.14-.13.21-.2.02-.07-.02-.14.05-.21.01-.07-.1-.14-.22-.21,0-.07.06-.15.14-.22,0-.08.26-.15.14-.22,0-.08.04-.15-.14-.23,0-.07-.04-.15.11-.23,0-.08-.08-.15-.16-.23,0-.08.17-.15-.07-.23,0-.07-.25-.15.08-.22,0-.07.02-.14-.14-.22-.01-.07.04-.14.09-.21-.02-.08.38-.14-.1-.21-.02-.07-.16-.14.02-.2-.02-.07.07-.13-.18-.2-.02-.06-.03-.13.12-.19-.03-.06.19-.12-.16-.18-.03-.06,0-.12,0-.18-.03-.05-.3-.11-.05-.17-.03-.05-.03-.11.17-.16-.04-.05-.02-.1-.15-.15-.04-.05.04-.09-.43-.14-.04-.05.07-.09-.3-.13-.04-.04.24-.08-.03-.12-.04-.04-.02-.08-.03-.11-.04-.33-.13-.51-.28-.51-.44,0-.17.24-.34.64-.47.04-.01.08-.22.12-.04.04,0,.09-.16.13-.04.05-.27.09-.05.14-.03.05-.01.1.08.15-.03.05-.16.11.08.16-.03.05.17.11.12.17-.03.05.17.12-.03.18-.03.06.25.12.08.18-.02.06-.09.13.04.19-.02.06.05.13-.06.2-.02.07-.12.14-.16.2-.02.07-.08.14-.01.21-.01.07-.1.14.01.21-.01.07-.05.14.27.22,0,.07-.03.15.05.22,0,.07.04.15.07.23,0,.07.28.15.11.23,0,.08-.08.15-.04.23,0,.08-.03.15-.01.23,0,.08-.08.15.12.22.01.08-.12.14.13.22.01.07-.08.15-.12.21.02.07,0,.14.25.21.02.07-.05.14-.36.2.02.07-.1.13.19.2.02.06.28.13.02.19.03.06.05.12.15.18.03.06-.13.12.08.17.03.06-.16.11.21.17.03.05.04.11-.02.16.03.06-.38.1,0,.15.04.05.05.1-.25.14.04.05-.28.09-.04.13.04.04.08.09-.12.12.04.04-.2.08.11.11.04.03.13.07,0,.1.04.03-.04.06-.03.09.05.03.01.06.03.08.05.15.1.23.2.23.3Z"/>
        <path d="M35.32,47.86c-.07.08-.19.11-.34.1-.03,0-.05,0-.08,0-.04,0-.07.01-.08-.01.07-.12-.21.16-.09-.02.02-.07-.04-.04-.09-.03-.05.02.01-.11-.1-.04-.2.18.15-.27-.1-.04-.08.03-.09,0-.11-.05.11-.18-.06-.05-.11-.05.14-.21.03-.16-.11-.06.2-.29.13-.27-.12-.06-.04-.02.01-.15-.12-.07-.05-.01-.13,0-.12-.07-.19.14-.22.1-.13-.08-.2.15-.17.05-.13-.08.05-.14-.22.09-.13-.09-.03-.05-.12-.03-.13-.09.03-.11.06-.23-.13-.1-.08,0-.18.03-.13-.1-.22.16-.18.03-.13-.11-.07,0,0-.18-.13-.11-.02-.07-.16,0-.13-.12,0-.1.01-.2-.13-.12-.16.09-.04-.13-.13-.12.12-.22-.14-.02-.12-.12-.06-.02,0-.18-.12-.12-.07,0-.14,0-.11-.12-.29.25-.02-.14-.11-.12.07-.15-.09-.05-.11-.12-.08.02.04-.2-.1-.12-.02-.06-.16.03-.09-.12-.16.11.03-.18-.09-.11-.03-.03-.08-.05-.08-.11.16-.25-.03-.1-.08-.11,0-.05-.17.07-.07-.11-.01-.04.04-.17-.06-.1-.06,0,.23-.37-.06-.1-.07.03.15-.27-.05-.1-.19.16-.03-.07-.04-.09-.01-.03-.03-.06-.04-.09-.11-.26-.12-.47-.01-.59.12-.13.36-.14.68-.03.03.01.19-.12.1.03.02.02.16-.07.1.04.21-.18.09,0,.11.05.04.01,0,.11.11.05.13-.09,0,.12.11.06-.08.15-.02.15.12.06-.08.15.09.04.12.07-.13.22.02.12.12.07.1-.04.05.09.13.08,0,.07.12.02.13.08.12-.05.18-.05.13.09.09-.03.09.06.13.09.11-.04.07.08.13.1.08,0-.09.27.13.1.07.01.06.11.13.11.02.07.04.13.13.11-.14.25.02.16.13.12.1-.02.12.05.13.12.06.02.1.07.13.12.1-.02,0,.16.12.12.12-.05,0,.17.12.12.09-.02.17-.02.11.12.04.04-.08.26.11.12.08,0,.32-.2.11.12.1-.04-.05.21.1.12-.15.24.07.08.09.11,0,.07-.03.17.09.11.12-.07.02.12.08.11.14-.09-.07.22.08.11,0,.06.08.04.07.11.28-.26.06.05.06.1,0,.07.22-.14.06.1.22-.19.08.02.05.1-.03.08.13-.05.05.09.16-.13-.03.12.04.09-.07.12.04.04.03.09.05-.02.06.01.02.08,0,.03.01.05.02.08.03.15,0,.27-.06.35Z"/>
      </g>
    </g>
  </g>
</svg>