<?xml version="1.0" encoding="UTF-8"?>
<svg xmlns="http://www.w3.org/2000/svg" version="1.1" viewBox="0 0 109 114">
  <!-- Generator: Adobe Illustrator 28.7.1, SVG Export Plug-In . SVG Version: 1.2.0 Build 142)  -->
  <g>
    <g id="Calque_1">
      <g>
        <path d="M63.18,27.97c0,.13-1.34.12-3.68.66-.2.04-.39.1-.6.16-.21.06-.42.11-.64.18-.22.07-.44.15-.67.23-.23.09-.46.17-.71.25-.27.01-.49.18-.72.33-.23.14-.46.3-.77.32-.13.04-.27.09-.4.16-.13.06-.26.13-.39.21-.13.07-.26.15-.39.23-.12.08-.25.17-.38.26-.13.09-.26.16-.4.24-.14.08-.27.16-.41.24-.28.16-.55.35-.78.6-.05.08-.11.14-.17.2-.06.06-.12.11-.19.16-.14.1-.3.17-.45.26-.31.17-.62.36-.77.72-.47.54-1.01,1.04-1.51,1.61-.66.44-.97,1.2-1.39,1.88-.32.27-.58.59-.76.97-.2.37-.32.78-.44,1.19-.67.61-.98,1.47-.94,2.41-.07.21-.13.42-.2.63-.07.21-.15.42-.2.64-.06.22-.11.44-.15.66-.03.23-.05.45-.06.69-.12.91-.16,1.84-.22,2.79.22.96.25,1.9.21,2.9.39.94.5,1.91.68,2.92.05.25.13.49.22.73.1.24.22.46.34.7.11.23.25.45.35.69.11.24.21.47.29.73.47.94,1.09,1.8,1.7,2.67.56.91,1.23,1.82,2.19,2.4.85.7,1.77,1.3,2.64,2.01,1.08.37,2,.98,3.01,1.53,1.07.38,2.13.89,3.3.96,1.14.26,2.31.22,3.48.33,1.18.08,2.37.04,3.48-.33.55-.19,1.11-.31,1.67-.44.28-.06.56-.14.83-.22.28-.08.54-.18.8-.3.14-.03.29-.05.42-.1.14-.04.27-.1.4-.15.13-.06.26-.12.39-.18.12-.07.25-.14.37-.22l.36-.22.35-.23c.12-.08.24-.15.36-.22.12-.07.24-.15.36-.21.93-.62,1.91-1.17,2.64-2.01.78-.78,1.46-1.61,2.19-2.4.17-.54.49-.95.82-1.37.17-.2.33-.41.49-.63.08-.11.15-.21.22-.33.06-.11.12-.23.17-.35.62-.86.86-1.9,1.2-2.84.11-.5.29-.97.43-1.45.04-.12.07-.24.11-.36.03-.12.05-.24.08-.37.04-.25.08-.49.07-.74.04-.24.07-.49.09-.73,0-.24.02-.49.03-.73.02-.24,0-.48.02-.72.01-.24.04-.48.06-.72-.05-.24-.07-.47-.08-.71-.01-.24,0-.47,0-.7.01-.24,0-.47-.02-.7-.02-.23-.05-.46-.12-.68-.14-.91-.39-1.77-.61-2.63,0-.23-.03-.45-.09-.67-.06-.21-.15-.41-.24-.61-.05-.1-.09-.2-.14-.29l-.16-.28c-.11-.19-.21-.37-.31-.56-.18-.38-.4-.74-.63-1.08-.22-.35-.44-.68-.57-1.08-.43-.67-.8-1.39-1.39-1.88-.13-.14-.24-.3-.34-.45-.1-.16-.21-.32-.31-.48-.1-.16-.22-.3-.36-.42-.14-.12-.3-.21-.5-.26-.29-.21-.5-.5-.74-.76-.12-.13-.24-.25-.38-.35-.07-.05-.14-.1-.22-.14-.08-.04-.16-.07-.25-.09-.34-.09-.6-.29-.85-.49-.12-.1-.24-.21-.36-.32-.12-.1-.25-.19-.38-.28-.13-.08-.26-.16-.39-.24-.13-.08-.26-.14-.39-.22-.13-.07-.26-.14-.39-.21-.13-.07-.26-.13-.39-.19-1.15-.56-2.23-.95-3.19-1.23-.24-.06-.47-.13-.7-.19-.22-.06-.44-.1-.65-.15-.41-.1-.8-.15-1.14-.22-.69-.11-1.22-.18-1.58-.22-.36-.05-.55-.09-.55-.13,0-.04.23-.08.68-.11.11,0,.24-.02.38-.02.14,0,.29,0,.46,0,.17,0,.35,0,.54.01.19.02.4.03.61.05.86.08,1.93.24,3.15.58,1.22.34,2.58.86,4.01,1.65.14.08.29.14.45.22.15.07.3.15.45.23.31.15.59.35.83.63.15.1.29.2.44.3.15.1.3.2.45.3.3.21.58.46.83.75.74.32,1.15,1.04,1.66,1.66.55.6.97,1.32,1.54,1.96.3.32.52.69.71,1.09.21.39.37.8.63,1.18.06.22.13.44.21.66.04.11.08.21.13.32.04.11.08.21.13.32.09.21.19.42.29.63.1.21.2.43.31.64.04.24.08.47.15.7.06.23.14.46.2.69.07.23.14.47.21.7.06.24.11.48.16.72-.01.25-.02.5,0,.75.01.25.05.49.08.74.03.25.08.5.12.75.04.25.07.51.1.76.1,1.03-.08,2.08-.17,3.14-.2,1.05-.33,2.13-.7,3.18-.22,1.09-.62,2.16-1.27,3.11-.45,1.05-1.12,2-1.82,2.93-.62,1-1.51,1.8-2.37,2.63-.42.42-.92.76-1.43,1.1-.24.18-.5.33-.74.52-.24.19-.48.37-.7.6-1.02.69-2.15,1.18-3.29,1.69-1.17.43-2.38.75-3.61,1.07-1.29-.03-2.52.26-3.81.37-1.29.08-2.57-.09-3.81-.37-1.25-.21-2.46-.59-3.61-1.07-1.2-.39-2.2-1.13-3.29-1.69-.27-.14-.54-.3-.78-.48-.25-.18-.49-.36-.71-.57-.46-.39-.89-.81-1.37-1.17-.93-.75-1.77-1.61-2.37-2.63-.35-.47-.63-.98-.91-1.48-.15-.25-.27-.5-.43-.74-.08-.12-.16-.24-.24-.36-.08-.12-.16-.23-.25-.35-.14-.25-.3-.48-.44-.73-.14-.25-.3-.49-.41-.74-.12-.26-.23-.52-.31-.79-.07-.27-.11-.56-.1-.85-.2-.52-.32-1.06-.39-1.59-.02-.13-.04-.27-.07-.4-.02-.13-.04-.27-.06-.4-.04-.27-.11-.52-.18-.78.04-.27.04-.54.02-.8,0-.26-.03-.52-.07-.78-.04-.26-.06-.52-.09-.78-.02-.26-.05-.52-.04-.77.06-1.03.26-2.02.3-3.01.01-.25.04-.49.09-.74.05-.24.12-.48.19-.71.06-.23.15-.46.23-.69.08-.23.14-.46.21-.68.04-.24.11-.46.19-.68.09-.22.2-.42.31-.63.05-.1.11-.2.16-.31.06-.1.11-.2.16-.3.1-.2.18-.42.24-.64.22-.39.41-.8.64-1.18.21-.39.45-.75.7-1.1.04-.23.13-.43.24-.61.11-.18.24-.35.39-.5.3-.3.63-.56.91-.85.56-.58.91-1.35,1.66-1.66.19-.35.47-.61.77-.82.16-.1.32-.19.48-.28.08-.04.16-.09.24-.13.08-.04.16-.08.24-.13.31-.17.57-.4.85-.59.14-.1.28-.2.42-.28.14-.09.3-.15.46-.2.12-.12.25-.22.38-.3.14-.08.29-.13.44-.18.15-.05.3-.1.44-.15.14-.05.28-.11.41-.18.3-.06.56-.18.82-.29.26-.11.5-.24.76-.31.25-.11.49-.2.73-.27.25-.06.49-.11.73-.14.23-.06.46-.1.67-.14.22-.04.43-.09.63-.12,1.22-.2,2.18-.21,2.82-.2.64.03.98.08.98.13Z"/>
        <path d="M63.18,32.55c0,.13-1.02.14-2.79.58-.15.03-.3.08-.45.12-.16.04-.32.08-.48.14-.16.06-.33.12-.5.18-.17.07-.35.13-.53.19-.21,0-.37.14-.54.26-.17.12-.34.25-.58.24-.21.06-.41.16-.6.27-.1.06-.19.11-.29.18s-.19.13-.28.2c-.19.13-.4.24-.62.37-.21.12-.42.26-.58.46-.13.25-.36.36-.62.46-.25.11-.49.25-.58.55-.34.42-.75.8-1.13,1.22-.54.3-.74.91-1.04,1.42-.54.37-.77.98-.9,1.63-.58.42-.81,1.08-.7,1.81-.18.63-.5,1.26-.45,1.98-.09.69-.1,1.39-.16,2.1.23.72.24,1.42.16,2.18.35.69.41,1.42.52,2.19.03.19.09.37.16.55.08.18.17.35.26.52.09.17.2.34.28.51.08.18.16.35.2.55.35.7.83,1.34,1.28,2,.4.7.88,1.4,1.65,1.79.65.52,1.34.95,1.98,1.51.84.22,1.51.7,2.26,1.15.8.27,1.59.7,2.48.72.85.21,1.74.13,2.61.25.88.08,1.78.07,2.61-.25.41-.17.83-.25,1.25-.34.21-.04.42-.1.63-.15.21-.05.41-.13.6-.23.22-.02.43-.08.63-.17.1-.04.19-.09.29-.14.09-.05.18-.11.27-.17l.27-.17.26-.18c.18-.12.36-.22.54-.32.69-.46,1.46-.85,1.98-1.51.57-.59,1.08-1.22,1.65-1.79.09-.44.33-.74.59-1.04.14-.15.27-.3.39-.46.06-.08.12-.16.17-.24.05-.09.09-.17.13-.27.5-.63.64-1.42.9-2.13.08-.38.22-.72.33-1.09l.08-.27c.02-.09.04-.18.06-.27.03-.19.06-.37.04-.56.14-.73.02-1.46.16-2.18-.05-.18-.07-.35-.07-.53,0-.18,0-.35,0-.53.01-.18,0-.35,0-.53-.01-.18-.03-.35-.1-.51-.1-.68-.29-1.33-.45-1.98.02-.18,0-.35-.04-.51-.04-.16-.11-.31-.18-.46-.07-.15-.16-.29-.24-.43-.09-.14-.16-.28-.24-.42-.13-.29-.31-.55-.48-.81-.16-.26-.33-.51-.41-.82-.32-.51-.57-1.07-1.04-1.42-.2-.21-.32-.48-.46-.73-.15-.25-.34-.45-.67-.49-.23-.15-.37-.38-.54-.59-.18-.2-.36-.39-.64-.43-.28-.05-.47-.2-.65-.36-.18-.16-.34-.35-.55-.47-.1-.06-.2-.12-.3-.18-.1-.06-.2-.11-.3-.17-.2-.11-.39-.21-.58-.31-.86-.43-1.68-.73-2.4-.95-.18-.05-.36-.1-.53-.15-.17-.05-.33-.08-.49-.12-.31-.08-.6-.13-.86-.18-.52-.09-.92-.15-1.19-.19-.27-.05-.41-.09-.41-.13,0-.04.18-.08.52-.12.17-.02.38-.03.64-.03.13,0,.26,0,.41,0,.15,0,.3.02.47.03.66.05,1.48.16,2.42.42.93.25,1.98.65,3.08,1.24.22.11.46.2.7.32.24.11.46.27.63.49.22.15.46.3.69.45.24.16.45.34.64.58.61.2.89.79,1.28,1.27.42.46.73,1.02,1.19,1.5.24.23.41.52.55.83.15.3.28.62.48.91.14.7.46,1.32.83,1.97.02.18.05.37.1.54.04.18.11.35.16.53.06.18.12.36.17.54.05.18.09.37.13.56-.13.79.13,1.52.24,2.32.1.8-.07,1.6-.13,2.41-.17.8-.24,1.65-.53,2.45-.14.85-.44,1.68-.97,2.4-.33.82-.86,1.54-1.4,2.26-.46.78-1.17,1.39-1.82,2.03-.32.33-.72.58-1.11.83-.19.13-.39.25-.57.39-.18.15-.36.3-.52.48-.78.54-1.66.9-2.54,1.31-.91.32-1.84.56-2.78.82-1-.09-1.94.17-2.94.28-.99.08-1.99-.06-2.94-.28-.97-.16-1.9-.45-2.79-.82-.93-.29-1.69-.9-2.54-1.31-.21-.1-.42-.22-.6-.37-.19-.14-.37-.28-.54-.44-.35-.31-.68-.63-1.06-.9-.73-.56-1.39-1.23-1.82-2.03-.27-.36-.48-.76-.68-1.15-.11-.19-.2-.39-.32-.58-.06-.09-.12-.18-.19-.27-.06-.09-.13-.18-.21-.26-.11-.19-.24-.37-.35-.56-.12-.19-.24-.37-.34-.57-.1-.2-.18-.4-.24-.61-.05-.21-.07-.43-.04-.66-.17-.39-.24-.81-.29-1.23-.03-.21-.06-.41-.09-.62-.03-.2-.09-.4-.15-.6.04-.21.05-.42.04-.62,0-.2-.02-.4-.05-.6-.04-.2-.06-.4-.08-.6-.02-.2-.05-.4-.04-.6.06-.79.24-1.55.23-2.32,0-.19.02-.38.06-.57.04-.19.1-.37.15-.54.05-.18.12-.35.18-.53.06-.17.11-.35.16-.52.02-.19.07-.36.14-.53.07-.17.16-.32.25-.48.09-.16.18-.31.26-.46.08-.16.14-.32.17-.5.34-.61.63-1.23,1.04-1.74,0-.19.07-.35.15-.5.08-.14.18-.27.31-.38.24-.22.51-.41.73-.63.44-.43.66-1.08,1.28-1.27.12-.3.34-.5.58-.65.25-.14.51-.26.75-.38.24-.12.44-.3.65-.46.21-.16.42-.31.68-.36.08-.11.18-.18.29-.24.11-.06.22-.1.34-.13.23-.07.46-.12.66-.24.46-.07.82-.34,1.22-.45.19-.09.37-.16.56-.21.19-.05.37-.08.56-.09.18-.05.35-.07.52-.11.17-.03.33-.06.48-.08,1.88-.26,2.91-.07,2.91.01Z"/>
        <path d="M63.18,37.08c0,.12-.7.16-1.9.49-.2.06-.41.12-.64.2-.11.05-.22.09-.34.14-.12.05-.24.09-.36.13-.15-.02-.25.09-.36.19-.11.1-.22.2-.39.16-.15.03-.28.1-.41.18-.13.08-.25.18-.38.28-.13.1-.27.17-.42.25-.15.08-.29.18-.39.33-.06.21-.23.26-.42.31-.18.06-.36.14-.38.39-.21.3-.5.55-.76.83-.42.16-.5.62-.7.97-.44.2-.56.65-.6,1.1-.49.24-.63.7-.46,1.23-.12.42-.37.84-.3,1.33-.05.46-.04.94-.1,1.41.23.48.23.94.11,1.46.32.45.32.94.36,1.47,0,.13.05.25.1.37.05.12.13.23.2.34.14.22.28.44.32.72.23.48.57.89.86,1.34.24.49.54.99,1.11,1.2.45.33.93.6,1.33,1.01.61.08,1.03.42,1.52.77.54.17,1.05.51,1.66.48.57.15,1.16.05,1.75.17.59.08,1.2.1,1.75-.17.27-.14.55-.19.83-.24.14-.02.28-.05.42-.09.14-.03.28-.08.4-.15.16,0,.3-.03.43-.08.13-.05.26-.13.37-.21.12-.08.23-.17.35-.25.12-.08.24-.16.36-.21.46-.32,1.01-.53,1.33-1.01.38-.41.7-.83,1.11-1.2,0-.33.18-.52.37-.72.1-.09.2-.19.29-.29.09-.1.17-.21.21-.34.38-.4.42-.96.61-1.43.04-.25.15-.49.24-.73.05-.12.09-.24.11-.36.02-.12.04-.25.01-.38.11-.49-.03-.98.12-1.46-.05-.12-.07-.24-.07-.36,0-.12,0-.24.02-.36.02-.12.02-.24.02-.36,0-.12-.02-.23-.08-.34-.07-.46-.2-.9-.3-1.33.04-.13.04-.25.02-.36-.02-.11-.07-.21-.12-.31-.1-.2-.26-.37-.36-.56-.16-.4-.54-.66-.6-1.1-.21-.35-.35-.75-.7-.97-.14-.13-.19-.34-.28-.53-.08-.18-.22-.33-.48-.31-.16-.09-.24-.27-.35-.42-.11-.15-.23-.29-.45-.28-.21,0-.34-.1-.46-.22-.11-.12-.21-.27-.35-.35-.13-.09-.27-.17-.4-.24-.13-.08-.26-.15-.39-.21-1.17-.61-2.2-.86-2.9-1.01-.71-.15-1.1-.21-1.1-.29,0-.08.49-.19,1.42-.15.92.05,2.3.27,3.85,1.09.16.08.33.13.5.2.17.07.33.18.43.36.3.22.71.35.94.71.49.08.64.54.91.88.3.32.49.73.84,1.05.19.15.31.36.4.58.1.22.18.45.34.64.06.52.29.94.59,1.38,0,.53.32.98.4,1.52-.17.57.07,1.07.17,1.63.1.56-.06,1.12-.08,1.7-.13.56-.15,1.17-.37,1.73-.07.61-.27,1.21-.68,1.69-.21.59-.6,1.09-.98,1.6-.31.57-.83.98-1.29,1.44-.22.24-.52.4-.8.57-.28.17-.55.35-.76.64-.54.39-1.18.63-1.79.93-.65.22-1.31.38-1.97.58-.72-.14-1.37.09-2.07.2-.7.08-1.41-.03-2.07-.2-.68-.1-1.35-.31-1.97-.58-.67-.18-1.17-.67-1.79-.93-.31-.13-.57-.35-.81-.57-.24-.23-.47-.46-.75-.64-.53-.38-1.01-.84-1.28-1.44-.19-.25-.32-.55-.46-.83-.07-.14-.14-.28-.22-.41-.09-.13-.19-.25-.31-.36-.17-.26-.37-.5-.53-.78-.07-.14-.14-.28-.17-.43-.03-.15-.03-.31.02-.49-.13-.27-.17-.57-.2-.87-.02-.15-.03-.29-.05-.44-.02-.14-.07-.28-.12-.42.05-.15.07-.3.07-.44,0-.14-.01-.28-.04-.42-.03-.14-.05-.28-.08-.42-.02-.14-.04-.28-.03-.42.06-.56.21-1.08.17-1.63-.05-.56.29-1.02.4-1.52,0-.13.04-.26.09-.38.05-.11.12-.22.19-.33.14-.22.29-.41.31-.67.25-.42.43-.86.74-1.22-.03-.3.11-.49.29-.64.18-.15.4-.26.56-.41.32-.29.41-.81.91-.88.06-.24.21-.39.38-.48.18-.09.38-.16.56-.23.18-.08.31-.21.45-.32.14-.12.29-.22.48-.24.1-.18.27-.24.44-.27.17-.04.34-.06.47-.15.34-.01.57-.24.85-.3.13-.07.26-.12.39-.15.13-.03.27-.04.4-.04.25-.05.48-.09.7-.12,1.32-.15,2.03.01,2.02.1Z"/>
        <path d="M63.18,42.18c0,.05-.08.11-.24.17-.08.03-.18.05-.29.09-.11.04-.24.09-.38.13-.09.04-.19.08-.3.12-.05.03-.1.06-.16.08-.05.03-.11.05-.17.07-.17-.08-.14.32-.35.19-.15,0-.26.11-.36.23-.1.12-.31.08-.36.29.02.16-.09.14-.2.14-.11,0-.21.02-.16.2-.04.09-.1.15-.15.21-.06.07-.12.12-.19.18-.14,0-.2.07-.23.17-.03.09-.04.2-.08.29-.3.03-.33.26-.25.52-.19.01-.32.08-.34.18-.03.1.02.24.14.38-.03.1-.08.19-.12.29-.02.05-.04.1-.04.15,0,.05.01.11.04.17,0,.11,0,.21,0,.32,0,.11,0,.21-.03.32.11.11.18.21.18.32,0,.05,0,.11-.03.16-.02.06-.04.11-.08.18.27.19.23.39.17.66-.03.13.07.22.15.31.09.09.18.17.14.32.04.11.13.2.19.3.07.1.15.19.2.3.02.06.03.13.05.19.03.06.05.12.09.17.04.05.08.09.14.13.06.03.13.05.21.05.11.06.22.12.33.18.11.06.19.15.26.27.35-.09.49.11.68.34.13.02.23.11.35.16.12.05.24.1.39.05.12.04.26.03.39.03.13-.01.26-.02.39.05.13.03.27.06.4.07.13,0,.26-.05.38-.14.11-.1.23-.13.36-.13.13,0,.26-.02.37-.09.17.07.28-.02.37-.1.1-.08.17-.21.3-.24.1-.07.22-.12.33-.18.12-.05.21-.14.26-.27.04-.05.08-.1.11-.15.03-.05.07-.1.11-.15.04-.05.08-.09.13-.13.04-.04.09-.08.15-.11-.08-.21.01-.28.12-.35.11-.07.27-.12.28-.24.12-.07.17-.18.2-.3.02-.12.03-.24.09-.34,0-.12.06-.22.13-.32.07-.1.09-.22.04-.34.02-.06.02-.11.02-.16,0-.06-.01-.11-.02-.17-.01-.11,0-.22.07-.33-.1-.11-.07-.21-.02-.32.04-.11.07-.22-.01-.32l-.02-.16-.04-.15c-.03-.1-.04-.2-.05-.3.1-.14.08-.25.02-.33-.06-.09-.17-.15-.22-.23-.05-.2-.33-.25-.25-.52-.04-.08-.07-.18-.11-.27-.04-.09-.09-.16-.2-.19-.08-.05-.06-.19-.07-.3-.01-.11-.08-.18-.27-.1-.09-.03-.09-.15-.13-.24-.03-.09-.09-.16-.23-.1-.26.1-.24-.19-.36-.29-.12-.09-.25-.16-.36-.23-.53-.31-1.01-.47-1.35-.59-.34-.1-.53-.18-.53-.26,0-.04.06-.08.18-.12.12-.03.3-.08.54-.08.47-.02,1.19.06,2,.45.16.08.44,0,.49.27.08.06.18.09.28.13.1.04.18.11.22.23.17-.03.27.03.32.13.06.1.09.22.16.31.08.08.14.18.2.28.06.1.14.18.25.26.26.13.2.45.39.63-.02.15.01.27.06.39.05.12.14.22.26.32-.03.15,0,.28.06.41.03.06.07.13.1.19.03.06.05.13.06.2-.11.16-.1.29-.06.43.03.14.11.28.17.42.05.15.03.3,0,.44,0,.08-.02.15-.03.23-.01.07-.02.15-.02.23-.08.29-.06.62-.18.92,0,.17-.01.33-.06.49-.05.15-.15.29-.29.41-.03.17-.12.31-.21.45-.09.14-.2.27-.31.4-.03.08-.07.16-.12.23-.05.07-.11.13-.18.19l-.19.18c-.06.06-.13.11-.19.18-.11.14-.28.21-.45.27-.16.07-.3.17-.38.38-.28.22-.64.31-.95.5-.18.04-.35.1-.53.14-.18.04-.35.1-.52.17-.21-.11-.38-.1-.56-.06-.18.03-.36.11-.54.17-.19.03-.38.03-.56.02-.18-.03-.37-.08-.54-.12-.18-.02-.36-.07-.54-.12-.18-.05-.34-.13-.51-.2-.19-.02-.33-.14-.48-.24-.15-.09-.28-.22-.47-.26-.19-.04-.31-.18-.43-.31-.12-.13-.23-.27-.39-.34-.08-.04-.16-.09-.22-.14-.07-.05-.13-.11-.19-.18-.06-.06-.11-.13-.16-.2-.04-.08-.08-.16-.1-.25-.1-.14-.15-.3-.2-.46-.05-.16-.14-.29-.31-.39-.09-.13-.25-.24-.35-.38-.09-.14-.13-.31,0-.52-.09-.14-.08-.31-.09-.46,0-.16.01-.31-.1-.45.06-.09.08-.16.09-.24,0-.08,0-.15-.02-.22-.03-.14-.12-.29-.1-.44.03-.15.08-.29.1-.43.02-.14.05-.28,0-.43-.02-.08-.02-.15-.01-.22.02-.07.04-.13.08-.2.06-.13.13-.25.15-.38-.03-.15.07-.26.16-.37.09-.11.2-.19.17-.35.13-.22.22-.45.39-.63-.09-.21,0-.31.1-.37.11-.07.26-.09.35-.17.1-.07.12-.19.17-.3.05-.11.14-.18.31-.15-.02-.18.05-.26.16-.3.11-.04.24-.03.34-.06.2-.05.26-.32.49-.27.03-.13.12-.16.22-.15.1,0,.2.02.26-.05.2.05.29-.11.45-.13.06-.05.12-.08.19-.09.07-.01.14,0,.21.01.13-.02.25-.04.36-.04.17,0,.32,0,.45,0,.13,0,.24.03.32.05.17.04.26.09.26.14Z"/>
        <path d="M86.65,31.25c-.1.01-.29-.6-.53-1.72-.04-.19-.08-.39-.12-.61-.06-.21-.12-.44-.14-.69.11-.26-.32-.47-.14-.77.03-.28-.07-.56-.15-.85-.09-.29,0-.62-.16-.92-.31-.29.21-.69-.17-.99,0-.02-.02-.08-.03-.12l-.03-.15c-.02-.1-.04-.2-.06-.3-.03-.2-.06-.41-.08-.61.15-.06.31-.13.46-.2.17-.02.32-.06.45-.11.07-.03.13-.05.19-.09.04-.02.08-.05.12-.07.16-.11.31-.24.48-.34.46.07.78-.2,1.08-.53.52.14.88-.08,1.14-.55.39-.19.84-.25,1.19-.57.1-.05.2-.11.3-.16l.08-.04.13-.07.27-.13c.36-.18.74-.35,1.1-.48.09-.06.17-.13.26-.19.17.25.33.61.46,1,.06.2.12.4.16.6,0,.05.02.1.03.15v.07s.02.03.02.05c0,.06,0,.11,0,.17.39.38.46.87.5,1.39.03.52.53.88.51,1.43.04.11.08.23.12.34.05.12.09.24.14.36.15.41.31.83.44,1.25-.06.04-.13.08-.19.12-.22.12-.43.24-.65.35l-.3.17-.2.12c-.23.14-.43.31-.59.56-.41.35-.82.73-1.35.93-.31.53-.84.74-1.38.94-.44.35-1.02.51-1.41.96-.5.29-.89.74-1.43.97-.53.26-1.04.52-1.43.97-.38.46-.98.58-1.41.95-.6.11-.88.69-1.39.93-.44.33-.99.5-1.36.91-.42.34-.84.68-1.33.89-.23.61-.92.51-1.3.86-.52.16-.83.59-1.27.84-.37.34-.92.41-1.23.81-.42.24-.73.64-1.19.78-.28.42-.85.39-1.15.75-.37.25-.73.51-1.11.72-.52,0-.73.44-1.06.68-.36.2-.58.59-1.02.65-.34.2-.73.3-.96.61-.28.24-.84.05-.91.57-.25.25-.73.13-.86.53-.13.38-.54.33-.8.49-.26.16-.5.3-.74.45-2.11,1.27-3.36,1.94-3.45,1.81-.1-.15,1.25-1.26,3.65-3.05.24-.18.38-.52.75-.56.27-.18.46-.5.81-.6.13-.42.56-.44.87-.63.3-.22.66-.36.92-.67.23-.35.7-.38.98-.7.44-.09.76-.36,1.03-.73.45-.11.7-.52,1.08-.76.51-.04.79-.45,1.12-.79.33-.34.8-.5,1.17-.82.43-.23.77-.6,1.21-.85.35-.38.74-.7,1.25-.87.38-.36.85-.59,1.28-.89.38-.38.88-.58,1.32-.91.42-.35,1.05-.39,1.35-.93.44-.34.94-.58,1.38-.94.48-.29.97-.57,1.41-.96.63-.09,1.01-.56,1.43-.97.44-.39.94-.68,1.43-.97.46-.34.94-.65,1.41-.95.42-.38.99-.53,1.39-.93.39-.41.98-.51,1.36-.91.2-.18.41-.36.62-.51l.08-.06.04-.03s0,0,0,0c0,0,.01,0,.02,0,.02,0,.05,0,.1.01,0,0,.01,0,.02,0,0-.03.05-.07.06-.14,0,0,0-.04-.01-.06l-.03-.09c-.02-.06-.04-.11-.06-.17-.05-.11-.12-.21-.21-.31-.22-.47-.68-.85-.48-1.44-.25-.44-.15-1-.46-1.4.01-.06.02-.12.02-.18,0-.04,0-.04,0-.05,0,0,0-.02,0-.03,0-.04,0-.08-.03-.1-.04-.06-.1-.05-.12-.07-.01,0-.02.02-.03.02-.04-.01-.09-.03-.16-.01-.02,0-.03,0-.05.02,0,0-.02,0-.03.01l-.08.04c-.1.05-.2.12-.29.19-.35.31-.84.3-1.21.52-.33.33-.86.16-1.16.5-.39.14-.73.36-1.11.47-.1.25-.28.33-.47.36-.05,0-.1.01-.15.02-.02,0-.04-.02-.06-.03-.05-.02-.1-.02-.14-.02-.05,0-.08.03-.09.06.04.06.08.12.09.16,0,.02,0,.04-.01.06,0,.01-.02.02-.04.03-.02.01-.04.02-.06.06.33.31.13.67.09,1-.04.33.2.61.08.93.24.27-.03.59.07.86-.1.29.06.53.06.78.08.24.09.47.05.7.01.22.02.42.04.62.06,1.15.04,1.79-.07,1.8Z"/>
        <path d="M86.63,31.26c.05-.09.3-.07.7.05.07.02.14.04.21.07.08.01.17.03.24.08,0,.17.29-.14.27.1.06.1.17.1.29.11.12.01.15.19.31.13.23-.18.06.38.33.14.14,0,.25.08.35.16.01.25.23.13.37.17,0,.29.18.26.39.18-.04.37.12.4.41.2.14.07.21.26.43.21.15.06.33.08.44.22.26-.12.4-.03.46.23.27-.13.38.04.47.24.09.21.42-.01.48.25.04.02.08.05.12.06,0,0,.02,0,.03,0,.02,0,.03,0,.04.03,0,.05.03.12.05.15.03.01.06-.04.03-.18,0-.04,0-.08,0-.09,0,0,0,0,0,0h.01s.04-.04.06-.05c.04-.02.1-.04.15-.04-.01-.33.22-.36.46-.39.13-.16.4-.15.47-.39.18-.1.25-.35.48-.39.21-.07.42-.14.48-.39.05-.26.36-.21.48-.38.31.06.26-.32.47-.37.14-.14.39-.14.46-.36.06-.08.12-.16.19-.22.02-.02.04-.03.06-.04h.02s0,0,0,0c.01,0,.03.01.06.02-.14-.13-.13-.1-.06-.08.06.03.2.05.16.02.17.01.12-.03.1-.05-.02,0-.04-.01-.03-.02-.06,0-.01-.02,0-.05.03-.02.02-.06-.07-.04,0-.02-.05-.02-.07-.02-.01,0-.02,0-.02-.01,0,0,0-.01,0-.02,0,0,0,0,0-.02,0-.01,0-.02,0-.04-.25.03-.14-.34-.35-.35-.12-.11-.25-.21-.33-.34.08-.32-.19-.24-.32-.33-.09-.12-.33-.07-.3-.31-.09-.11-.1-.3-.28-.3-.13-.06.09-.49-.26-.29-.14-.03.02-.39-.24-.27-.25.1-.15-.18-.22-.26-.07-.08-.14-.16-.2-.24-.57-.69-.85-1.14-.74-1.25.12-.13.69.17,1.58.78.09.06.31-.02.28.2.08.08.28.04.29.21.28-.12.22.13.31.23.11.08.15.24.33.25.21-.02.16.25.34.27,0,.22.14.29.36.28,0,.23.26.18.37.3-.05.3.19.27.38.31.01,0,.02,0,.03.01.01,0,.03.02.05.03.03.02.06.05.09.07.06.05.11.11.16.16.1.11.2.22.34.31.09.11.22.21.36.31.14.1.28.21.37.32.11.06.22.12.32.18-.11.16-.33.33-.65.46-.08.12-.21.23-.36.34-.14.11-.29.21-.42.32-.05.07-.11.14-.18.2l-.05.04-.04.03s-.04.03-.06.04c-.08.05-.17.1-.24.17-.12.16-.47.04-.45.38-.13.15-.33.22-.46.39-.18.1-.36.2-.47.39-.33-.08-.39.18-.48.39-.11.19-.3.29-.48.39-.14.15-.31.27-.47.38-.1.19-.39.16-.47.37-.02.05-.05.09-.09.12-.02.01-.04.03-.07.04h-.02s-.03.02-.03.02l-.06.04c-.16.09-.31.17-.42.34-.14.17-.3.35-.46.48-.14-.08-.28-.19-.41-.33-.15-.09-.29-.23-.42-.35-.06-.06-.13-.1-.2-.13-.05-.02-.1-.01-.17.01-.19-.04-.5.14-.47-.28-.2,0-.22-.33-.45-.28-.01-.33-.29-.18-.43-.27-.12-.13-.22-.29-.42-.26-.21.04-.24-.22-.4-.26-.21.06-.16-.33-.38-.25-.11-.1-.27-.12-.36-.24-.31.26-.24-.14-.34-.23-.09-.11-.35.09-.32-.22-.25.19-.23-.09-.3-.21-.06-.13-.26,0-.27-.2-.19.12-.13-.2-.25-.19-.02-.16-.16-.1-.22-.18-.1,0-.16-.06-.2-.16-.06-.05-.12-.1-.17-.15-.31-.28-.46-.48-.41-.57Z"/>
        <path d="M41.38,28.54c-.02.06-.73-.15-2.09-.5-1.36-.34-3.38-.84-6.04-1.15-.88-.1-1.84-.18-2.86-.2-1.02,0-2.1.03-3.23.14-.29,0-.58.02-.86.08-.14.03-.29.06-.43.1-.14.04-.29.08-.43.12-.29.08-.58.18-.87.25-.15.04-.29.08-.45.11-.15.03-.31.05-.46.08-.61.15-1.21.38-1.8.66-.59.28-1.16.62-1.71,1.02-.54.4-1.09.81-1.6,1.29-.51.48-.97,1.04-1.32,1.67-.29.68-.69,1.28-1.04,1.95-.35.67-.63,1.41-.62,2.22-.24,1.55-.31,3.18-.18,4.86-.02.85.11,1.71.32,2.56.2.85.49,1.7.77,2.55.14.9.41,1.78.77,2.64.35.86.8,1.7,1.28,2.52.25.94.64,1.82,1.1,2.71.45.88.97,1.75,1.52,2.63.83,1.88,1.45,3.88,2.14,5.93.28,1.04.52,2.12.64,3.24.06.56.09,1.14.09,1.69,0,.55-.01,1.09-.03,1.64.23,2.19.24,4.4.16,6.65.36,2.23.44,4.51.67,6.8.11,1.15.38,2.28.71,3.38.34,1.1.73,2.18,1.13,3.23.47.97,1.09,1.87,1.89,2.4.4.27.82.45,1.28.51.12.01.23.03.35.03h.18s.18,0,.18,0c.12,0,.24-.02.37-.04.06,0,.12-.01.18-.03.04,0,.03,0,.04,0h0s.04,0,.05-.02c.02-.02.04-.04.06-.07,0,0,0-.02.02-.05l.04-.09c.02-.06.05-.12.07-.19.09-.26.17-.55.24-.84.14-.58.26-1.19.36-1.8.2-1.23.33-2.48.39-3.75.27-2.52.53-5.08,1.09-7.63.18-2.61.8-5.21,1.7-7.76.37-1.3.85-2.58,1.49-3.83.32-.62.68-1.24,1.12-1.83.44-.59.96-1.16,1.65-1.62.35-.21.75-.37,1.17-.47.42-.1.85-.13,1.29-.09.44.04.87.17,1.25.35.39.19.73.42,1.03.69.61.53,1.07,1.14,1.45,1.77.38.63.69,1.28.94,1.95.52,1.33.9,2.66,1.25,3.99.35,1.33.66,2.65,1,3.97.69,2.63.86,5.32,1.29,7.93.06,1.33.25,2.63.47,3.91.22,1.29.45,2.56.64,3.81.08.41.16.81.26,1.19.02.09.05.18.08.27l.04.13s.03.07.07.08l.05.02h.03s.02.01.04.02l.27.05c.09.02.18.02.26.03.09.01.17.01.26,0,.34,0,.68-.05,1-.17.63-.24,1.19-.72,1.62-1.34.67-.89,1.14-2,1.53-3.13.38-1.13.68-2.3.96-3.48.05-1.22.24-2.41.43-3.6.2-1.19.39-2.38.42-3.57.31-2.38.17-4.75.21-7.08-.02-.58-.02-1.17,0-1.75,0-.29.01-.58.02-.88v-.22s.02-.11.02-.11c0-.03,0-.04,0-.06l.03-.2.03-.21v-.05s0-.03,0-.03c0,0,0,0-.01,0l-.06-.02c-.15-.04-.29-.08-.44-.12-.29-.08-.58-.14-.86-.23-.29-.08-.57-.15-.85-.24-1.11-.41-2.19-.86-3.21-1.42-1.02-.56-1.98-1.21-2.81-1.99-.94-.65-1.73-1.48-2.43-2.35-.7-.87-1.3-1.79-1.93-2.69-1.14-1.86-1.96-3.88-2.39-5.93-.09-1.05-.22-2.07-.31-3.08-.09-1.01-.16-2.02-.08-3.02.1-.99.21-1.97.42-2.93.21-.95.51-1.88.95-2.72.37-.87.81-1.69,1.29-2.48.47-.79.99-1.53,1.48-2.27.53-.72,1.21-1.3,1.86-1.86.66-.56,1.31-1.08,1.85-1.75.16-.13.33-.25.5-.37l.26-.18.27-.16c.18-.1.36-.21.53-.3.18-.09.36-.18.54-.27.18-.09.36-.18.54-.26.18-.09.36-.18.53-.27.18-.08.35-.18.52-.27l.25-.15c.08-.05.17-.1.25-.15.17-.1.34-.2.51-.29.18-.08.35-.16.53-.23.36-.15.73-.24,1.09-.33.37-.09.74-.15,1.1-.21.18-.03.36-.06.54-.08.18-.03.36-.06.54-.09.28-.04.56-.09.83-.12.27-.03.54-.05.79-.08-.06.32-.11.58-.16.84-.75-.36-1.46-.67-2.19-.89-1.34-.43-2.67-.66-3.93-.78-1.26-.12-2.45-.11-3.56-.07-2.22.12-4.1.44-5.61.74-1.51.33-2.66.62-3.43.83-.77.21-1.18.3-1.19.26-.01-.04.42-.22,1.28-.54.43-.16.97-.33,1.62-.53.32-.1.68-.19,1.05-.3.19-.05.38-.11.58-.16.2-.05.41-.1.63-.15,1.72-.4,3.88-.8,6.47-.88,1.29-.04,2.68.03,4.15.26,1.47.24,3.02.66,4.54,1.39l1.45.7-1.62.2c-.25.03-.51.06-.77.09-.26.03-.51.08-.78.13-.17.03-.34.06-.5.11-.17.04-.33.09-.5.13-.33.1-.67.21-1,.32-.33.12-.68.22-1.01.35-.17.06-.34.11-.52.17-.17.06-.35.11-.53.17l-.26.11-.25.12c-.17.08-.33.17-.5.25-.16.09-.33.19-.49.28-.16.09-.33.19-.49.3-.16.1-.33.2-.49.3-.16.11-.32.21-.48.32l-.25.16-.24.17c-.16.11-.33.21-.5.32-.54.59-1.14,1.11-1.73,1.66-.59.56-1.19,1.13-1.71,1.79-.5.67-1,1.36-1.44,2.11-.43.75-.82,1.54-1.1,2.38-.25.85-.54,1.7-.78,2.58-.24.88-.41,1.79-.44,2.72-.33,1.85-.16,3.82.42,5.68.14.97.44,1.92.84,2.83.4.91.9,1.79,1.42,2.66.42.93,1.02,1.79,1.72,2.56.7.77,1.51,1.46,2.35,2.08.84.63,1.71,1.24,2.64,1.78.93.54,1.91,1,2.95,1.33.25.1.51.18.77.26.26.09.53.15.79.22l.2.05h.05s.09.03.09.03l.19.04.75.16.38.08h.05s.04.01.03.03v.08s-.02.17-.02.17l-.04.67-.04.68v.16s0,.1,0,.1v.21c0,.29,0,.57,0,.86,0,.58,0,1.16,0,1.75.12,2.35.11,4.75-.18,7.18-.07,2.44-.38,4.9-.85,7.38-.19,1.25-.5,2.5-.93,3.74-.44,1.23-1,2.46-1.86,3.6-.57.76-1.38,1.43-2.37,1.78-.49.17-1.01.25-1.52.25-.13,0-.25,0-.38-.01-.12-.01-.25-.02-.37-.04l-.37-.06s-.07-.01-.11-.02l-.13-.03-.25-.06c-.08-.03-.17-.06-.25-.1-.08-.04-.15-.1-.22-.16-.13-.13-.23-.28-.31-.45-.04-.08-.08-.17-.12-.26l-.07-.19c-.04-.12-.08-.23-.12-.34-.14-.45-.26-.87-.38-1.3-.26-1.3-.42-2.6-.59-3.9-.17-1.3-.33-2.6-.54-3.9-.33-2.61-.69-5.24-1.28-7.83-.12-1.33-.39-2.64-.76-3.92-.37-1.28-.83-2.53-1.39-3.7-.27-.59-.57-1.16-.9-1.68-.33-.52-.69-1-1.1-1.36-.41-.36-.84-.59-1.29-.65-.22-.03-.47-.02-.7.03-.23.05-.46.14-.68.27-.44.27-.84.68-1.19,1.15-.35.48-.67,1.01-.95,1.57-.56,1.12-.99,2.34-1.37,3.56-.65,2.49-1.34,4.99-1.66,7.55-.31,2.55-.88,5.05-1.1,7.58-.13,1.26-.26,2.52-.45,3.77-.09.63-.2,1.25-.35,1.89-.07.32-.15.64-.26.97-.03.08-.06.17-.09.25l-.05.13s-.04.1-.07.17c-.12.26-.27.51-.48.69-.06.06-.14.11-.21.15l-.24.09-.39.09c-.08.02-.17.03-.25.04-.17.02-.34.05-.52.05h-.26s-.27,0-.27,0c-.18,0-.35-.03-.53-.06-.71-.12-1.37-.43-1.92-.84-.56-.4-1.01-.89-1.4-1.4-.39-.51-.73-1.04-1.05-1.57-.59-1.15-1.05-2.31-1.4-3.49-.34-1.18-.55-2.39-.55-3.59-.46-2.35-.36-4.7-.64-6.97.17-2.29-.12-4.53-.11-6.73.01-.55.03-1.09.04-1.63.02-.54,0-1.04-.04-1.56-.08-1.03-.29-2.04-.61-3.02-.32-.98-.62-1.95-.93-2.91-.32-.96-.66-1.91-1.08-2.82-.47-.88-.85-1.8-1.24-2.69-.39-.89-.82-1.79-1.31-2.64-.4-.89-.8-1.78-1.15-2.67-.36-.89-.67-1.78-.91-2.69-.45-.84-.69-1.75-.82-2.66-.13-.91-.17-1.82-.24-2.71-.05-.89-.14-1.77-.14-2.64,0-.87.1-1.75.41-2.55.03-.86.26-1.69.61-2.44.35-.76.8-1.44,1.28-2.08.48-.64.95-1.25,1.49-1.81.53-.55,1.12-1.04,1.77-1.38.55-.49,1.2-.82,1.86-1.07.65-.25,1.31-.43,1.93-.65.16-.04.32-.07.48-.1.16-.04.32-.07.47-.1.32-.06.62-.14.93-.2.15-.03.3-.06.46-.09.15-.03.3-.05.45-.08.3-.05.6-.08.89-.11,1.17-.16,2.3-.16,3.34-.05,1.04.05,2.01.17,2.91.3,2.69.41,4.7,1.02,6.05,1.45,1.34.45,2.02.75,2,.8Z"/>
      </g>
    </g>
  </g>
</svg>