<?xml version="1.0" encoding="UTF-8"?>
<svg xmlns="http://www.w3.org/2000/svg" version="1.1" viewBox="0 0 109 114">
  <!-- Generator: Adobe Illustrator 28.7.1, SVG Export Plug-In . SVG Version: 1.2.0 Build 142)  -->
  <g>
    <g id="Calque_1">
      <g>
        <path d="M54.5,45.35s.15-.05.43-.09c.14-.02.31-.05.52-.08.2-.04.44-.08.71-.15.53-.13,1.17-.35,1.91-.67.74-.32,1.56-.77,2.47-1.3.61-.36,1.26-.75,1.96-1.17.69-.43,1.44-.88,2.29-1.28.45-.14.86-.39,1.3-.62.44-.23.92-.44,1.46-.46,1.03-.19,2.14-.38,3.33-.23.59.08,1.17.27,1.73.54.55.27,1.08.6,1.62.95.59.29,1.01.82,1.36,1.38.36.56.66,1.13,1.12,1.66.69,1.18,1.06,2.56,1.18,3.99-.01.36-.03.72-.03,1.08-.01.36-.02.71,0,1.07.02.36,0,.72,0,1.08,0,.18,0,.37,0,.55-.01.18-.02.37-.04.55-.41,1.44-.58,2.93-.85,4.48-.77,1.4-1.3,2.86-1.81,4.46l-.15.27-.16.27c-.11.17-.22.35-.33.53-.23.35-.48.69-.72,1.03-.51.67-1.02,1.34-1.55,2.02l-.05.06v.02s-.04.03-.04.03c0,.01-.02.02-.02.03v.04s0,.04,0,.04v.13s0,.32,0,.32c0,.42-.01.84-.02,1.27-.02.85-.05,1.71-.12,2.58.15,1.75.02,3.52-.33,5.3.09,1.82-.2,3.64-.58,5.47-.39,1.82-.36,3.76-1,5.61-.23.94-.47,1.89-.77,2.84-.31.95-.67,1.9-1.21,2.82-.29.45-.62.89-1.06,1.3-.22.2-.48.39-.79.54-.3.15-.68.24-1.06.22-.36-.01-.81-.14-1.12-.42-.16-.14-.28-.31-.38-.5-.1-.2-.14-.37-.19-.52-.07-.31-.1-.59-.13-.86-.02-.26-.05-.52-.07-.79,0-1.02-.01-1.99-.05-2.98-.04-.98-.1-1.96-.16-2.95-.52-1.93-.87-3.88-1.39-5.85-.68-1.91-1.33-3.89-2.4-5.69-.11-.23-.23-.47-.35-.7-.03-.04-.05-.1-.08-.12l-.06.02h-.03s0,0,0,0h0s-.02,0-.02,0l-.1.02-.41.08-.41.06-.82.11-.83.06-.42.02h-.42c-.28,0-.55,0-.83,0l-.83-.05-.42-.02-.41-.04-.82-.08-.82-.11-.41-.05-.41-.07-.15-.02h-.05s-.09-.01-.09-.01c0,0,0,0-.01,0h0s-.01.04-.01.04l-.02.05s-.02.06-.03.09c-.1.23-.21.47-.31.71-.78,1.93-1.81,3.73-2.4,5.69-.44.93-.71,1.91-.9,2.9-.19.99-.32,1.98-.49,2.95-.12.98-.23,1.96-.28,2.95-.05.99-.03,1.96.06,2.98,0,.26.02.52.02.79,0,.27-.02.56-.08.89-.04.17-.08.34-.18.57-.1.21-.23.4-.4.56-.17.16-.37.28-.59.35-.22.08-.44.11-.64.13-.41.02-.82-.09-1.14-.26-.33-.17-.58-.38-.8-.6-.44-.44-.73-.91-.98-1.39-.69-.84-1.05-1.82-1.31-2.79-.26-.97-.41-1.94-.68-2.87-.29-1.92-.78-3.75-1-5.61-.33-1.84-.28-3.69-.58-5.47-.12-1.8-.39-3.56-.33-5.3-.14-.86-.13-1.72-.11-2.58,0-.43.02-.85.02-1.27v-.32s0-.14,0-.14v-.05s0-.05,0-.05c0-.02-.02-.02-.03-.03l-.04-.03h-.02s-.06-.07-.06-.07c-.59-.63-1.11-1.3-1.61-1.98-.24-.35-.47-.7-.69-1.05-.1-.18-.21-.36-.31-.54l-.15-.27-.14-.28c-.13-.4-.29-.77-.44-1.15-.08-.19-.16-.37-.25-.55-.08-.19-.16-.37-.24-.55-.08-.18-.17-.36-.25-.55-.08-.18-.15-.37-.23-.55-.16-.36-.29-.74-.41-1.11-.41-1.5-.89-2.98-.85-4.48-.02-.18-.03-.37-.05-.55-.01-.18-.01-.37-.02-.55,0-.36-.03-.73-.02-1.08,0-.36,0-.71,0-1.07,0-.36,0-.72,0-1.09.05-.72.29-1.4.54-2.05.25-.65.51-1.26.64-1.95.28-.62.71-1.15,1.15-1.63.45-.48.91-.91,1.33-1.41.42-.5.98-.83,1.57-1.06.59-.23,1.19-.34,1.78-.43,1.18-.19,2.32-.04,3.33.23.58.15,1.11.35,1.62.56.51.21.99.45,1.45.68.91.48,1.73.97,2.5,1.43,1.51.92,2.8,1.68,3.91,2.16,1.1.5,2,.72,2.62.83.16.02.29.05.41.06.12.02.22.02.3.04.16.02.24.04.24.06,0,.02-.1.04-.3.06-.1.01-.23.02-.38.01-.15,0-.33,0-.52-.02-.79-.06-1.95-.33-3.34-.95-.7-.3-1.45-.69-2.26-1.13-.81-.44-1.68-.93-2.63-1.43-.95-.49-1.98-.99-3.12-1.34-.57-.17-1.17-.31-1.78-.38-.15-.01-.31-.03-.46-.04-.16,0-.31,0-.47,0-.31.01-.63.04-.94.1-.5.09-.99.3-1.45.55-.47.25-.92.53-1.41.81-.44.35-.81.78-1.15,1.25-.34.47-.65.97-.98,1.48-.15.6-.36,1.16-.55,1.75-.19.59-.37,1.2-.44,1.85-.03.32-.05.65-.05.98,0,.34,0,.68,0,1.03,0,.35.03.69.06,1.04.02.17.03.35.06.52.03.17.06.35.09.52.04.17.07.35.1.52.03.17.06.35.09.53.06.35.09.71.16,1.07.06.36.11.72.2,1.07.09.35.17.71.32,1.06.26,1.47.88,2.89,1.76,4.17l.11.27c.04.09.09.17.13.26.09.17.19.34.29.51.21.33.43.65.67.97.49.62,1.01,1.22,1.56,1.81l.04.07.08.11.16.21.08.1s.07.06.05.11v.27s-.03.75-.03.75c0,.42,0,.84.04,1.26.05.84.16,1.69.25,2.55.17,1.71.16,3.47.37,5.24.1,1.78.41,3.56.62,5.38.37,1.8.72,3.61,1.01,5.46.25.9.5,1.8.79,2.68.29.88.62,1.76,1.05,2.52.24.37.5.71.76.96.13.12.26.22.37.28.12.06.2.07.28.08h.09s.03-.02.04-.03c.02,0,.03-.02.03-.04,0,0,.03-.07.04-.14.03-.16.05-.37.06-.59,0-.23,0-.46,0-.71-.05-.98-.02-2.02.05-3.05.07-1.04.16-2.07.16-3.13.24-2.09.82-4.14,1.45-6.17.71-2.01,1.59-3.96,2.49-5.92.15-.23.3-.44.45-.69l.35-.59.17-.29.08-.15.04-.07s.06,0,.08,0l.69.13.58.1c.13.02.26.04.38.06l.39.04c.26.03.52.05.77.07.26,0,.52.01.78.02h.39s.39,0,.39,0l.78-.02c.26-.01.52-.03.78-.04l.39-.02.38-.03.77-.06.77-.09.38-.04.38-.06c.46-.08.92-.15,1.38-.22h.05s.04-.02.04,0l.04.08.09.17.17.33.34.66.36.73c.99,1.91,1.83,3.89,2.48,5.92.75,2,1.06,4.11,1.45,6.17.2,1.04.25,2.09.24,3.13,0,1.04-.07,2.07-.03,3.05,0,.24.01.48.03.71.02.22.04.43.08.59.02.07.04.14.04.13,0,0,.01.02.02.02,0,0,.02,0,.03,0,0,0,.03,0,.07,0,.07,0,.15,0,.26-.06.11-.05.24-.14.37-.26.27-.24.53-.58.78-.94.43-.77.84-1.61,1.16-2.49.33-.88.58-1.79.67-2.72.38-1.84.38-3.7,1.01-5.46.16-1.82.63-3.59.61-5.38.43-1.75.28-3.52.37-5.24.07-.86.14-1.71.19-2.55.02-.42.04-.84.04-1.26,0-.25,0-.51,0-.76v-.27s0-.03,0-.03c0,0,.01-.02.02-.03l.04-.05.09-.1.17-.21.09-.1.05-.06c.5-.63,1-1.25,1.48-1.86.23-.32.47-.63.69-.95.1-.16.21-.33.31-.49.05-.08.1-.17.15-.25l.13-.26c.07-.18.15-.35.24-.53.09-.17.16-.35.25-.51.08-.17.17-.34.27-.51.08-.17.17-.34.25-.51.08-.17.17-.34.24-.51.07-.17.14-.35.21-.52.14-.35.23-.71.3-1.08.46-1.41.66-2.85.87-4.25-.03-.18-.04-.36-.05-.53,0-.18-.02-.35-.01-.53,0-.35.05-.69.08-1.03.03-.34.08-.69.12-1.02.03-.33.05-.65.02-.98-.04-.65-.22-1.27-.42-1.85-.2-.59-.43-1.15-.57-1.75-.4-.47-.72-.95-1.05-1.42-.33-.47-.67-.93-1.08-1.31-.41-.38-.9-.65-1.39-.85-.49-.2-.98-.34-1.47-.5-.52.01-1-.02-1.5-.04-.5-.01-1,.02-1.46.17-.49.05-.95.21-1.38.38-.43.18-.84.39-1.26.57-.79.43-1.54.84-2.28,1.17-.71.39-1.38.76-2.01,1.09-.95.5-1.81.91-2.59,1.2-.78.29-1.46.47-2.02.55-.28.05-.53.07-.74.08-.21,0-.39.01-.54,0-.29-.02-.43-.04-.43-.07Z"/>
        <path d="M70.44,43.84c.07-.08.23-.07.48.03.04.02.08.04.13.05.05.01.11.02.14.07-.06.14.26-.11.16.08,0,.08.08.09.16.1.08.01.03.16.17.12.25-.13-.12.31.18.13.11,0,.15.08.19.15-.1.19.1.13.19.17-.14.23,0,.22.2.19-.21.29-.11.32.2.2.07.07.01.23.2.23.08.07.19.12.2.24.25-.04.31.06.2.26.27-.03.24.12.18.29-.06.17.3.1.19.3.04.11.15.19.17.32-.04.16-.1.31.17.33.11.09.22.19.14.36.29.04.22.21.13.37.09.11-.07.29.11.38,0,.14.17.24.09.39-.05.15-.11.29.06.4.18.11-.03.27.05.39-.23.15.1.25.02.39.03.13-.13.26,0,.38.04.12.09.25-.02.37.37.13-.1.24-.03.36-.16.11,0,.23-.05.35.06.12-.2.2-.06.33-.04.1.09.24-.07.32.17.14-.19.18-.08.3-.02.1-.02.2-.08.29-.31.03-.09.17-.1.27-.05.08.12.22-.1.25-.04.08-.19.12-.1.23.02.09-.46.03-.1.21.04.09-.33.05-.1.2.21.14-.07.12-.1.18-.03.06-.07.11-.1.17-.31.46-.56.68-.7.62-.17-.07-.17-.47-.1-1.09,0-.06-.17-.19.02-.19.02-.06-.11-.17.03-.2-.24-.15,0-.15.03-.22,0-.07.11-.12.02-.23-.13-.12.11-.13.03-.24.18-.04.16-.13.03-.25.17-.05,0-.18.02-.26.26-.04.11-.16.02-.27-.07-.1.07-.17.02-.28.06-.09-.04-.2,0-.29-.11-.11-.14-.2,0-.29-.08-.1-.01-.2,0-.3-.1-.1.02-.2,0-.3-.06-.1.26-.22-.03-.31-.04-.1.03-.21-.03-.31.02-.11.04-.22-.05-.31.25-.15.08-.24-.05-.32-.1-.09-.09-.2-.07-.31-.05-.1-.05-.2-.08-.31-.11-.07.04-.23-.09-.3-.15-.05.06-.24-.09-.29-.12-.06-.19-.13-.11-.28-.04-.09.15-.29-.11-.27-.1-.06-.41,0-.13-.26-.13-.03.07-.26-.12-.26.19-.23-.09-.16-.13-.24,0-.1.02-.23-.13-.23-.16,0-.03-.19-.12-.22-.18.03.06-.26-.13-.21-.02-.09-.12-.11-.12-.2-.34.19-.09-.12-.12-.2-.01-.09-.28.07-.12-.18-.26.15-.12-.07-.11-.17.01-.11-.17,0-.1-.16-.18.1,0-.17-.09-.15.05-.13-.08-.08-.09-.14-.07,0-.09-.04-.08-.13-.02-.04-.04-.08-.06-.12-.11-.23-.14-.39-.08-.48Z"/>
        <path d="M96.29,55.18c0,.11-1.46.21-4.14.3-.45.01-.92.03-1.44.05-.51.03-1.06.06-1.63.05-.58-.14-1.18.26-1.82.04-.64-.06-1.3,0-2,.04-.35.02-.7,0-1.07,0-.18,0-.36,0-.55,0h-.18s-.21.02-.21.02c-.14,0-.28.02-.43.04-.32.07-.65.08-.94.07-.15,0-.28-.01-.41-.03h-.05s-.02,0-.02,0c0,0,0-.02.01-.03l.06-.12.11-.22c.15-.3.28-.57.38-.83.1-.26.17-.51.19-.82,0-.03.03-.08.03-.1l.02-.07.04-.15c.03-.1.05-.19.08-.29.05-.19.11-.39.17-.58.03-.1.06-.2.09-.29.03-.1.06-.2.08-.3.06-.2.12-.4.17-.6.1-.19.19-.39.25-.6.05-.21.09-.42.12-.64.06-.43.1-.87.15-1.32.19-.42.31-.86.35-1.32.04-.46.02-.93-.01-1.41.21-.45.31-.93.33-1.42.02-.24,0-.49-.05-.73-.04-.25-.1-.5-.17-.74,0-.5.04-.98.02-1.47-.01-.49-.08-.99-.23-1.47-.2-.98-.52-1.94-.87-2.9-.15-.22-.3-.43-.44-.65-.15-.21-.27-.44-.4-.66-.26-.45-.5-.9-.75-1.38-.84-.67-1.51-1.44-2.34-2.14-.41-.35-.92-.56-1.43-.72-.52-.16-1.03-.27-1.54-.46-.53-.11-1.07-.13-1.63-.09-.28,0-.56.05-.84.07-.14.01-.28.04-.42.06-.14.02-.28.04-.42.07-.57.06-1.15.18-1.72.35-.57.18-1.12.43-1.63.79-1.08.56-2.14,1.22-3.31,1.74-.98.86-2.16,1.42-3.4,1.94-1.16.67-2.45,1.11-3.72,1.71-.67.21-1.34.44-2.05.59-.7.15-1.45.23-2.17.17-.72-.03-1.45-.14-2.15-.28-.7-.14-1.38-.32-2.07-.48-.69-.15-1.33-.44-1.93-.76-.61-.31-1.18-.67-1.79-.95-1.05-.85-2.33-1.23-3.4-1.94-1.12-.61-2.14-1.35-3.31-1.74-.56-.23-1.13-.43-1.69-.62-.56-.18-1.11-.36-1.66-.52-.6.08-1.14-.02-1.69-.1-.28-.05-.55-.08-.82-.09-.14,0-.27,0-.41,0-.13.02-.27.04-.4.07-.55.02-1.08.18-1.57.4-.49.23-.95.5-1.41.78-.43.32-.87.62-1.28.96-.41.33-.79.72-1.06,1.19-.34.4-.61.86-.85,1.32-.13.23-.24.46-.36.69-.11.23-.25.45-.37.68-.12.51-.31.97-.5,1.44-.19.47-.34.96-.37,1.46-.08.49-.14.98-.17,1.47-.04.49-.04.97-.05,1.47-.07.25-.1.49-.12.74-.01.24,0,.49.03.73.06.48.16.95.2,1.42.04.47.13.93.2,1.38.08.45.16.89.13,1.35.05.45.12.88.19,1.31.04.21.08.43.12.64.06.21.13.41.21.61.06.2.1.41.12.62l.03.32c.02.1.03.21.04.31.03.21.07.41.15.6.04.09.08.19.13.27.03.04.06.09.09.13l.05.06s.04.06.07.09c.13.28.23.58.31.85.08.27.14.53.21.77l.05.18.03.09s0,.02,0,.02h-.03s-.06,0-.06,0c-.15,0-.29-.01-.42,0-.27,0-.51.03-.76.09-.13.03-.26.05-.41.07-.07,0-.14.01-.22.02-.07,0-.13,0-.2,0-.19,0-.37,0-.55-.02-.36-.04-.72-.11-1.07-.12-.7-.01-1.36-.03-2-.04-2.87-.06-5.12-.13-6.66-.2-1.54-.07-2.36-.15-2.36-.23,0-.09,1.01-.17,2.9-.25,1.88-.08,4.64-.16,8.13-.22.35,0,.7-.06,1.07-.09.18-.02.36-.03.55-.02.06,0,.06,0,.08,0,.02,0,.04,0,.06.01.04.01.09.03.14.05.09,0,.17,0,.24-.02l.1-.02h.01s0,0,0,0h0s-.02-.04-.02-.04l-.04-.07c-.09-.18-.15-.3-.16-.49-.01-.01-.02,0-.04-.03l-.04-.07s-.06-.09-.08-.14c-.05-.09-.1-.19-.14-.29-.08-.19-.14-.4-.2-.6-.03-.1-.05-.21-.08-.31-.02-.11-.04-.21-.06-.32-.04-.21-.08-.43-.13-.64-.06-.21-.11-.42-.16-.64-.04-.22-.08-.44-.13-.66-.08-.44-.2-.89-.32-1.34-.15-.44-.22-.91-.25-1.39-.03-.48-.05-.96-.16-1.44.05-.5.05-.99,0-1.49-.02-.25-.04-.5-.07-.75-.03-.25-.07-.5-.11-.76.13-1.02,0-2.11.18-3.2.22-.52.35-1.05.49-1.59.13-.54.25-1.1.43-1.65.09-.28.21-.54.33-.8.13-.26.27-.52.43-.77.31-.5.65-.99,1-1.48.77-.91,1.6-1.85,2.68-2.52.98-.79,2.23-1.36,3.56-1.45.64-.16,1.32-.2,1.97-.17.33,0,.65.05.98.09.16.02.32.05.49.08.16.03.32.05.48.09.66.07,1.29.27,1.91.48.61.23,1.21.49,1.81.75,1.21.49,2.2,1.39,3.46,1.79,1.14.61,2.22,1.33,3.37,1.9,1.11.64,2.26,1.25,3.47,1.59.55.33,1.16.54,1.78.63.62.09,1.24.08,1.87.02.63-.03,1.23-.1,1.84-.21.61-.1,1.21-.26,1.81-.45,1.18-.44,2.33-1,3.47-1.59,1.09-.68,2.3-1.17,3.37-1.9,1.07-.74,2.32-1.15,3.46-1.79.58-.3,1.17-.58,1.79-.79.62-.21,1.26-.38,1.92-.43.16-.04.32-.06.49-.08.16-.02.33-.04.49-.05.33-.01.65-.03.98-.01.65,0,1.3.05,1.97.05.65.09,1.31.19,1.93.4.62.21,1.2.54,1.62,1.05.55.31,1.02.74,1.44,1.18.43.45.8.91,1.24,1.33.26.56.58,1.04.9,1.53.16.24.31.49.47.74.14.25.28.51.39.77.4,1.08.6,2.18.92,3.24.32,1.06.17,2.19.18,3.2.04.26.04.51.02.76-.01.25-.04.5-.09.75-.08.5-.16.98-.11,1.48-.07.48-.12.96-.17,1.44-.05.47-.14.94-.24,1.39.12.49.01.94-.13,1.38-.07.22-.16.43-.24.64-.09.21-.17.41-.24.62-.07.21-.12.42-.16.63-.02.11-.04.21-.06.32-.02.1-.05.21-.07.31-.05.21-.1.41-.18.61-.04.1-.08.19-.13.29-.03.05-.05.09-.08.14l-.04.07s-.03.02-.04.03c.08.21.07.26-.03.42l-.04.06s-.04.05-.02.05c.01.01.03.03.05.04.04.03.1.06.18.08.04.01.08.02.13.02.02,0,.04,0,.07,0h.09c.19,0,.37-.02.55-.03.36-.02.72-.03,1.07.05.7-.2,1.37.11,2,.04.64.13,1.24,0,1.82.04.58-.04,1.12-.03,1.63.05.51.02.99.03,1.44.05,2.67.09,4.14.2,4.14.3Z"/>
      </g>
    </g>
  </g>
</svg>