<?xml version="1.0" encoding="UTF-8"?>
<svg xmlns="http://www.w3.org/2000/svg" version="1.1" viewBox="0 0 109 114">
  <!-- Generator: Adobe Illustrator 28.7.1, SVG Export Plug-In . SVG Version: 1.2.0 Build 142)  -->
  <g>
    <g id="Calque_1">
      <g>
        <path d="M56.99,26.18c-.11,0-.21-.08-.3-.23-.02-.02-.03-.05-.05-.08-.03-.03-.06-.06-.04-.09.14-.03-.26-.06-.04-.1.06-.04,0-.07-.04-.11-.05-.04.09-.08-.04-.12-.27-.04.3-.09-.04-.13-.08-.04-.05-.09-.04-.14.21-.05,0-.1-.03-.15.25-.05.14-.1-.03-.15.34-.05.29-.11-.03-.16-.01-.06.12-.11-.03-.17-.02-.06-.09-.12-.03-.18-.23-.06-.22-.12-.02-.18-.25-.06-.15-.13-.02-.19.14-.07-.21-.13-.02-.2.02-.07-.06-.13-.02-.2.1-.07.21-.14-.01-.21-.06-.07-.14-.14-.01-.21-.26-.07-.14-.14,0-.22-.04-.07.14-.15,0-.22.04-.07-.11-.15,0-.22.08-.07.15-.15,0-.22-.17-.07.07-.15,0-.22.25-.07-.08-.14,0-.21-.02-.07.14-.14.01-.21-.05-.07-.09-.14.01-.21-.38-.07.1-.13.02-.2.16-.07-.02-.13.02-.2-.07-.06.18-.13.02-.19.03-.06-.12-.12.02-.19-.19-.06.16-.12.03-.18,0-.06-.01-.11.03-.17.29-.06.05-.11.03-.16.03-.05-.17-.11.03-.16.02-.05.15-.1.03-.15-.04-.05.43-.09.04-.14-.07-.05.3-.09.04-.13-.24-.04.03-.08.04-.12.02-.04.03-.07.04-.11.13-.32.28-.5.44-.5.18,0,.34.22.48.61.01.04.22.08.04.12,0,.04.16.08.04.13.27.04.05.09.04.14.01.05-.07.1.03.15.16.05-.08.1.03.16-.17.05-.12.11.03.16-.16.06.03.11.03.17-.25.06-.07.12.03.18.09.06-.04.12.02.19-.05.06.06.13.02.19.12.06.16.13.02.2.08.07.02.13.02.2.1.07-.01.14.01.21.05.07-.27.14.01.21.04.07-.04.14,0,.21-.04.07-.07.15,0,.22-.27.07-.1.15,0,.22.08.07.04.15,0,.22.03.07.01.15,0,.22.08.07-.12.15,0,.22.12.07-.13.14-.01.21.08.07.12.14-.01.21,0,.07-.25.14-.02.2.05.07.36.13-.02.2.1.06-.19.13-.02.19-.28.06-.01.12-.02.18-.05.06-.15.12-.03.18.13.06-.07.11-.03.17.16.06-.21.11-.03.16-.04.05.02.1-.03.15.38.05,0,.1-.03.15-.06.05.25.09-.04.14.29.04.04.09-.04.13-.08.04.12.08-.04.12.2.04-.11.08-.04.11-.13.04,0,.07-.04.1.05.03.03.06-.04.09-.02.03-.03.06-.05.08-.09.15-.19.23-.3.23Z"/>
        <path d="M74.23,30.81c-.09-.05-.14-.17-.14-.35,0-.03,0-.06,0-.09-.01-.04-.02-.08,0-.1.14.04-.19-.19.01-.11.07,0,.04-.06.02-.12-.02-.06.12-.02.03-.12-.21-.17.3.08.03-.13-.04-.07,0-.11.04-.14.2.06.05-.08.04-.14.24.08.17-.02.05-.15.32.13.3.05.05-.16.02-.05.16-.04.06-.16,0-.06-.02-.14.07-.17-.17-.17-.13-.21.07-.17-.18-.18-.07-.18.08-.18.15.01-.12-.22.08-.18.05-.05.02-.14.09-.18.12,0,.25-.01.09-.19-.02-.09-.05-.19.1-.19-.19-.19-.05-.2.1-.19,0-.08.2-.05.11-.19.07-.04-.03-.19.11-.19.11-.03.21-.05.11-.19-.11-.15.13-.09.11-.19.25.06,0-.16.11-.18.01-.07.19-.05.11-.18,0-.08-.01-.17.11-.17-.29-.25.15-.07.11-.17.17.02.04-.13.11-.16-.03-.09.21-.02.11-.15.06-.04-.04-.17.11-.15-.13-.15.2-.02.11-.14.03-.05.05-.1.11-.13.28.1.1-.07.11-.13.05-.03-.09-.17.11-.12.05-.03.18,0,.1-.11-.01-.06.42.13.1-.1-.04-.07.31.07.1-.09-.19-.16.07-.06.09-.08.03-.03.06-.05.09-.07.27-.21.49-.3.63-.22.15.09.18.36.11.77,0,.04.15.18-.03.12-.02.04.09.15-.03.13.21.18,0,.1-.04.14-.01.05-.11.05-.04.14.11.12-.12.05-.05.15-.17-.04-.16.03-.06.16-.17-.04-.03.11-.06.16-.25-.08-.12.06-.07.17.05.1-.09.09-.07.17-.07.03,0,.14-.08.18.07.12.08.19-.08.18.04.1-.05.12-.09.18.05.11-.08.11-.09.19.01.09-.3-.01-.1.19,0,.08-.11.1-.1.19-.07.05-.13.09-.1.19-.28-.07-.17.08-.11.19.03.1-.04.15-.11.19-.01.08-.06.13-.11.19.03.1-.17.06-.11.18.06.12-.18.06-.11.18.03.1.04.18-.11.17-.03.06-.29,0-.11.17.01.08.25.3-.11.16.05.1-.22.02-.11.15-.27-.09-.07.1-.11.15-.08.02-.19.03-.11.14.09.12-.12.06-.11.13.11.13-.24,0-.11.13-.06.03-.03.1-.11.12.3.23-.05.08-.1.11-.07.01.17.2-.1.1.22.18-.01.09-.1.09-.09,0,.06.13-.09.08.15.13-.13.01-.09.08-.13-.04-.04.06-.09.07.02.05,0,.07-.08.06-.03.02-.05.03-.08.05-.15.08-.28.1-.37.05Z"/>
        <path d="M86.85,43.43c-.05-.09-.03-.22.05-.37.01-.03.03-.05.05-.08,0-.04.02-.08.06-.08.1.1-.07-.26.06-.09.06.04.06-.03.07-.09.01-.06.11.04.08-.1-.1-.26.22.22.09-.1,0-.09.05-.09.1-.1.15.16.09-.05.11-.1.17.19.16.07.12-.11.22.27.24.2.13-.11.04-.04.16.05.13-.11.04-.05.06-.13.14-.11-.06-.23,0-.25.15-.11-.07-.24.03-.19.15-.11.12.09,0-.25.16-.11.06-.02.09-.12.17-.11.11.05.22.12.17-.11.03-.09.05-.2.18-.12-.07-.26.05-.2.18-.11.04-.07.2.05.19-.11.08,0,.07-.17.19-.11.1.03.21.06.19-.11-.02-.18.16-.01.19-.11.19.18.08-.14.19-.1.05-.06.19.05.19-.1.04-.07.07-.15.19-.09-.13-.36.16.02.18-.09.14.1.1-.09.18-.08.02-.09.2.09.17-.08.07,0,.05-.17.17-.07-.04-.19.18.08.17-.07.05-.03.09-.07.16-.06.2.23.12-.01.16-.05.06,0,0-.2.15-.05.05,0,.16.08.14-.04.02-.06.3.32.14-.04,0-.08.23.22.13-.03-.08-.23.09-.02.12-.03.04,0,.08-.01.12-.02.34-.05.57-.01.65.13.09.15-.02.41-.29.72-.03.03.04.23-.08.09-.04.02,0,.18-.09.1.1.26-.05.09-.1.1-.04.04-.12-.02-.11.1.04.16-.13-.02-.12.11-.13-.12-.16-.05-.13.11-.13-.11-.08.09-.13.11-.18-.19-.14,0-.14.11,0,.11-.12.03-.15.11-.08-.01-.08.12-.15.11,0,.13-.03.21-.16.11-.02.1-.11.08-.17.11,0,.12-.12.06-.17.11-.03.08-.26-.16-.18.11-.04.07-.15.03-.18.11-.08,0-.16,0-.19.11-.2-.2-.18-.02-.19.11-.03.11-.11.11-.19.11-.05.06-.12.08-.19.1-.02.11-.18-.03-.19.1,0,.14-.19-.04-.19.1-.02.1-.06.18-.19.09-.06.03-.24-.15-.18.09-.03.08.07.38-.18.08,0,.12-.2-.09-.17.08-.2-.21-.11.05-.17.07-.08-.02-.18-.07-.17.07.02.14-.14,0-.16.06.03.17-.2-.13-.16.06-.06,0-.08.07-.15.05.15.35-.09.05-.14.04-.07-.02.04.26-.14.04.1.27-.06.08-.13.03-.08-.05,0,.15-.12.03.07.19-.12-.06-.12.02-.1-.1-.06.03-.11.01,0,.06-.04.06-.1,0-.03,0-.06,0-.09,0-.17,0-.29-.05-.35-.15Z"/>
        <path d="M91.45,60.67c0-.1.08-.21.23-.3.03-.02.05-.03.08-.05.03-.03.06-.06.09-.04.03.14.07-.26.1-.04.04.06.07,0,.11-.04.04-.05.08.09.12-.04.04-.27.09.3.13-.04.05-.08.09-.05.14-.04.05.21.1,0,.15-.03.05.25.1.14.16-.03.05.34.11.29.16-.03.06-.01.11.12.17-.03.06-.02.12-.09.18-.03.06-.23.12-.22.18-.02.06-.24.13-.15.19-.02.06.14.13-.22.2-.02.07.02.13-.06.2-.02.07.1.14.21.21-.01.07-.06.14-.14.21-.01.07-.26.14-.15.21,0,.07-.04.15.14.22,0,.07.04.15-.12.22,0,.08.08.15.15.22,0,.07-.17.15.07.22,0,.07.25.14-.08.22,0,.07-.02.14.14.21.01.07-.05.14-.09.21.01.07-.38.13.1.2.02.07.16.13-.02.2.02.06-.07.13.17.19.02.06.03.12-.12.18.02.06-.19.12.16.18.03.06,0,.11-.01.17.03.06.29.11.05.16.03.05.03.1-.17.16.03.05.02.1.15.15.03.05-.04.09.43.14.04.05-.07.09.3.13.04.04-.24.08.03.12.04.04.01.08.03.11.04.32.13.5.28.5.43,0,.18-.22.34-.61.48-.04.01-.08.22-.12.04-.04,0-.08.16-.13.04-.04.27-.09.05-.14.04-.05.01-.1-.07-.15.03-.05.16-.1-.08-.16.03-.05-.17-.11-.12-.16.03-.06-.16-.11.03-.17.03-.06-.25-.12-.08-.18.03-.06.09-.12-.04-.18.02-.06-.05-.13.06-.19.02-.06.12-.13.16-.2.02-.07.08-.13.02-.2.02-.07.1-.14-.01-.21.01-.07.05-.14-.27-.21.01-.07.04-.14-.04-.22,0-.07-.03-.15-.07-.22,0-.07-.28-.15-.11-.22,0-.07.08-.15.04-.22,0-.07.03-.15.01-.22,0-.07.08-.14-.12-.21,0-.07.12-.14-.13-.21-.01-.07.08-.14.12-.21-.01-.07,0-.13-.25-.2-.02-.07.05-.13.36-.2-.02-.06.1-.13-.19-.19-.02-.06-.28-.12-.01-.18-.02-.06-.05-.12-.15-.18-.03-.06.13-.11-.07-.17-.03-.05.16-.11-.21-.16-.03-.05-.04-.1.02-.16-.03-.05.38-.1,0-.15-.03-.05-.05-.09.25-.14-.04-.04.29-.09.04-.13-.04-.04-.08-.08.12-.12-.04-.04.2-.08-.11-.11-.04-.04-.13-.07,0-.1-.04-.03.05-.06.03-.09-.04-.03-.02-.05-.03-.08-.05-.15-.09-.23-.19-.23-.3Z"/>
        <path d="M86.83,77.91c.05-.09.17-.14.35-.15.03,0,.06,0,.09,0,.04-.01.08-.02.1,0-.04.14.19-.19.11.01,0,.07.06.04.12.02.06-.02.02.12.12.03.17-.21-.08.3.13.03.08-.04.11,0,.14.04-.06.2.08.05.14.04-.08.24.02.17.15.05-.13.32-.05.3.16.06.05.02.04.16.16.06.06,0,.14-.02.17.06.17-.17.21-.13.17.07.18-.18.18-.06.18.08-.01.15.22-.12.18.08.05.05.14.02.18.09,0,.12.01.25.19.09.09-.02.19-.05.19.1.19-.19.2-.05.19.1.08,0,.05.2.19.1.04.07.19-.03.19.11.02.11.05.21.19.11.15-.11.09.13.19.11-.06.25.16,0,.18.11.07.02.05.19.18.11.08,0,.17-.01.17.12.25-.29.07.15.17.11-.02.17.13.04.16.11.09-.03.02.21.15.11.04.06.17-.04.15.11.15-.13.02.2.14.11.05.03.1.05.13.11-.1.28.07.1.13.11.03.05.17-.09.12.11.03.05,0,.18.11.1.06-.01-.13.42.1.1.08-.04-.07.31.09.1.16-.19.06.07.08.09.03.03.05.06.08.09.21.27.29.49.21.63-.09.15-.36.18-.77.11-.04,0-.18.15-.12-.03-.04-.02-.15.09-.13-.03-.18.21-.1,0-.14-.04-.05-.01-.05-.11-.14-.04-.12.11-.05-.12-.15-.05.04-.17-.03-.16-.16-.05.03-.17-.11-.03-.16-.06.08-.25-.06-.12-.17-.07-.1.05-.09-.09-.17-.07-.03-.07-.14,0-.17-.08-.11.07-.19.08-.18-.08-.1.04-.12-.05-.18-.09-.11.05-.11-.08-.18-.09-.09,0,.01-.3-.19-.1-.08,0-.1-.11-.19-.1-.05-.07-.09-.14-.19-.11.07-.28-.08-.17-.19-.11-.1.03-.15-.04-.19-.11-.08-.01-.13-.06-.19-.11-.1.04-.07-.17-.18-.11-.12.06-.06-.18-.18-.11-.1.03-.18.04-.17-.11-.06-.03,0-.28-.17-.11-.08.01-.3.25-.16-.11-.1.05-.02-.22-.15-.11.09-.27-.1-.07-.15-.11-.03-.08-.03-.19-.14-.11-.12.09-.06-.12-.13-.11-.13.11.01-.24-.13-.11-.03-.06-.1-.03-.12-.11-.23.3-.08-.05-.11-.1-.01-.07-.21.17-.1-.1-.18.23-.1-.01-.09-.1,0-.09-.13.06-.09-.1-.13.15,0-.13-.07-.09.04-.13-.06-.04-.06-.09-.05.02-.07,0-.06-.08-.02-.03-.03-.05-.05-.08-.08-.15-.1-.28-.05-.38Z"/>
        <path d="M74.2,90.52c.09-.05.22-.03.37.05.03.01.05.03.08.05.04.01.08.02.08.06-.1.1.26-.07.09.07-.04.06.03.06.09.07.06,0-.04.11.09.08.26-.1-.22.22.1.09.09,0,.09.05.1.1-.16.14.05.08.1.11-.19.17-.07.16.11.12-.27.22-.2.24.11.13.04.04-.05.16.11.13.05.04.13.06.11.14.23-.06.25,0,.11.15.24-.07.19.03.11.15-.09.13.25,0,.11.16.02.06.11.09.11.17-.05.11-.12.23.11.17.09.03.19.05.11.18.26-.07.2.05.11.18.07.04-.05.2.11.19,0,.08.17.07.11.19-.03.1-.06.21.11.19.18-.02.01.16.1.19-.18.19.14.08.1.19.06.05-.05.19.1.19.08.04.15.07.09.19.36-.13-.02.16.09.18-.1.14.09.1.08.18.09.02-.09.2.08.17,0,.07.17.05.07.17.19-.04-.08.18.07.17.03.05.07.09.06.16-.23.2.01.12.06.16,0,.06.2,0,.05.15,0,.06-.08.16.04.14.06.02-.33.3.04.14.08,0-.22.23.03.13.23-.08.02.09.03.12,0,.04.01.08.02.12.05.34.01.57-.13.65-.15.09-.41-.03-.72-.29-.03-.03-.23.04-.09-.08-.02-.04-.18,0-.1-.09-.26.1-.09-.05-.1-.1-.04-.03.02-.12-.1-.11-.16.04.02-.13-.11-.12.12-.13.05-.16-.11-.13.11-.13-.09-.08-.11-.13.19-.18,0-.14-.11-.14-.11,0-.03-.12-.11-.15.01-.08-.12-.08-.11-.15-.13,0-.21-.03-.11-.16-.1-.02-.08-.11-.11-.17-.12,0-.06-.12-.11-.17-.08-.03.16-.26-.11-.18-.07-.04-.03-.15-.11-.18,0-.08,0-.16-.11-.19.2-.2.02-.18-.11-.19-.11-.03-.11-.11-.11-.19-.06-.05-.08-.12-.11-.19-.11-.02.03-.18-.1-.19-.14,0,.04-.18-.1-.19-.1-.02-.18-.06-.09-.18-.03-.06.15-.24-.09-.18-.08-.03-.38.07-.08-.18-.11,0,.1-.2-.08-.17.21-.19-.05-.11-.07-.17.02-.08.07-.18-.07-.17-.14.02,0-.14-.06-.16-.17.03.13-.2-.06-.16,0-.06-.07-.08-.05-.15-.35.14-.05-.09-.04-.15.02-.07-.26.04-.04-.14-.27.1-.08-.06-.03-.13.05-.08-.15-.01-.03-.12-.19.07.06-.12-.02-.12.1-.1-.03-.06-.01-.11-.05,0-.05-.04,0-.1,0-.03,0-.06,0-.09,0-.17.05-.3.15-.35Z"/>
        <path d="M56.96,95.13c.11,0,.21.08.3.23.02.03.03.05.05.08.03.03.06.06.04.09-.14.03.26.07.04.1-.06.04,0,.07.04.11.05.04-.09.08.04.12.27.04-.3.08.04.13.07.04.05.09.04.14-.21.05,0,.1.04.15-.25.05-.14.1.03.16-.34.05-.29.11.03.16.01.06-.12.11.03.17.02.06.09.12.03.18.23.06.22.12.02.18.25.06.15.13.02.19-.14.06.21.13.02.2-.02.07.06.13.02.2-.1.07-.21.14.01.21.06.07.14.14.01.21.26.07.15.14,0,.22.04.07-.14.15,0,.22-.04.07.12.15,0,.22-.08.07-.15.15,0,.22.17.07-.07.15,0,.22-.25.07.08.14,0,.22.02.07-.14.14-.01.21.04.07.09.14-.01.21.38.07-.1.14-.02.2-.16.07.02.13-.02.2.07.06-.18.13-.02.19-.03.06.12.12-.02.18.19.06-.16.12-.03.18,0,.06.01.11-.03.17-.29.06-.05.11-.03.16-.03.05.17.11-.03.16-.02.05-.15.1-.04.15.04.05-.43.09-.04.14.07.05-.3.09-.04.13.24.04-.03.08-.04.12-.01.04-.03.08-.04.11-.13.32-.28.5-.43.5-.18,0-.34-.22-.48-.61-.01-.04-.22-.08-.04-.12,0-.04-.16-.08-.04-.13-.27-.04-.05-.09-.04-.14-.01-.05.07-.1-.04-.15-.16-.05.08-.1-.03-.16.17-.05.12-.11-.03-.16.16-.06-.03-.11-.03-.17.25-.06.08-.12-.03-.18-.09-.06.04-.12-.02-.18.05-.06-.06-.13-.02-.19-.12-.06-.16-.13-.02-.2-.08-.07-.02-.13-.02-.2-.1-.07.01-.14-.01-.21-.05-.07.27-.14-.01-.21-.04-.07.04-.14,0-.22.04-.07.07-.15,0-.22.28-.07.11-.15,0-.22-.08-.07-.04-.15,0-.22-.03-.07-.01-.15,0-.22-.08-.07.12-.14,0-.22-.12-.07.13-.14.01-.21-.08-.07-.12-.14.01-.21,0-.07.25-.14.02-.2-.05-.07-.36-.13.02-.2-.1-.06.18-.13.02-.19.28-.06.01-.12.02-.18.05-.06.15-.12.03-.18-.13-.06.07-.11.03-.17-.16-.06.21-.11.03-.16.04-.05-.03-.1.03-.16-.38-.05,0-.1.04-.15.05-.05-.25-.09.04-.14-.29-.04-.04-.09.04-.13.08-.04-.12-.08.04-.12-.2-.04.11-.07.04-.11.13-.04,0-.07.04-.1-.05-.03-.03-.06.04-.09.02-.03.03-.05.05-.08.09-.15.2-.23.3-.23Z"/>
        <path d="M39.73,90.51c.09.05.14.17.15.35,0,.03,0,.06,0,.09,0,.04.02.08,0,.1-.14-.04.19.19-.01.11-.07,0-.04.06-.02.12.02.06-.12.02-.03.12.21.17-.3-.08-.03.13.04.08,0,.11-.04.14-.2-.06-.05.08-.04.14-.24-.08-.17.02-.05.15-.32-.13-.31-.05-.06.16-.02.05-.16.04-.06.16,0,.06.02.14-.06.17.17.17.13.21-.07.17.18.18.07.18-.08.17-.15-.01.12.22-.08.18-.05.05-.02.14-.09.18-.12,0-.25.01-.09.19.02.09.05.19-.1.19.19.19.06.2-.1.19,0,.09-.2.06-.11.19-.07.04.03.19-.11.19-.11.02-.21.05-.11.19.11.15-.13.09-.11.19-.25-.06,0,.17-.11.18-.01.07-.19.05-.11.18,0,.08.01.17-.12.17.29.25-.15.07-.11.17-.17-.02-.04.13-.11.16.03.09-.22.02-.11.15-.06.04.04.17-.11.15.13.15-.2.02-.11.14-.03.05-.05.11-.11.13-.28-.1-.1.07-.11.13-.05.03.09.17-.11.12-.04.03-.18,0-.1.11.01.06-.42-.13-.1.1.04.07-.31-.07-.1.09.19.16-.07.06-.09.08-.03.03-.06.05-.09.07-.27.21-.49.29-.63.21-.15-.09-.18-.36-.11-.77,0-.04-.15-.18.03-.12.02-.04-.09-.15.03-.13-.21-.17,0-.1.04-.14.01-.05.11-.05.04-.14-.11-.12.12-.05.05-.15.17.04.16-.03.05-.16.17.03.03-.11.06-.16.25.08.12-.06.07-.17-.05-.1.09-.09.07-.17.07-.03,0-.14.08-.17-.07-.12-.08-.19.08-.18-.04-.1.05-.12.09-.18-.05-.11.08-.11.09-.19-.01-.09.3.01.1-.19,0-.08.11-.1.1-.19.07-.04.14-.09.11-.19.28.07.17-.08.11-.19-.03-.11.04-.15.11-.19.01-.08.06-.13.11-.19-.04-.1.17-.07.11-.18-.06-.12.18-.06.11-.18-.03-.1-.04-.18.11-.17.03-.06.29,0,.11-.17-.01-.08-.25-.3.11-.16-.05-.1.22-.02.11-.15.27.09.07-.1.11-.15.08-.03.19-.03.11-.14-.09-.12.12-.06.11-.13-.11-.13.24.01.11-.13.06-.03.03-.1.11-.12-.3-.23.05-.08.1-.11.07-.01-.17-.21.1-.1-.22-.18.01-.09.1-.09.09,0-.06-.13.09-.08-.15-.13.13,0,.09-.07.13.04.04-.06.09-.06-.02-.05,0-.07.08-.06.03-.02.05-.03.08-.04.15-.08.28-.1.37-.05Z"/>
        <path d="M27.11,77.88c.05.09.03.22-.05.37-.01.03-.03.05-.05.08-.01.04-.02.08-.06.08-.1-.1.07.26-.07.09-.06-.04-.06.03-.08.09,0,.06-.11-.04-.08.1.1.26-.22-.22-.09.1,0,.09-.05.09-.1.1-.14-.16-.08.05-.11.1-.17-.19-.16-.07-.12.11-.22-.27-.24-.2-.13.11-.04.04-.16-.05-.13.11-.04.05-.06.13-.14.11.06.23,0,.25-.15.11.07.24-.03.19-.15.11-.12-.09,0,.25-.16.11-.06.02-.09.11-.17.11-.11-.05-.23-.12-.17.11-.03.09-.05.19-.18.11.07.26-.05.2-.18.11-.04.07-.2-.05-.19.11-.08,0-.07.17-.19.11-.1-.03-.21-.06-.19.11.02.18-.16.01-.19.11-.19-.18-.08.14-.19.1-.05.06-.19-.05-.19.1-.04.07-.07.15-.19.09.13.36-.17-.02-.18.09-.14-.11-.1.09-.18.08-.02.09-.2-.09-.18.08-.07,0-.05.17-.17.07.04.19-.18-.08-.17.07-.05.03-.09.07-.16.06-.19-.23-.12.01-.16.05-.06,0,0,.2-.15.05-.06,0-.16-.08-.15.04-.02.06-.3-.32-.14.04,0,.08-.23-.22-.13.03.09.23-.09.01-.12.03-.04,0-.08.01-.12.02-.34.05-.57.01-.65-.13-.09-.15.02-.41.29-.72.03-.03-.04-.23.08-.09.04-.02,0-.18.09-.1-.1-.26.05-.09.1-.1.03-.04.12.02.11-.1-.04-.16.13.02.12-.11.13.12.16.05.13-.11.13.11.08-.09.13-.11.18.19.14,0,.14-.11,0-.11.12-.03.15-.11.08.01.08-.12.15-.11,0-.13.03-.21.16-.11.02-.1.11-.08.17-.11,0-.12.12-.06.17-.12.03-.08.26.16.18-.11.04-.07.15-.03.18-.11.08,0,.16-.01.19-.11.2.2.18.02.19-.11.03-.11.11-.11.19-.11.05-.06.12-.09.19-.1.02-.11.18.03.19-.1,0-.14.19.04.19-.1.02-.1.06-.18.19-.09.06-.03.24.15.18-.09.03-.08-.07-.38.18-.08,0-.12.2.1.18-.08.19.21.11-.05.17-.07.08.02.18.07.17-.06-.02-.15.14,0,.16-.06-.03-.17.2.13.16-.06.06,0,.08-.07.15-.05-.15-.35.09-.05.14-.04.07.02-.04-.26.14-.04-.11-.27.06-.08.13-.03.08.05.01-.15.12-.03-.07-.19.12.06.12-.02.1.1.06-.03.11-.01,0-.06.04-.06.1,0,.03,0,.06,0,.09,0,.18,0,.3.05.35.15Z"/>
        <path d="M22.5,60.64c0,.11-.08.21-.23.3-.02.02-.05.03-.08.05-.03.03-.06.06-.09.04-.03-.14-.06.26-.1.04-.04-.06-.07,0-.11.04-.04.05-.08-.09-.12.04-.04.27-.08-.3-.13.04-.04.07-.09.05-.14.04-.05-.21-.1,0-.15.03-.05-.25-.1-.14-.16.03-.05-.34-.11-.29-.16.03-.06,0-.11-.12-.17.03-.06.02-.12.09-.18.03-.06.23-.12.22-.18.02-.06.25-.13.15-.19.02-.06-.14-.13.22-.2.02-.07-.02-.13.06-.2.02-.07-.1-.14-.21-.21.01-.07.06-.14.14-.21.01-.07.26-.14.15-.21,0-.07.04-.15-.14-.22,0-.07-.04-.15.12-.22,0-.07-.08-.15-.16-.22,0-.07.17-.15-.07-.22,0-.07-.25-.14.08-.22,0-.07.02-.14-.14-.21-.01-.07.05-.14.09-.21-.01-.07.38-.13-.1-.2-.02-.07-.16-.13.02-.2-.02-.06.07-.13-.17-.19-.02-.06-.03-.12.12-.18-.02-.06.19-.12-.16-.18-.03-.06,0-.11.01-.17-.03-.06-.3-.11-.05-.16-.03-.05-.03-.1.17-.15-.03-.05-.02-.1-.15-.15-.03-.05.04-.09-.43-.14-.04-.04.07-.09-.3-.13-.04-.04.24-.08-.03-.12-.04-.04-.01-.08-.03-.11-.04-.32-.13-.5-.28-.5-.44,0-.18.22-.34.61-.48.04-.01.08-.22.12-.04.04,0,.08-.16.13-.04.04-.27.09-.05.14-.04.05-.01.1.07.15-.04.05-.16.1.08.15-.03.05.17.11.12.16-.03.06.16.11-.04.17-.03.06.25.12.07.18-.03.06-.09.12.04.18-.02.06.05.13-.06.19-.02.06-.12.13-.16.2-.02.07-.08.13-.02.2-.02.07-.1.14.01.21-.01.07-.05.14.27.21-.01.07-.04.14.04.22,0,.07.03.15.07.22,0,.08.28.15.11.22,0,.08-.08.15-.04.22,0,.07-.03.15-.01.22,0,.07-.08.14.12.21,0,.07-.12.14.13.21.01.07-.08.14-.12.21.01.07,0,.14.25.2.02.07-.05.13-.36.2.02.06-.1.13.18.19.02.06.28.12.02.18.02.06.05.12.15.18.03.06-.13.11.07.17.03.06-.16.11.21.16.03.05.04.1-.02.16.03.05-.38.1,0,.15.04.05.06.09-.25.14.04.04-.29.09-.04.13.04.04.08.08-.12.12.04.04-.2.08.11.11.04.04.13.07,0,.1.04.03-.05.06-.03.09.04.03.02.06.03.08.05.15.09.23.19.23.3Z"/>
        <path d="M27.13,43.41c-.05.09-.17.14-.35.15-.03,0-.06,0-.09,0-.04,0-.08.02-.1,0,.04-.14-.19.19-.11-.01,0-.07-.06-.04-.12-.02-.06.02-.02-.12-.13-.03-.17.21.08-.3-.13-.03-.08.04-.11,0-.14-.04.06-.2-.08-.05-.14-.04.08-.24-.02-.17-.15-.05.13-.32.05-.31-.16-.06-.05-.02-.04-.16-.16-.06-.06,0-.15.02-.17-.07-.17.17-.21.13-.17-.07-.18.18-.18.06-.18-.08.01-.15-.22.12-.18-.08-.05-.05-.14-.02-.18-.09,0-.12-.01-.25-.19-.09-.09.02-.19.05-.19-.1-.19.19-.2.05-.19-.1-.08,0-.06-.2-.19-.11-.04-.07-.19.03-.19-.11-.02-.11-.05-.21-.19-.11-.15.11-.09-.13-.19-.11.06-.25-.17,0-.18-.11-.07-.01-.05-.19-.18-.11-.08,0-.17.01-.17-.11-.25.29-.07-.15-.17-.11.02-.17-.13-.05-.16-.11-.09.03-.02-.21-.15-.11-.04-.06-.17.04-.15-.11-.15.13-.02-.2-.14-.11-.05-.03-.11-.05-.13-.11.1-.28-.07-.1-.13-.11-.03-.06-.17.09-.12-.11-.03-.05,0-.18-.11-.1-.06.01.13-.42-.1-.1-.07.04.08-.31-.09-.1-.16.19-.06-.07-.08-.09-.03-.03-.05-.06-.07-.09-.21-.27-.29-.49-.21-.63.09-.15.36-.18.77-.11.04,0,.18-.15.12.03.04.02.15-.09.13.03.18-.21.1,0,.14.04.05.01.05.11.14.04.12-.11.05.12.15.05-.04.17.03.16.16.06-.03.17.11.03.16.06-.08.25.06.12.17.07.1-.05.09.09.17.07.03.07.14,0,.17.08.11-.07.19-.08.18.08.1-.04.12.05.18.09.11-.05.11.08.19.09.09-.01-.01.3.19.1.08,0,.1.11.19.1.04.07.09.14.19.11-.07.27.08.17.19.11.1-.03.15.04.19.11.08.01.13.06.19.11.1-.03.06.17.18.11.12-.06.06.18.18.11.1-.03.18-.04.17.11.06.03,0,.28.17.11.08-.01.3-.25.16.11.1-.05.02.22.15.11-.09.27.1.07.15.11.03.08.03.19.14.11.12-.09.06.12.13.11.13-.11,0,.24.13.11.03.06.1.03.12.11.23-.3.09.05.11.1.01.07.2-.17.1.1.18-.23.09.01.09.1,0,.09.13-.06.08.09.13-.15.01.13.08.09-.04.13.06.04.07.09.05-.02.07,0,.06.08.02.03.03.05.05.08.08.15.1.28.05.37Z"/>
        <path d="M39.75,30.8c-.09.05-.22.03-.37-.05-.03-.01-.05-.03-.08-.05-.04-.01-.08-.02-.08-.06.1-.1-.26.07-.09-.07.04-.06-.03-.06-.09-.08-.06,0,.04-.11-.1-.08-.26.1.22-.23-.1-.09-.09,0-.09-.05-.1-.1.16-.14-.05-.08-.1-.11.19-.17.07-.16-.11-.12.27-.22.2-.24-.11-.13-.04-.04.05-.16-.11-.13-.05-.04-.13-.06-.11-.14-.23.06-.25,0-.11-.15-.24.07-.19-.04-.11-.15.09-.12-.25,0-.11-.16-.02-.06-.11-.09-.11-.17.05-.11.12-.23-.11-.17-.09-.03-.19-.05-.11-.18-.26.07-.2-.05-.11-.18-.07-.04.05-.2-.11-.19,0-.08-.17-.07-.11-.19.03-.1.06-.21-.11-.19-.18.02-.01-.16-.1-.19.18-.19-.14-.08-.1-.19-.06-.05.05-.19-.1-.19-.07-.04-.15-.07-.09-.19-.36.13.02-.17-.09-.18.1-.14-.09-.1-.08-.18-.09-.02.09-.2-.08-.18,0-.07-.17-.05-.07-.17-.19.04.08-.18-.07-.17-.03-.05-.07-.09-.06-.16.23-.19-.01-.12-.06-.16,0-.06-.2,0-.05-.15,0-.06.08-.16-.04-.14-.06-.02.32-.3-.04-.14-.08,0,.22-.23-.03-.13-.23.09-.01-.09-.03-.12,0-.04-.01-.08-.02-.12-.05-.34,0-.57.13-.65.15-.09.41.02.72.29.03.03.23-.04.1.08.02.04.18,0,.1.09.26-.1.09.05.1.1.04.04-.02.12.1.11.16-.04-.02.13.11.12-.12.13-.06.15.11.13-.11.13.09.08.11.13-.19.18,0,.14.11.14.11,0,.03.12.11.15-.01.08.12.08.11.15.14,0,.21.03.11.16.1.02.08.11.11.17.12,0,.06.12.11.17.08.03-.16.26.11.18.07.04.03.15.11.18,0,.08.01.16.11.19-.2.2-.02.18.11.19.11.03.11.11.11.19.06.05.08.12.11.19.11.02-.03.18.1.19.14,0-.04.19.1.19.1.02.18.06.09.19.03.06-.15.24.09.18.08.03.38-.07.08.18.11,0-.1.2.08.18-.21.19.05.11.07.17-.02.08-.07.18.07.17.14-.02,0,.14.06.16.17-.03-.13.2.06.16,0,.06.07.08.05.15.35-.15.05.09.04.14-.02.07.26-.04.04.14.27-.1.08.06.03.13-.05.08.14,0,.02.12.19-.07-.06.12.02.12-.1.1.03.06.01.11.06,0,.06.04,0,.1,0,.03,0,.06,0,.09,0,.17-.05.3-.15.35Z"/>
        <path d="M56.98,36.19c-.02.06-.55-.08-1.57-.33-.51-.12-1.14-.28-1.89-.43-.75-.15-1.62-.31-2.61-.43-.66-.08-1.37-.14-2.12-.17-.76-.01-1.56,0-2.4.05-.43-.04-.86.07-1.29.19-.43.12-.86.25-1.34.25-.46.09-.91.22-1.36.4-.45.19-.89.41-1.31.67-.42.26-.86.52-1.27.84-.41.31-.8.68-1.1,1.12-.24.49-.6.88-.93,1.33-.33.45-.61.96-.63,1.57-.29,1.11-.47,2.29-.48,3.53-.1.62-.06,1.26.05,1.9.11.64.29,1.27.46,1.91.03.68.18,1.34.41,2,.23.65.54,1.28.89,1.9.11.72.34,1.41.67,2.06.16.33.36.64.56.95.21.31.44.62.68.93.68,1.37,1.19,2.85,1.87,4.31.28.75.54,1.53.76,2.33.21.8.39,1.63.43,2.5.09.42.16.88.19,1.29.03.42.04.83.04,1.25,0,.83-.05,1.66-.13,2.5.28,1.67.25,3.37.27,5.1,0,.86.15,1.72.32,2.57.17.85.36,1.7.46,2.56.19.85.45,1.68.79,2.45.34.77.76,1.5,1.28,2.03.25.27.53.5.85.63.32.14.67.19,1.05.16l.23-.03s.07-.02.1-.03c.03-.02.05-.05.06-.08,0-.02.01-.03.01-.05l.02-.06c.1-.39.15-.85.18-1.31.25-1.83.39-3.74.78-5.64,0-1.95.4-3.89.91-5.82.17-.98.41-1.96.67-2.93.27-.98.56-1.95.85-2.96.39-.97.78-1.96,1.42-2.9.32-.47.72-.93,1.25-1.3.27-.18.56-.35.89-.45.33-.11.68-.16,1.02-.15.35,0,.7.06,1.02.19.32.12.61.29.87.48.51.39.88.84,1.2,1.31.63.93,1.06,1.89,1.49,2.85.43.95.7,1.95.91,2.94.21.99.38,1.98.6,2.95.13,2,.74,3.88.92,5.81.14.96.23,1.91.34,2.86.11.95.23,1.89.45,2.78.09.44.19.9.31,1.27,0,.03,0,.02,0,.03h0s.01.03.01.03c0,.01.02.03.03.03l.24.03c.71.07,1.31-.13,1.89-.61.4-.64.8-1.32,1.19-2.07.38-.75.72-1.56.88-2.41.28-.83.42-1.69.53-2.55.1-.86.16-1.73.26-2.58.08-1.72.39-3.41.27-5.1.03-.84,0-1.67-.02-2.5,0-.42-.01-.83,0-1.25,0-.41.05-.87.12-1.3-.01-.87.2-1.71.44-2.5.25-.79.54-1.55.75-2.33.54-1.51,1.16-2.95,1.87-4.31.23-.31.44-.63.63-.96.18-.32.35-.65.49-.98.3-.66.52-1.35.78-2,.28-.65.48-1.31.68-1.97.19-.66.38-1.3.62-1.92.16-.65.32-1.28.42-1.92.1-.64.15-1.27.09-1.9-.02-.62.05-1.23.03-1.84-.02-.6-.14-1.21-.51-1.69-.21-.53-.36-1.08-.59-1.59-.22-.51-.53-.99-.97-1.31-.44-.33-.8-.68-1.18-1.03-.37-.35-.76-.69-1.19-.93-.43-.25-.88-.45-1.33-.63-.45-.18-.9-.32-1.35-.44-1.01-.26-2-.41-2.94-.46-.94-.06-1.83-.05-2.65,0-1.65.1-3.05.34-4.17.57-2.25.47-3.43.85-3.46.76-.01-.04.33-.21,1.02-.47.69-.26,1.73-.61,3.12-.94.69-.17,1.48-.33,2.35-.46.87-.13,1.83-.22,2.87-.24,1.04-.01,2.17.04,3.35.25,1.18.22,2.43.58,3.64,1.23.48.26.98.52,1.46.86.47.34.92.75,1.24,1.26.39.46.77.94,1.1,1.47.33.53.59,1.12.73,1.75.33.57.49,1.22.56,1.88.07.66.05,1.33.05,2,0,.67-.06,1.35-.15,2.03-.09.68-.22,1.36-.32,2.06-.08.7-.3,1.39-.54,2.06-.25.68-.53,1.34-.75,2.05-.36.65-.68,1.31-1.01,1.99-.16.34-.32.68-.47,1.03-.15.34-.29.68-.42,1.03-.8,1.26-1.24,2.74-1.76,4.18-.38.68-.63,1.42-.79,2.18-.17.76-.25,1.54-.27,2.31,0,.39-.02.75-.02,1.16,0,.41,0,.82,0,1.24-.01.83-.03,1.68-.02,2.53-.08,1.7-.03,3.44-.23,5.2-.04,1.77-.22,3.59-.78,5.37-.18.91-.44,1.83-.82,2.73-.39.89-.88,1.8-1.68,2.57-.38.4-.87.76-1.44.96-.57.21-1.19.27-1.76.2-.07,0-.14-.02-.21-.03l-.13-.02c-.05-.01-.1-.02-.15-.03-.2-.07-.41-.13-.6-.21-.18-.11-.31-.28-.41-.47-.05-.09-.1-.19-.13-.29-.02-.05-.04-.1-.06-.15l-.04-.14c-.15-.53-.24-1-.33-1.48-.19-.95-.26-1.91-.35-2.86-.09-.95-.21-1.91-.48-2.84-.3-1.9-.5-3.83-.92-5.73-.33-1.91-.73-3.84-1.45-5.62-.2-.94-.56-1.85-1.09-2.58-.26-.36-.57-.67-.89-.87-.33-.2-.64-.26-.95-.23-.32.03-.61.14-.91.36-.29.21-.57.52-.83.87-.51.71-.92,1.57-1.27,2.46-.63,1.81-1.07,3.71-1.46,5.61-.28,1.92-.76,3.8-.91,5.73-.07.96-.23,1.91-.39,2.85-.16.95-.32,1.89-.43,2.85-.07.49-.14.96-.29,1.5,0,.03-.03.09-.04.14-.02.05-.04.11-.06.16-.04.1-.09.2-.14.3-.11.19-.25.36-.43.48-.2.08-.41.14-.62.21-.1.03-.23.05-.28.06l-.21.03c-.58.07-1.21,0-1.78-.22-.57-.21-1.06-.58-1.43-.99-.4-.38-.71-.82-.96-1.26-.25-.44-.44-.9-.62-1.35-.34-.91-.6-1.81-.93-2.68-.47-1.79-1.01-3.57-.78-5.37-.25-1.76-.04-3.51-.23-5.21.13-.85.13-1.7.1-2.53-.01-.42-.04-.83-.06-1.24-.02-.41-.06-.78-.08-1.16-.04-.76-.16-1.54-.33-2.29-.18-.76-.41-1.5-.73-2.2-.64-1.39-1.06-2.86-1.76-4.18-.2-.32-.37-.64-.53-.97-.16-.34-.31-.69-.45-1.04-.29-.7-.54-1.39-.91-2.04-.52-1.37-1.03-2.72-1.3-4.11-.34-.64-.47-1.34-.51-2.04-.04-.7.02-1.39.04-2.06.03-.67,0-1.34.07-2,.06-.66.21-1.31.54-1.88.06-.65.31-1.26.65-1.79.34-.54.76-1,1.18-1.43.42-.43.83-.85,1.26-1.23.44-.38.91-.7,1.43-.89.43-.35.94-.55,1.45-.7.51-.15,1.01-.23,1.48-.39.99-.11,1.89-.35,2.78-.38.88-.11,1.72-.08,2.5.04.78.06,1.5.15,2.17.26,1,.17,1.88.37,2.63.58.75.2,1.37.4,1.87.57,1,.35,1.5.59,1.48.63Z"/>
        <path d="M73.51,47.21c-.1-.01-.2-.16-.27-.41-.01-.04-.03-.09-.04-.13-.02-.05-.05-.1-.03-.15.14-.05-.25-.11-.03-.16.06-.06,0-.12-.05-.18-.05-.06.08-.13-.04-.19-.27-.06.3-.15-.04-.21-.08-.07-.05-.14-.05-.22.2-.09-.02-.15-.06-.22.24-.11.12-.18-.06-.24.33-.13.27-.22-.07-.24-.03-.08.08-.2-.09-.25-.04-.08-.12-.15-.09-.26-.24-.03-.27-.1-.11-.26-.26,0-.2-.12-.11-.26.1-.15-.27-.09-.13-.26-.03-.09-.14-.15-.14-.26.02-.07.05-.14.03-.19-.02-.05-.07-.08-.2-.07-.11-.06-.23-.09-.18-.26-.27.06-.23-.08-.19-.25-.1-.05-.03-.26-.21-.25-.03-.12-.23-.08-.23-.24-.02-.13-.05-.27-.23-.23-.19.05-.12-.19-.25-.21.07-.26-.22-.07-.25-.21-.1-.05-.1-.23-.26-.19-.11-.02-.22-.03-.26-.18-.27.27-.13-.18-.26-.16-.02-.19-.19-.07-.26-.16-.12.02-.1-.25-.26-.15-.08-.07-.23.04-.26-.13-.16.14-.12-.22-.25-.13-.08-.04-.18-.05-.25-.11,0-.31-.15-.1-.24-.11-.07-.06-.21.11-.23-.1-.07-.05-.12-.19-.22-.09-.08.03-.05-.45-.21-.08-.09.05-.07-.33-.2-.08-.12.22-.12-.06-.18-.08-.06-.03-.12-.05-.17-.08-.49-.2-.78-.4-.76-.56.02-.17.42-.29,1.12-.3.07,0,.18-.18.22,0,.07.02.18-.12.23.01.14-.25.17-.01.25.02.09,0,.15.11.26.03.13-.13.15.13.28.05.04.19.15.17.29.06.04.19.21.02.3.07.01.28.17.15.31.1.14-.04.19.12.32.1.09.08.24.04.33.13.16-.05.29-.03.33.15.15-.01.23.1.34.17.16-.02.21.15.34.2.14.03.07.36.34.21.13.05.19.2.33.25.09.12.17.22.33.27-.08.3.13.27.31.3.16.05.24.17.3.31.11.09.19.21.26.33.16.06.08.29.24.34.17.05.04.3.21.35.07.04.13.08.17.13.04.06.04.13.01.22.06.12-.11.34.16.36.1.09.45.09.13.35.13.08-.09.29.1.35-.23.2.07.22.09.34-.03.13-.09.26.05.33.16.08-.02.23.04.32.19.07-.17.24.02.31-.02.1.05.19,0,.29.39.05.02.19,0,.27-.04.09.26.16-.02.26.29.07.04.16-.03.24-.08.08.13.15-.03.22.2.07-.11.14-.04.2-.13.06-.01.12-.05.18.04.06.02.11-.06.16-.02.05-.04.09-.06.14-.11.25-.22.38-.33.37Z"/>
      </g>
    </g>
  </g>
</svg>