<?xml version="1.0" encoding="UTF-8"?>
<svg xmlns="http://www.w3.org/2000/svg" version="1.1" viewBox="0 0 109 114">
  <!-- Generator: Adobe Illustrator 28.7.1, SVG Export Plug-In . SVG Version: 1.2.0 Build 142)  -->
  <g>
    <g id="Calque_1">
      <g>
        <path d="M54.07,19.22c0,.05-.59.12-1.71.2-1.12.14-2.78.27-4.88.75-.18.03-.35.08-.53.12-.18.04-.36.09-.55.14-.37.1-.76.18-1.15.31-.39.12-.79.25-1.21.38-.41.15-.83.3-1.27.44-.23.04-.45.12-.66.22-.21.1-.43.22-.64.33-.43.22-.86.48-1.37.58-.24.09-.48.18-.71.3-.23.12-.47.24-.7.37-.23.13-.47.25-.7.4-.23.15-.46.29-.7.44-.23.15-.48.28-.72.43-.24.15-.49.3-.73.45-.5.29-.98.64-1.43,1.04-.1.11-.21.22-.33.31-.11.1-.23.2-.35.29-.25.18-.51.34-.78.51-.27.16-.52.35-.76.56-.24.21-.47.43-.65.71-.89.94-1.85,1.85-2.75,2.88-.13.11-.26.23-.38.35l-.18.18c-.06.06-.11.13-.17.2-.22.27-.43.55-.64.84-.21.28-.39.59-.58.89-.1.15-.19.3-.29.45-.1.15-.2.3-.29.46-.25.27-.48.56-.7.86l-.16.22c-.05.08-.1.16-.15.24-.09.16-.19.32-.28.48-.37.65-.64,1.36-.91,2.07-.25.3-.45.63-.65.97-.1.17-.19.34-.28.51-.08.18-.15.36-.22.54-.14.37-.26.74-.36,1.13-.08.39-.15.79-.2,1.19-.13.37-.24.76-.36,1.14-.12.39-.25.77-.34,1.17-.1.4-.19.79-.28,1.2-.07.41-.12.82-.16,1.23-.08.41-.11.82-.16,1.24-.04.42-.1.83-.12,1.26-.03.42-.06.84-.09,1.27-.02.43-.03.86-.06,1.29.04.43.09.86.14,1.29.04.43.05.87.1,1.3.04.44.05.87.06,1.31.03.44.05.88.06,1.33.5,1.72.79,3.49,1.22,5.28.11.45.26.88.42,1.32.17.43.37.85.56,1.28l.15.32.16.31c.1.21.21.42.3.63.19.43.39.85.56,1.29.85,1.69,1.93,3.28,3.07,4.85,1.08,1.61,2.34,3.17,3.96,4.35,1.5,1.3,3.14,2.46,4.77,3.65,1.85.86,3.59,1.89,5.46,2.78,1.93.72,3.89,1.5,5.99,1.75,2.06.44,4.18.49,6.31.61,2.13.08,4.28-.06,6.31-.61,1.01-.28,2.03-.51,3.04-.78.51-.12,1-.28,1.5-.43.25-.08.5-.15.74-.25.24-.09.48-.19.72-.3.25-.07.5-.13.74-.23.24-.09.48-.19.72-.3.23-.1.47-.21.7-.32l.67-.37.67-.38c.22-.13.43-.27.65-.4.44-.26.87-.52,1.31-.79,1.69-1.1,3.4-2.21,4.77-3.66,1.43-1.38,2.71-2.86,3.96-4.35.43-.89,1-1.66,1.55-2.43.29-.38.56-.78.82-1.18.13-.2.26-.4.38-.6.11-.21.22-.42.32-.64.13-.2.25-.41.36-.61.12-.2.21-.42.31-.63.1-.21.2-.43.29-.64l.14-.32.12-.33c.16-.44.32-.87.48-1.31.14-.44.28-.88.44-1.31.23-.89.53-1.75.75-2.63.06-.22.12-.44.17-.66.05-.22.09-.44.13-.66.04-.22.08-.44.11-.67l.04-.33c0-.11.01-.22.02-.34.06-.44.12-.88.17-1.32.02-.44.05-.88.07-1.32.04-.44.03-.87.05-1.31.02-.43.04-.87.07-1.3-.06-.43-.08-.86-.09-1.28-.03-.42-.04-.85-.05-1.27v-.32c0-.1-.02-.21-.03-.31-.02-.21-.03-.42-.06-.63-.04-.42-.09-.83-.21-1.23-.07-.41-.15-.81-.22-1.22-.09-.4-.18-.8-.28-1.19-.08-.4-.2-.78-.31-1.17-.11-.39-.2-.78-.32-1.16-.06-.4-.15-.79-.26-1.17-.12-.37-.27-.74-.43-1.1-.08-.18-.15-.36-.24-.53-.09-.17-.18-.34-.27-.52-.18-.34-.35-.69-.52-1.02-.33-.68-.7-1.34-1.1-1.96-.37-.64-.78-1.25-1.09-1.91-.79-1.21-1.53-2.43-2.53-3.38-.23-.25-.43-.53-.64-.79-.21-.27-.41-.54-.62-.8-.2-.27-.43-.51-.68-.73-.25-.22-.51-.41-.81-.56-.25-.2-.49-.42-.71-.64-.23-.22-.44-.46-.67-.67-.23-.21-.46-.42-.7-.61-.12-.09-.25-.18-.38-.26-.13-.08-.27-.15-.41-.21-.56-.25-1.03-.6-1.5-.94-.23-.17-.46-.35-.68-.52-.23-.17-.47-.32-.7-.46-.24-.14-.48-.28-.71-.42-.24-.13-.48-.25-.71-.38-.23-.12-.47-.25-.7-.37-.23-.12-.47-.22-.7-.33-2.07-.98-4.02-1.65-5.74-2.13-.43-.11-.85-.21-1.25-.32-.4-.1-.79-.16-1.16-.24-.74-.17-1.43-.25-2.04-.35-1.23-.16-2.17-.26-2.81-.3-.64-.05-.97-.1-.97-.14,0-.04.41-.08,1.21-.1.2,0,.42-.02.67,0,.25,0,.52.02.81.03.29.01.61.02.95.05.34.03.7.07,1.08.11,1.53.18,3.4.48,5.54,1.11,2.14.62,4.53,1.57,7.02,2.97.25.14.51.26.77.41.26.14.51.29.77.43.53.29,1.02.64,1.47,1.07.13.09.25.18.38.27.13.09.25.18.38.28.26.18.51.37.78.56.26.18.51.4.75.61.25.22.49.44.72.68,1.16.71,1.99,1.84,2.89,2.93.95,1.05,1.75,2.28,2.68,3.46.47.59.88,1.24,1.23,1.92.38.67.69,1.39,1.1,2.07.14.37.27.75.42,1.12.07.18.15.37.23.55.07.19.15.37.22.56.15.38.32.75.48,1.12.15.38.32.76.48,1.14.1.4.19.81.3,1.21.11.41.24.8.34,1.21.11.41.22.82.33,1.23.09.42.18.84.25,1.27.02.43.04.87.07,1.3.02.22.04.43.07.65l.04.33.03.33c.05.44.1.88.16,1.32.04.44.08.89.12,1.34.04.45.04.9.03,1.36-.01.45-.01.91-.07,1.37-.04.46-.08.91-.12,1.38-.06.46-.11.92-.16,1.38-.32,1.83-.62,3.71-1.24,5.54-.46,1.87-1.19,3.72-2.22,5.42-.84,1.8-1.96,3.48-3.19,5.11-1.15,1.69-2.63,3.15-4.14,4.58-.75.72-1.59,1.36-2.45,1.96-.42.32-.86.6-1.29.92-.42.32-.85.63-1.26.98-1.78,1.17-3.74,2.09-5.73,2.94-2.03.77-4.14,1.36-6.3,1.85-2.21.15-4.39.53-6.64.64-2.24.08-4.48-.18-6.64-.64-2.17-.39-4.29-1.03-6.3-1.85-2.05-.73-3.88-1.9-5.73-2.94-.46-.26-.92-.54-1.34-.86-.43-.31-.86-.62-1.26-.97-.82-.67-1.59-1.37-2.4-2.03-1.59-1.35-3.02-2.87-4.14-4.58-.61-.82-1.14-1.68-1.64-2.55-.27-.43-.5-.87-.76-1.29-.13-.21-.26-.42-.4-.63-.13-.21-.26-.42-.4-.63-.24-.43-.49-.86-.72-1.3-.12-.22-.23-.44-.35-.66l-.17-.33c-.05-.11-.1-.22-.15-.34-.19-.45-.39-.9-.53-1.37-.13-.47-.24-.95-.3-1.43-.32-.91-.55-1.84-.71-2.77-.04-.23-.09-.46-.13-.7-.04-.23-.08-.46-.11-.7-.04-.23-.09-.46-.13-.69l-.08-.34-.07-.34c.01-.47-.01-.93-.06-1.39-.02-.46-.06-.92-.11-1.37-.06-.45-.08-.91-.11-1.36-.03-.45-.06-.91-.04-1.35.03-.45.05-.9.08-1.34.05-.44.09-.88.14-1.32.03-.44.11-.87.15-1.31.05-.43.08-.87.13-1.3.04-.43.11-.86.19-1.28.1-.42.2-.83.31-1.24.1-.41.25-.81.37-1.21.13-.4.23-.8.36-1.19.09-.41.22-.8.36-1.19.15-.38.33-.75.5-1.12.09-.18.17-.37.26-.55.09-.18.18-.36.27-.54.17-.36.32-.73.45-1.1.38-.7.72-1.4,1.11-2.06.1-.17.19-.33.29-.5l.14-.25.16-.24c.21-.32.42-.63.63-.94.06-.19.14-.36.23-.52.09-.17.18-.33.28-.49.21-.31.42-.61.67-.88.25-.27.5-.53.75-.79l.19-.2.19-.19c.13-.13.25-.26.37-.39.95-1.04,1.73-2.23,2.89-2.93.2-.28.43-.52.66-.74.24-.22.48-.44.75-.62.26-.18.53-.36.8-.53.13-.09.26-.17.4-.26.13-.08.27-.16.4-.24.53-.32,1-.71,1.5-1.04.25-.17.49-.33.74-.49.25-.15.51-.28.78-.39.22-.18.46-.34.7-.48.25-.14.5-.24.76-.35.25-.11.51-.21.75-.31.25-.11.49-.2.72-.33.5-.15.96-.37,1.43-.55.23-.1.45-.19.68-.29.22-.09.45-.18.67-.25.44-.17.87-.33,1.3-.46.43-.12.85-.21,1.26-.29.4-.12.8-.19,1.18-.27.19-.04.38-.08.56-.12.19-.04.37-.08.55-.1,2.15-.39,3.84-.43,4.98-.47,1.14.02,1.73.06,1.73.11Z"/>
        <path d="M54.07,30.73c0,.14-1.58.11-4.34.73-.23.05-.46.12-.71.18-.24.07-.5.12-.75.21-.26.09-.52.17-.79.26-.27.1-.55.2-.83.29-.31.03-.58.22-.85.38-.28.16-.55.34-.9.38-.16.06-.32.11-.47.19s-.31.16-.46.24c-.15.09-.31.17-.46.27-.15.1-.3.2-.45.3-.15.1-.31.19-.47.29-.16.09-.32.19-.48.29-.33.19-.65.42-.93.7-.06.08-.13.16-.2.22-.07.07-.15.13-.23.19-.16.12-.34.21-.53.31-.36.2-.71.44-.92.85-.56.63-1.2,1.22-1.79,1.9-.75.54-1.15,1.42-1.65,2.22-.36.33-.66.72-.88,1.16-.24.43-.39.91-.54,1.39-.19.18-.34.39-.48.61-.07.11-.13.22-.19.33-.06.11-.11.24-.15.35-.09.24-.16.49-.21.75-.04.26-.06.53-.07.8-.09.25-.16.5-.24.75-.08.25-.17.5-.23.76-.07.26-.13.52-.18.79-.04.27-.07.54-.08.81-.15,1.08-.21,2.18-.27,3.31.04.28.1.57.13.85.04.28.05.56.08.85.02.28.03.57.03.86.01.29.01.58,0,.88.41,1.11.57,2.27.81,3.45.06.3.16.58.26.87.12.28.26.55.39.83.07.14.14.27.21.41.07.14.14.27.2.41.12.28.25.56.35.86.55,1.11,1.28,2.13,2.01,3.17.68,1.07,1.48,2.12,2.59,2.84,1,.84,2.08,1.57,3.12,2.39,1.25.48,2.36,1.18,3.57,1.82,1.26.46,2.53,1.02,3.91,1.14,1.35.3,2.74.28,4.12.4,1.39.08,2.8.02,4.12-.4.66-.21,1.32-.35,1.98-.52.33-.07.66-.17.98-.27.33-.09.64-.22.95-.36.17-.04.33-.07.49-.13.16-.06.32-.12.47-.18.15-.07.31-.14.46-.21.15-.08.29-.17.44-.25l.43-.26.42-.27c.14-.09.28-.17.43-.26.14-.08.28-.17.43-.25,1.1-.73,2.25-1.41,3.12-2.39.92-.91,1.75-1.89,2.59-2.84.23-.62.6-1.11.98-1.61.2-.24.38-.49.56-.75.09-.13.18-.26.26-.39.07-.14.14-.27.2-.42.71-1.03,1.02-2.24,1.41-3.37.14-.58.35-1.14.5-1.72.04-.14.08-.29.12-.43.03-.14.06-.29.09-.43.03-.15.05-.29.07-.44l.02-.22c0-.07,0-.15,0-.22.05-.29.08-.58.11-.86.01-.29.03-.58.04-.86.02-.29.01-.57.03-.85.01-.28.04-.57.06-.85-.06-.28-.07-.56-.08-.84-.02-.28-.02-.56-.01-.83,0-.28-.01-.55-.03-.83-.02-.27-.06-.55-.14-.81-.17-1.07-.46-2.1-.73-3.1-.01-.27-.06-.53-.13-.78-.07-.25-.18-.49-.28-.72-.06-.12-.11-.23-.17-.35-.06-.11-.12-.22-.19-.33-.13-.22-.24-.44-.36-.66-.21-.45-.47-.88-.74-1.28-.25-.42-.52-.81-.69-1.27-.51-.79-.96-1.62-1.65-2.22-.16-.16-.28-.35-.41-.53-.13-.18-.25-.37-.38-.55-.13-.18-.27-.35-.44-.49-.16-.14-.35-.26-.57-.33-.34-.25-.6-.59-.89-.88-.15-.15-.29-.29-.45-.41-.08-.06-.16-.12-.25-.17-.09-.04-.19-.08-.29-.12-.39-.13-.7-.36-1-.59-.15-.12-.29-.24-.44-.36-.14-.12-.3-.22-.45-.32-.16-.09-.31-.19-.47-.28-.16-.09-.31-.17-.47-.25-.15-.08-.31-.17-.46-.25-.15-.08-.31-.15-.46-.22-1.36-.66-2.63-1.11-3.76-1.43-.29-.08-.56-.15-.82-.22-.26-.07-.52-.11-.76-.17-.49-.12-.94-.17-1.34-.25-.81-.12-1.43-.2-1.85-.24-.42-.05-.64-.09-.64-.13,0-.04.27-.08.8-.11.13,0,.28-.02.44-.02.16,0,.34,0,.54,0,.19,0,.41,0,.63.02.23.02.46.04.72.06,1.02.1,2.27.29,3.69.7,1.42.4,3.02,1.02,4.69,1.95.17.09.34.17.52.26.17.09.35.18.53.27.36.18.69.42.97.73.34.23.69.47,1.04.72.35.25.68.54.98.87.83.41,1.34,1.22,1.94,1.95.64.7,1.15,1.54,1.8,2.3.34.38.6.82.83,1.28.24.46.45.94.74,1.38.08.25.16.51.25.76.05.12.1.25.15.37.05.13.1.25.15.38.1.25.22.5.34.74.11.25.23.5.35.75.06.27.11.55.18.82.07.27.16.54.24.81.08.27.16.54.24.82.07.28.13.56.18.84,0,.3,0,.59.01.88.02.29.07.58.09.87.04.29.08.58.13.88.04.29.07.59.11.89.04.3.04.6.03.91,0,.3-.01.61-.05.92-.03.3-.06.61-.09.92-.04.31-.08.61-.1.93-.23,1.22-.39,2.49-.82,3.71-.27,1.27-.75,2.51-1.48,3.63-.54,1.22-1.31,2.34-2.13,3.42-.74,1.15-1.76,2.11-2.77,3.07-.5.49-1.08.9-1.66,1.3-.28.21-.58.39-.87.61-.28.22-.56.43-.82.68-1.19.8-2.51,1.39-3.84,1.97-1.37.51-2.78.89-4.22,1.24-1.5,0-2.94.32-4.45.43-1.5.08-3-.11-4.45-.43-1.46-.25-2.88-.69-4.22-1.24-1.39-.47-2.58-1.31-3.84-1.97-.32-.17-.62-.35-.91-.57-.29-.21-.57-.42-.83-.66-.54-.45-1.05-.93-1.61-1.36-1.08-.89-2.06-1.9-2.77-3.07-.41-.55-.75-1.14-1.07-1.72-.17-.29-.33-.58-.5-.87-.09-.14-.18-.28-.27-.42-.09-.14-.19-.28-.29-.41-.16-.29-.34-.57-.5-.86-.08-.14-.16-.29-.25-.43-.08-.14-.16-.29-.23-.44-.14-.3-.27-.6-.36-.92-.08-.32-.14-.64-.15-.98-.23-.61-.37-1.23-.46-1.86-.03-.16-.06-.31-.08-.47-.02-.16-.05-.31-.07-.47s-.06-.31-.09-.46c-.04-.15-.08-.3-.11-.46.03-.32.03-.63,0-.94,0-.31-.04-.61-.08-.92-.04-.3-.06-.61-.09-.91-.03-.3-.05-.6-.04-.9.06-1.21.28-2.36.34-3.52.02-.29.06-.58.11-.86.06-.28.14-.56.22-.83.07-.27.17-.54.26-.81.09-.27.16-.53.24-.8.05-.28.13-.54.23-.8.11-.25.23-.5.35-.74.06-.12.12-.24.18-.36.06-.12.13-.24.18-.36.12-.24.21-.49.29-.74.26-.46.48-.93.74-1.38.25-.45.53-.88.82-1.29.05-.26.17-.49.3-.71.13-.21.28-.41.46-.58.34-.35.72-.67,1.05-1.01.65-.68,1.1-1.55,1.94-1.95.24-.4.56-.7.92-.94.18-.12.37-.23.55-.33.09-.05.18-.11.27-.16.09-.05.19-.1.27-.15.36-.21.67-.47,1-.7.16-.12.32-.23.49-.33.17-.1.35-.18.53-.24.14-.14.29-.25.46-.34.16-.09.34-.16.51-.22.17-.06.34-.12.51-.19.17-.07.33-.13.48-.22.35-.08.65-.22.96-.35.3-.12.59-.28.9-.36.29-.12.58-.23.86-.31.29-.08.57-.13.85-.17.27-.07.53-.12.79-.17.26-.05.5-.11.74-.14,1.43-.25,2.56-.26,3.31-.26.76.03,1.15.07,1.15.13Z"/>
        <path d="M54.09,37.37c-.1,0-.21-.29-.3-.81-.01-.09-.03-.18-.05-.28-.03-.1-.06-.21-.04-.32.14-.11-.26-.23-.04-.36.06-.13,0-.26-.04-.39-.05-.14.09-.28-.04-.43-.27-.15.3-.3-.04-.46-.07-.16-.05-.32-.04-.49.21-.17,0-.34-.04-.52.25-.18.14-.36-.03-.55.34-.19.29-.38-.03-.58-.01-.2.12-.4-.03-.6-.02-.21-.09-.41-.03-.63-.23-.21-.22-.43-.02-.65-.25-.22-.15-.45-.02-.67.14-.23-.22-.46-.02-.69.02-.23-.06-.47-.02-.71.1-.24.21-.48-.01-.73-.06-.25-.14-.5-.01-.75-.26-.25-.15-.51,0-.76-.04-.26.14-.52,0-.78.04-.26-.11-.52,0-.79.08-.26.16-.53,0-.79-.17-.26.07-.52,0-.78.25-.26-.08-.51,0-.76-.02-.25.14-.5.01-.75-.05-.25-.09-.49.01-.73-.38-.24.1-.48.02-.71.16-.23-.02-.46.02-.69-.07-.23.17-.45.02-.67.03-.22-.12-.44.02-.65-.19-.21.16-.42.03-.63,0-.21-.01-.41.03-.6.29-.2.05-.39.03-.58.03-.19-.17-.37.03-.55.02-.18.15-.35.04-.52-.04-.17.43-.33.04-.49-.07-.16.3-.31.04-.46-.24-.15.03-.29.04-.43.02-.14.03-.27.04-.39.13-1.12.28-1.77.43-1.77.18,0,.34.79.48,2.16.01.14.22.28.04.43,0,.15.16.3.04.46.27.16.05.32.04.49.01.17-.07.34.04.52.16.18-.08.36.03.55-.17.19-.12.38.03.58-.16.2.04.4.03.6-.25.2-.07.41.03.63.09.21-.04.43.02.65-.05.22.06.45.02.67.12.23.16.46.02.69.08.23.02.47.02.71.1.24-.01.48.01.73.05.25-.27.5.01.75.04.25-.04.51,0,.76-.04.26-.07.52,0,.78-.28.26-.11.52,0,.79.08.27.04.53,0,.79.03.26.01.52,0,.78.08.26-.12.51,0,.76.12.25-.13.5-.01.75.08.25.12.49-.01.73,0,.24-.25.48-.02.71.05.24.37.47-.02.69.09.23-.19.45-.02.67-.28.22-.01.44-.02.65-.05.21-.15.42-.03.63.13.21-.07.41-.03.6.16.2-.21.39-.03.58-.04.19.02.37-.03.55.38.18,0,.35-.04.52-.05.17.25.33-.04.49.29.16.04.31-.04.46-.08.15.12.29-.04.43.2.14-.11.27-.04.39-.13.12,0,.24-.04.36.05.11.03.22-.04.32-.02.1-.03.19-.05.28-.09.52-.19.81-.3.81Z"/>
        <path d="M69.96,53.28c0-.11.29-.21.81-.3.09-.01.18-.03.28-.05.1-.03.21-.06.32-.04.11.14.23-.26.36-.04.12.06.26,0,.39-.04.14-.05.28.09.42-.04.15-.27.3.3.46-.04.16-.07.32-.05.49-.04.17.21.34,0,.52-.03.18.25.36.14.55-.03.19.34.38.29.58-.03.2-.01.4.12.6-.03.2-.02.41-.09.63-.03.21-.23.43-.22.65-.02.22-.24.44-.15.67-.02.23.14.46-.22.69-.02.23.02.47-.06.71-.02.24.1.48.21.73-.01.25-.06.5-.14.75-.01.25-.26.51-.15.76,0,.26-.04.52.14.78,0,.26.04.52-.12.79,0,.26.08.53.15.79,0,.26-.17.52.07.78,0,.26.25.51-.08.76,0,.25-.02.5.14.75.01.25-.05.49-.09.73.01.24-.38.48.1.71.02.23.16.47-.02.69.02.23-.07.45.17.67.02.22.03.44-.12.65.02.21-.19.42.16.63.03.21,0,.41-.01.6.03.2.29.39.05.58.03.19.03.37-.17.55.03.18.02.35.15.52.03.17-.04.33.43.49.04.16-.07.31.3.46.04.15-.24.29.03.43.04.14.01.27.03.39.04,1.12.13,1.77.28,1.77.44,0,.18-.79.34-2.16.48-.14.01-.28.22-.43.04-.15,0-.3.16-.46.04-.16.27-.32.05-.49.04-.17.01-.34-.08-.52.04-.18.16-.36-.08-.55.03-.19-.17-.38-.12-.58.03-.2-.16-.4.03-.6.03-.2-.25-.41-.08-.63.03-.21.09-.43-.04-.65.02-.22-.05-.45.06-.67.02-.23.12-.46.16-.69.02-.23.08-.47.02-.71.02-.24.1-.48-.01-.73.01-.25.05-.5-.27-.75,0-.25.04-.51-.04-.76,0-.26-.03-.51-.07-.78,0-.26-.28-.52-.11-.79,0-.27.08-.53.04-.79,0-.26.03-.52.01-.78,0-.26.08-.51-.12-.76,0-.25.12-.5-.12-.75,0-.25.08-.49.12-.73-.01-.24,0-.48-.25-.71-.02-.23.05-.47.36-.69-.02-.23.1-.45-.18-.67-.02-.22-.28-.44-.01-.65-.02-.21-.05-.42-.15-.63-.03-.21.13-.41-.07-.6-.03-.2.16-.39-.21-.58-.03-.19-.04-.37.02-.55-.03-.18.38-.35,0-.52-.04-.17-.05-.33.25-.49-.04-.16.29-.31.04-.46-.04-.15-.08-.29.12-.42-.04-.14.2-.27-.11-.39-.04-.13-.13-.24,0-.36-.04-.11.05-.22.03-.32-.04-.1-.02-.19-.03-.28-.05-.52-.09-.81-.19-.81-.3Z"/>
        <path d="M54.06,69.15c.11,0,.21.29.3.81.01.09.03.18.05.28.03.1.06.21.04.32-.14.11.26.23.04.36-.06.12,0,.25.04.39.05.14-.09.28.04.43.27.15-.3.3.04.46.07.16.05.32.04.49-.21.17,0,.34.04.52-.25.18-.14.36.03.55-.34.19-.29.38.03.58.01.2-.12.4.03.6.02.2.09.41.03.63.23.21.22.43.02.65.25.22.15.45.02.67-.14.23.22.46.02.69-.02.24.06.47.02.71-.1.24-.21.48.01.73.06.25.14.5,0,.75.26.25.15.51,0,.76.04.26-.14.52,0,.78-.04.26.11.52,0,.79-.08.27-.15.53,0,.79.17.26-.07.52,0,.78-.25.26.08.51,0,.76.02.25-.14.5,0,.75.04.25.09.49-.01.73.38.24-.1.48-.02.71-.16.23.02.46-.02.69.07.23-.17.45-.02.67-.03.22.12.44-.02.65.19.21-.16.42-.03.63,0,.21.01.41-.03.6-.29.2-.05.39-.03.58-.03.19.17.37-.03.55-.02.18-.15.35-.04.52.04.17-.43.33-.04.49.07.16-.3.31-.04.46.24.15-.03.29-.04.43-.01.14-.03.27-.04.39-.13,1.12-.28,1.77-.43,1.77-.18,0-.34-.8-.48-2.16-.01-.14-.22-.28-.04-.43,0-.15-.16-.3-.04-.46-.27-.16-.05-.32-.04-.49-.01-.17.07-.34-.04-.52-.16-.18.08-.36-.03-.55.17-.19.12-.38-.03-.58.16-.2-.03-.4-.03-.6.25-.21.08-.41-.03-.63-.09-.21.04-.43-.02-.65.05-.22-.06-.44-.02-.67-.12-.23-.16-.46-.02-.69-.08-.24-.02-.47-.02-.71-.1-.24.01-.48-.01-.73-.05-.25.27-.5-.01-.75-.04-.25.04-.51,0-.76.04-.26.07-.52,0-.78.28-.26.11-.52,0-.79-.08-.26-.04-.53,0-.79-.03-.26-.01-.52,0-.78-.08-.26.12-.51,0-.76-.12-.25.13-.5.01-.75-.08-.25-.12-.49.01-.73,0-.24.25-.48.02-.71-.05-.23-.37-.47.02-.69-.09-.23.18-.45.02-.67.28-.22.01-.44.02-.65.05-.21.15-.42.03-.63-.13-.21.07-.41.03-.6-.16-.2.21-.39.03-.58.04-.19-.02-.37.03-.55-.38-.18,0-.35.04-.52.05-.17-.25-.33.04-.49-.29-.16-.04-.31.04-.46.08-.15-.12-.29.04-.43-.2-.14.11-.27.04-.39.13-.12,0-.24.04-.36-.04-.11-.03-.22.05-.32.02-.1.03-.19.05-.28.09-.52.19-.81.3-.81Z"/>
        <path d="M38.19,53.25c0,.11-.29.21-.81.3-.09.01-.18.03-.28.05-.1.03-.21.06-.32.04-.11-.14-.23.26-.36.04-.12-.06-.26,0-.39.04-.14.05-.28-.09-.43.04-.15.27-.3-.3-.46.04-.16.07-.32.05-.49.04-.17-.21-.34,0-.52.03-.18-.25-.36-.14-.55.03-.19-.34-.38-.29-.58.03-.2,0-.4-.12-.6.03-.21.02-.42.09-.63.03-.21.23-.43.22-.65.02-.22.25-.44.15-.67.02-.23-.14-.46.22-.69.02-.23-.02-.47.06-.71.01-.24-.1-.48-.21-.73.01-.25.06-.5.14-.75,0-.25.26-.51.15-.76,0-.26.04-.51-.14-.78,0-.26-.04-.52.12-.79,0-.26-.08-.53-.16-.79,0-.26.17-.52-.07-.78,0-.26-.25-.51.08-.76,0-.25.02-.5-.14-.75,0-.25.04-.49.09-.73-.01-.24.38-.48-.1-.71-.01-.23-.16-.47.02-.69-.02-.23.07-.45-.17-.67-.02-.22-.03-.44.12-.65-.02-.21.19-.42-.16-.63-.03-.21,0-.41.01-.6-.03-.2-.3-.39-.05-.58-.03-.19-.03-.37.17-.55-.03-.18-.02-.35-.15-.52-.03-.17.04-.33-.43-.49-.04-.16.07-.31-.3-.46-.04-.15.24-.29-.03-.43-.04-.14-.01-.27-.03-.39-.04-1.12-.13-1.77-.28-1.77-.43,0-.18.8-.34,2.16-.48.14-.01.28-.22.43-.04.15,0,.3-.16.46-.04.16-.27.32-.05.49-.04.17-.01.34.08.52-.04.18-.16.36.08.55-.03.19.17.38.12.58-.03.2.16.4-.04.6-.03.21.25.41.08.63-.03.21-.09.43.04.65-.02.22.05.45-.06.67-.02.23-.12.46-.16.69-.02.23-.08.47-.02.71-.02.24-.1.48.01.73-.01.25-.05.5.27.75-.01.25-.04.51.04.76,0,.26.03.52.07.78,0,.26.28.52.11.79,0,.27-.08.53-.04.79,0,.26-.03.52-.01.78,0,.26-.08.51.12.76,0,.25-.12.5.13.75.01.25-.08.49-.12.73.01.24,0,.48.25.71.02.23-.05.46-.37.69.02.23-.1.45.18.67.02.22.28.44.02.65.02.21.05.42.15.63.03.2-.13.41.07.6.03.2-.16.39.21.58.03.19.04.37-.02.55.03.18-.38.35,0,.52.04.17.05.33-.25.49.04.16-.29.31-.04.46.04.15.08.29-.12.43.04.14-.2.27.11.39.04.13.13.24,0,.36.04.11-.05.22-.03.32.04.1.02.19.03.28.05.52.09.81.19.81.3Z"/>
        <path d="M54.08,40.65c-.02.05-.32,0-.88-.12-.56-.1-1.39-.29-2.46-.4-.36-.03-.74-.06-1.15-.07-.2,0-.42.01-.63.02-.11,0-.22,0-.33.01-.11,0-.22.01-.33.02-.23-.06-.46.04-.69.12-.11.04-.23.09-.34.12-.12.03-.24.04-.37.01-.49.07-.97.3-1.41.59-.11.08-.22.15-.33.21-.12.06-.22.15-.33.22-.12.07-.21.17-.31.27-.05.05-.09.1-.14.15-.04.06-.07.12-.11.18-.02.08-.05.14-.08.2-.04.06-.07.12-.11.17-.08.11-.2.2-.29.32-.2.21-.37.48-.31.82-.12.59-.23,1.2-.24,1.86-.06.16-.06.33-.07.5,0,.17.03.34.06.51.06.34.2.67.29,1.01-.08.75.27,1.45.71,2.08,0,.41.07.81.27,1.15.09.17.2.34.33.5.13.16.28.32.45.48.38.76.6,1.6,1.05,2.38.32.83.64,1.72.67,2.72.04.12.08.25.11.37.03.13.05.25.06.36.03.23.04.46.04.68,0,.45-.05.9-.14,1.36.26.91.2,1.82.16,2.76-.03.47.08.93.19,1.39.11.46.23.9.24,1.37.1.45.24.89.42,1.28.18.39.39.75.61.99.11.15.23.25.37.32.04.02.07.03.11.04.03,0,.02,0,.03.01,0,0,.02,0,.03,0,.04,0,.09,0,.13,0,.03,0,.07,0,.08-.05.01-.03.02-.07.02-.11,0-.02,0-.04,0-.05,0,0,0-.02,0-.02h0s0-.05,0-.05c0-.1,0-.21,0-.32.1-.98.14-2.04.42-3.07-.12-1.09.16-2.15.5-3.2.08-.54.23-1.08.39-1.62.16-.54.32-1.08.46-1.66.23-.54.44-1.11.81-1.68.19-.28.43-.57.77-.81.33-.24.81-.41,1.27-.39.23,0,.47.05.69.13.21.08.41.19.57.32.32.25.55.53.73.81.37.55.62,1.09.89,1.62.28.53.42,1.09.53,1.64.11.56.18,1.11.31,1.64-.04,1.12.44,2.13.5,3.2.17,1.04.13,2.12.43,3.07.02.11.05.21.07.31v.04s.01,0,.01,0h0s.01.03.01.03c.01.03.03.05.07.05h.05s.01,0,0,0h0s0,0,.01,0c.03,0,.06,0,.1-.02.12-.03.26-.08.41-.19.05-.18.12-.34.21-.5.09-.17.2-.34.31-.52.22-.37.45-.78.51-1.24.37-.87.31-1.84.43-2.76,0-.93.29-1.84.15-2.76.02-.46,0-.91-.02-1.36,0-.23-.01-.45,0-.68,0-.12,0-.24.03-.36.02-.13.04-.25.07-.37-.01-.12-.02-.25-.01-.38.01-.12.03-.24.06-.36.05-.23.11-.47.2-.69.08-.22.16-.43.24-.65.08-.21.15-.43.19-.65.31-.84.64-1.64,1.05-2.38.16-.16.29-.33.4-.5.1-.17.19-.35.26-.53.16-.36.24-.75.38-1.1.31-.7.35-1.45.71-2.08.18-.68.4-1.36.29-2.02-.02-.16,0-.33.03-.49.02-.16.04-.33.06-.49,0-.16,0-.32-.05-.47-.04-.15-.14-.29-.27-.4-.13-.27-.17-.57-.27-.84-.04-.15-.11-.27-.19-.39-.04-.06-.08-.12-.14-.16-.06-.04-.12-.08-.19-.11-.07-.03-.13-.07-.18-.11-.06-.04-.12-.07-.17-.12-.1-.09-.19-.19-.28-.28-.09-.09-.17-.21-.28-.29-.1-.09-.2-.18-.31-.24-.45-.26-.94-.45-1.41-.59-1.08-.29-2.11-.33-3-.29-.89.04-1.66.15-2.27.26-.61.11-1.09.21-1.41.27-.32.06-.49.08-.51.04-.01-.04.17-.14.54-.31.19-.08.42-.17.71-.27.14-.05.29-.1.46-.15.17-.05.35-.1.53-.15.76-.19,1.72-.39,2.88-.43.29-.02.59,0,.9,0,.16,0,.31.03.48.04.08,0,.16.02.24.02.08.02.16.03.25.04.66.11,1.37.31,2.06.67.14.08.28.15.42.22.15.07.28.16.43.25.15.08.27.2.39.32.06.06.12.12.17.19.05.07.09.15.13.23.06.07.11.13.17.19.06.06.11.14.16.21.11.14.23.28.32.43.2.3.35.64.41,1.01.11.15.21.32.27.5.05.18.09.37.11.56,0,.19,0,.38,0,.57,0,.19-.02.38-.02.57,0,.77-.18,1.52-.25,2.3-.01.2-.05.4-.09.59-.04.19-.13.38-.2.57-.14.38-.33.74-.42,1.14-.25.34-.42.71-.6,1.08-.09.19-.17.38-.24.58-.07.19-.13.38-.19.58-.5.65-.65,1.49-.94,2.26-.52.69-.57,1.58-.55,2.37,0,.2,0,.38,0,.61,0,.22,0,.45,0,.67-.01.46-.03.92,0,1.39-.07.94,0,1.9-.12,2.87.03.98-.05,2-.43,2.99-.08.52-.23,1.04-.45,1.56-.23.52-.52,1.05-1.02,1.53-.25.29-.62.54-1.04.67-.1.03-.21.06-.32.07h-.09s-.11.02-.11.02c-.07,0-.13,0-.2,0-.27,0-.52-.05-.77-.11-.09-.04-.18-.08-.26-.12l-.03-.02h0s0,0,0,0c0,0,0,0,0,0h0s-.02-.01-.02-.01c-.02-.01-.04-.02-.06-.04-.04-.03-.07-.07-.1-.1-.13-.15-.21-.33-.28-.53-.04-.1-.06-.2-.09-.3-.01-.05-.03-.1-.04-.16l-.03-.12-.07-.36c-.23-1.06-.04-2.13-.46-3.13-.18-1.03-.26-2.09-.5-3.11-.16-1.03-.36-2.08-.78-3.01-.04-.52-.23-1-.5-1.36-.13-.18-.29-.31-.43-.37-.14-.07-.22-.05-.3-.03-.09.03-.16.05-.27.14-.1.08-.23.21-.35.38-.24.33-.47.78-.66,1.24-.32.96-.57,1.98-.78,3.01-.11,1.04-.46,2.06-.5,3.11-.03,1.06-.38,2.05-.45,3.13-.01.12-.03.24-.05.37v.05s-.02.08-.02.08c-.01.05-.02.11-.03.16-.02.11-.05.21-.08.31-.07.2-.15.39-.28.54-.03.04-.07.07-.11.11-.02.02-.04.03-.06.04h-.02s0,.01,0,.01c0,.02,0,0,0,0h0s-.03.02-.03.02c-.09.04-.18.09-.27.13-.26.06-.52.12-.8.11-.07,0-.13,0-.21,0-.07,0-.16-.02-.2-.03-.11-.02-.22-.05-.32-.08-.43-.14-.79-.41-1.03-.7-.5-.49-.72-1.06-.91-1.58-.19-.53-.33-1.03-.56-1.51-.29-1-.73-1.98-.43-2.99-.18-.97.06-1.94-.12-2.87.13-.47.13-.93.1-1.39-.02-.23-.04-.46-.06-.67-.01-.22-.05-.41-.07-.61-.02-.79-.15-1.64-.55-2.37-.41-.72-.54-1.55-.94-2.26-.13-.16-.22-.34-.3-.52-.08-.19-.16-.39-.22-.59-.15-.39-.25-.79-.5-1.13-.27-.77-.58-1.52-.71-2.3-.26-.35-.35-.74-.34-1.14,0-.2.01-.39.04-.59.03-.2.03-.39.05-.58.02-.19.01-.38,0-.57,0-.19,0-.38,0-.57.01-.19.04-.38.09-.56.05-.18.15-.35.26-.51-.02-.39.12-.75.33-1.05.1-.16.23-.29.35-.42.06-.06.12-.13.19-.19.07-.06.13-.12.2-.18.06-.06.12-.12.18-.18.06-.06.12-.12.18-.17.12-.12.23-.25.36-.35.13-.11.25-.22.39-.3.14-.08.28-.15.44-.2.11-.11.25-.2.38-.27.14-.07.29-.1.43-.13.29-.08.58-.08.84-.19.57,0,1.06-.2,1.56-.19.12-.02.24-.03.36-.04.12,0,.24,0,.35,0,.23,0,.46.03.67.08.43.03.83.1,1.2.16,1.1.21,1.92.5,2.46.7.54.22.81.36.79.41Z"/>
      </g>
    </g>
  </g>
</svg>