<?xml version="1.0" encoding="UTF-8"?>
<svg xmlns="http://www.w3.org/2000/svg" version="1.1" viewBox="0 0 109 114">
  <!-- Generator: Adobe Illustrator 28.7.1, SVG Export Plug-In . SVG Version: 1.2.0 Build 142)  -->
  <g>
    <g id="Calque_1">
      <g>
        <path d="M67.96,46.55c0-.07.44-.06,1.24-.28.4-.11.88-.27,1.42-.52.55-.25,1.16-.59,1.84-.99.46-.28.94-.57,1.47-.89.52-.33,1.08-.68,1.72-.97.35-.09.65-.29.98-.48.33-.18.7-.36,1.12-.35.4-.06.8-.14,1.23-.18.1-.01.21-.02.32-.03.11-.01.22-.01.33,0,.22,0,.45,0,.67.04.11.02.23.03.34.05.11.02.22.06.33.1.11.04.22.08.33.11.11.05.21.1.32.15.22.09.42.22.63.34l.16.09.15.1c.1.06.21.13.32.19.24.1.42.27.6.44.16.19.31.4.44.62.26.44.48.88.86,1.26.54.89.83,1.96.92,3.05-.02.28-.05.55-.04.83,0,.27-.01.54,0,.81.02.27,0,.55.02.82,0,.14,0,.28,0,.42,0,.14-.01.28-.03.42-.37,1.09-.47,2.21-.64,3.4-.67,1.04-1.05,2.13-1.37,3.39-.14.28-.32.54-.49.81-.18.26-.37.52-.55.78-.2.25-.38.52-.58.77-.1.13-.2.26-.29.39-.05.07-.1.13-.15.2l-.07.1-.04.05-.02.03s0,0,0,0l-.04.05s-.02.02-.02.03v.03s0,.07,0,.07v.24c0,.32,0,.64,0,.96-.01.64-.03,1.29-.1,1.94.17,1.32.07,2.66-.24,3.99.13,1.37-.12,2.75-.43,4.13-.33,1.37-.22,2.85-.75,4.24-.17.71-.36,1.43-.58,2.15-.23.72-.5,1.45-.93,2.16-.24.35-.49.69-.85,1.01l-.14.12s-.09.08-.15.11c-.05.03-.13.09-.2.13-.07.05-.14.07-.21.1-.29.14-.6.16-.9.15-.3-.05-.6-.12-.83-.32-.23-.19-.39-.46-.48-.76-.06-.15-.08-.31-.1-.46-.02-.09-.02-.12-.03-.18l-.02-.16c-.02-.2-.05-.4-.07-.6-.01-.77-.03-1.5-.06-2.23-.04-.73-.07-1.46-.11-2.2-.45-1.42-.69-2.88-1.04-4.37-.53-1.42-.96-2.92-1.79-4.25-.04-.09-.09-.18-.13-.26l-.08-.15s-.02-.06-.05-.07l-.21.05h-.05s-.03.02-.03.02h-.01s0,0,0,0h-.02s-.31.05-.31.05l-.62.09-.63.05-.32.02h-.32c-.21,0-.42,0-.63-.02l-.63-.04-.31-.02-.31-.04-.62-.06-.62-.09-.31-.04-.14-.02c-.08-.01-.16-.02-.24-.03-.01,0-.02,0-.02,0v.02s-.02.03-.02.03c0,.02-.01.04-.02.06v.03s-.06.13-.06.13c-.04.09-.08.18-.11.27-.55,1.46-1.37,2.78-1.8,4.25-.35.68-.55,1.42-.69,2.16-.13.74-.21,1.48-.35,2.21-.09.73-.18,1.46-.22,2.2-.04.74-.03,1.47.05,2.23v.3s.02.31.02.31v.17s0,.08,0,.08v.04s0,.06,0,.06c-.02.17-.03.34-.09.5-.03.17-.11.32-.18.47l-.14.2c-.05.06-.11.12-.17.18-.25.22-.58.32-.9.37-.33.02-.68,0-.99-.17-.08-.04-.16-.07-.23-.12l-.11-.07-.1-.07-.08-.06-.07-.06-.14-.13c-.35-.36-.57-.73-.76-1.1-.57-.63-.84-1.39-1.02-2.13-.18-.74-.28-1.48-.49-2.19-.18-1.46-.6-2.84-.75-4.24-.26-1.39-.16-2.79-.43-4.13-.08-1.35-.32-2.68-.24-3.99-.13-.65-.11-1.3-.09-1.94,0-.32.03-.64.03-.96v-.24s0-.05,0-.08v-.04s-.02-.02-.03-.03c-.02-.02-.04-.03-.06-.04l-.15-.16c-.05-.06-.11-.12-.16-.18-.1-.13-.21-.25-.31-.38-.11-.12-.2-.25-.3-.38-.1-.13-.19-.26-.29-.39-.18-.27-.36-.53-.52-.8-.16-.28-.32-.54-.46-.83-.08-.31-.2-.6-.3-.89-.06-.14-.12-.28-.19-.42-.06-.14-.12-.28-.18-.42-.13-.27-.26-.55-.38-.82-.13-.28-.23-.56-.32-.84-.31-1.14-.72-2.26-.64-3.4-.01-.14-.02-.28-.03-.42,0-.14,0-.28-.01-.42,0-.28-.01-.55,0-.82,0-.27,0-.54,0-.81.01-.28,0-.55,0-.83.04-.55.24-1.07.45-1.55.05-.12.1-.24.15-.36.05-.12.1-.24.14-.36.04-.12.07-.25.1-.38.04-.13.06-.26.08-.39.2-.48.55-.88.9-1.23.17-.18.36-.34.52-.53.18-.17.33-.36.48-.56.31-.4.74-.67,1.2-.83.12-.04.23-.08.34-.11.12-.03.23-.05.35-.07.12-.02.23-.05.34-.07.11-.01.23-.03.34-.05.22-.05.45-.05.67-.06.22-.02.44,0,.65.02.43.04.84.12,1.22.22.87.24,1.64.59,2.33.95.69.36,1.31.74,1.88,1.09,1.14.7,2.1,1.27,2.92,1.65.82.38,1.49.56,1.95.65.23.04.41.07.53.09.12.02.18.04.18.06,0,.04-.3.11-.91.07-.6-.04-1.48-.23-2.54-.69-.53-.22-1.1-.51-1.71-.84-.61-.32-1.27-.69-1.99-1.06-.71-.36-1.49-.73-2.34-.99-.42-.13-.87-.23-1.32-.27-.11,0-.23-.02-.34-.02-.12,0-.23,0-.35,0-.11,0-.23.02-.34.03-.06,0-.12,0-.17.02l-.17.04c-.09.02-.18.04-.27.06-.09.02-.18.07-.27.1-.09.04-.17.07-.26.11-.08.05-.17.09-.25.14-.17.08-.33.2-.5.29-.04.02-.09.05-.13.07-.04.03-.08.05-.13.08-.09.05-.18.1-.27.14-.16.13-.3.28-.45.43-.13.17-.27.33-.39.5-.24.35-.48.71-.72,1.09-.02.11-.05.23-.08.33-.03.11-.05.22-.09.33-.03.11-.07.21-.11.32-.03.11-.07.21-.11.32-.15.43-.29.88-.35,1.36-.02.24-.02.48-.04.72,0,.25,0,.51,0,.77,0,.26.02.52.04.78.01.13.02.26.04.39.02.13.05.26.07.39.04.13.06.26.09.39.02.13.05.26.07.39.04.26.07.53.11.8.04.27.07.54.14.8.06.27.13.53.24.79.15,1.11.63,2.17,1.32,3.1.09.28.24.53.38.78.15.25.33.48.5.72.09.11.19.23.28.34.09.11.19.23.29.33l.3.33.32.35.24.32.06.08s.05.05.04.09v.2s-.03.63-.03.63c0,.31,0,.63.02.95.05.63.14,1.27.23,1.92.16,1.29.11,2.61.28,3.94.07,1.34.32,2.67.47,4.04.31,1.34.58,2.7.76,4.09.2.67.39,1.34.6,2,.21.65.45,1.3.77,1.87.18.26.37.5.54.67l.06.06.03.03.03.02s0,0,.01,0h0s0,0,.01,0c.02.01.04.02.06.02.05,0,.1-.02.11-.07,0-.01,0-.03,0-.04v-.21s.01-.25.01-.25v-.27c-.05-.73,0-1.52.05-2.3.06-.79.13-1.57.1-2.38.18-1.59.64-3.14,1.1-4.69.55-1.52,1.22-2.99,1.88-4.48l.18-.25.09-.13.14-.23.27-.45.13-.22.06-.11.03-.06s.04,0,.06,0c.32.06.62.12.93.18l.23.04.12.02s.09.02.1.02l.29.03c.19.02.39.03.58.05h.58s.29,0,.29,0h.29s.58-.04.58-.04l.58-.04h.29s.29-.04.29-.04l.57-.05.57-.07.29-.03.49-.08c.33-.05.67-.11,1-.16h.03s.02-.01.03,0l.03.06.06.13.13.26.26.51.2.39.13.27c.76,1.44,1.38,2.95,1.88,4.48.29.76.5,1.54.65,2.33.16.79.29,1.58.45,2.36.16.79.19,1.59.18,2.38,0,.79-.07,1.57-.03,2.31v.27s.03.25.03.25v.11s.02.1.02.09c0,.01.01.02.01.03.02.03.05.04.07.04.01,0,.02,0,.04,0,0,0,0,0,0,0h0s0,0,.01,0l.03-.02.03-.03.06-.05c.18-.16.37-.39.57-.65.32-.56.63-1.18.88-1.83.25-.65.44-1.33.49-2.04.27-1.38.19-2.79.76-4.09.09-1.37.51-2.69.47-4.04.39-1.31.21-2.65.28-3.94.06-.65.12-1.28.16-1.92.02-.32.03-.63.03-.95,0-.21,0-.42,0-.64v-.2s0-.03,0-.03l.02-.02.03-.04.06-.08.26-.31c.1-.12.19-.25.29-.37.09-.12.18-.23.27-.35.19-.22.36-.46.55-.68.18-.23.36-.46.52-.7.15-.24.32-.48.44-.74.1-.27.23-.52.36-.78.06-.13.13-.25.2-.37.07-.13.13-.25.2-.38.14-.25.25-.5.35-.77.11-.26.17-.53.21-.81.35-1.05.49-2.12.66-3.16-.03-.14-.05-.27-.07-.4-.01-.13-.02-.26-.02-.39,0-.26.04-.51.06-.77.03-.25.08-.51.11-.76.02-.24.05-.48.03-.72-.03-.48-.17-.94-.33-1.36-.08-.21-.15-.43-.23-.64-.04-.11-.06-.22-.09-.33-.03-.11-.06-.22-.08-.33-.32-.33-.57-.67-.79-1.03-.12-.17-.24-.35-.36-.52-.13-.16-.26-.33-.41-.47-.08-.07-.15-.13-.23-.2-.04-.03-.08-.06-.12-.09l-.13-.07c-.17-.1-.35-.19-.53-.25-.09-.04-.18-.07-.27-.11-.09-.03-.18-.05-.27-.08-.09-.03-.18-.07-.26-.1-.09-.03-.18-.06-.27-.09-.19,0-.37.03-.55.01-.09,0-.18-.02-.27-.02-.09,0-.18-.01-.28-.02-.37-.02-.74-.01-1.08.11-.37.02-.71.14-1.03.27-.32.14-.63.3-.94.43-.58.33-1.15.63-1.72.87-.54.29-1.04.57-1.52.81-.72.37-1.37.68-1.96.89-.59.22-1.11.34-1.54.4-.21.04-.4.04-.56.05-.16,0-.3,0-.41,0-.22-.02-.33-.05-.33-.07Z"/>
        <path d="M79.96,45.42c.07-.08.21-.09.41-.03.03,0,.07.02.11.03.05,0,.09,0,.12.05-.07.13.24-.13.12.06,0,.07.06.07.13.07.07,0,0,.14.14.09.24-.15-.14.29.14.1.09,0,.12.05.15.11-.11.18.08.1.15.13-.15.21-.02.19.16.14-.22.27-.14.29.16.15.06.05-.01.19.16.17.06.05.16.08.16.18.24-.06.28.02.16.2.25-.05.22.08.15.22-.08.14.28.06.15.23.03.09.13.14.13.25-.05.13-.12.26.13.26.1.06.2.14.11.28.28,0,.21.15.1.29.08.09-.09.23.08.3-.02.11.16.18.07.31-.06.12-.12.23.05.31.18.08-.04.21.04.31-.24.12.09.19.01.3.03.1-.13.2,0,.3.04.1.09.19-.02.29.37.11-.1.18-.03.28-.16.08,0,.18-.04.27.06.09-.19.15-.05.25-.04.08.1.19-.06.24.17.11-.19.13-.07.23-.02.08-.02.15-.07.22-.3,0-.08.13-.08.2-.05.06.13.18-.08.19-.04.06-.18.08-.08.18.02.07-.45,0-.09.16.05.08-.32.02-.09.15.21.13-.06.09-.09.14-.03.04-.06.08-.08.12-.27.33-.48.49-.63.43-.17-.07-.21-.38-.19-.85,0-.05-.18-.16,0-.15.02-.05-.12-.14,0-.16-.25-.13-.01-.11.01-.16,0-.06.1-.09,0-.17-.14-.1.1-.09.01-.18.18-.02.15-.09.02-.19.17-.03-.01-.13,0-.19.26-.02.1-.12,0-.2-.08-.08.06-.13,0-.2.06-.06-.05-.14,0-.21-.11-.08-.14-.15,0-.21-.08-.08-.01-.14,0-.22-.1-.07.02-.15,0-.22-.06-.07.26-.16-.02-.22-.04-.07.04-.15-.02-.23.02-.08.05-.16-.04-.23.26-.12.09-.18-.04-.23-.1-.06-.07-.14-.05-.22-.05-.07-.04-.15-.05-.22-.1-.04.06-.18-.07-.21-.13-.03.08-.19-.07-.21-.1-.04-.17-.08-.08-.2-.03-.06.17-.24-.07-.2-.08-.04-.39.05-.09-.19-.12-.01.09-.21-.08-.19.21-.21-.06-.12-.09-.18,0-.08.05-.19-.09-.17-.15.03,0-.15-.09-.17-.17.05.09-.22-.09-.16,0-.07-.09-.07-.08-.16-.32.2-.06-.09-.08-.15,0-.08-.26.09-.08-.14-.24.16-.1-.05-.07-.13.03-.09-.15.02-.07-.13-.17.11.02-.14-.06-.12.06-.12-.05-.06-.06-.11-.06,0-.07-.03-.05-.1-.01-.03-.03-.07-.04-.1-.07-.19-.08-.33,0-.41Z"/>
        <path d="M43.28,52.72s.1.02.24.11c.07.04.15.1.25.17.1.06.23.13.36.21.28.15.63.32,1.07.48.22.08.46.15.72.23.26.07.54.15.84.22.4.1.83.2,1.3.31.47.1.97.21,1.49.4.23.16.52.19.82.27.15.04.3.07.43.14.14.07.27.16.38.28.13.09.25.2.39.29.07.05.14.09.2.14.06.05.13.11.19.16.13.11.27.2.39.33.12.13.26.25.37.4.06.07.11.14.16.22.05.08.09.16.13.24.04.08.08.17.12.25.03.09.06.18.09.27.13.36.2.73.31,1.1.09.18.11.39.11.59-.02.2-.06.4-.12.59-.12.39-.25.75-.22,1.19-.19.81-.63,1.57-1.19,2.22-.18.14-.35.27-.5.43-.16.14-.3.29-.45.45-.14.16-.29.31-.44.47-.15.16-.3.31-.47.46-.84.35-1.5.94-2.24,1.54-.98.14-1.79.54-2.64,1.13-.23.08-.48.12-.72.18-.24.05-.49.08-.74.12-.25.03-.5.07-.75.1-.13.02-.25.04-.38.06-.06.01-.13.02-.19.03h-.05s-.02.01-.02.01c0,0,0,0,0,0h-.03s-.08.01-.09.05l-.03.04h0s0,.01,0,.01l-.02.02-.06.07c-.18.17-.35.35-.53.53-.36.35-.73.69-1.13,1.01-.6.85-1.39,1.54-2.33,2.07-.65.87-1.56,1.48-2.51,2.04-.96.55-1.67,1.49-2.76,1.93-.49.29-.99.6-1.52.87-.53.28-1.09.53-1.73.69l-.32.05c-.13.03-.27.02-.4.04-.07,0-.13.01-.2,0l-.19-.02h-.19s-.17-.06-.17-.06c-.06-.02-.12-.03-.17-.04l-.16-.06c-.11-.04-.2-.1-.29-.16-.05-.03-.09-.07-.13-.1-.04-.04-.09-.07-.12-.11-.07-.08-.14-.17-.2-.26l-.04-.07s-.02-.05-.03-.07c-.02-.05-.04-.09-.06-.14l-.04-.14-.02-.14c0-.19.02-.37.08-.56.12-.37.41-.74.73-1.12.21-.22.42-.44.63-.67.19-.21.38-.42.57-.62.38-.42.75-.83,1.15-1.24.48-1.06,1.16-1.95,1.81-2.94.48-1.06,1.1-2.11,1.34-3.3l.03-.08.02-.06s.03-.09.03-.12c-.02-.01-.05-.02-.07-.03h-.02s0-.01,0-.01c0,0,0,0-.02-.02l-.2-.15c-.54-.38-1.04-.83-1.48-1.33l-.32-.38-.16-.19-.15-.19-.31-.39-.29-.4-.19-.25s-.05-.06-.07-.08c-.05.01-.1.05-.15.07-.02.01-.05.03-.07.04l-.03.02h-.01s0,.02,0,.02h-.03c-1.08.55-2.27.77-3.3,1.35-.58.16-1.09.45-1.56.79-.47.34-.91.71-1.38,1.02-.44.35-.89.69-1.32,1.07-.21.18-.42.38-.62.59-.1.1-.19.21-.29.32l-.31.38c-.34.37-.72.73-1.11.87-.19.07-.39.11-.6.1l-.16-.02-.15-.04c-.05-.01-.1-.04-.15-.06-.03,0-.05-.02-.07-.03l-.07-.04c-.1-.07-.2-.15-.29-.22-.05-.03-.08-.09-.12-.13-.04-.05-.08-.09-.11-.14-.06-.11-.13-.2-.16-.32l-.06-.17c-.02-.06-.03-.13-.04-.19l-.03-.19v-.2s0-.2,0-.2c0-.07.02-.14.03-.21.02-.14.03-.28.07-.41l.03-.1v-.05s.02-.03.02-.03l.04-.13c0-.69.28-1.27.6-1.77.33-.51.7-.96.97-1.47.74-.89,1.23-1.9,1.93-2.75.61-.92,1.48-1.6,2.04-2.51.71-.79,1.28-1.67,2.07-2.33.27-.44.65-.78,1.02-1.12.19-.17.38-.33.55-.5l.1-.09s.03-.03.04-.04l.02-.02s0-.02,0-.03c0-.02,0-.04-.02-.06v-.11c.01-.06.01-.13.02-.19.01-.13.02-.25.04-.38.02-.25.07-.5.1-.75.05-.25.1-.49.16-.74.07-.24.12-.48.21-.71.14-.21.25-.43.35-.65.05-.11.09-.22.13-.33.05-.11.09-.22.13-.33.07-.23.16-.45.24-.67.08-.22.18-.44.28-.65.47-.8.83-1.67,1.54-2.24.14-.17.29-.33.44-.48.15-.15.3-.31.46-.45.16-.15.3-.29.45-.45.16-.15.3-.31.46-.47.33-.29.74-.45,1.14-.59.1-.04.2-.07.29-.11.09-.04.19-.08.28-.12.09-.04.18-.1.26-.16.09-.06.17-.12.25-.2.38-.17.8-.17,1.2-.17.2,0,.39.02.59,0,.19,0,.39-.02.59-.06.4-.07.8.02,1.15.2.09.04.17.09.26.13.08.05.16.11.24.16.08.06.16.1.23.16.07.06.14.11.22.17.15.1.28.23.41.35.14.12.24.26.35.38.05.06.11.13.16.19.05.07.09.14.14.21.09.14.18.27.26.41.36.62.57,1.25.75,1.83.18.58.3,1.13.43,1.64.23,1.01.44,1.85.68,2.51.23.66.51,1.12.69,1.43.21.29.31.46.29.49-.01.02-.07-.01-.16-.08-.05-.04-.11-.08-.17-.14-.07-.06-.15-.13-.22-.22-.32-.34-.7-.94-1.05-1.77-.18-.41-.33-.89-.5-1.4-.16-.52-.33-1.08-.52-1.67-.2-.59-.43-1.21-.75-1.81-.09-.15-.17-.3-.26-.44-.1-.14-.2-.28-.31-.42-.12-.13-.24-.25-.36-.38-.07-.06-.13-.11-.2-.16-.03-.03-.06-.06-.1-.08l-.11-.07c-.06-.04-.12-.07-.18-.11-.06-.04-.13-.05-.2-.08-.07-.02-.13-.05-.2-.07l-.21-.05c-.28-.08-.56-.13-.85-.26-.15-.02-.31,0-.47,0-.16.02-.32.04-.48.07-.32.07-.63.14-.97.19-.07.06-.14.11-.21.16-.07.05-.14.1-.22.14-.07.04-.15.08-.23.12-.08.04-.15.08-.23.11-.31.14-.64.3-.93.52-.14.12-.27.24-.41.36-.14.13-.28.28-.42.41-.14.14-.27.29-.4.45-.13.15-.25.32-.35.5-.1.18-.21.35-.33.52-.12.17-.25.32-.37.49-.25.33-.5.67-.65,1.07-.55.66-.86,1.51-.96,2.4-.11.2-.17.41-.23.63-.05.22-.09.44-.11.66-.01.23-.04.45-.04.68,0,.25-.02.51-.03.77-.02.1-.04.2-.06.3v.07s-.01.05-.04.07l-.12.1-.23.21-.17.16c-.18.17-.35.34-.51.53-.32.38-.6.79-.9,1.2-.6.8-1.38,1.48-2,2.32-.71.76-1.28,1.65-1.95,2.47-.55.92-1.12,1.82-1.81,2.65-.25.47-.5.94-.75,1.42-.24.47-.46.95-.59,1.41v.09s-.01.02-.01.02h0s0,.01,0,.01c0,.01,0,.02,0,.03,0,.02,0,.03,0,.05,0,.03,0,.07.04.1.05.07.13,0,.18-.06,0,0,0,0,0,0l.03-.04.07-.08.15-.16c.1-.1.21-.21.32-.31.22-.2.46-.4.7-.6.47-.4.95-.79,1.36-1.28.98-.79,2.1-1.38,3.21-1.99,1.15-.53,2.34-.97,3.52-1.44h.03s.05-.01.05-.01l.1-.02.19-.04c.13-.03.25-.05.38-.08l.36-.09.18-.05.09-.02h.04s.01-.01.01-.01c0,0,0,0,0,.01v.02c.17.23.32.46.47.68l.23.32.14.17c.1.11.19.22.29.34l.32.31.16.15.17.15.34.29c.45.38.89.77,1.35,1.13l.17.14.34.25.71.52.04.03s0,.03-.01.05l-.03.1-.06.2-.13.39-.25.76c-.37,1.22-.86,2.4-1.44,3.52-.25.58-.57,1.13-.93,1.65-.35.52-.73,1.03-1.06,1.56-.33.53-.77.99-1.22,1.42-.22.21-.45.42-.67.63-.11.1-.22.21-.32.31l-.15.16-.07.08-.04.04s0,0,0,.01c-.03.08-.02.11.01.14l.05.04s.02.02.04.03c0,0,.02.01.03.02h0s0,0,0,0h.02s.09-.01.09-.01c.92-.26,2.03-.59,2.82-1.35.89-.62,1.58-1.48,2.65-1.81.79-.71,1.78-1.16,2.47-1.95.97-.46,1.57-1.33,2.32-2,.39-.32.78-.63,1.15-.95.19-.16.36-.33.54-.5l.38-.39.11-.11s.02-.02.03-.03h.04s.08-.01.08-.01l.31-.04.16-.02h.04s.02,0,.02,0h.04c.06-.02.11-.02.17-.03.11-.02.22-.03.34-.04.22-.02.45-.05.67-.06.22-.03.44-.05.66-.09.22-.05.44-.08.64-.17.2-.1.41-.17.61-.24.1-.03.21-.06.31-.09l.31-.09c.21-.06.41-.13.61-.21.2-.08.38-.19.55-.33.76-.37,1.42-.89,2.08-1.36.1-.2.22-.36.36-.51.14-.15.3-.26.46-.38.16-.12.33-.23.49-.34.15-.11.3-.22.42-.36.25-.27.41-.6.54-.92.03-.08.07-.16.11-.23.04-.08.07-.16.11-.23.04-.08.09-.15.14-.22.04-.07.1-.14.16-.21-.03-.36.02-.67.1-.98.04-.15.06-.31.11-.46.02-.15.05-.31.05-.47,0-.31-.09-.61-.22-.87-.03-.07-.06-.13-.09-.2-.03-.06-.07-.12-.1-.19-.03-.06-.06-.13-.09-.19-.03-.06-.06-.13-.08-.2-.11-.09-.22-.18-.31-.28-.08-.11-.18-.2-.27-.31-.04-.06-.09-.11-.13-.16-.04-.05-.1-.1-.15-.14-.11-.09-.21-.18-.34-.24-.21-.19-.44-.33-.7-.42-.25-.11-.51-.17-.74-.28-.5-.12-.97-.28-1.41-.48-.45-.14-.88-.27-1.28-.4-.3-.09-.58-.2-.84-.3-.26-.11-.5-.2-.72-.31-.44-.22-.8-.44-1.06-.64-.13-.11-.24-.2-.34-.28-.09-.09-.16-.18-.21-.24-.11-.13-.15-.21-.13-.23Z"/>
        <path d="M40.98,39.67c-.1.03-.22-.02-.36-.14-.02-.02-.05-.04-.07-.07-.04-.02-.08-.04-.07-.08.12-.08-.27.01-.08-.09.05-.06-.02-.08-.08-.1-.06-.02.06-.11-.08-.11-.27.04.26-.18-.08-.12-.08-.02-.08-.08-.08-.13.18-.11-.03-.1-.08-.14.22-.13.1-.15-.08-.15.31-.16.24-.2-.08-.16-.03-.05.08-.15-.08-.17-.04-.05-.12-.09-.08-.18-.24,0-.25-.06-.08-.18-.25.01-.18-.08-.08-.19.11-.11-.25-.07-.08-.2,0-.07-.1-.12-.08-.2.07-.1.16-.21-.08-.21-.08-.05-.18-.1-.08-.21-.27,0-.19-.1-.08-.22-.07-.06.09-.19-.08-.23.01-.09-.16-.12-.08-.23.05-.1.1-.2-.07-.23-.18-.02.02-.17-.07-.23.21-.15-.13-.12-.06-.22-.05-.07.09-.19-.06-.22-.07-.06-.13-.11-.06-.22-.38.05.05-.17-.05-.21.13-.12-.07-.13-.05-.21-.09-.04.12-.19-.04-.2,0-.07-.16-.09-.04-.2-.2,0,.11-.17-.03-.19-.02-.06-.05-.11-.03-.18.26-.15.01-.13-.03-.18.01-.06-.19-.06-.02-.17,0-.06.11-.15-.02-.16-.06-.04.38-.23-.01-.15-.08-.02.26-.18,0-.15-.25.03,0-.09,0-.14,0-.04,0-.09,0-.13.02-.37.09-.6.25-.65.17-.05.4.13.66.48.03.04.24.01.08.11.01.04.18.04.08.12.27-.04.08.08.08.13.03.05-.04.12.08.14.17,0-.04.13.08.15-.14.11-.08.15.08.16-.14.11.07.1.08.17-.22.14-.03.15.08.18.11.03,0,.14.08.18-.03.08.1.11.08.19.13.03.2.08.08.2.1.04.06.13.08.2.12.04.03.15.08.21.07.06-.21.23.08.21.06.06,0,.16.08.22,0,.09-.02.17.08.23-.24.16-.05.19.08.23.1.05.09.14.07.23.05.07.06.15.07.23.1.05-.06.19.06.23.14.04-.07.19.06.22.1.05.16.11.06.22.02.07-.19.22.05.21.07.05.39.02.05.21.11.04-.13.19.04.2-.24.15.03.13.04.2-.03.08-.1.17.03.19.15.02-.03.14.03.19.17,0-.16.18.03.18-.02.07.06.1.02.17.38-.06.03.1.02.16-.04.07.27.02.01.15.29-.04.06.08,0,.15-.07.07.14.05,0,.14.2-.02-.08.11,0,.13-.12.08.02.07,0,.12.05.02.05.06-.01.11,0,.03-.01.07-.02.1-.04.18-.11.3-.21.33Z"/>
        <path d="M53.4,39.68c-.1-.03-.17-.15-.21-.33,0-.03-.01-.06-.02-.1-.02-.04-.04-.08-.01-.11.14,0-.23-.15,0-.12.07-.02.03-.07,0-.13-.03-.06.11-.05,0-.14-.24-.13.31,0,0-.15-.06-.07-.02-.11.01-.15.21.01.03-.1.02-.16.25.02.17-.06.02-.17.34.05.31-.02.02-.18,0-.06.15-.08.03-.19,0-.07-.04-.15.03-.19-.2-.13-.17-.19.04-.2-.21-.14-.1-.18.04-.2.15-.02-.16-.2.05-.21.04-.06,0-.16.05-.21.12-.04.25-.08.06-.22-.04-.09-.09-.19.06-.22-.23-.15-.09-.19.06-.23-.02-.09.18-.11.07-.23.06-.06-.06-.19.07-.23.1-.05.2-.11.08-.23-.13-.13.12-.13.08-.23.26,0-.03-.17.08-.22,0-.08.18-.1.08-.21-.02-.09-.04-.17.08-.21-.34-.19.14-.11.08-.2.17-.02.02-.14.08-.2-.05-.09.21-.08.08-.19.05-.05-.07-.17.08-.18-.16-.12.19-.07.08-.18.02-.06.03-.12.08-.17.3.03.08-.1.08-.16.05-.04-.12-.16.08-.15.04-.04.18-.06.08-.14-.03-.06.44.03.08-.13-.05-.07.32,0,.08-.12-.22-.12.06-.08.08-.11.03-.04.05-.07.08-.1.23-.29.43-.43.58-.38.17.05.25.34.25.78,0,.04.18.15,0,.14-.01.04.12.14,0,.15.25.13.02.11-.01.16,0,.05-.1.08-.02.16.13.1-.11.08-.02.17-.18,0-.15.07-.03.18-.17,0,0,.13-.03.18-.26-.02-.11.1-.04.19.07.09-.08.11-.04.2-.07.05.02.15-.04.2.09.1.11.18-.05.21.05.09-.03.14-.05.21.07.1-.06.14-.06.22.03.09-.3.06-.06.22.01.08-.09.13-.06.22-.06.06-.12.13-.07.23-.29,0-.15.12-.07.23.05.1-.01.17-.08.23,0,.08-.04.16-.08.22.05.1-.16.11-.08.22.09.11-.17.11-.08.21.05.1.07.18-.08.21-.02.07-.28.06-.08.2.03.08.3.25-.08.2.07.09-.22.08-.08.19-.29-.02-.05.12-.08.18-.07.04-.18.08-.08.17.11.1-.11.1-.08.17.13.11-.24.05-.08.16-.05.04-.01.12-.08.15.34.17-.03.1-.08.14-.07.03.21.17-.08.13.26.13,0,.1-.08.12-.09.02.09.12-.08.11.18.1-.13.04-.08.1-.14,0-.03.07-.08.09.03.05,0,.07-.07.08-.02.02-.05.05-.07.07-.14.12-.26.18-.36.14Z"/>
        <path d="M47.19,39.25c-.11,0-.21-.09-.3-.27-.02-.03-.03-.06-.05-.09-.03-.03-.06-.07-.05-.11.14-.04-.26-.08-.04-.12.06-.04,0-.08-.04-.13-.05-.04.09-.09-.04-.14-.27-.05.3-.1-.04-.15-.07-.05-.05-.11-.04-.16.21-.06,0-.11-.04-.17.25-.06.14-.12-.03-.18.34-.06.29-.13-.03-.19-.01-.07.12-.13-.03-.2-.02-.07-.09-.14-.03-.21-.23-.07-.22-.14-.02-.22-.25-.07-.15-.15-.02-.22.14-.08-.21-.15-.02-.23.02-.08-.06-.16-.02-.24.1-.08.21-.16-.01-.24-.06-.08-.14-.17-.01-.25-.26-.08-.15-.17,0-.25-.04-.09.14-.17,0-.26.04-.09-.11-.17,0-.26.08-.09.16-.18,0-.26-.17-.09.07-.17,0-.26.25-.09-.08-.17,0-.25-.02-.08.14-.17.01-.25-.05-.08-.09-.16.01-.24-.38-.08.1-.16.02-.24.16-.08-.02-.15.02-.23-.07-.07.18-.15.02-.22.03-.07-.12-.15.02-.22-.19-.07.16-.14.03-.21,0-.07-.01-.13.03-.2.29-.07.05-.13.03-.19.03-.06-.17-.12.03-.18.02-.06.15-.12.04-.17-.04-.06.43-.11.04-.16-.07-.05.3-.1.04-.15-.24-.05.03-.1.04-.14.02-.05.03-.09.04-.13.13-.37.28-.59.43-.59.18,0,.34.26.48.72.01.04.22.09.04.14,0,.05.16.1.04.15.27.05.05.11.04.16.01.06-.07.11.03.17.16.06-.08.12.03.18-.17.06-.12.13.03.19-.16.07.04.13.03.2-.25.07-.07.14.03.21.09.07-.04.14.02.22-.05.07.06.15.02.22.12.08.16.15.02.23.08.08.02.16.02.24.1.08-.01.16.01.24.05.08-.27.17.01.25.04.08-.04.17,0,.25-.03.09-.07.17,0,.26-.27.09-.1.18,0,.26.08.09.04.18,0,.26.03.09.01.17,0,.26.08.08-.12.17,0,.25.12.08-.13.17-.01.25.08.08.12.16-.01.24,0,.08-.25.16-.02.24.05.08.36.16-.02.23.1.08-.18.15-.02.22-.28.08-.01.15-.02.22-.05.07-.15.14-.03.21.13.07-.07.13-.03.2.16.07-.21.13-.03.19-.04.06.02.12-.03.18.38.06,0,.12-.03.17-.06.06.25.11-.04.16.29.05.04.1-.04.15-.08.05.12.1-.04.14.2.05-.11.09-.04.13-.13.04,0,.08-.04.12.05.04.03.07-.04.11-.01.03-.03.06-.05.09-.09.18-.2.27-.3.27Z"/>
        <path d="M83.03,58.21c0-.11.29-.21.83-.3.09-.01.18-.03.29-.05.1-.03.21-.06.33-.04.12.14.24-.26.37-.04.13.06.26,0,.4-.04.14-.05.29.09.44-.04.15-.27.31.3.47-.04.16-.07.33-.05.5-.04.17.21.35,0,.53-.04.18.25.37.14.56-.03.19.34.39.29.59-.03.2-.01.41.12.62-.03.21-.02.43-.09.64-.03.22-.23.44-.22.67-.02.23-.25.46-.15.69-.02.23.14.47-.22.71-.02.24.01.48-.06.73-.02.25.1.5.21.75-.01.25-.06.51-.14.76-.01.26-.26.52-.15.78,0,.26-.04.53.14.79,0,.27.04.54-.12.81,0v1.7h0c-.27-.08-.54-.16-.81,0-.27.17-.53-.07-.79,0-.26-.25-.52.08-.78,0-.26.02-.51-.14-.77,0-.25.05-.5.09-.75-.01-.25.38-.49-.1-.73-.02-.24-.16-.48.02-.71-.02-.23.07-.46-.17-.69-.02-.23-.03-.45.12-.67-.02-.22.19-.43-.16-.64-.03-.21,0-.42.01-.62-.03-.2-.3-.4-.05-.59-.03-.19-.03-.38.17-.56-.03-.18-.02-.36-.15-.53-.03-.17.04-.34-.43-.5-.04-.16.07-.32-.3-.47-.04-.15.24-.3-.03-.44-.04-.14-.02-.27-.03-.4-.04-1.15-.13-1.81-.28-1.81-.44,0-.18.81-.34,2.21-.48.14-.01.29-.22.44-.04.15,0,.31-.16.47-.04.16-.27.33-.05.5-.04.17-.01.35.07.53-.03.18-.16.37.08.56-.03.19.17.39.12.59-.03.2.16.41-.04.62-.03.21.25.43.07.64-.03.22-.09.44.04.67-.02.23.05.46-.06.69-.02.23-.12.47-.16.71-.02.24-.08.48-.02.73-.02.25-.1.5.01.75-.01.25-.05.51.27.77-.01.26-.04.52.04.78,0,.26.04.53.07.79,0,.27.27.54.1.81,0h0v1.75c-.27.08-.54.04-.81,0-.27.03-.53.01-.79,0-.26.08-.52-.12-.78,0-.26.12-.51-.13-.76-.01-.25.08-.5.12-.75-.01-.25,0-.49-.25-.73-.02-.24.05-.48.36-.71-.02-.23.1-.46-.18-.69-.02-.23-.28-.45-.01-.67-.02-.22-.06-.43-.15-.64-.03-.21.13-.42-.07-.62-.03-.2.16-.4-.21-.59-.03-.19-.04-.38.02-.56-.03-.18.38-.36,0-.53-.04-.17-.05-.34.25-.5-.04-.16.29-.32.04-.47-.04-.15-.08-.3.12-.44-.04-.14.2-.27-.11-.4-.04-.13-.13-.25,0-.37-.04-.11.04-.22.03-.33-.05-.1-.02-.2-.03-.29-.05-.54-.09-.83-.19-.83-.3Z"/>
        <path d="M52.87,58.21c0-.11,0-.21,0-.3v-.05s0-.06,0-.04c0,.14,0-.26,0-.04,0,.06,0,0,0-.04,0-.05,0,.09,0-.04,0-.27,0,.3,0-.04,0-.07,0-.05,0-.04,0,.21,0,0,0-.04,0,.25,0,.14,0-.03,0,.34,0,.29,0-.03,0-.01,0,.12,0-.03,0-.02,0-.09,0-.03,0-.23,0-.22,0-.02,0-.25,0-.15,0-.02,0,.14,0-.22,0-.02,0,.01,0-.06,0-.02,0,.1,0,.21,0-.01,0-.06,0-.14,0-.01,0-.26,0-.15,0,0,0-.04,0,.14,0,0,0,.04,0-.11,0,0v1.7h0c0-.08,0-.15,0,0,0,.17,0-.07,0,0,0-.25,0,.08,0,0,0,.02,0-.14,0,0,0,.05,0,.09,0-.01,0,.38,0-.1,0-.02,0-.16,0,.02,0-.02,0,.07,0-.17,0-.02,0-.03,0,.12,0-.02,0,.19,0-.16,0-.03,0,0,0,.01,0-.03,0-.3,0-.05,0-.03,0-.03,0,.17,0-.03,0-.02,0-.15,0-.03,0,.04,0-.43,0-.04,0,.07,0-.3,0-.04,0,.24,0-.03,0-.04v-.04c0-.13,0-.28,0-.44,0-.18,0-.34,0-.48,0-.01,0-.22,0-.04,0,0,0-.16,0-.04,0-.27,0-.05,0-.04,0-.01,0,.07,0-.03,0-.16,0,.08,0-.03,0,.17,0,.12,0-.03,0,.16,0-.04,0-.03,0,.25,0,.07,0-.03,0-.09,0,.04,0-.02,0,.05,0-.06,0-.02,0-.12,0-.16,0-.02,0-.08,0-.02,0-.02,0-.1,0,.01,0-.01,0-.05,0,.27,0-.01,0-.04,0,.04,0,0,0,.04,0,.07,0,0,0,.27,0,.11,0,0h0v1.75c0,.08,0,.04,0,0,0,.03,0,.01,0,0,0,.08,0-.12,0,0,0,.12,0-.13,0-.01,0,.08,0,.12,0-.01,0,0,0-.25,0-.02,0,.05,0,.36,0-.02,0,.1,0-.18,0-.02,0-.28,0-.01,0-.02,0-.06,0-.15,0-.03,0,.13,0-.07,0-.03,0,.16,0-.21,0-.03,0-.04,0,.02,0-.03,0,.38,0,0,0-.04,0-.05,0,.25,0-.04,0,.29,0,.04,0-.04,0-.08,0,.12,0-.04,0,.2,0-.11,0-.04,0-.13,0,0,0-.04,0,.04,0,.03,0-.05v-.05c0-.09,0-.19,0-.3Z"/>
        <path d="M12.71,58.21c0-.11.25-.21.72-.3.08-.01.16-.03.25-.05.09-.03.18-.06.28-.04.1.14.21-.26.32-.04.11.06.23,0,.35-.04.12-.05.25.09.38-.04.13-.27.27.3.41-.04.14-.07.29-.05.44-.04.15.21.31,0,.46-.04.16.25.32.14.49-.03.17.34.34.29.51-.03.18-.01.35.12.54-.03.18-.02.37-.09.56-.03.19-.23.38-.22.58-.02.2-.25.4-.15.6-.02.2.14.41-.22.62-.02.21.01.42-.06.63-.02.21.1.43.21.65-.01.22-.06.44-.14.67-.01.22-.26.45-.15.68,0,.23-.04.46.14.69,0,.23.04.47-.12.7,0v1.7h0c-.24-.08-.47-.16-.7,0-.23.17-.46-.07-.69,0-.23-.25-.45.08-.68,0-.22.02-.45-.14-.67,0-.22.05-.44.09-.65-.01-.21.38-.43-.1-.63-.02-.21-.16-.41.02-.62-.02-.2.07-.4-.17-.6-.02-.2-.03-.39.12-.58-.02-.19.19-.38-.16-.56-.03-.18,0-.36.01-.54-.03-.18-.3-.35-.05-.51-.03-.17-.03-.33.17-.49-.03-.16-.02-.31-.15-.46-.03-.15.04-.3-.43-.44-.04-.14.07-.28-.3-.41-.04-.13.24-.26-.03-.38-.04-.12-.02-.24-.03-.35-.04-1-.13-1.57-.28-1.57-.44,0-.18.71-.34,1.92-.48.12-.01.25-.22.38-.04.13,0,.27-.16.41-.04.14-.27.29-.05.44-.04.15-.01.31.07.46-.03.16-.16.32.08.49-.03.17.17.34.12.51-.03.17.16.35-.04.54-.03.18.25.37.07.56-.03.19-.09.38.04.58-.02.2.05.4-.06.6-.02.2-.12.41-.16.62-.02.21-.08.42-.02.63-.02.21-.1.43.01.65-.01.22-.05.44.27.67-.01.22-.04.45.04.68,0,.23.04.46.07.69,0,.23.27.47.1.7,0h0v1.75c-.24.08-.47.04-.7,0-.23.03-.46.01-.69,0-.23.08-.45-.12-.68,0-.22.12-.45-.13-.67-.01-.22.08-.44.12-.65-.01-.21,0-.43-.25-.63-.02-.21.05-.41.36-.62-.02-.2.1-.4-.18-.6-.02-.2-.28-.39-.01-.58-.02-.19-.06-.38-.15-.56-.03-.18.13-.36-.07-.54-.03-.18.16-.35-.21-.51-.03-.17-.04-.33.02-.49-.03-.16.38-.31,0-.46-.04-.15-.05-.3.25-.44-.04-.14.29-.28.04-.41-.04-.13-.08-.26.12-.38-.04-.12.2-.24-.11-.35-.04-.11-.13-.22,0-.32-.04-.1.04-.19.03-.28-.05-.09-.02-.17-.03-.25-.05-.47-.09-.72-.19-.72-.3Z"/>
      </g>
    </g>
  </g>
</svg>