<?xml version="1.0" encoding="UTF-8"?>
<svg xmlns="http://www.w3.org/2000/svg" version="1.1" viewBox="0 0 109 114">
  <!-- Generator: Adobe Illustrator 28.7.1, SVG Export Plug-In . SVG Version: 1.2.0 Build 142)  -->
  <g>
    <g id="Calque_1">
      <g>
        <path d="M54.58,23.23s.11-.05.32-.08c.21-.02.52-.07.91-.15.4-.08.89-.19,1.45-.38.56-.19,1.2-.44,1.9-.77.47-.22.96-.48,1.48-.77.52-.3,1.06-.63,1.65-.96.65-.21,1.07-.92,1.83-1.1.69-.32,1.35-.75,2.07-1.17.73-.42,1.57-.65,2.38-1.08.39-.28.87-.35,1.34-.4.24-.02.48-.04.72-.09.24-.03.48-.11.72-.22.25-.04.5-.08.76-.09.13,0,.26-.02.39-.02.13,0,.26,0,.4,0,.53.03,1.06.12,1.59.27.5.23,1,.43,1.52.65.51.22,1.02.46,1.49.79.38.44.78.85,1.18,1.26.41.41.82.82,1.23,1.27.37,1.18.9,2.18,1.58,3.28.18.59.29,1.21.38,1.84.09.63.14,1.26.23,1.91.03,1.27.04,2.55-.17,3.85.08,1.33-.18,2.68-.73,3.95-.13,1.39-.71,2.69-1.42,3.91-.36.61-.63,1.26-.94,1.9-.3.64-.63,1.27-1.08,1.83-.74,1.21-1.42,2.43-1.97,3.65-.3.6-.55,1.23-.66,1.88,0,.02-.02.12-.02.19l-.03.23c-.02.16-.03.31-.04.46l-.04.47v.12s-.04.01-.05.02h-.06s-.23,0-.23,0c-.31,0-.62.02-.94.04h-.24c-.06.02-.1.03-.15.03l-.28.04c-1.48.06-2.97.14-4.48.01-1.51.26-3.03.15-4.57,0-1.54.04-3.09-.14-4.66,0-1.57-.04-3.14.12-4.73,0-1.59-.08-3.17-.15-4.73,0-1.57.17-3.12-.07-4.66,0-1.54-.25-3.07.08-4.57,0-1.51.02-3-.14-4.48-.01h-.28s-.4.02-.4.02c-.34,0-.69,0-1.03.02h-.26s-.06,0-.06,0h-.03s-.01,0-.02,0v-.02s-.01-.12-.01-.12l-.05-.5-.05-.51-.03-.26c0-.08-.02-.19-.02-.21-.1-.64-.28-1.27-.49-1.91-.43-.55-.72-1.15-1.01-1.78-.29-.63-.57-1.29-.97-1.87-.59-1.29-1.46-2.43-2.02-3.73-.34-.62-.56-1.29-.77-1.95-.1-.33-.21-.66-.31-.99-.05-.17-.11-.33-.17-.49-.06-.16-.11-.32-.18-.48-.33-1.32-.73-2.62-.73-3.95-.17-.64-.19-1.3-.17-1.94,0-.16,0-.32,0-.48,0-.16.01-.32.02-.48,0-.16,0-.32,0-.47,0-.16-.02-.31-.03-.48.01-1.29.21-2.57.61-3.75.32-.55.55-1.11.78-1.67.23-.56.47-1.12.79-1.62.35-.48.68-.97,1.07-1.42.39-.44.82-.84,1.34-1.1.47-.33.97-.6,1.48-.82.51-.23,1.02-.42,1.53-.61.52-.16,1.08-.13,1.6-.1.13.01.26.02.39.02.13,0,.25.02.38.01.25,0,.5-.03.76-.1.25,0,.49.06.73.12.24.07.47.15.69.23.45.17.88.32,1.35.36.24.02.46.07.67.15.21.07.41.17.6.28.19.1.38.22.56.33.18.11.36.22.55.32.74.39,1.42.78,2.07,1.17,1.45.87,2.72,1.66,3.87,2.27,1.14.62,2.15,1.05,3,1.33.85.27,1.52.4,1.98.47.46.07.7.09.7.14,0,.02-.07.04-.22.06-.15.02-.37.04-.66.03-.58,0-1.46-.1-2.54-.42-.54-.16-1.13-.38-1.77-.65-.63-.27-1.31-.6-2.02-.97-.71-.37-1.47-.79-2.27-1.23-.8-.44-1.65-.9-2.55-1.34-.73-.35-1.56-.5-2.3-.96-.81-.29-1.69-.36-2.56-.57-.23.05-.45.06-.68.08-.11,0-.22,0-.33,0-.11,0-.22,0-.33,0-.44,0-.91.01-1.36.12-.89.24-1.82.61-2.56,1.29-.35.36-.73.68-1.1,1.04-.37.35-.72.75-.97,1.22-.73.79-1.18,1.84-1.35,2.95-.24.51-.36,1.07-.42,1.64-.06.57-.06,1.15-.07,1.73-.04.14-.06.29-.08.45-.02.15-.03.3-.03.46,0,.15,0,.31,0,.46,0,.15.02.31.03.46.05.61.18,1.22.29,1.84.23,1.22.33,2.49.73,3.71.3,1.25.85,2.44,1.37,3.65.67,1.15,1.37,2.29,1.97,3.56.78,1.16,1.51,2.43,2.11,3.85.34.69.58,1.47.69,2.28,0,.07,0,.05,0,.06v.02s0,.03,0,.04c0,.03-.01.06.02.06.02,0,.05,0,.08,0h.43c1.48-.06,2.97.26,4.48-.01,1.51-.04,3.03.04,4.57,0,1.54.04,3.09.07,4.66,0,1.56.28,3.14.11,4.73,0,1.59-.08,3.17-.04,4.73,0,1.56-.03,3.12-.01,4.66,0,1.54-.08,3.06.12,4.57,0,1.51-.12,3,.13,4.48.01h.28s.13-.02.13-.02h.02s.03-.02.05-.03c.02,0,0-.03,0-.04,0,0,0-.01,0-.02h0s0,0,0-.07c.12-.81.38-1.58.74-2.27.3-.72.7-1.35,1.09-1.97.39-.62.76-1.22,1.02-1.89.34-.62.61-1.25.9-1.86.3-.61.62-1.19,1.07-1.71.24-.62.53-1.2.8-1.8.13-.3.26-.6.35-.91.05-.15.1-.31.14-.46.04-.16.07-.32.09-.48.31-.58.45-1.21.54-1.83.09-.63.12-1.26.19-1.88.19-1.22.34-2.47.21-3.66-.07-.58-.1-1.15-.16-1.72-.06-.56-.14-1.13-.33-1.65-.24-.51-.39-1.03-.57-1.55-.19-.51-.41-1.01-.78-1.4-.57-.9-1.31-1.62-2.07-2.26-.51-.14-.9-.39-1.3-.64-.4-.25-.8-.52-1.25-.65-.45-.14-.91-.15-1.36-.15-.11,0-.22,0-.33,0-.11,0-.22,0-.33,0-.22-.01-.45-.02-.68-.07-.21.09-.42.17-.64.22-.21.06-.43.09-.64.13-.43.07-.86.12-1.28.23-.84.21-1.51.74-2.3.96-.62.54-1.45.64-2.07,1.07-.71.25-1.27.72-1.88,1.03-.57.37-1.14.68-1.71.89-.55.27-1.06.51-1.56.7-.74.3-1.42.51-2.02.66-.6.14-1.12.21-1.53.24-.42.02-.74.02-.95,0-.21-.02-.32-.05-.32-.07Z"/>
        <path d="M73.27,21.47c.07-.08.25-.05.53.07.05.02.09.04.15.07.06.02.12.03.16.09-.05.14.27-.1.18.1,0,.09.1.11.18.13.09.02.05.17.19.15.25-.13-.1.33.21.16.12.01.16.1.22.18-.09.21.12.15.22.2-.13.24.02.25.22.22-.2.3-.09.34.23.24.08.08.03.26.22.27.08.08.21.15.23.29.26-.02.33.09.23.3.27-.02.26.15.21.33-.06.18.32.13.21.35.05.13.17.23.19.37-.03.17-.08.34.19.39.12.11.24.23.16.41.3.05.24.24.15.43.1.13-.06.33.12.44,0,.16.19.28.11.46-.04.17-.1.33.07.46.19.13-.03.31.06.46-.23.17.1.29.02.45.03.15-.13.3.01.44.05.14.09.29-.02.43.37.15-.11.28-.03.42-.16.13,0,.27-.06.4.06.14-.2.24-.06.38-.02.06,0,.13.01.19,0,.06,0,.12-.09.17.16.15-.2.21-.09.35-.02.12-.03.23-.09.33-.31.04-.1.2-.11.31-.06.09.11.25-.11.29-.05.09-.2.15-.11.28.02.1-.47.06-.12.25.04.11-.34.07-.11.23.21.15-.08.15-.11.21-.04.07-.07.13-.11.19-.34.54-.61.81-.75.75-.08-.03-.12-.17-.13-.38,0-.11,0-.23.02-.38.02-.14.04-.31.06-.49,0-.07-.17-.21.03-.23.03-.07-.1-.2.04-.24-.24-.16,0-.17.04-.25,0-.09.12-.15.03-.27-.13-.13.12-.16.04-.28.19-.05.17-.16.04-.29.18-.07,0-.21.03-.31.27-.06.11-.2.03-.32-.04-.06-.02-.11,0-.16.02-.05.04-.1.02-.16.06-.1-.04-.23.02-.34-.11-.12-.13-.24.01-.35-.08-.12,0-.24,0-.36-.1-.12.02-.24,0-.36-.06-.12.25-.26-.03-.37-.04-.12.03-.25-.03-.37.02-.13.04-.26-.06-.38.25-.17.07-.28-.06-.38-.11-.11-.1-.24-.09-.37-.06-.12-.06-.25-.09-.37-.12-.09.03-.27-.11-.36-.15-.07.05-.28-.11-.35-.12-.08-.21-.17-.13-.33-.05-.11.13-.33-.13-.33-.11-.08-.43-.02-.15-.31-.14-.05.05-.29-.14-.3.19-.24-.11-.19-.16-.28-.01-.12,0-.26-.16-.28-.17,0-.05-.22-.15-.26-.19.02.04-.28-.16-.25-.03-.1-.14-.13-.15-.24-.35.18-.11-.14-.15-.23-.02-.1-.3.05-.15-.21-.27.14-.14-.09-.14-.2,0-.11-.19-.02-.12-.19-.19.09-.02-.18-.11-.17.04-.14-.09-.09-.11-.16-.08,0-.1-.06-.09-.15-.03-.05-.06-.09-.08-.13-.14-.26-.19-.44-.12-.52Z"/>
        <path d="M38.19,48.99c.11,0,.21.9.3,2.55.02.28.03.57.05.89.03.32.06.65.04,1.01-.14.36.26.73.04,1.12-.06.39,0,.81.04,1.24,0,.05,0,.1.01.15,0,.04,0,.12,0,.13,0,.05,0,.11-.02.17-.01.11-.02.25.02.32.02,0,.05-.01.07-.02.12-.07.17-.08.21-.07.04,0,.08.05.14.08.03.02.06.03.09.04.06.01.12.02.18.02.12,0,.25-.03.37-.11.5-.07,1.01-.05,1.55-.04.53.21,1.08,0,1.64-.04.56.25,1.14.14,1.73-.03.59.34,1.2.29,1.82-.03.62-.01,1.25.12,1.9-.03.65-.02,1.31-.09,1.98-.03.67-.23,1.36-.22,2.05-.02.7-.25,1.4-.15,2.12-.02.72.14,1.45-.22,2.19-.02.74.02,1.49-.06,2.25-.01.76.1,1.53.21,2.3-.01.78-.06,1.56-.14,2.36,0,.79-.26,1.59-.15,2.4,0,.81-.04,1.62.14,2.45,0,.41.02.82,0,1.24-.03h.16s.12-.01.11-.01c.01,0,.02,0,.03,0,.02,0,.05.01.11.04h0s.04-.03.06-.07c0-.02.01-.04.02-.06,0,0,0-.07,0-.11v-.16c.01-.42,0-.83-.08-1.24-.17-.82.07-1.64,0-2.45.12-.4.1-.81.06-1.21-.02-.2-.04-.4-.06-.6,0-.1-.01-.2-.01-.3,0-.03,0-.03,0-.03h0s0-.03.01-.04c0-.04,0-.07.02-.13-.03-.02-.08-.04-.14-.04h-.07c-.07,0-.14,0-.2,0-.14,0-.27.02-.41.04-.78.04-1.54.09-2.3-.01-.76.38-1.51-.1-2.25-.02-.74-.16-1.47.02-2.19-.02-.72.07-1.43-.17-2.12-.02-.69-.03-1.38.12-2.05-.02-.67.19-1.33-.16-1.98-.03-.65,0-1.28.01-1.9-.03-.62-.3-1.23-.05-1.82-.03-.59-.03-1.17.17-1.73-.03-.56-.02-1.11-.15-1.64-.03-.53.04-1.05-.43-1.55-.04-.5.07-.98-.3-1.45-.04-.47.24-.91-.03-1.34-.04-.43-.01-.84-.03-1.23-.04-3.54-.13-5.57-.28-5.57-.43,0-.18,2.51-.34,6.81-.48.43-.01.88-.22,1.34-.04.47,0,.95-.16,1.45-.04.5-.27,1.01-.05,1.55-.04.53-.01,1.08.08,1.64-.04.56-.16,1.14.08,1.73-.03.59.17,1.2.12,1.82-.03.62.17,1.25-.03,1.9-.03.65.25,1.31.08,1.98-.03.67-.09,1.36.04,2.05-.02.7.05,1.4-.06,2.12-.02.72-.12,1.45-.16,2.19-.02.74-.08,1.49-.02,2.25-.02.76-.1,1.53.01,2.3-.01.14,0,.27,0,.41,0l.2.02s.1,0,.16.01h.19c.49.04.95.08,1.43.08,0,.42.03.8.12,1.23v.53s0,.3,0,.3c0,.2,0,.4-.01.6,0,.4-.02.8,0,1.21-.03.81-.07,1.62,0,2.45-.14.41-.16.82-.14,1.24.05.7.1,1.41.14,2.12h0c-.37.02-.77.03-1.16.04h-.6s-.36,0-.36,0c-.41,0-.83-.02-1.24-.04-.82.03-1.64.01-2.45,0-.81.08-1.61-.12-2.4,0-.79.12-1.58-.13-2.36-.01-.78.08-1.54.12-2.3-.01-.76,0-1.51-.25-2.25-.02-.74.05-1.47.37-2.19-.02-.72.1-1.43-.18-2.12-.02-.69-.28-1.38-.02-2.05-.02-.67-.06-1.33-.15-1.98-.03-.65.13-1.28-.07-1.9-.03-.62.16-1.23-.21-1.82-.03-.59-.04-1.17.03-1.73-.03-.56.38-1.11,0-1.64-.03-.53-.05-1.05.25-1.55-.04-.13.07-.25.11-.37.12-.06,0-.12.01-.19,0-.11,0-.21,0-.31-.02-.41-.04-.74-.12-1.06-.15-.04,0-.09-.01-.13-.01.02-.35,0-.64-.03-.96,0-.16-.01-.32,0-.48,0-.09,0-.12.02-.18.01-.05.02-.1.04-.15-.2-.43.11-.84.04-1.24.13-.39,0-.77.04-1.12-.04-.36-.03-.69.05-1.01.02-.32.03-.61.05-.89.09-1.65.2-2.55.3-2.55Z"/>
        <path d="M43.16,57.05c.1,0,.21,1.31.3,3.71.01.4.03.83.05,1.29.03.46.06.95.04,1.46-.14.52.26,1.06.04,1.63-.06.57,0,1.17.04,1.79.05.62-.09,1.28.04,1.95.27.67-.3,1.38.04,2.1.07.72.05,1.47.04,2.24-.21.77,0,1.56.03,2.38-.25.82-.14,1.65.03,2.51-.34.86-.29,1.74.03,2.64.01.9-.12,1.82.03,2.76.02.94.09,1.9.03,2.87.09.38.14.77.16,1.16,0,.2.01.39,0,.59v.15s0,.03-.01.03h0s0,.01,0,.01l-.03.04s0,.03,0,.06v.02s0,0,0,0v.02s.04.03.04.03l.09.13c.89.54,1.55,1.33,2.2,2.15.64.83,1.64,1.32,2.27,2.22.75.76,1.57,1.48,2.33,2.28.71.85,1.42,1.71,2.39,2.34.34.3.68.6,1.02.91l.25.23.03.03h0s0,0,0,0h.01s.03.04.04.07c.02,0,.04,0,.07,0,0-.02,0-.04,0-.06,0-.01,0,0,0-.03l.06-.09c.09-.12.18-.23.27-.34.19-.22.39-.43.59-.63.42-.4.88-.77,1.34-1.14.79-.86,1.76-1.58,2.49-2.53.87-.82,1.6-1.78,2.54-2.57.91-.81,1.81-1.61,2.54-2.56.11-.15.23-.3.36-.43l.09-.1s0-.01.01-.02c0,0,.01-.01.02-.02,0,.13.03-.48.05-.85.02-.41.03-.81.01-1.21.25-1.17-.08-2.34,0-3.49-.02-1.15.14-2.29.01-3.42-.05-1.13-.09-2.24.01-3.34-.38-1.1.1-2.19.02-3.26.16-1.07-.02-2.13.02-3.17-.07-1.04.18-2.07.02-3.08.03-1.01-.12-2,.02-2.98-.19-.98.16-1.93.03-2.87v-1.39c0-.23,0-.46,0-.69,0-.11,0-.23,0-.34v-.17c0-.07,0-.07.01-.09.1-.11.14-.28.14-.42-.13,0-.29.02-.41.05h-.05s-.11.02-.11.02l-.22.02c-.15.01-.29.02-.43.02-.86-.03-1.7.17-2.51-.03-.81-.02-1.61-.15-2.38-.04-.77.04-1.52-.43-2.24-.04-.73.07-1.42-.3-2.1-.04-.68.24-1.33-.03-1.95-.04-.62-.01-1.22-.03-1.79-.04-2.57-.06-4.59-.13-5.97-.21-1.38-.07-2.12-.15-2.12-.23,0-.09.91-.17,2.6-.25,1.69-.08,4.16-.16,7.28-.22.62-.01,1.27-.22,1.95-.04.68,0,1.37-.16,2.1-.04.72-.27,1.47-.05,2.24-.04.77-.01,1.57.08,2.38-.04.82-.16,1.65.08,2.51-.03.14.03.29.05.43.07.07,0,.15.02.22.02h.11s.17.01.17.01c.46.01.92,0,1.41-.02.02.44.06.89.11,1.39-.02.23-.04.29-.05.42,0,.11-.02.23-.02.34,0,.23,0,.46.02.69.03.46.08.92.07,1.39-.25.94-.08,1.89.03,2.87.09.97-.04,1.97.02,2.98-.05,1.01.06,2.04.02,3.08.12,1.04.16,2.1.02,3.17.08,1.07.02,2.16.02,3.26.1,1.1-.01,2.21.01,3.34.05,1.13-.27,2.27,0,3.42.04,1.15-.04,2.31,0,3.49,0,.4-.02.81-.03,1.21,0,.44-.01.66,0,1.56l-.36.37-.17.18-.1.1c-.13.14-.25.28-.37.42-1.04.65-1.76,1.63-2.54,2.57-.8.92-1.67,1.74-2.54,2.56-.82.87-1.66,1.7-2.5,2.52-.38.45-.82.84-1.24,1.23-.21.2-.43.4-.63.6-.1.1-.2.21-.3.31l-.48.52c-.29.32-.59.64-.89.94-.31-.31-.62-.63-.93-.94l-.42-.44-.23-.25c-.31-.34-.62-.67-.98-.95-.86-.74-1.68-1.49-2.37-2.36-.78-.77-1.38-1.72-2.31-2.3-.8-.72-1.77-1.24-2.24-2.24-.81-.66-1.34-1.58-2.17-2.18-.06-.15-.35-.48-.57-.72,0-.17.01-.34.02-.5v-.23s0-.15,0-.15c0-.2-.02-.39-.04-.59-.03-.39-.07-.78-.07-1.16.05-.97.15-1.93.03-2.87-.13-.94.07-1.86.03-2.76-.16-.9.21-1.78.03-2.64.04-.86-.02-1.7.03-2.51-.38-.82,0-1.61.04-2.38.06-.77-.25-1.52.04-2.24-.29-.72-.04-1.42.04-2.1.08-.67-.12-1.33.04-1.95-.2-.62.11-1.22.04-1.79.13-.57,0-1.12.04-1.63-.05-.52-.03-1,.04-1.46.02-.46.03-.89.05-1.29.09-2.4.19-3.71.3-3.71Z"/>
        <path d="M65.99,88.71c0,.11-.25.21-.71.3-.08.01-.16.03-.25.05-.09.03-.18.06-.28.05-.1-.14-.2.26-.31.04-.11-.06-.23,0-.35.04-.12.05-.25-.09-.38.04-.13.27-.27-.3-.4.04-.14.07-.28.05-.43.04-.15-.21-.3,0-.46.04-.16-.25-.32-.14-.48.03-.17-.34-.33-.29-.51.03-.17.01-.35-.12-.53.03-.18.02-.37.09-.55.03-.19.23-.38.22-.57.02-.2.25-.39.15-.59.02-.2-.14-.4.22-.61.02-.21-.01-.42.06-.63.02-.21-.1-.43-.21-.64.01-.22.06-.44.14-.66.01-.22.26-.45.14-.67,0-.23.04-.45-.14-.68,0-.23-.04-.46.12-.69,0-.23-.08-.47-.15-.7,0-.23.17-.46-.07-.68,0-.23-.25-.45.08-.67,0-.22.02-.44-.14-.66-.01-.22.05-.43.09-.64-.01-.21.38-.42-.1-.63-.02-.21-.16-.41.02-.61-.02-.2.07-.4-.17-.59-.02-.19-.03-.39.12-.57-.02-.19.19-.37-.16-.55-.03-.18,0-.36.01-.53-.03-.17-.29-.34-.05-.51-.03-.17-.03-.33.17-.48-.03-.16-.02-.31-.15-.46-.04-.15.04-.29-.43-.43-.04-.14.07-.28-.3-.41-.04-.13.24-.26-.03-.38-.04-.12-.01-.24-.03-.35-.04-.99-.13-1.56-.28-1.56-.44,0-.17.7-.34,1.9-.48.12-.01.25-.22.38-.04.13,0,.26-.16.41-.04.14-.27.28-.05.43-.04.15-.01.3.07.46-.04.16-.16.32.08.48-.03.16.17.33.12.51-.03.17.16.35-.04.53-.03.18.25.36.07.55-.03.19-.09.38.04.57-.02.19.05.39-.06.59-.02.2-.12.41-.16.61-.02.21-.08.41-.02.63-.02.21-.1.43.01.64-.01.22-.05.44.27.66-.01.22-.04.44.04.67,0,.23.04.45.07.68,0,.23.28.46.11.7,0,.23-.08.46-.04.69,0,.23-.03.46-.01.68,0,.23-.08.45.12.67,0,.22-.12.44.12.66.01.22-.08.43-.12.64.01.21,0,.42.25.63.02.21-.05.41-.37.61.02.2-.1.4.18.59.02.19.28.39.01.57.02.19.05.37.15.55.03.18-.13.36.07.53.03.17-.16.34.21.51.03.17.04.33-.03.48.03.16-.38.31,0,.46.04.15.05.29-.25.43.04.14-.29.27-.04.4.04.13.08.26-.12.38.04.12-.2.24.11.35.04.11.13.21,0,.31.04.1-.04.19-.03.28.05.09.02.17.03.25.05.46.09.71.19.71.3Z"/>
        <path d="M71.5,72.94c-.03.1-.42.08-1.1-.05-.11-.02-.24-.05-.36-.07-.13-.02-.28-.03-.41-.09-.1-.18-.37.15-.46-.11-.14-.11-.32-.11-.5-.12-.19,0-.32-.2-.54-.14-.27.2-.28-.41-.58-.15-.22,0-.42-.08-.62-.17-.14-.27-.43-.14-.66-.18-.14-.31-.41-.28-.69-.2-.12-.4-.38-.43-.73-.21-.25-.07-.46-.28-.76-.22-.26-.06-.54-.09-.79-.24-.34.13-.6.03-.82-.25-.35.14-.6-.04-.84-.26-.24-.22-.64.01-.87-.27-.29-.11-.61-.14-.89-.28-.27-.2-.53-.4-.91-.29-.33-.04-.66-.07-.93-.3-.4.14-.68-.07-.95-.31-.33-.07-.6-.35-.97-.32-.31-.15-.69-.11-.98-.33-.3-.18-.61-.37-.98-.33-.38.05-.62-.28-.97-.33-.24-.34-.66-.14-.95-.32-.32-.08-.58-.34-.93-.32-.32-.06-.64-.11-.9-.31-.42.26-.56-.29-.88-.31-.24-.25-.59-.17-.86-.3-.31-.03-.51-.35-.83-.3-.26-.12-.58-.07-.8-.29-.32.09-.48-.33-.77-.29-.25-.09-.51-.16-.74-.28-.15-.36-.47-.21-.71-.27-.22-.11-.52,0-.67-.26-.21-.1-.39-.29-.64-.25-.22-.03-.28-.54-.6-.24-.22,0-.29-.41-.56-.23-.26.17-.35-.15-.52-.21-.16-.07-.32-.14-.48-.2-1.36-.59-2.11-1-2.06-1.15.06-.17,1.1,0,2.84.44.17.04.42-.09.54.14.18.06.42-.02.58.15.28-.19.42.09.62.17.21.06.4.21.66.18.27-.08.43.23.69.2.18.24.43.28.73.21.19.24.5.13.76.22.18.32.49.24.79.24.3,0,.52.21.82.25.26.14.58.12.84.26.32-.02.62.04.87.27.32.02.59.18.89.28.33,0,.6.21.91.29.32.05.53.46.93.3.32.07.62.25.95.31.31.14.62.28.97.32.24.37.62.32.98.33.35.04.67.18.98.33.33.08.65.2.96.33.35.03.6.32.95.32.35,0,.58.33.93.32.33.03.65.09.9.32.3.1.52.44.88.31.31.05.7-.15.86.3.31,0,.5.36.83.3.19.36.54.2.8.29.25.14.48.32.77.28.3-.04.48.24.74.28.3-.07.42.36.71.27.22.11.47.13.67.26.34-.28.44.15.64.25.19.12.49-.1.6.24.29-.21.4.09.56.23.16.14.4,0,.52.21.23-.13.3.22.47.2.11.18.3.11.43.19.16,0,.28.06.38.18.12.06.23.11.34.16.62.31.95.52.91.62Z"/>
        <path d="M69.89,83.55c-.03.1-.42.08-1.1-.05-.11-.02-.24-.05-.36-.07-.13-.02-.28-.03-.41-.09-.1-.18-.37.15-.46-.11-.14-.11-.32-.11-.5-.12-.19,0-.32-.2-.54-.14-.27.2-.28-.41-.58-.15-.22,0-.42-.08-.62-.17-.14-.27-.43-.14-.66-.18-.14-.31-.41-.28-.69-.2-.13-.4-.38-.43-.73-.21-.25-.07-.46-.28-.76-.22-.26-.06-.54-.09-.79-.24-.34.13-.6.03-.82-.25-.35.14-.6-.04-.84-.26-.24-.23-.64.01-.87-.27-.29-.11-.6-.14-.89-.28-.27-.2-.53-.4-.91-.29-.33-.04-.66-.07-.93-.3-.4.14-.68-.07-.95-.31-.33-.07-.6-.35-.97-.32-.31-.15-.69-.11-.98-.33-.31-.18-.61-.37-.98-.33-.38.05-.62-.28-.96-.33-.24-.34-.66-.14-.95-.32-.32-.08-.58-.34-.93-.32-.32-.06-.64-.11-.91-.32-.42.26-.56-.29-.88-.31-.24-.25-.59-.17-.86-.3-.31-.03-.51-.35-.83-.3-.26-.12-.58-.07-.8-.29-.33.09-.47-.33-.77-.28-.26-.09-.51-.16-.74-.28-.15-.36-.47-.21-.71-.27-.22-.11-.51,0-.67-.26-.21-.1-.39-.29-.64-.25-.22-.03-.28-.55-.6-.24-.22,0-.29-.42-.56-.23-.26.17-.35-.15-.52-.21-.17-.07-.32-.14-.47-.2-1.36-.59-2.11-1-2.06-1.14.06-.17,1.1,0,2.84.44.17.04.42-.09.54.14.18.06.42-.02.58.15.28-.19.42.09.62.17.21.06.4.21.66.18.27-.08.42.23.69.2.18.24.43.28.73.21.19.24.51.13.76.22.18.32.49.24.79.23.29,0,.52.21.82.25.26.14.57.12.84.26.32-.02.62.04.87.27.32.02.59.18.89.28.33,0,.6.21.91.29.32.05.53.46.93.3.33.07.62.25.95.31.31.14.62.28.97.32.24.37.62.32.98.33.35.04.67.18.98.33.33.08.65.2.96.33.34.03.6.32.95.32.35,0,.58.33.93.32.33.03.65.09.91.32.3.1.52.44.88.31.31.05.69-.15.86.3.31,0,.5.36.83.3.19.36.54.2.8.29.25.14.48.32.77.28.3-.04.48.24.74.28.3-.07.42.36.71.27.22.11.47.13.67.26.34-.28.44.15.64.25.19.12.49-.1.6.24.29-.2.4.09.56.23.16.14.4,0,.52.21.23-.13.3.22.47.2.11.18.3.11.43.19.16,0,.28.06.38.18.12.06.23.11.33.16.62.31.95.52.91.62Z"/>
      </g>
    </g>
  </g>
</svg>