<?xml version="1.0" encoding="UTF-8"?>
<svg xmlns="http://www.w3.org/2000/svg" version="1.1" viewBox="0 0 109 114">
  <!-- Generator: Adobe Illustrator 28.7.1, SVG Export Plug-In . SVG Version: 1.2.0 Build 142)  -->
  <g>
    <g id="Calque_1">
      <g>
        <path d="M80.74,26.61c0,.13-1.13.14-3.1.61-.17.04-.33.09-.51.13-.17.05-.36.09-.54.16-.18.07-.37.13-.56.2-.19.07-.39.15-.59.21-.23,0-.41.15-.6.28-.19.13-.38.27-.64.27-.23.07-.45.18-.67.3-.11.06-.22.13-.32.2-.1.07-.21.15-.32.22-.21.15-.45.27-.68.41-.24.13-.46.29-.65.51-.15.27-.41.39-.68.52-.27.13-.53.29-.64.61-.39.46-.84.88-1.27,1.36-.58.34-.82,1.01-1.16,1.58-.58.43-.85,1.1-1,1.81-.61.49-.87,1.22-.78,2.02-.21.7-.54,1.41-.51,2.2-.1.76-.12,1.54-.18,2.34.22.8.24,1.58.18,2.42.36.78.44,1.59.58,2.44.04.21.1.41.18.61.08.2.19.39.29.58.1.19.21.38.3.57.09.2.17.39.23.61.39.79.92,1.5,1.42,2.24.45.77,1,1.54,1.83,2,.72.58,1.49,1.07,2.21,1.68.93.28,1.68.8,2.52,1.28.89.31,1.77.76,2.76.81.95.22,1.93.16,2.91.28.98.08,1.99.06,2.91-.28.46-.18.93-.27,1.39-.38.24-.05.47-.11.7-.18.23-.06.45-.15.67-.25.12-.02.24-.04.36-.07.11-.04.23-.08.34-.13.11-.05.22-.1.32-.15.1-.06.21-.12.31-.18l.3-.19.29-.2c.2-.13.4-.25.6-.36.77-.52,1.62-.96,2.21-1.68.64-.66,1.21-1.35,1.83-2,.12-.47.39-.81.67-1.15.15-.17.29-.34.42-.51.07-.09.13-.18.19-.27.05-.1.1-.19.14-.3.54-.71.71-1.59,1-2.38.09-.42.25-.81.37-1.21l.09-.3c.02-.1.05-.2.07-.31.03-.21.07-.41.05-.62.03-.2.06-.41.08-.61,0-.2.01-.41.02-.61.01-.2,0-.4.02-.6.01-.2.04-.4.06-.6-.05-.2-.07-.39-.07-.59-.01-.2,0-.39,0-.59.01-.2,0-.39,0-.59-.01-.19-.04-.39-.11-.57-.12-.76-.33-1.48-.51-2.2.01-.2-.01-.39-.05-.57-.05-.18-.12-.35-.2-.51-.08-.17-.17-.32-.26-.48-.1-.15-.18-.31-.26-.46-.15-.32-.34-.62-.53-.9-.18-.29-.37-.57-.47-.91-.36-.57-.65-1.18-1.16-1.58-.22-.23-.36-.53-.53-.8-.17-.27-.39-.49-.74-.56-.25-.17-.42-.43-.61-.65-.2-.22-.4-.43-.71-.48-.3-.06-.51-.23-.72-.4-.2-.18-.39-.38-.62-.51-.11-.07-.22-.14-.33-.2-.11-.06-.22-.12-.33-.18-.22-.12-.43-.24-.65-.34-.96-.47-1.87-.81-2.67-1.05-.2-.06-.4-.11-.58-.16-.19-.05-.37-.09-.54-.13-.35-.09-.67-.13-.96-.19-.58-.1-1.02-.16-1.32-.2-.3-.04-.46-.09-.46-.13,0-.04.19-.08.57-.11.19-.02.43-.02.71-.02.14,0,.29,0,.45,0,.16.01.33.02.52.04.73.06,1.64.19,2.67.47,1.03.28,2.19.72,3.4,1.38.24.13.51.23.77.36.26.12.51.3.7.54.25.17.5.34.76.51.26.17.5.38.7.64.66.24.98.87,1.41,1.4.46.51.81,1.12,1.31,1.66.26.26.45.58.61.92.17.33.31.69.53,1,.17.76.52,1.45.91,2.17.03.2.06.4.12.6.05.2.12.39.17.58.06.2.12.39.19.59.05.2.1.41.13.61-.12.86.15,1.68.26,2.55.1.88-.07,1.76-.14,2.66-.18.89-.27,1.81-.59,2.7-.17.93-.5,1.85-1.07,2.64-.37.9-.95,1.7-1.55,2.49-.52.86-1.28,1.53-2.01,2.24-.36.36-.79.64-1.22.92-.21.15-.43.28-.63.44-.2.16-.4.32-.58.52-.86.59-1.83,1-2.79,1.44-1,.36-2.03.63-3.07.91-1.1-.07-2.14.2-3.24.31-1.09.08-2.19-.07-3.24-.31-1.06-.18-2.09-.5-3.07-.91-1.02-.32-1.86-.98-2.79-1.44-.23-.12-.46-.25-.66-.41-.21-.16-.41-.31-.6-.49-.39-.34-.75-.69-1.17-.99-.8-.63-1.52-1.36-2.01-2.24-.3-.4-.53-.84-.76-1.27-.12-.21-.23-.43-.36-.63-.06-.1-.13-.2-.2-.3-.07-.1-.14-.2-.22-.29-.12-.21-.26-.41-.38-.62-.12-.21-.26-.41-.36-.63-.1-.22-.2-.44-.26-.67-.05-.23-.08-.48-.06-.73-.18-.43-.27-.9-.33-1.35-.02-.11-.04-.23-.05-.34-.01-.11-.03-.23-.05-.34-.03-.22-.1-.44-.16-.66.04-.24.05-.46.04-.68,0-.22-.03-.44-.06-.66-.04-.22-.06-.44-.08-.66-.02-.22-.05-.44-.04-.66.06-.87.25-1.71.26-2.55,0-.21.03-.42.07-.63.05-.2.1-.4.16-.6.06-.2.14-.39.2-.58.07-.19.12-.39.18-.58.03-.2.08-.39.16-.58.08-.18.18-.36.27-.53.09-.17.19-.34.28-.51.09-.17.15-.35.2-.55.37-.67.69-1.35,1.14-1.92.02-.21.09-.38.18-.54.09-.16.2-.3.34-.42.26-.25.55-.46.79-.7.48-.48.75-1.17,1.41-1.4.15-.32.38-.54.65-.71.27-.16.55-.3.82-.43.27-.14.48-.34.72-.5.23-.17.46-.34.75-.4.09-.11.2-.2.32-.26.12-.07.25-.11.37-.15.25-.08.51-.14.73-.28.51-.09.9-.38,1.34-.5.21-.09.42-.17.62-.23.21-.05.42-.09.62-.11.19-.05.39-.08.57-.12.18-.03.36-.07.54-.09,2.08-.3,3.22-.09,3.21-.02Z"/>
        <path d="M80.74,36.37c0,.12-.38.17-.93.48-.09.06-.18.11-.28.19-.09.08-.18.17-.3.24-.1-.02-.11.08-.13.16-.02.09-.04.17-.17.13-.15.05-.22.21-.3.36-.07.15-.28.2-.28.42.06.15-.05.18-.16.22-.1.04-.21.1-.11.26-.03.2-.14.36-.24.54-.28.1-.16.39-.2.6-.31.12-.28.38-.16.65-.39.14-.39.4-.12.69-.03.23-.19.47-.07.73,0,.25.05.51-.01.76.23.26.22.51.05.79.26.25.2.51.12.8-.09.3.32.49.2.81.06.28.22.52.28.79,0,.3.04.62.38.76.19.22.41.39.48.69.37.05.45.29.58.57.12.07.2.17.3.25.05.04.1.08.16.11.06.02.12.04.2.02.11.06.23.07.35.07.12,0,.23,0,.35.06.23.08.53.1.71-.13.04-.06.09-.1.14-.13.05-.03.11-.05.17-.07.12-.04.26-.07.34-.19.09,0,.16-.02.21-.06.05-.04.09-.1.13-.16.07-.13.12-.27.24-.35.15-.23.45-.38.48-.69.1-.27.17-.54.38-.76-.12-.2-.05-.32.05-.43.1-.11.24-.22.24-.37.23-.23.11-.55.2-.81-.03-.28.25-.52.12-.8.05-.27-.09-.53.05-.79-.19-.25.14-.52-.01-.76-.02-.25-.07-.49-.07-.73.25-.29-.04-.48-.12-.69-.03-.23-.28-.38-.16-.65-.05-.21,0-.46-.2-.6-.06-.08,0-.22,0-.34.01-.12-.02-.22-.24-.21-.08-.07-.06-.18-.07-.29,0-.1-.04-.2-.2-.2-.3,0-.18-.29-.28-.42-.1-.13-.2-.25-.3-.36-.45-.5-.92-.76-1.25-.91-.34-.15-.56-.21-.55-.29,0-.04.06-.08.2-.12.07-.02.15-.03.25-.03.1,0,.22,0,.35.02.53.06,1.31.37,2.01,1.07.14.13.43.18.41.46.12.17.38.28.38.53.35.06.27.39.35.6.11.21.12.47.31.67.23.19.08.51.26.73-.09.3,0,.54.2.79-.12.3.12.55.14.84-.22.31-.04.58.07.88.09.3-.04.6,0,.92-.07.31,0,.63-.09.95.06.34.03.68-.19.97-.01.35-.18.66-.31.98-.04.37-.29.64-.45.97-.07.17-.22.3-.36.43-.13.13-.25.27-.26.51-.22.32-.55.55-.84.84-.35.23-.72.41-1.1.64-.26-.05-.46-.01-.67.04-.21.07-.42.15-.65.21-.46.08-.93-.06-1.32-.25-.43-.13-.79-.37-1.1-.64-.09-.05-.17-.11-.25-.18-.07-.07-.13-.15-.2-.23-.12-.16-.23-.32-.4-.43-.17-.11-.26-.29-.33-.46-.08-.17-.15-.34-.29-.48-.25-.28-.45-.59-.45-.97-.13-.33,0-.72-.31-.98-.14-.31-.52-.58-.19-.97-.15-.31.09-.66-.09-.95.26-.33-.02-.61,0-.92.06-.3.16-.58.07-.88-.11-.3.14-.56.14-.84-.11-.31.31-.49.2-.79.1-.25.12-.51.26-.73-.27-.37.18-.47.31-.67.14-.19-.01-.55.35-.6-.13-.34.2-.41.38-.53.19-.12.16-.41.41-.46,0-.14.08-.2.18-.23.1-.04.21-.06.25-.14.11-.01.18-.07.24-.13.06-.06.11-.13.19-.16.11-.13.25-.2.42-.21.13-.06.27-.1.39-.13.37-.09.67-.1.86-.06.2.03.29.09.29.14Z"/>
        <path d="M78.5,37.21c-.07.08-.17.13-.3.13-.02,0-.05,0-.07,0-.03,0-.07.01-.08-.01.08-.11-.22.15-.08-.02.03-.06-.03-.04-.09-.03-.05,0,.03-.1-.08-.04-.23.15.2-.24-.09-.05-.08.02-.08-.02-.09-.06.15-.15-.04-.06-.09-.07.19-.17.08-.14-.09-.08.27-.21.21-.21-.09-.09-.03-.03.07-.13-.09-.1-.04-.03-.12-.04-.08-.11-.22.06-.24.01-.08-.11-.24.06-.17-.03-.08-.12.11-.09-.24,0-.07-.13,0-.05-.08-.07-.06-.13.08-.08.17-.16-.06-.14-.08-.03-.17-.06-.05-.14-.27.02-.17-.06-.05-.15-.06-.04.11-.13-.04-.15.03-.06-.13-.08-.03-.15.07-.07.13-.13-.03-.15-.17-.02.05-.11-.02-.15.23-.09-.09-.08-.01-.15-.03-.04.13-.11,0-.14-.05-.04-.1-.08,0-.14-.38,0,.09-.1,0-.14.16-.06-.03-.08,0-.13-.07-.04.17-.1.01-.13.03-.04-.13-.07.02-.12-.19-.03.15-.09.02-.12,0-.04-.01-.07.03-.11.29-.04.05-.07.03-.11.03-.04-.17-.07.03-.1.02-.03.15-.06.04-.09-.04-.03.43-.06.04-.09-.07-.03.3-.05.04-.08-.24-.03.03-.05.04-.08.02-.02.03-.05.04-.07.13-.2.29-.3.45-.29.18.02.33.16.46.38.01.02.22.05.04.07,0,.02.16.05.04.07.27.03.05.05.04.08.01.03-.07.06.04.08.16.03-.08.06.03.09-.17.03-.12.06.03.09-.16.04.04.06.03.09-.25.04-.07.07.03.1.09.03-.03.07.03.1-.05.04.07.06.03.1.12.02.17.06.03.1.08.03.02.07.03.11.1.03,0,.07.03.11.06.03-.25.11.03.11.04.03-.03.08.02.11-.03.04-.06.09.03.11-.26.09-.09.1.02.11.09.02.05.07.02.11.04.03.03.07.02.11.09.01-.09.1.02.11.12,0-.1.11.02.1.09,0,.14.02.02.1.01.03-.21.15.02.1.06.01.36-.08.02.09.1,0-.14.13.02.09-.24.14.01.06.01.09-.04.05-.11.12.01.09.13-.04-.04.08.02.08.15-.06-.15.15.01.08-.02.04.04.03,0,.08.32-.19.02.03.01.07-.03.05.22-.12,0,.07.24-.16.05,0,0,.07-.05.07.11-.05,0,.07.16-.12-.06.1,0,.07-.08.1.02.03,0,.06.04-.02.04,0,0,.06,0,.02,0,.04,0,.06,0,.12-.04.23-.1.32Z"/>
        <path d="M83,37.23c-.06-.08-.09-.2-.1-.32,0-.02,0-.04,0-.06,0-.03-.02-.06,0-.06.11.09-.16-.2,0-.06.06.03.03-.02,0-.07-.03-.05.09.03,0-.07-.2-.19.26.15,0-.07-.05-.06-.02-.06,0-.07.18.1.03-.03.01-.07.22.12.14.03,0-.08.3.16.28.1.01-.08,0-.03.13.01.02-.08,0-.03-.05-.09.01-.09-.2-.13-.18-.14.01-.09-.21-.13-.11-.11.02-.09.14.02-.18-.14.02-.1.03-.03-.03-.08.02-.1.11,0,.23,0,.02-.1-.04-.05-.12-.11.02-.1-.24-.11-.12-.11.02-.11-.03-.04.16-.04.02-.11.05-.03-.1-.1.02-.11.08-.02.17-.05.02-.11-.16-.07.08-.06.03-.11.25,0-.07-.09.02-.11-.02-.04.15-.06.03-.11-.04-.04-.08-.08.03-.11-.37-.08.1-.06.03-.11.16-.02-.02-.07.03-.1-.07-.04.18-.06.03-.1.03-.03-.12-.08.03-.1-.18-.04.16-.06.03-.1,0-.03,0-.06.03-.09.3-.02.05-.06.03-.09.03-.03-.16-.06.03-.09.02-.03.15-.06.04-.08-.04-.03.43-.06.04-.08-.07-.02.3-.06.04-.07-.24-.02.03-.05.04-.07.01-.02.03-.04.04-.06.12-.19.26-.3.42-.32.18-.02.35.11.49.36.01.02.22.05.04.08,0,.03.16.05.04.08.27.03.05.06.04.09.01.03-.07.06.04.1.16.03-.08.06.03.1-.17.03-.13.06.03.11-.17.03.03.08.02.11-.25.03-.08.07.02.12.09.04-.04.08.02.12-.05.04.06.09.01.13.11.05.15.1,0,.13.08.05,0,.09,0,.13.09.06-.02.09,0,.14.04.05-.28.06,0,.14.03.05-.06.09-.01.15-.04.04-.09.08-.02.15-.28,0-.12.08-.03.15.07.07.02.11-.03.15.01.06-.01.1-.04.15.07.07-.14.07-.05.15.1.08-.14.06-.05.14.06.07.08.13-.06.14-.02.05-.27,0-.06.13.04.06.31.23-.07.13.07.08-.21.01-.08.12-.27-.08-.05.07-.08.11-.07.02-.17.01-.08.11.1.1-.11.04-.09.1.12.12-.22-.04-.09.09-.05.01-.02.08-.09.08.29.24-.05.06-.09.07-.06,0,.16.21-.09.06.2.2-.01.08-.09.05-.08-.03.05.13-.08.04.13.16-.12-.03-.09.03-.12-.07-.04.03-.08.02.02.05-.01.05-.08.01-.03,0-.05,0-.07,0-.14,0-.24-.04-.3-.13Z"/>
        <path d="M90.22,44.79c-.08.07-.21.07-.37.02-.03,0-.05-.02-.08-.03-.04,0-.08,0-.09-.04.09-.11-.24.11-.09-.05.03-.07-.04-.05-.1-.05-.06,0,.02-.11-.1-.06-.24.14.19-.25-.1-.07-.08.01-.09-.03-.11-.08.13-.16-.05-.07-.11-.08.17-.19.05-.16-.11-.09.24-.25.16-.26-.12-.1-.04-.03.03-.16-.12-.11-.05-.03-.13-.03-.12-.11-.21.1-.24.05-.12-.12-.23.11-.19,0-.13-.12.07-.13-.24.04-.13-.13-.03-.06-.12-.06-.13-.14.04-.11.09-.23-.13-.14-.09-.01-.19-.01-.13-.15-.25.11-.2-.01-.13-.15-.08-.03.03-.19-.13-.16,0-.04-.05-.05-.09-.06-.02,0-.04-.02-.04-.03,0,0,0-.02,0-.03,0,0,.01-.01.02-.02.06-.06.09-.14-.02-.02-.08.09-.03.03-.01-.01,0-.02,0-.03,0,0,.05-.11.03-.1,0-.06-.02.04-.04.09-.04.05,0,.01,0-.02,0-.05-.02-.03-.06-.04-.1.02-.07.03-.14.07-.19-.05-.13.36-.1-.12-.18-.05-.03-.17-.12,0-.17-.05-.07.06-.08-.19-.17-.05-.05-.04-.14.1-.16-.05-.09.17-.08-.18-.16-.06-.05-.01-.11,0-.15-.06,0-.3-.09-.07-.14-.06-.04-.04-.13.15-.14-.06-.04-.03-.06-.17-.13-.06-.05.03,0-.44-.12-.06-.05.06-.02-.31-.11-.06-.08.23-.07-.04-.1-.06-.03-.02-.06-.04-.09-.06-.27-.18-.4-.36-.37-.51.03-.17.27-.3.64-.36.04,0,.11-.2.12-.02.04,0,.11-.14.12-.02.09-.26.09-.03.13-.01.04,0,.07.09.14,0,.08-.15.08.09.15,0,.02.18.08.14.15,0,.02.17.11-.01.16,0,0,.26.09.09.17,0,.07-.08.1.06.17,0,.05.06.13-.04.18.01.08-.1.15-.14.18.02.08-.07.12,0,.19.02.08-.09.12.04.19.02.04-.02.05.05.08.1.05.05.1.07.2-.05.13-.01.22.09.37.06.03.02.07.04.1.05.04.08.09.15.18.17-.1.31.07.26.24.3.02,0,.04.02.05.02.01,0,.02,0,.03.01.01,0,.03.02.04.04.02.03.02.07.03.11.06.04.09.1.12.16.11,0,0,.18.12.16.13-.02-.02.18.11.16.1,0,.18.02.11.16.04.05-.12.25.1.16.08.02.36-.13.1.15.11-.01-.07.21.09.15-.18.22.06.1.09.15,0,.08-.05.18.08.14.14-.04,0,.13.08.14.16-.06-.1.21.07.14,0,.06.08.06.06.13.33-.2.06.07.06.13-.02.07.25-.09.05.12.25-.15.08.04.04.12-.04.08.14-.02.04.11.18-.1-.04.12.03.11-.08.11.03.05.02.1.05,0,.06.03.02.09,0,.03,0,.06,0,.09.01.17-.02.29-.1.35Z"/>
        <path d="M86.89,52.45c-.1,0-.21-.06-.32-.19-.02-.02-.04-.05-.05-.07-.03-.02-.06-.05-.05-.08.14-.04-.26-.04-.05-.09.06-.04,0-.07-.05-.1-.05-.03.08-.08-.05-.11-.27-.02.29-.1-.05-.12-.08-.04-.06-.08-.05-.13.2-.06,0-.09-.04-.14.25-.07.13-.11-.04-.14.34-.08.28-.12-.04-.15-.01-.05.11-.11-.04-.16-.03-.05-.09-.1-.04-.16-.23-.04-.23-.1-.04-.17-.25-.04-.16-.11-.04-.18.13-.07-.22-.11-.03-.18.01-.06-.07-.12-.03-.19.1-.07.2-.15-.03-.19-.03-.03-.07-.06-.08-.09,0-.02,0-.03,0-.05.01,0,.03,0,.06-.01-.26.03-.14.03,0-.03h0s.11-.08-.02-.02c.04,0-.14,0-.09-.12.03-.1.05-.2-.12-.18-.18.04-.02-.15-.11-.17.16-.19-.14-.07-.11-.17-.06-.04.04-.19-.1-.17-.07-.03-.15-.06-.1-.17-.35.16,0-.16-.09-.16.1-.14-.09-.09-.09-.16-.09,0,.08-.2-.08-.16,0-.07-.17-.03-.08-.16-.19.06.07-.18-.07-.15-.03-.05-.07-.08-.07-.15.21-.21-.02-.11-.06-.14,0-.06-.19.01-.06-.14,0-.05.07-.16-.05-.13-.06-.01.3-.32-.04-.13-.08,0,.2-.24-.04-.12-.22.11-.02-.08-.03-.12,0-.04-.02-.07-.03-.11-.07-.32-.04-.55.09-.64.14-.1.4-.02.72.2.03.02.22-.06.1.07.02.03.18-.02.1.08.25-.12.09.04.1.09.04.03,0,.12.11.09.16-.05-.01.13.11.1-.11.14-.04.15.11.11-.11.14.09.07.11.12-.18.19,0,.13.12.12.11,0,.03.12.12.13,0,.08.12.06.12.14.13-.02.2,0,.12.14.1,0,.08.09.12.15.12,0,.06.11.12.15.08.02-.14.26.12.16.07.04.04.14.12.16,0,.08.02.15.12.17-.19.21,0,.18.12.17.11.02.1.07.15.23.09.09.16.2.21.31v.02c.04.05.02.13,0,.19-.02.07-.04.13.02.19.03.03.04.06.04.09,0,.02-.02.04-.03.05-.03.04-.06.07,0,.1.08.06.13.12,0,.2,0,.06-.24.15,0,.19.06.06.37.1,0,.19.1.05-.17.13,0,.18-.28.08,0,.12,0,.18-.05.06-.14.12-.01.17.14.04-.06.11-.02.16.16.04-.2.12-.02.16-.03.05.03.1-.02.15.38.02,0,.09-.02.14-.05.05.26.07-.03.13.29.02.05.08-.03.13-.08.05.13.07-.03.12.2.02-.11.08-.03.11-.13.04,0,.06-.04.1.05.03.03.06-.04.09-.01.03-.03.05-.04.08-.08.15-.18.23-.28.24Z"/>
        <path d="M71.27,44.81c-.08-.07-.12-.19-.1-.35,0-.03,0-.06.01-.09,0-.04-.01-.08.02-.09.13.06-.17-.21.02-.1.07.01.05-.05.03-.11-.02-.06.11,0,.04-.11-.19-.2.29.13.04-.12-.03-.08.01-.1.05-.12.19.09.06-.07.06-.13.23.12.17.01.07-.13.3.17.29.1.07-.14.02-.05.16,0,.08-.14.02-.06,0-.14.08-.15-.14-.19-.1-.22.09-.15-.16-.2-.04-.18.09-.15.15.04-.09-.23.1-.15.05-.04.03-.13.1-.16.12.01.25.03.11-.16,0-.09-.03-.19.11-.16-.16-.21-.03-.19.12-.16,0-.08.2-.02.12-.16.04-.02.04-.06.04-.1,0-.02,0-.04.02-.05,0,0,.01-.01.02-.01.01,0,.03-.01.05-.02.14-.05.26-.08.24-.3-.02-.16.09-.17.16-.2.05,0,.09.01.12-.02.12.1.16.07.21.02.04-.05.08-.12.16-.09.06-.02.12,0,.19.01.04.01.07.02.09-.05.06-.06.11-.11.19-.02,0-.38.14.07.19-.02.09.15.12-.04.18-.02.05-.08.15.15.18-.01.06.02.09-.14.17,0,.02-.19.14.14.17,0,.05,0,.1-.03.16,0,.1.28.11.03.15,0,.05.02.06-.18.15,0,.05.01.12.13.14,0,.04-.05.17.41.13.01.03-.08.14.28.12.02,0-.24.08.02.12.02.04,0,.07.01.11.02.31.07.51.19.54.34.03.17-.14.37-.47.57-.03.02-.03.23-.1.06-.04,0-.05.17-.11.06,0,.28-.07.07-.12.06-.04.02-.1-.06-.13.06-.02.17-.11-.06-.14.06-.08-.16-.12-.1-.14.06-.08-.15-.1.05-.15.06-.1-.24-.12-.05-.16.06-.04.1-.12-.02-.16.06-.07-.04-.1.08-.17.05-.04.13-.09.18-.17.05-.04.09-.12.04-.18.05-.04.11-.13.01-.18.05-.03.03-.08-.03-.11-.06-.01-.04-.03-.04,0,.09,0,.04-.04-.04-.02.01,0,0-.02-.02-.03-.03-.01,0-.02,0,0,.05-.18-.21-.1-.05-.01.02,0,0,.01.01.01.02,0,.01,0,.02,0,.03,0,.02-.02.03-.03.04-.03.02-.06.04-.1.05-.02.07-.08.11-.13.16.02.1-.18.03-.13.15.05.12-.18.02-.13.15.02.1.02.18-.13.14-.04.05-.27-.06-.13.14,0,.08.21.32-.13.13.04.11-.22-.02-.13.12-.26-.13-.08.08-.12.12-.08.01-.19,0-.12.11.07.13-.12.04-.12.11.09.14-.23-.05-.12.1-.06.02-.04.09-.12.09.27.27-.06.07-.11.09-.07,0,.14.22-.11.08.2.21-.02.09-.11.07-.09-.02.05.13-.1.06.13.15-.13-.01-.1.05-.12-.06-.04.05-.09.05.02.05-.01.06-.09.04-.03.01-.06.02-.08.03-.16.05-.28.05-.37-.02Z"/>
        <path d="M74.62,52.45c-.11,0-.2-.09-.28-.24-.01-.02-.03-.05-.04-.08-.03-.03-.05-.06-.04-.09.14-.02-.25-.08-.04-.1.06-.03,0-.07-.03-.11-.05-.04.09-.07-.03-.12-.27-.06.31-.06-.03-.13-.07-.05-.05-.09-.03-.13.21-.03,0-.09-.02-.14.25-.03.15-.09-.02-.15.35-.02.3-.08-.02-.16,0-.05.13-.1-.01-.16-.02-.06-.08-.12-.01-.17-.22-.08-.21-.13,0-.18-.24-.08-.14-.13,0-.18.14-.05-.21-.14,0-.19.02-.06-.05-.13,0-.19.11-.06.22-.11,0-.2-.03-.04-.06-.07-.07-.11,0-.02,0-.03,0-.05.01-.03.03-.06.07-.09-.25-.16-.12-.3.02-.38,0,0,0-.02,0-.02.05-.11.26-.13.21-.3.12-.1.01-.22.15-.22.11-.01.21-.03.12-.17-.1-.15.14-.08.12-.17.24.08.01-.16.12-.16.02-.07.19-.03.12-.16,0-.08,0-.16.12-.15-.28-.27.15-.05.12-.15.17.04.05-.12.12-.14-.02-.09.21,0,.12-.14.06-.03-.03-.17.12-.13-.12-.15.19,0,.12-.12.03-.04.05-.1.12-.12.27.12.1-.06.11-.11.05-.02-.08-.18.11-.1.05-.03.18,0,.11-.1,0-.06.4.17.1-.09-.03-.07.3.1.1-.08-.18-.17.07-.05.1-.07.03-.02.06-.04.09-.06.27-.18.5-.23.63-.14.15.1.16.37.06.75,0,.04.14.19-.03.12-.02.03.08.16-.04.12.2.19,0,.1-.04.13-.01.04-.11.03-.05.13.1.13-.12.04-.06.14-.17-.06-.16.01-.06.14-.17-.05-.03.11-.07.15-.24-.1-.12.05-.07.15.04.1-.1.07-.08.16-.07.02-.01.13-.08.16.06.12.06.19-.09.16.03.1-.06.11-.09.17.05.11-.08.1-.1.17,0,.08-.3-.04-.1.17,0,.07-.11.09-.11.17-.07.04-.14.07-.11.17-.27-.1-.17.06-.12.18.03.1-.06.16-.09.12.02.02,0,.02-.01.02h0s.01.01-.01,0c-.03,0-.05,0,0,.01.03,0,.04,0,.03.01,0,.02-.02.03-.04.05-.03.03-.07.06-.01.1.07.07.11.14-.03.19,0,.06-.26.11-.03.19.05.07.35.15-.03.18.09.07-.19.11-.04.18-.28.04-.02.12-.04.17-.06.05-.16.1-.04.16.13.07-.08.1-.04.16.16.07-.22.09-.04.15-.04.05.02.1-.04.14.37.08,0,.09-.04.14-.06.04.24.11-.05.13.28.06.03.09-.05.12-.09.03.11.09-.05.11.2.05-.12.06-.05.1-.14.02-.01.06-.05.09.04.03.02.06-.05.08-.02.03-.03.05-.05.07-.11.13-.21.2-.32.19Z"/>
        <path d="M54.4,29.58c-.08.07-.25.03-.49-.1-.04-.02-.08-.04-.13-.07-.05-.02-.11-.04-.14-.09.07-.14-.27.09-.15-.1,0-.09-.08-.1-.16-.12-.08-.02-.03-.16-.17-.13-.25.13.12-.31-.18-.14-.11,0-.15-.08-.19-.16.1-.2-.11-.13-.2-.17.12-.23-.02-.23-.21-.18.19-.3.09-.33-.22-.19-.07-.06-.04-.23-.22-.2-.09-.06-.2-.09-.23-.21-.24.08-.31-.01-.24-.22-.26.08-.26-.07-.24-.23.02-.18-.31-.02-.25-.24-.07-.1-.2-.14-.25-.25,0-.16,0-.32-.26-.26-.13-.05-.27-.09-.26-.27-.28.08-.28-.09-.26-.28-.12-.07-.07-.29-.26-.28-.06-.12-.26-.12-.27-.29-.03-.15-.06-.3-.26-.29-.21.02-.12-.24-.26-.29.09-.26-.23-.13-.25-.29-.1-.08-.06-.28-.24-.28-.12-.06-.23-.12-.23-.28-.36.17-.09-.24-.23-.27.04-.19-.17-.16-.22-.27-.13-.04-.02-.28-.21-.26-.05-.1-.24-.08-.2-.26-.21.05-.03-.26-.19-.25-.07-.08-.15-.14-.18-.24.15-.27-.09-.18-.17-.23-.04-.09-.25-.02-.16-.23-.04-.08,0-.23-.15-.21-.09-.03.2-.41-.14-.2-.1-.01.12-.32-.13-.2-.23.11-.07-.13-.11-.18-.04-.06-.07-.12-.1-.17-.28-.5-.39-.84-.27-.94.13-.12.52.06,1.08.47.06.04.26-.05.17.13.05.05.22,0,.18.14.25-.13.14.08.19.16.07.05.06.18.2.17.18-.04.06.18.21.18-.06.18.04.22.22.19-.06.18.16.12.22.2-.12.24.08.2.23.21.14.02.12.18.24.22.04.11.2.12.24.23.16,0,.27.06.25.24.14.03.17.16.25.25.16.02.15.19.26.26.12.06-.03.36.26.27.11.07.14.22.26.28.06.12.12.24.26.28-.12.28.1.26.27.29.15.04.21.17.26.29.11.08.18.18.26.29.15.04.08.27.25.29.17.02.07.27.24.28.14.04.26.1.24.28.08.09-.03.34.23.27.12.05.43-.07.22.27.15.02.02.29.21.26-.13.27.14.17.2.26.03.12.03.26.19.25.17-.01.08.2.18.24.18-.04-.03.28.17.23.04.09.14.12.16.22.34-.19.12.13.15.21.02.1.3-.05.14.21.26-.13.13.09.13.19-.01.11.19.03.11.18.19-.08,0,.17.1.17-.06.14.08.09.09.16.07.01.09.06.07.15.02.05.04.09.06.13.11.26.13.43.05.5Z"/>
        <path d="M37.02,29.6c-.08-.07-.06-.24.05-.5.02-.04.04-.09.06-.13.01-.06.03-.11.07-.15.14.05-.11-.26.09-.16.09,0,.09-.09.1-.17,0-.08.16-.04.11-.18-.15-.24.32.09.13-.19,0-.11.07-.15.14-.21.21.08.11-.12.15-.21.25.1.23-.04.16-.22.32.16.34.06.17-.23.06-.08.22-.06.18-.24.05-.09.07-.21.19-.25-.1-.23-.02-.31.2-.26-.11-.25.04-.26.21-.26.18,0,0-.32.22-.27.09-.08.12-.21.23-.27.16-.02.32-.04.24-.28.04-.13.06-.28.24-.28-.11-.27.06-.29.25-.29.05-.12.28-.09.26-.29.12-.07.09-.27.26-.29.15-.04.29-.09.27-.29-.04-.21.23-.14.26-.28.27.07.11-.24.26-.28.07-.11.27-.09.26-.27.05-.12.1-.24.26-.26-.2-.34.23-.11.25-.25.2.02.14-.19.25-.24.02-.13.28-.05.24-.23.1-.06.06-.24.24-.22-.07-.2.26-.05.23-.21.07-.07.13-.16.22-.2.28.13.17-.11.22-.19.09-.05,0-.25.21-.18.08-.05.23-.03.2-.17.02-.09.43.17.19-.16,0-.11.33.09.18-.14-.13-.22.12-.09.17-.13.06-.04.11-.08.16-.12.47-.33.8-.47.91-.36.13.12-.02.52-.37,1.12-.04.06.07.25-.11.18-.05.05.02.22-.13.19.15.24-.07.15-.14.21-.05.07-.17.07-.15.21.06.17-.18.08-.16.22-.19-.04-.22.06-.17.23-.19-.04-.11.17-.18.24-.26-.09-.19.1-.19.25,0,.14-.17.13-.2.26-.11.05-.1.21-.21.26.01.16-.03.28-.22.27-.02.14-.15.19-.23.27,0,.16-.17.17-.23.28-.04.13-.37,0-.24.28-.06.12-.2.16-.25.29-.11.07-.23.14-.26.29-.29-.09-.25.12-.26.29-.03.15-.15.22-.27.29-.07.11-.16.2-.26.28-.03.15-.26.11-.26.28,0,.17-.26.1-.26.27-.02.14-.07.26-.26.26-.08.09-.35,0-.25.25-.04.12.11.42-.25.24,0,.15-.29.04-.24.23-.28-.11-.16.15-.24.22-.11.04-.25.06-.23.21.03.17-.19.1-.22.2.05.18-.29,0-.22.19-.09.05-.11.15-.21.18.22.32-.12.13-.2.17-.1.02.07.29-.19.16.16.25-.08.14-.18.14-.11,0,0,.19-.17.13.1.19-.17.02-.16.12-.14-.04-.09.08-.15.1,0,.07-.05.1-.14.09-.05.03-.09.05-.13.07-.24.13-.42.17-.49.09Z"/>
        <path d="M45.7,20.03s-.22-.02-.63-.13c-.41-.11-1.02-.28-1.82-.49-.8-.2-1.8-.46-2.99-.71-1.19-.25-2.57-.51-4.13-.71-1.04-.14-2.17-.23-3.37-.27-1.21-.03-2.48,0-3.83.09-.68-.02-1.36.13-2.05.29-.69.18-1.38.36-2.13.46-.36.07-.72.19-1.09.3-.36.13-.72.25-1.07.41-.36.15-.71.33-1.06.5-.17.1-.34.19-.52.29-.17.1-.34.21-.51.31-.68.43-1.36.89-2,1.42-.64.53-1.23,1.16-1.71,1.88-.42.76-.94,1.45-1.4,2.23-.46.77-.84,1.63-.92,2.57-.42,1.81-.63,3.73-.56,5.73-.06,1,.04,2.02.23,3.04.2,1.02.48,2.03.76,3.05.15,1.06.44,2.11.82,3.14.39,1.03.86,2.04,1.39,3.04.3,1.1.71,2.17,1.26,3.19.54,1.03,1.16,2.05,1.82,3.07,1.03,2.18,1.87,4.5,2.78,6.86.4,1.2.76,2.43,1.02,3.71.07.32.12.64.18.97.03.16.06.32.08.49l.06.49.05.5.03.5c.02.34.03.68.02,1,.13,1.31.17,2.61.18,3.92,0,1.31-.03,2.63-.09,3.96.32,2.65.37,5.35.54,8.08.08,1.37.32,2.73.61,4.07.29,1.35.63,2.68.94,4.03.4,1.32.92,2.61,1.62,3.74.35.56.76,1.09,1.22,1.52.46.43.97.78,1.54.98.56.22,1.17.31,1.81.24.16-.02.32-.03.48-.07l.11-.02h.04s.05-.01.07-.03c.02-.02.04-.04.05-.06,0-.01.01-.02.02-.03h0s.01-.04.02-.05c.06-.13.11-.29.16-.45.2-.65.33-1.37.43-2.1.11-.72.18-1.46.23-2.2.36-2.95.64-5.97,1.21-8.99.18-3.07.79-6.13,1.61-9.17.32-1.54.74-3.07,1.24-4.59.5-1.52,1.07-3.03,1.77-4.54.4-.73.84-1.45,1.39-2.13.55-.68,1.22-1.32,2.08-1.76.43-.22.91-.38,1.4-.45.25-.04.49-.06.74-.05.25,0,.5.03.75.08.5.1.97.29,1.39.53.42.25.79.55,1.1.88.65.65,1.13,1.37,1.56,2.11.42.74.77,1.49,1.09,2.25.63,1.52,1.13,3.06,1.63,4.59,1,3.07,1.35,6.23,1.92,9.31.26,3.12.99,6.14,1.31,9.18.2,1.43.37,2.87.57,4.27.1.7.22,1.4.37,2.07.08.33.16.66.26.95.03.07.05.14.08.2.01.03.02.04.03.05.02.03.05.05.09.05h.03s.04,0,.04,0c.06.01.13.03.19.03.64.11,1.27.09,1.85-.07.58-.15,1.11-.47,1.59-.88.48-.41.9-.93,1.27-1.48.37-.56.7-1.17,1.01-1.79.38-1.35.79-2.67,1.18-4.03.38-1.35.73-2.73.88-4.12.55-2.76.57-5.56.74-8.3.05-2.75.31-5.45.15-8.13,0-.68,0-1.35,0-2.02.02-.35.04-.69.05-1.03.01-.17.01-.35.04-.52l.06-.51c.15-1.36.48-2.66.89-3.92.07-.32.15-.64.24-.96.04-.16.09-.32.14-.47l.16-.46c.11-.31.22-.61.33-.92.12-.3.25-.6.37-.9.13-.3.25-.59.38-.88l.2-.44.07-.15.03-.07s-.01-.02-.02-.04l-.04-.04-.17-.14-.09-.07-.18-.16-.37-.32c-1.87-1.8-3.29-3.99-4.11-6.35-.29-1.22-.56-2.4-.74-3.59-.18-1.19-.27-2.39-.19-3.57.11-1.18.3-2.34.61-3.46.31-1.12.77-2.18,1.39-3.12.54-.98,1.2-1.88,1.92-2.7.71-.82,1.47-1.58,2.26-2.29.81-.69,1.74-1.18,2.67-1.61.93-.43,1.84-.8,2.72-1.3l.29-.1c.05-.02.1-.03.16-.05l.16-.03.09-.02h.04s0-.02,0-.02v-.02c-.03-.1-.06-.21-.09-.31-.01-.06-.03-.11-.06-.17,0-.02-.04-.09-.06-.14l-.06-.16c-.35-.83-.8-1.61-1.44-2.21-.63-.6-1.18-1.22-1.79-1.78l-.22-.22-.23-.2c-.16-.13-.3-.27-.47-.4-.32-.25-.64-.5-.99-.7-.68-.43-1.4-.76-2.1-1.08-.72-.29-1.43-.55-2.15-.74-1.61-.45-3.19-.69-4.68-.8-1.5-.11-2.91-.09-4.22,0-2.62.16-4.84.56-6.62.93-.89.19-1.67.38-2.35.55-.67.18-1.24.33-1.7.45-.91.26-1.39.37-1.4.33-.01-.04.54-.27,1.64-.67,1.1-.38,2.75-.91,4.95-1.41,1.1-.25,2.34-.48,3.71-.67,1.37-.19,2.88-.31,4.52-.32,1.64,0,3.4.12,5.25.5.46.09.93.21,1.4.33.24.06.47.14.71.21.12.04.24.07.36.11.12.04.24.08.35.13.95.33,1.89.77,2.82,1.31.37.21.73.45,1.11.68.19.12.36.25.54.38l.27.19c.09.07.17.14.26.21.71.56,1.34,1.24,1.85,2.02.58.73,1.11,1.52,1.56,2.38l.08.16c.03.06.05.09.09.19.08.17.16.33.23.51.14.35.29.7.43,1.05l.03.07s.03.05,0,.05l-.14.04-.28.07c-.18.05-.37.1-.55.14-.19.05-.37.1-.56.14-.13.03-.27.07-.4.1-.84.42-1.68.8-2.53,1.23-.84.43-1.69.92-2.46,1.54-.76.62-1.48,1.32-2.14,2.09-.66.77-1.24,1.63-1.68,2.58-.42.95-.85,1.91-1.18,2.92-.33,1.01-.57,2.08-.6,3.17-.17,1.08-.17,2.21-.02,3.32.15,1.11.47,2.22.94,3.26.32,1.1.85,2.15,1.51,3.11.66.97,1.45,1.85,2.3,2.68l.3.34.15.17.26.24.52.47.13.11s.12.07.06.14l-.15.35c-.16.37-.31.75-.47,1.12-.12.29-.22.58-.33.88-.1.3-.21.59-.31.89-.09.3-.18.6-.27.91l-.13.46c-.04.15-.08.31-.12.46-.08.31-.16.61-.24.92-.28,1.23-.6,2.47-.77,3.72l-.07.47c-.03.16-.03.31-.04.47-.02.32-.05.63-.07.95-.02.64,0,1.31,0,1.98-.04,2.68.05,5.42-.11,8.2,0,2.78-.17,5.62-.71,8.46-.16,1.43-.41,2.87-.76,4.31-.35,1.43-.79,2.87-1.4,4.27-.28.71-.63,1.41-1.06,2.08-.43.67-.95,1.32-1.6,1.86-.65.54-1.43.99-2.29,1.2-.86.22-1.76.21-2.59.06-.08-.01-.16-.03-.25-.05l-.37-.09c-.31-.08-.57-.31-.75-.58-.09-.14-.16-.29-.22-.43-.04-.1-.08-.21-.11-.3-.13-.39-.21-.76-.28-1.13-.14-.73-.24-1.45-.35-2.17-.2-1.44-.39-2.87-.72-4.29-.44-3.02-.77-6.08-1.32-9.13-.46-3.06-1-6.14-1.89-9.13-.28-1.54-.73-3.04-1.35-4.46-.31-.71-.67-1.39-1.08-2.02-.41-.63-.87-1.22-1.39-1.67-.51-.46-1.07-.79-1.64-.89-.14-.03-.29-.04-.44-.04-.15,0-.3,0-.45.03-.3.04-.58.13-.86.27-.56.27-1.08.73-1.53,1.27-.46.54-.86,1.17-1.22,1.82-.69,1.33-1.22,2.78-1.68,4.24-.46,1.47-.84,2.96-1.19,4.46-.58,3.02-1.27,6.01-1.6,9.04-.32,3.03-.93,5.99-1.23,8.98-.09.75-.18,1.49-.3,2.24-.12.75-.25,1.49-.47,2.28-.06.2-.12.4-.22.62l-.04.09-.06.13c-.04.08-.08.16-.13.23-.09.15-.21.28-.35.39-.07.06-.14.1-.22.14-.08.03-.17.05-.25.08l-.25.08h-.03s-.02.01-.02.01h-.04s-.08.03-.08.03c-.2.05-.42.07-.63.1-.84.1-1.74,0-2.55-.32-.21-.06-.4-.16-.6-.25-.19-.09-.37-.21-.56-.32-.35-.24-.68-.5-.96-.79-.58-.58-1.04-1.22-1.43-1.89-.77-1.33-1.3-2.72-1.85-4.08-.45-1.39-.86-2.79-1.15-4.19-.29-1.4-.46-2.81-.43-4.22-.4-2.77-.27-5.53-.51-8.21.1-1.35.09-2.68.05-4-.04-1.32-.09-2.63-.1-3.91,0-.32,0-.62-.02-.93l-.02-.46-.04-.46-.04-.46c-.02-.15-.04-.31-.06-.46-.05-.31-.08-.61-.15-.92-.22-1.22-.56-2.41-.99-3.55-.87-2.28-1.62-4.58-2.66-6.71-.29-.52-.55-1.04-.81-1.57-.25-.53-.5-1.05-.74-1.59-.5-1.07-.94-2.15-1.49-3.16-.44-1.07-.87-2.12-1.25-3.19-.37-1.06-.71-2.13-.97-3.2-.46-1.02-.69-2.1-.81-3.17-.12-1.08-.12-2.15-.15-3.19-.01-1.05-.06-2.09.02-3.11.07-1.02.25-2.04.66-2.96.13-1,.47-1.94.93-2.8.46-.86,1.04-1.63,1.64-2.34.6-.71,1.21-1.39,1.87-1.99.66-.6,1.38-1.12,2.16-1.49.17-.13.34-.26.53-.36.18-.11.37-.21.55-.31.38-.18.76-.34,1.15-.47.38-.14.77-.24,1.15-.36.39-.1.76-.22,1.13-.33.76-.15,1.5-.29,2.22-.42.72-.12,1.43-.24,2.12-.27,1.38-.15,2.7-.14,3.92,0,1.23.07,2.37.2,3.43.37,1.58.24,2.97.55,4.15.85,1.19.3,2.18.61,2.97.86.79.27,1.39.48,1.78.64.4.16.59.25.58.28Z"/>
      </g>
    </g>
  </g>
</svg>