<?xml version="1.0" encoding="UTF-8"?>
<svg xmlns="http://www.w3.org/2000/svg" version="1.1" viewBox="0 0 109 114">
  <!-- Generator: Adobe Illustrator 28.7.1, SVG Export Plug-In . SVG Version: 1.2.0 Build 142)  -->
  <g>
    <g id="Calque_1">
      <g>
        <path d="M54.5,34.73c-.02.05-.51-.05-1.43-.29-.93-.2-2.3-.55-4.09-.76-.3-.03-.61-.06-.93-.09-.08,0-.16-.02-.24-.02-.08,0-.16,0-.25-.01-.17,0-.33-.01-.51-.02-.17,0-.35-.02-.52,0-.18,0-.36,0-.54.01-.18,0-.37,0-.55.01-.19.01-.38.02-.57.03-.39-.06-.78.07-1.17.17-.2.05-.39.11-.59.16-.2.05-.41.07-.62.06-.83.16-1.65.51-2.42.98-.19.13-.38.25-.58.37-.05.03-.1.06-.15.09l-.14.1c-.09.07-.19.14-.28.21-.09.07-.2.13-.28.22-.09.08-.17.16-.26.25-.08.08-.17.17-.25.26-.07.1-.14.2-.21.3-.05.11-.11.22-.18.32-.07.1-.13.21-.2.3-.14.19-.32.37-.46.58-.14.21-.31.41-.4.65-.05.12-.09.24-.13.37-.02.06-.03.13-.04.19,0,.07,0,.14,0,.2-.25,1.01-.43,2.07-.43,3.2-.03.14-.04.28-.05.43,0,.14,0,.29,0,.43,0,.14,0,.29.03.43.02.14.05.29.07.43.05.29.1.58.19.87.08.29.15.58.23.87.03,1.24.55,2.42,1.18,3.54.05.33.12.65.22.96.05.16.1.31.16.47.07.15.14.3.21.45.15.3.32.58.51.86.2.28.41.56.63.84.63,1.25,1.08,2.6,1.71,3.93.26.69.5,1.39.7,2.12.2.73.35,1.49.39,2.29.09.39.16.81.18,1.18.03.38.04.76.04,1.13,0,.75-.05,1.51-.13,2.28.27,1.52.24,3.06.24,4.63,0,.79.14,1.56.29,2.34.16.77.33,1.54.42,2.33.17.77.41,1.52.72,2.22.3.7.69,1.35,1.15,1.82.44.5,1,.77,1.68.71l.17-.02s.06-.01.09-.02c.05-.04.06-.11.07-.17h0s0-.04,0-.04v-.07s.04-.14.04-.14c.02-.1.03-.19.04-.29.02-.2.04-.41.05-.62.22-1.66.34-3.41.71-5.13-.02-1.78.35-3.54.83-5.3.15-.9.37-1.78.62-2.67.26-.9.51-1.79.77-2.7.35-.89.71-1.79,1.3-2.66.3-.43.66-.86,1.15-1.21.25-.17.52-.32.83-.42.3-.1.63-.15.95-.14.32,0,.66.06.96.17.3.11.57.27.81.44.47.36.82.78,1.11,1.21.58.85.97,1.74,1.37,2.6.4.87.64,1.78.84,2.68.19.9.34,1.81.54,2.69.1,1.82.68,3.53.83,5.29.13.87.21,1.74.31,2.6.1.86.21,1.72.42,2.53.07.34.14.67.23.97.06.2.05.15.07.18.01.02.03.03.05.03,0,0,.02,0,.02,0h.07c.09.02.18.02.27.03.18,0,.34-.02.5-.06.32-.08.63-.24.93-.49.34-.58.7-1.18,1.06-1.86.35-.67.67-1.41.81-2.18.52-1.51.54-3.12.71-4.66.06-1.56.37-3.1.24-4.63.03-.76,0-1.52-.01-2.28,0-.38-.01-.75,0-1.13,0-.38.05-.79.11-1.18-.02-.8.17-1.56.4-2.29.23-.72.5-1.42.69-2.13.49-1.38,1.06-2.69,1.71-3.93.22-.28.41-.57.58-.86.17-.29.31-.59.44-.89.06-.15.13-.3.19-.45.06-.15.11-.31.17-.46.11-.31.22-.61.35-.9.5-1.18.71-2.41,1.18-3.54.29-1.16.57-2.33.46-3.46-.02-.28,0-.56.02-.84,0-.28.01-.56.02-.83-.01-.27-.05-.54-.11-.81-.03-.13-.08-.26-.15-.38-.06-.12-.13-.24-.22-.35l-.06-.18c-.03-.06-.05-.12-.07-.18-.04-.12-.09-.24-.13-.36-.06-.25-.17-.48-.27-.71-.09-.24-.22-.45-.36-.66-.07-.1-.14-.2-.23-.29-.09-.08-.19-.16-.29-.23-.1-.07-.2-.15-.28-.23-.1-.07-.19-.14-.28-.22-.18-.16-.33-.33-.51-.48-.08-.08-.17-.16-.25-.24l-.12-.12s-.09-.07-.14-.11c-.18-.14-.36-.28-.56-.4-.79-.44-1.62-.75-2.42-.98-1.84-.46-3.58-.52-5.07-.43-.09,0-.19,0-.28.01-.09,0-.18.02-.27.03-.18.02-.36.03-.53.05-.35.03-.68.08-.99.12-.63.08-1.21.2-1.72.29-1.02.21-1.81.4-2.33.53-.53.13-.81.18-.82.14-.01-.04.3-.19.93-.43.16-.06.33-.13.53-.2.2-.06.42-.13.65-.21.24-.07.49-.16.77-.23.28-.07.58-.15.89-.23,1.26-.3,2.85-.6,4.75-.64.47-.02.97.01,1.48.03.25.01.51.05.78.08.13.01.26.03.4.05.13.02.27.05.4.07,1.08.19,2.22.52,3.33,1.11.22.13.44.25.67.37.06.03.12.06.17.09l.16.11c.11.07.22.15.33.22.23.14.42.32.62.52.1.09.19.19.28.3.08.11.16.23.23.35.09.11.18.21.27.31.09.11.17.22.25.33.17.23.35.45.48.7.14.25.3.49.4.77.05.13.11.27.15.41l.07.21c.02.07.03.14.04.22.08.13.14.26.2.4.06.14.12.28.15.42.07.29.14.59.17.89.02.3.03.61.04.91,0,.31-.02.61-.01.92,0,1.24-.25,2.47-.43,3.74-.04.32-.11.64-.19.95-.04.16-.09.31-.14.47-.06.15-.11.31-.17.46-.06.15-.11.31-.17.46-.06.16-.12.31-.18.46-.12.31-.23.62-.33.95-.17.29-.33.59-.48.89-.15.3-.3.61-.45.91-.15.31-.28.62-.42.94-.13.31-.26.62-.37.94-.74,1.14-1.12,2.49-1.59,3.8-.36.61-.58,1.29-.73,1.98-.15.69-.22,1.4-.23,2.09,0,.35-.02.68-.01,1.05,0,.37,0,.75-.01,1.13-.01.76-.03,1.53-.02,2.3-.08,1.55-.03,3.14-.21,4.74-.02,1.62-.19,3.27-.72,4.9-.16.83-.4,1.67-.75,2.5-.36.82-.81,1.65-1.55,2.37-.41.44-.97.81-1.61.98-.32.09-.65.12-.97.12-.16,0-.32-.02-.47-.04h-.06s-.07-.02-.07-.02l-.17-.03c-.12-.02-.23-.05-.34-.08-.14-.07-.29-.11-.41-.22-.12-.1-.21-.23-.29-.37-.15-.27-.26-.66-.29-.8-.1-.39-.16-.75-.23-1.11-.35-1.73-.23-3.49-.75-5.19-.27-1.73-.46-3.48-.83-5.21-.3-1.73-.65-3.49-1.31-5.1-.16-.86-.5-1.68-.98-2.33-.24-.32-.52-.6-.8-.77-.29-.17-.55-.22-.82-.19-.28.03-.52.13-.78.32-.25.19-.5.46-.73.78-.46.63-.83,1.41-1.15,2.21-.57,1.64-.97,3.37-1.32,5.1-.25,1.75-.7,3.46-.83,5.21-.06.87-.2,1.73-.35,2.59-.15.86-.29,1.72-.39,2.6-.03.22-.06.44-.1.67-.02.11-.04.23-.07.34l-.04.18-.02.09-.04.12c-.12.39-.3.77-.63.99-.18.08-.37.13-.56.2-.1.03-.2.04-.3.06l-.2.03c-.54.06-1.13,0-1.66-.21-.53-.2-.98-.54-1.33-.92-.37-.35-.65-.76-.88-1.17-.23-.41-.41-.83-.56-1.24-.31-.83-.55-1.65-.86-2.45-.44-1.63-.96-3.25-.71-4.9-.23-1.6-.02-3.2-.21-4.74.13-.78.13-1.54.1-2.3-.01-.38-.04-.76-.06-1.13-.02-.37-.05-.7-.08-1.05-.03-.69-.14-1.39-.3-2.08-.16-.68-.37-1.36-.67-1.99-.59-1.26-.96-2.6-1.59-3.8-.19-.28-.34-.58-.49-.88-.14-.31-.27-.63-.4-.95-.06-.16-.13-.32-.19-.47-.06-.16-.12-.32-.19-.47-.13-.31-.27-.62-.45-.91-.46-1.26-.94-2.49-1.18-3.75-.17-.29-.27-.6-.35-.91-.09-.31-.11-.63-.12-.95,0-.16-.01-.32-.01-.48,0-.16.01-.32.02-.47,0-.16.02-.31.02-.47,0-.15,0-.31.02-.46.02-.31.01-.61.01-.92.01-.31.03-.61.04-.91.03-.3.09-.6.15-.89.03-.15.09-.29.15-.42.06-.14.13-.27.2-.4,0-.08,0-.15.02-.23.01-.07.03-.15.05-.22.04-.14.08-.29.13-.42.09-.28.25-.53.4-.78.14-.25.34-.47.52-.69.09-.11.18-.22.28-.32.1-.1.2-.2.29-.29.1-.1.19-.2.28-.3.1-.09.2-.19.29-.28.09-.1.19-.19.28-.29.09-.1.2-.17.3-.26.1-.08.2-.17.3-.25l.15-.12c.05-.04.11-.07.17-.1.22-.13.45-.25.68-.35.2-.16.42-.28.64-.39.06-.03.11-.05.17-.08l.17-.06c.11-.04.23-.07.35-.1.12-.03.23-.06.34-.1.11-.03.23-.05.34-.07.23-.05.45-.11.66-.19.91-.07,1.72-.33,2.54-.34.2-.02.4-.04.6-.06.2-.01.39,0,.58,0,.19,0,.38.01.56.03.18,0,.36.04.54.07.18.02.35.03.52.04.09,0,.17.01.26.02.08.01.17.02.25.04.33.05.65.09.95.14,1.83.31,3.18.76,4.1,1.06.9.34,1.36.54,1.34.59Z"/>
        <path d="M61.38,38.7c-.05.09-.18.14-.36.14-.03,0-.06,0-.1,0-.04,0-.08.02-.11-.01.04-.14-.19.19-.12-.02,0-.07-.06-.04-.12-.02-.06.02-.03-.12-.13-.03-.17.21.07-.31-.14-.04-.08.04-.11,0-.15-.04.06-.21-.09-.05-.16-.05.08-.24-.03-.18-.16-.06.12-.32.04-.31-.17-.06-.06-.02-.04-.17-.17-.07-.07-.01-.15.01-.18-.07-.17.17-.22.12-.19-.08-.18.18-.19.06-.19-.08,0-.15-.23.12-.19-.09-.06-.05-.15-.02-.2-.09-.01-.13-.02-.26-.2-.1-.1.02-.2.05-.2-.1-.2.19-.21.05-.21-.11-.09,0-.06-.2-.21-.12-.05-.08-.2.02-.21-.12-.03-.11-.06-.21-.21-.12-.15.1-.1-.14-.2-.12.05-.25-.18,0-.2-.12-.08-.02-.06-.2-.19-.12-.09,0-.18,0-.19-.12-.25.29-.08-.16-.18-.12.02-.17-.14-.05-.17-.12-.1.03-.03-.22-.17-.12-.04-.06-.18.04-.16-.12-.15.13-.03-.2-.15-.12-.05-.03-.11-.05-.15-.12.09-.29-.08-.1-.14-.11-.03-.06-.18.09-.13-.11-.04-.05-.02-.19-.12-.11-.07.01.13-.42-.11-.11-.08.04.07-.31-.1-.1-.16.19-.06-.07-.09-.1-.03-.03-.06-.07-.08-.1-.23-.28-.33-.51-.25-.65.09-.15.38-.17.81-.08.04,0,.18-.15.13.03.04.02.16-.09.14.04.18-.21.11,0,.15.04.05.01.05.12.16.05.13-.11.06.12.16.06-.03.17.04.17.17.06-.03.17.12.03.17.07-.07.25.07.13.18.07.1-.05.09.1.18.08.03.08.15.01.19.08.12-.07.2-.07.19.09.1-.03.13.06.2.1.11-.05.12.08.2.1.09,0,0,.31.2.11.08,0,.11.11.21.11.05.07.1.14.21.11-.07.28.09.17.21.12.11-.03.16.05.21.12.08.02.14.07.2.12.11-.03.08.18.2.12.12-.06.07.19.19.12.1-.03.19-.03.19.12.06.04,0,.29.18.12.09,0,.31-.24.17.12.11-.05.03.23.17.12-.08.28.11.08.16.12.03.08.04.19.15.12.12-.08.07.12.15.12.13-.11,0,.24.14.11.03.06.11.04.13.11.24-.3.09.06.12.11.02.07.21-.17.11.11.19-.22.1.01.1.1,0,.09.14-.06.09.1.14-.15.01.14.08.1-.03.13.06.04.07.09.05-.02.07,0,.06.09.02.03.04.06.05.08.09.16.12.29.06.38Z"/>
        <path d="M47.64,38.72c-.05-.09-.03-.22.07-.38.02-.03.03-.06.05-.08.01-.04.03-.08.06-.09.1.1-.07-.26.07-.09.06.04.07-.03.08-.09.01-.06.12.03.09-.1-.1-.26.23.22.1-.1,0-.09.06-.09.11-.11.15.15.09-.05.12-.11.17.19.17.07.13-.11.22.27.25.19.14-.11.05-.04.17.04.15-.12.04-.05.07-.14.15-.12-.06-.23,0-.26.16-.12-.06-.25.04-.2.17-.12.13.08.01-.26.17-.12.07-.02.1-.12.18-.12.11.05.24.11.19-.12.04-.09.06-.2.19-.12-.06-.27.06-.2.2-.12.05-.08.21.04.2-.12.09,0,.08-.18.21-.12.11.03.22.05.21-.12-.01-.19.17-.02.21-.12.19.17.09-.15.21-.11.06-.06.2.05.2-.1.04-.08.08-.16.2-.1-.12-.36.18.01.2-.09.14.1.11-.09.19-.09.02-.1.21.08.19-.08.07,0,.06-.17.18-.08-.04-.2.19.07.18-.07.05-.03.1-.07.17-.07.2.22.13-.02.17-.06.07,0,.02-.2.16-.06.06,0,.17.08.16-.05.02-.06.3.32.15-.04,0-.09.23.21.14-.04-.08-.23.09-.02.13-.03.04,0,.08-.02.12-.02.36-.06.61-.03.69.11.09.15-.04.42-.33.74-.03.03.04.23-.09.1-.04.02,0,.18-.1.1.09.26-.06.09-.11.11-.04.04-.13-.01-.12.11.03.16-.14-.01-.13.11-.13-.12-.16-.05-.14.11-.13-.11-.09.09-.15.12-.18-.19-.15,0-.15.12-.01.11-.13.03-.16.12-.08,0-.09.12-.17.12,0,.14-.04.21-.17.12-.02.11-.12.09-.18.12-.01.12-.13.06-.19.12-.04.08-.26-.16-.19.12-.05.07-.16.04-.2.12-.09.01-.17.02-.21.12-.21-.2-.19-.01-.21.12-.03.11-.12.11-.21.12-.06.06-.13.09-.21.11-.03.11-.19-.02-.21.11,0,.14-.19-.03-.2.11-.03.11-.07.18-.2.1-.06.04-.25-.14-.2.1-.04.08.06.39-.19.09-.01.12-.21-.09-.19.09-.2-.21-.12.05-.18.08-.08-.02-.19-.06-.18.07.01.15-.14,0-.17.07.03.17-.21-.12-.17.06-.07,0-.09.08-.16.06.14.35-.09.05-.16.05-.07-.02.04.27-.15.04.1.27-.06.08-.14.04-.08-.05-.02.15-.13.03.06.2-.13-.06-.13.02-.1-.1-.07.03-.12.02,0,.06-.04.06-.11,0-.04,0-.07,0-.1,0-.19,0-.31-.04-.36-.14Z"/>
        <path d="M54.5,25.89c0,.15-2.18.07-6.02.89-.32.06-.65.16-.99.24-.34.09-.69.17-1.05.28-.36.11-.72.23-1.1.35-.37.14-.76.27-1.16.4-.21.03-.41.11-.61.2-.2.09-.39.2-.58.31-.39.21-.78.44-1.25.53-.22.08-.44.17-.65.27-.21.11-.43.22-.64.33-.21.12-.43.23-.64.36-.21.13-.42.27-.63.41-.43.26-.88.53-1.33.8-.46.27-.89.59-1.3.96-.09.11-.19.2-.3.29-.1.09-.21.18-.32.26-.22.16-.47.31-.71.46-.25.14-.48.32-.7.5-.22.19-.42.4-.59.66-.8.86-1.68,1.69-2.5,2.63-.12.1-.24.21-.35.32-.12.11-.22.22-.32.35-.2.24-.4.5-.58.76-.19.26-.35.54-.53.82-.17.28-.35.55-.52.84-.46.49-.86,1.03-1.18,1.64-.34.59-.58,1.24-.82,1.9-.23.27-.42.57-.61.88-.09.15-.18.31-.26.47-.08.16-.14.33-.21.49-.12.34-.24.68-.32,1.03-.07.36-.13.72-.17,1.09-.12.34-.22.7-.33,1.04-.11.35-.23.7-.31,1.06-.09.36-.18.72-.25,1.09-.06.37-.1.75-.14,1.12-.07.37-.1.75-.14,1.13-.04.38-.09.76-.11,1.15-.02.38-.05.77-.08,1.16-.02.39-.03.78-.06,1.17.04.39.1.79.14,1.18.04.39.05.79.09,1.18.03.4.05.8.06,1.2.03.4.04.81.04,1.22.48,1.57.74,3.18,1.11,4.82.1.41.23.81.38,1.2.16.39.34.78.52,1.16l.13.29.14.29c.1.19.19.38.28.58.17.39.36.78.51,1.18.78,1.54,1.76,2.99,2.8,4.42.98,1.47,2.12,2.9,3.61,3.96,1.37,1.18,2.87,2.23,4.35,3.33,1.7.77,3.28,1.71,4.98,2.54,1.76.66,3.54,1.38,5.46,1.6,1.88.4,3.82.44,5.76.55,1.94.08,3.9-.04,5.76-.55.92-.27,1.85-.47,2.77-.71.46-.1.91-.25,1.37-.39.22-.07.45-.14.67-.23.22-.09.44-.18.65-.27.23-.06.46-.12.68-.2.22-.08.44-.17.65-.27.21-.09.43-.19.64-.3l.61-.34.61-.35c.2-.12.39-.25.59-.37.2-.12.4-.24.6-.36.2-.12.39-.24.6-.36,1.54-1.01,3.11-2,4.35-3.33,1.3-1.26,2.47-2.62,3.61-3.96.37-.82.9-1.52,1.41-2.23.27-.35.51-.71.75-1.07.12-.18.24-.36.35-.55.1-.19.2-.38.29-.58.23-.36.45-.74.62-1.13.09-.19.18-.39.27-.59l.13-.29.11-.3c.14-.4.29-.8.43-1.2.13-.4.26-.8.4-1.2.21-.81.48-1.6.69-2.4.05-.2.11-.4.16-.6.04-.2.08-.4.12-.6.04-.2.07-.4.1-.61l.04-.3c0-.1.01-.2.01-.31.06-.4.11-.8.15-1.21.02-.4.04-.8.06-1.2.03-.4.02-.8.04-1.19.02-.4.05-.79.07-1.18-.06-.39-.08-.78-.09-1.17-.03-.39-.03-.78-.04-1.16,0-.39-.04-.77-.07-1.15-.04-.38-.08-.76-.19-1.13-.07-.37-.13-.74-.2-1.11-.08-.36-.17-.73-.25-1.09-.07-.36-.19-.71-.28-1.07-.1-.35-.18-.71-.29-1.05-.05-.37-.13-.72-.22-1.07-.11-.34-.25-.67-.39-1-.07-.16-.14-.33-.22-.48-.08-.16-.16-.31-.25-.47-.17-.31-.32-.62-.48-.93-.3-.62-.64-1.22-1.01-1.79-.34-.58-.71-1.14-.98-1.75-.72-1.1-1.39-2.22-2.31-3.08-.22-.23-.39-.48-.58-.73-.19-.25-.37-.49-.56-.74-.18-.25-.39-.47-.61-.67-.23-.2-.47-.37-.75-.5-.23-.18-.45-.38-.65-.58-.21-.2-.39-.43-.61-.61-.21-.2-.42-.39-.64-.56-.11-.09-.23-.17-.34-.24-.12-.07-.25-.13-.38-.18-.52-.22-.94-.54-1.37-.85-.21-.16-.42-.32-.62-.48-.21-.16-.42-.29-.64-.42-.22-.13-.43-.26-.65-.39-.21-.12-.44-.23-.65-.35-.21-.11-.43-.23-.64-.34-.21-.11-.43-.2-.64-.3-1.89-.9-3.66-1.51-5.24-1.95-.4-.1-.78-.2-1.14-.29-.37-.09-.72-.15-1.06-.23-.68-.15-1.3-.23-1.86-.32-1.12-.15-1.98-.25-2.57-.29-.58-.05-.89-.1-.89-.14,0-.04.37-.08,1.1-.1.18,0,.39-.02.61-.01.23,0,.47.02.74.03.27.01.56.02.87.04.31.03.64.06.99.09,1.4.16,3.12.43,5.07,1,1.95.57,4.14,1.43,6.42,2.71.23.13.47.24.7.37.24.13.47.26.71.39.48.26.94.59,1.35.99.11.08.23.16.35.24.12.08.23.17.35.25.23.17.47.34.71.51.24.17.46.37.69.56.23.2.45.4.65.63,1.07.64,1.83,1.68,2.65,2.68.87.97,1.59,2.09,2.46,3.16.44.54.81,1.13,1.12,1.76.34.62.63,1.27,1.01,1.89.12.34.24.69.38,1.03.07.17.14.34.21.51.07.17.14.34.21.51.14.34.29.68.45,1.02.14.35.29.69.45,1.04.09.37.16.74.27,1.11.1.37.22.73.32,1.11.1.37.21.75.31,1.13.09.38.16.77.23,1.16.02.4.02.8.06,1.2.03.4.1.79.13,1.19.04.4.1.8.16,1.21.04.41.08.81.12,1.23.04.41.04.83.03,1.24-.01.42-.01.83-.06,1.25-.04.42-.08.84-.11,1.26-.06.42-.11.84-.14,1.27-.29,1.68-.56,3.4-1.13,5.08-.41,1.72-1.07,3.41-2.03,4.96-.76,1.65-1.8,3.19-2.92,4.68-1.04,1.55-2.41,2.89-3.79,4.2-.69.66-1.46,1.24-2.25,1.79-.38.29-.79.55-1.18.84-.38.3-.78.58-1.15.9-1.63,1.08-3.43,1.91-5.25,2.7-1.86.71-3.8,1.24-5.77,1.7-2.03.11-4.02.47-6.08.59-2.06.08-4.1-.16-6.08-.59-1.99-.36-3.93-.94-5.77-1.7-1.89-.67-3.55-1.75-5.25-2.7-.43-.24-.84-.49-1.23-.78-.39-.29-.79-.57-1.15-.89-.75-.61-1.46-1.26-2.2-1.86-1.46-1.23-2.78-2.62-3.79-4.2-.56-.75-1.04-1.54-1.5-2.34-.24-.39-.45-.8-.69-1.19-.12-.19-.24-.39-.36-.58-.12-.2-.24-.39-.37-.58-.22-.4-.46-.79-.66-1.19-.11-.2-.21-.4-.32-.6l-.16-.3c-.05-.1-.09-.2-.14-.31-.18-.41-.36-.83-.49-1.25-.12-.43-.21-.87-.26-1.32-.3-.83-.5-1.69-.65-2.54-.04-.21-.08-.43-.12-.64-.04-.21-.07-.43-.1-.64-.04-.21-.08-.42-.12-.63l-.07-.31-.07-.31c.02-.43,0-.86-.04-1.28-.02-.42-.06-.84-.1-1.25-.06-.42-.07-.83-.11-1.25-.03-.41-.06-.83-.04-1.24.02-.41.05-.82.08-1.23.05-.41.09-.81.13-1.21.03-.4.1-.8.14-1.2.04-.4.07-.79.12-1.19.04-.4.09-.79.17-1.17.09-.38.19-.76.29-1.14.09-.38.23-.74.34-1.11.12-.36.21-.73.33-1.09.08-.37.2-.73.33-1.09.14-.35.31-.68.46-1.02.08-.17.16-.34.24-.5.08-.16.17-.33.25-.49.16-.33.29-.67.41-1.01.35-.64.66-1.28,1.02-1.89.34-.62.72-1.2,1.12-1.77.1-.34.28-.64.46-.93.19-.29.38-.56.62-.8.23-.25.46-.49.69-.73.11-.12.23-.24.35-.35.12-.12.23-.23.34-.35.87-.95,1.57-2.05,2.65-2.68.18-.25.38-.48.6-.69.22-.21.44-.41.69-.57.24-.17.49-.33.74-.48.12-.08.24-.16.37-.23.12-.07.25-.14.37-.22.49-.29.92-.65,1.37-.95.22-.16.45-.31.68-.45.23-.14.47-.25.72-.35.2-.17.42-.32.64-.45.23-.12.46-.22.69-.32.23-.09.47-.18.69-.28.23-.1.45-.18.66-.3.46-.14.88-.33,1.31-.5.21-.09.42-.18.62-.26.2-.09.41-.17.61-.23.4-.16.8-.3,1.19-.42.39-.11.78-.19,1.16-.26.37-.1.73-.17,1.08-.25.35-.07.69-.15,1.02-.2,1.97-.36,3.52-.39,4.55-.42,1.04.02,1.58.06,1.58.11Z"/>
        <path d="M95.29,57c-.05,0-.11-.32-.18-.93-.03-.31-.07-.69-.1-1.13-.06-.45-.12-.96-.19-1.54-.02-.19-.04-.39-.07-.6-.03-.21-.07-.42-.1-.64-.09-.44-.17-.91-.23-1.4.05-.52-.44-.97-.32-1.55-.01-.28-.08-.56-.16-.84-.08-.28-.17-.56-.26-.85-.17-.58-.23-1.22-.53-1.81-.42-.55-.11-1.37-.66-1.92-.28-.65-.55-1.31-.8-2.02-.03-.39-.19-.73-.38-1.07-.19-.34-.4-.67-.58-1.02-.06-.41-.22-.78-.42-1.13-.2-.35-.44-.69-.73-1-.06-.44-.21-.85-.43-1.21-.11-.19-.24-.35-.4-.51-.15-.16-.33-.31-.51-.45-.46-.73-.88-1.53-1.53-2.18-.27-.36-.58-.7-.87-1.06-.15-.18-.29-.36-.43-.54-.15-.18-.3-.36-.44-.55-.4-.28-.74-.6-1.06-.96-.33-.34-.62-.73-.89-1.15-.11-.07-.21-.14-.31-.21-.1-.07-.2-.14-.3-.22-.19-.15-.37-.32-.55-.49-.17-.17-.34-.36-.51-.54-.17-.18-.34-.37-.51-.55-.17-.19-.35-.36-.55-.52-.2-.16-.4-.31-.62-.44-.43-.28-.85-.56-1.2-.96-.83-.61-1.71-1.17-2.59-1.76-.21-.16-.42-.33-.63-.49-.22-.15-.44-.3-.67-.44-.46-.27-.93-.54-1.48-.67-.5-.22-.99-.44-1.49-.67-.5-.21-1-.45-1.48-.74-.56-.09-1.09-.25-1.6-.47-.13-.05-.25-.11-.38-.17-.13-.05-.26-.11-.39-.17-.26-.11-.51-.24-.77-.36-.27-.08-.53-.18-.8-.27-.27-.09-.54-.18-.81-.27-.27-.09-.54-.17-.82-.25-.28-.07-.56-.11-.85-.14-1.11-.32-2.27-.36-3.4-.65-.57-.11-1.14-.22-1.72-.31-.58-.06-1.15-.08-1.73-.05-.29.01-.57.03-.86.02-.28,0-.57-.02-.85-.05-.28-.02-.57-.06-.85-.06-.28,0-.56,0-.85.02-.28-.05-.57-.08-.85-.07-.28.01-.56.04-.84.08-.28.04-.56.07-.83.12-.28.04-.55.08-.83.08-.55.06-1.1.11-1.64.17-.55.05-1.08.15-1.6.31-.53.11-1.05.26-1.57.39-.26.07-.52.11-.78.18-.26.06-.52.11-.78.16-.23.16-.47.26-.72.35-.25.09-.5.15-.76.2-.26.05-.52.09-.77.15-.25.06-.5.14-.74.25-.26.05-.5.12-.75.21-.24.09-.47.19-.71.3-.23.11-.46.21-.69.32-.23.11-.45.22-.69.32-.22.12-.45.22-.68.31-.23.1-.46.19-.68.29-.46.19-.91.39-1.29.7-.87.44-1.61,1.06-2.48,1.44-.34.34-.75.56-1.16.78-.4.23-.8.46-1.13.78-.72.55-1.41,1.1-2.09,1.64-.21.08-.41.19-.58.32-.17.13-.33.28-.47.43s-.29.31-.43.47c-.07.08-.14.16-.21.23-.07.08-.14.16-.21.23-.3.28-.57.6-.84.9-.26.31-.53.6-.87.82-.28.28-.56.55-.83.83-.26.28-.52.56-.7.89-.21.31-.53.53-.8.77-.28.25-.5.53-.55.93-.36.6-1.04.96-1.19,1.65-.09.34-.25.61-.45.85-.2.25-.42.47-.58.73-.31.52-.61,1.01-.88,1.5-.61,1.09-1.11,2.08-1.53,2.96-.2.44-.39.85-.56,1.23-.16.38-.31.73-.44,1.04-.07.16-.13.3-.19.44-.06.14-.11.27-.15.39-.1.24-.18.44-.25.6-.14.32-.24.48-.28.47-.04-.01-.01-.24.08-.66.05-.21.11-.47.19-.78.07-.31.19-.66.32-1.06.5-1.59,1.38-3.88,2.88-6.6.15-.27.27-.57.42-.86.15-.29.3-.58.57-.81.38-.55.62-1.23,1.16-1.74.1-.37.3-.68.55-.96.25-.28.53-.54.78-.83.23-.31.51-.59.77-.88.26-.3.51-.61.76-.94.22-.35.51-.64.82-.93.31-.28.64-.55.9-.89.09-.06.18-.12.27-.19.09-.06.18-.13.26-.19.17-.13.33-.28.49-.43.16-.15.31-.31.46-.48.15-.16.3-.33.45-.5.78-.46,1.38-1.18,2.13-1.75.46-.17.85-.43,1.22-.73.38-.29.74-.61,1.12-.92.77-.6,1.69-1.01,2.54-1.54.45-.23.9-.47,1.35-.72.22-.12.45-.25.68-.36.23-.11.47-.22.71-.32.22-.13.45-.27.69-.39.24-.12.48-.23.72-.33.24-.1.49-.2.74-.29.26-.08.52-.15.78-.21.25-.11.5-.21.75-.31.25-.1.51-.17.77-.25.26-.08.52-.16.78-.24.26-.08.53-.14.79-.22.26-.1.52-.18.79-.26.27-.08.54-.13.81-.19.55-.11,1.1-.22,1.65-.33.55-.13,1.12-.18,1.69-.21.57-.04,1.13-.12,1.69-.31.29-.04.57-.07.86-.1.29-.03.58-.03.87-.05.58-.03,1.16-.06,1.75-.09.29,0,.59,0,.88,0,.29,0,.59.02.89.03.3,0,.59.02.89.02.3,0,.6,0,.89,0,.59.18,1.18.25,1.78.28.6.05,1.2.06,1.81.09,1.21.11,2.4.36,3.55.69.29.06.59.12.87.19.29.08.57.16.86.24.28.08.57.17.85.25.28.08.56.19.84.29.29.08.56.17.84.27l.41.15c.13.06.27.12.4.18.53.24,1.06.47,1.62.64.55.18,1.06.45,1.57.71.5.27.99.57,1.52.77.53.21,1.02.48,1.51.75.24.14.48.28.72.43.23.16.45.33.66.51.94.58,1.67,1.42,2.68,1.86.44.31.91.57,1.35.87.22.15.42.32.61.51.18.19.35.4.48.64.21.15.41.32.6.5.18.19.35.38.53.57.17.19.34.38.53.56.09.09.18.17.28.26.1.08.19.17.29.24.25.46.59.82.95,1.16.36.34.72.68,1.04,1.05.15.19.3.38.44.58.14.2.28.39.42.59.28.39.59.74.91,1.09.65.69,1.03,1.55,1.53,2.28.16.17.28.35.39.54.11.19.21.39.29.6.18.41.35.8.64,1.13.21.38.39.76.59,1.12.19.37.39.74.54,1.11.34.29.5.66.62,1.04.12.38.19.78.31,1.14.12.37.31.7.48,1.03.17.33.29.68.27,1.07.5.59.5,1.33.6,2,.1.67.49,1.23.46,1.88.17.28.21.58.23.88.02.3.03.59.11.86-.03.58.19,1.09.24,1.6.12.5.16.98.14,1.44.02.23.04.44.06.66.02.21.02.42.03.61.02.59.04,1.12.05,1.57-.01.45-.03.84-.05,1.15-.04.62-.08.94-.13.94Z"/>
        <path d="M13.7,57c.05,0,.11.32.18.93.03.31.07.68.1,1.13.05.44.12.96.19,1.54.02.19.04.39.07.6.03.21.07.42.1.64.09.44.17.91.23,1.4-.05.52.44.97.32,1.55.01.28.08.56.16.84.08.28.17.56.26.85.17.58.23,1.22.53,1.82.42.55.11,1.36.66,1.92.28.64.55,1.31.8,2.02.03.39.19.73.38,1.07.19.34.4.67.58,1.02.06.41.22.78.42,1.13.2.35.44.69.73,1,.06.44.2.85.43,1.21.11.19.24.35.4.51.15.16.32.31.51.44.46.73.88,1.53,1.53,2.18.27.36.58.7.87,1.06.15.18.29.36.43.54.15.18.3.36.44.55.4.28.74.6,1.06.95.33.34.62.73.89,1.15.11.06.21.14.31.21.1.07.2.14.3.22.19.15.37.32.55.49.18.17.34.36.51.54.17.18.34.37.51.56.17.19.36.36.55.51.2.16.4.31.62.44.43.28.85.56,1.2.96.83.61,1.71,1.17,2.59,1.76.21.16.42.33.63.49.22.15.44.3.67.44.46.27.94.54,1.48.67.5.22.99.44,1.49.67.5.21,1,.45,1.48.74.56.09,1.09.25,1.6.47.13.05.25.11.38.17.13.05.26.11.39.17.26.11.51.24.77.36.27.08.53.18.8.27.27.09.54.18.81.27.27.09.54.17.82.25.28.07.56.11.85.14,1.11.32,2.27.36,3.4.65.57.11,1.14.23,1.72.31.58.06,1.15.08,1.73.05.29-.01.57-.03.86-.02.29,0,.57.02.85.05.28.02.57.06.85.06.28,0,.57,0,.85-.02.28.05.57.08.85.07.28-.01.56-.04.84-.08.28-.04.56-.07.83-.12.28-.04.55-.08.83-.08.55-.06,1.1-.11,1.64-.17.55-.05,1.08-.15,1.6-.31.53-.11,1.05-.26,1.57-.39.26-.06.52-.11.78-.18.26-.06.52-.11.78-.16.23-.16.47-.26.72-.35.25-.09.5-.15.76-.2.26-.05.52-.09.77-.15.25-.06.5-.14.74-.25.26-.05.5-.12.75-.21.24-.09.47-.19.7-.3.23-.11.46-.21.69-.32.23-.11.45-.22.69-.31.22-.12.45-.22.68-.32.23-.1.46-.19.69-.29.45-.19.91-.39,1.29-.7.87-.44,1.61-1.06,2.48-1.44.34-.34.75-.56,1.16-.78.4-.23.8-.46,1.13-.78.72-.55,1.41-1.1,2.09-1.64.21-.08.4-.19.58-.32.17-.13.33-.28.47-.43.15-.15.29-.31.43-.47.07-.08.14-.16.21-.23.07-.08.14-.16.21-.23.31-.28.56-.6.84-.9.26-.31.53-.6.87-.82.28-.28.56-.55.83-.83.26-.28.52-.56.7-.89.21-.31.53-.53.8-.77.28-.25.5-.53.55-.93.36-.6,1.04-.96,1.19-1.65.09-.33.25-.61.45-.85.2-.25.42-.47.58-.73.31-.52.61-1.02.88-1.5.61-1.09,1.11-2.09,1.53-2.97.2-.44.39-.85.56-1.23.16-.38.31-.73.44-1.04.07-.15.13-.3.19-.44.06-.14.11-.27.15-.39.1-.24.18-.44.25-.6.14-.32.24-.48.28-.47.04.01.01.24-.08.66-.05.21-.11.47-.19.78-.08.31-.19.66-.32,1.06-.5,1.59-1.38,3.88-2.88,6.6-.15.27-.27.56-.42.86-.15.29-.3.58-.57.81-.38.55-.62,1.23-1.16,1.74-.1.37-.3.68-.55.96-.25.28-.53.54-.78.84-.23.31-.51.58-.77.88-.26.3-.52.61-.76.94-.22.35-.51.64-.82.93-.31.28-.64.55-.9.89-.09.06-.18.12-.26.19-.09.06-.18.13-.26.19-.17.13-.33.28-.49.43-.16.15-.31.31-.46.48-.15.16-.3.33-.45.5-.78.46-1.38,1.18-2.13,1.75-.45.17-.85.43-1.22.73-.38.29-.74.61-1.12.92-.77.6-1.69,1.01-2.54,1.54-.45.23-.9.47-1.35.71-.23.12-.45.25-.68.36-.23.11-.47.22-.71.32-.23.14-.45.27-.69.39-.24.12-.47.23-.72.33-.24.1-.49.2-.74.29-.25.08-.52.15-.78.21-.25.11-.49.21-.75.31-.25.09-.51.17-.77.25-.26.08-.52.16-.78.24-.26.08-.53.14-.8.21-.26.1-.52.18-.79.26-.27.08-.54.13-.81.19-.55.11-1.1.22-1.65.33-.55.13-1.12.17-1.69.21-.57.04-1.13.12-1.69.31-.29.04-.57.07-.86.1-.29.03-.58.03-.87.05-.58.03-1.16.06-1.75.09-.29,0-.59,0-.88,0-.3,0-.59-.02-.89-.03-.3,0-.59-.02-.89-.02-.3,0-.6,0-.9,0-.59-.18-1.18-.25-1.78-.28-.6-.05-1.2-.06-1.81-.08-1.21-.11-2.4-.36-3.55-.69-.29-.06-.59-.12-.87-.19-.29-.08-.57-.16-.86-.24-.28-.08-.57-.17-.85-.25-.28-.08-.56-.19-.84-.29-.29-.08-.56-.17-.84-.27l-.41-.15-.4-.18c-.53-.24-1.06-.46-1.62-.64-.55-.18-1.06-.45-1.57-.71-.5-.27-.99-.57-1.52-.77-.53-.21-1.02-.48-1.51-.75-.24-.14-.48-.28-.72-.43-.23-.16-.45-.33-.66-.51-.94-.58-1.67-1.42-2.68-1.86-.44-.31-.91-.57-1.35-.87-.22-.15-.43-.32-.61-.51-.18-.19-.35-.4-.48-.64-.21-.15-.41-.32-.6-.5-.18-.19-.35-.38-.52-.57-.17-.19-.35-.38-.53-.56-.09-.09-.19-.17-.28-.26-.09-.08-.19-.17-.29-.24-.25-.46-.59-.83-.95-1.16-.36-.34-.72-.68-1.04-1.05-.15-.19-.3-.38-.44-.58-.14-.2-.28-.4-.42-.59-.28-.39-.59-.75-.91-1.09-.65-.69-1.03-1.55-1.53-2.29-.16-.17-.28-.35-.39-.54-.11-.19-.21-.39-.29-.6-.18-.41-.35-.8-.64-1.13-.21-.38-.39-.75-.59-1.12-.19-.37-.39-.73-.54-1.11-.34-.29-.51-.66-.62-1.04-.12-.38-.19-.78-.31-1.14-.12-.37-.31-.7-.48-1.03-.17-.33-.29-.68-.27-1.07-.5-.59-.5-1.33-.6-2-.1-.67-.49-1.23-.46-1.88-.17-.28-.21-.58-.23-.88-.02-.3-.03-.59-.11-.87.03-.58-.19-1.09-.24-1.6-.12-.5-.16-.98-.14-1.44-.02-.23-.04-.45-.06-.66-.02-.21-.02-.42-.03-.61-.02-.59-.04-1.12-.05-1.57.01-.46.03-.84.05-1.15.03-.62.08-.94.13-.94Z"/>
        <path d="M15.45,45.23c-.05-.09-.02-.23.09-.38.02-.03.04-.05.06-.08.02-.04.03-.08.07-.09.09.11-.06-.26.08-.09.06.04.07-.03.09-.09.02-.06.12.04.1-.1-.08-.26.22.23.11-.1,0-.09.06-.09.12-.1.14.16.1-.05.13-.11.16.2.17.07.14-.11.21.28.24.2.15-.11.05-.04.17.05.16-.11.05-.05.08-.14.16-.11-.05-.23.02-.26.17-.12-.05-.25.06-.2.18-.12.13.09.03-.26.19-.12.07-.02.11-.12.19-.12.11.05.23.12.2-.12.04-.09.07-.2.21-.12-.05-.27.07-.2.21-.12.05-.08.21.05.22-.12.09,0,.09-.18.22-.12.11.03.22.06.22-.11,0-.19.18-.01.22-.11.19.18.11-.14.22-.1.06-.06.21.05.21-.1.05-.08.09-.15.21-.09-.11-.37.18.02.21-.09.14.11.12-.09.2-.08.03-.1.21.09.2-.08.08,0,.07-.17.19-.07-.03-.2.19.08.19-.07.06-.03.11-.07.18-.06.19.23.13-.01.17-.06.07,0,.03-.2.17-.05.06,0,.17.09.16-.05.03-.06.29.33.15-.04.01-.09.23.22.15-.03-.07-.24.09-.02.14-.03.05,0,.09-.01.13-.02.37-.05.62-.01.7.13.08.16-.07.42-.39.74-.03.03.02.24-.1.1-.04.02-.01.18-.11.1.08.27-.07.09-.12.1-.04.04-.13-.02-.13.11.02.17-.14-.02-.14.11-.13-.12-.16-.06-.15.11-.13-.12-.09.09-.16.11-.17-.2-.15,0-.16.11-.02.11-.14.03-.17.12-.08-.01-.09.12-.18.12,0,.14-.06.21-.19.12-.03.11-.12.08-.19.12-.02.12-.14.06-.2.12-.05.08-.26-.17-.21.12-.06.07-.16.03-.21.12-.09,0-.18.01-.21.12-.2-.21-.2-.02-.22.12-.04.11-.13.11-.22.11-.06.06-.14.09-.22.11-.03.11-.2-.03-.22.1-.02.14-.2-.04-.21.1-.03.11-.08.18-.21.09-.07.04-.25-.15-.21.09-.04.08.04.39-.2.09-.02.12-.21-.1-.2.08-.19-.22-.13.05-.19.07-.08-.02-.19-.07-.19.07,0,.15-.15,0-.18.06.02.17-.21-.13-.18.06-.07,0-.09.08-.17.05.12.36-.1.05-.16.04-.07-.02.02.27-.15.04.09.28-.07.08-.15.03-.08-.05-.03.15-.14.03.06.2-.13-.06-.13.02-.1-.1-.07.03-.12.01-.01.06-.05.06-.11,0h-.1c-.19,0-.32-.06-.36-.15Z"/>
        <path d="M15.46,45.22c-.1.04-.23-.02-.37-.14-.02-.02-.05-.04-.07-.07-.04-.02-.08-.04-.07-.08.12-.08-.27.02-.08-.09.05-.06-.02-.08-.08-.1-.06-.02.05-.11-.08-.11-.27.05.25-.19-.08-.12-.09-.02-.09-.08-.09-.13.18-.12-.04-.1-.09-.14.22-.14.09-.16-.09-.15.3-.17.23-.21-.09-.16-.03-.06.07-.16-.09-.17-.04-.05-.13-.09-.09-.18-.24.01-.25-.06-.09-.18-.26.02-.19-.08-.09-.19.11-.11-.25-.06-.09-.2,0-.07-.1-.12-.09-.21.07-.1.15-.22-.09-.21-.08-.05-.19-.1-.09-.22-.27.01-.19-.1-.09-.22-.07-.06.08-.2-.09-.23.01-.09-.16-.12-.09-.23.05-.1.09-.21-.08-.23-.19-.02.01-.18-.08-.23.2-.16-.13-.13-.07-.23-.05-.07.08-.2-.07-.23-.07-.06-.14-.12-.06-.22-.38.05.04-.18-.06-.22.13-.12-.07-.13-.06-.21-.09-.04.12-.19-.05-.21,0-.08-.16-.09-.05-.2-.2,0,.1-.18-.04-.2-.02-.06-.05-.12-.04-.19.26-.16,0-.13-.03-.18.01-.07-.2-.06-.03-.17,0-.06.11-.16-.02-.17-.06-.04.37-.24-.02-.16-.08-.02.25-.19-.01-.15-.24.04,0-.1,0-.14,0-.04,0-.09,0-.13,0-.38.07-.62.22-.67.16-.06.4.12.68.48.03.04.24,0,.08.11.02.04.18.04.09.12.27-.04.08.08.09.13.03.05-.04.13.09.14.17,0-.04.13.09.15-.14.11-.08.15.09.16-.13.11.08.11.09.17-.22.15-.03.15.09.18.11.03,0,.14.09.18-.02.08.11.11.09.19.14.03.2.08.09.2.1.04.06.14.09.21.12.04.04.15.09.21.07.06-.2.24.09.22.06.06.01.16.09.22,0,.09-.01.18.09.23-.23.17-.04.19.08.23.1.05.09.14.08.23.05.07.07.15.08.23.1.05-.06.19.07.23.14.04-.07.19.07.22.1.05.17.11.07.22.02.07-.19.23.06.22.08.05.39.02.06.21.11.04-.13.2.05.21-.24.16.03.14.05.2-.03.08-.09.18.04.2.15.02-.03.15.04.19.17,0-.16.19.03.18-.01.07.06.1.03.17.38-.07.04.11.02.17-.03.07.27.02.02.16.29-.05.07.08.01.15-.06.07.14.05,0,.14.21-.03-.08.12,0,.13-.11.08.02.07,0,.12.05.02.05.06,0,.11,0,.04,0,.07-.01.1-.03.19-.1.31-.2.34Z"/>
        <path d="M93.55,68.77c.05.09.02.23-.09.38-.02.03-.04.05-.06.08-.02.04-.03.08-.07.09-.1-.11.05.26-.08.09-.06-.04-.07.03-.09.09-.02.06-.12-.04-.1.1.08.26-.22-.22-.11.1-.01.09-.07.09-.12.1-.14-.16-.1.05-.13.11-.16-.2-.17-.07-.14.11-.21-.28-.24-.2-.15.11-.05.04-.17-.05-.16.11-.05.05-.08.14-.16.11.05.23-.02.26-.17.12.05.25-.06.2-.18.12-.13-.09-.03.26-.19.12-.07.02-.11.12-.19.12-.11-.06-.23-.12-.2.12-.04.09-.07.2-.2.12.05.27-.07.2-.21.12-.05.08-.21-.05-.22.12-.09,0-.09.18-.22.12-.11-.03-.22-.06-.22.11,0,.19-.18.01-.22.11-.19-.18-.11.15-.22.1-.06.06-.21-.05-.21.1-.05.08-.09.15-.21.09.11.37-.18-.02-.21.09-.14-.11-.12.09-.2.08-.03.1-.21-.09-.2.08-.08,0-.07.17-.19.07.03.2-.19-.08-.19.07-.06.03-.11.07-.18.06-.19-.23-.13.01-.17.06-.07,0-.03.2-.17.05-.06,0-.17-.09-.16.04-.03.06-.29-.33-.15.04-.01.08-.23-.22-.15.03.07.24-.09.02-.14.03-.04,0-.09.01-.13.02-.37.05-.62.01-.7-.13-.08-.16.07-.42.39-.74.03-.03-.02-.24.1-.1.04-.02.01-.18.11-.1-.08-.27.07-.09.12-.1.04-.04.13.02.13-.11-.02-.17.14.02.14-.11.13.12.16.06.15-.11.13.12.1-.09.16-.11.17.19.15,0,.16-.11.02-.11.14-.03.17-.12.08.01.1-.12.18-.12,0-.14.05-.21.18-.12.03-.11.13-.08.19-.12.02-.12.14-.06.2-.12.04-.08.26.17.2-.12.05-.07.16-.04.21-.12.09,0,.18-.01.21-.12.2.21.2.02.22-.12.04-.11.13-.11.22-.11.06-.06.14-.09.22-.11.03-.11.2.03.22-.1.02-.14.2.04.21-.1.03-.11.08-.18.21-.09.07-.04.25.15.21-.09.04-.08-.04-.39.2-.08.02-.12.21.1.2-.08.19.22.13-.05.19-.07.08.02.19.07.19-.07,0-.15.15,0,.18-.06-.02-.17.21.13.18-.06.07,0,.09-.08.17-.05-.12-.36.1-.05.16-.04.07.02-.02-.27.15-.04-.09-.28.07-.08.15-.03.08.05.03-.15.14-.03-.05-.2.13.06.13-.02.1.1.07-.03.12-.01.01-.06.05-.06.11,0,.04,0,.07,0,.1,0,.19,0,.32.06.36.15Z"/>
        <path d="M93.54,68.78c.1-.04.22.02.37.14.02.02.05.04.07.07.04.02.08.04.08.08-.12.08.27-.02.08.09-.05.06.02.08.08.1.06.02-.05.11.08.11.27-.05-.25.19.08.12.09.02.08.08.09.13-.18.12.04.1.09.14-.22.14-.09.15.09.15-.3.17-.23.21.09.16.03.06-.07.16.09.17.04.05.13.09.09.18.24-.01.25.05.09.19.26-.02.19.08.09.19-.11.11.25.06.09.2.01.07.1.12.09.21-.07.1-.15.21.09.21.08.05.19.1.09.22.27-.01.19.1.09.22.07.06-.08.2.09.23-.01.09.16.12.08.23-.05.1-.09.21.08.23.19.02-.01.18.08.23-.21.16.13.12.07.23.05.07-.08.2.07.23.07.06.14.11.06.22.38-.05-.04.18.06.22-.13.12.07.13.05.21.09.04-.12.19.05.21,0,.08.16.09.05.2.2,0-.1.18.04.2.02.06.05.12.04.19-.26.16,0,.13.03.18,0,.07.2.05.03.17,0,.06-.11.16.02.17.06.04-.37.24.02.16.08.02-.25.19.01.15.24-.04,0,.1,0,.14,0,.04,0,.09,0,.13,0,.38-.07.62-.22.67-.17.06-.4-.12-.68-.48-.03-.04-.24-.01-.08-.11-.01-.04-.18-.04-.08-.12-.27.05-.08-.08-.09-.13-.03-.04.04-.13-.09-.14-.17,0,.04-.13-.09-.15.14-.11.08-.16-.09-.16.13-.11-.07-.11-.09-.17.22-.14.03-.15-.09-.18-.11-.03,0-.14-.09-.19.02-.08-.11-.11-.09-.19-.14-.03-.2-.08-.09-.2-.1-.04-.06-.14-.09-.21-.12-.04-.04-.15-.09-.21-.08-.06.2-.24-.09-.22-.06-.06-.01-.17-.09-.22,0-.09.01-.18-.09-.23.23-.17.04-.19-.08-.23-.1-.05-.09-.14-.08-.24-.05-.07-.07-.15-.08-.23-.1-.05.06-.19-.07-.23-.14-.04.07-.19-.07-.23-.1-.05-.17-.1-.06-.22-.03-.07.19-.23-.06-.22-.07-.05-.39-.02-.06-.21-.11-.04.13-.2-.05-.21.24-.16-.03-.14-.05-.2.03-.08.09-.18-.04-.2-.15-.02.03-.15-.04-.19-.17,0,.16-.19-.03-.18.02-.07-.06-.1-.03-.17-.38.07-.04-.11-.02-.17.03-.07-.27-.02-.02-.16-.29.05-.07-.08-.01-.15.06-.07-.14-.05,0-.14-.2.03.08-.12,0-.13.11-.08-.02-.07,0-.12-.06-.02-.05-.06,0-.11,0-.04,0-.07.01-.1.03-.19.1-.31.2-.34Z"/>
      </g>
    </g>
  </g>
</svg>