<?xml version="1.0" encoding="UTF-8"?>
<svg xmlns="http://www.w3.org/2000/svg" version="1.1" viewBox="0 0 109 114">
  <!-- Generator: Adobe Illustrator 28.7.1, SVG Export Plug-In . SVG Version: 1.2.0 Build 142)  -->
  <g>
    <g id="Calque_1">
      <g>
        <g>
          <path d="M12.21,65.97"/>
          <path d="M12.22,65.96s.54-.09,1.59-.13c1.04-.04,2.59-.08,4.6-.12,1-.02,2.13-.04,3.36-.06.71,0,1.46-.02,2.23-.03.11,0,.23,0,.35,0h.17s.04,0,.04,0h.02s.02,0,.01,0l-.02.08c-.06.22-.11.45-.17.68-.06.22-.11.45-.17.68-.03.11-.06.23-.08.34-.02.09-.04.18-.06.27-.32,1.41-.62,2.92-.82,4.55-.2,1.62-.32,3.36-.18,5.17.06.72.2,1.45.38,2.17.18.72.39,1.44.6,2.18.29.71.7,1.38,1.17,2,.48.62,1.02,1.2,1.61,1.76.18.1.36.2.53.31.18.1.36.19.53.3.17.11.36.19.54.29l.27.15c.09.05.19.09.28.13l.28.13.14.07.15.06c.19.08.39.15.59.22.21.06.41.12.61.18.21.06.42.08.63.12.21.04.43.05.65.07l.33.03c.11.01.21,0,.32.01.43,0,.86-.02,1.28-.1.84-.15,1.65-.53,2.31-1.12.65-.6,1.26-1.28,1.81-2.05.56-.77,1.06-1.62,1.46-2.55.53-.86,1.01-1.79,1.45-2.73.45-.95.86-1.92,1.26-2.92l1.32.43h0c-.27,1.04-.46,2.11-.63,3.19-.17,1.08-.32,2.18-.5,3.27-.3,1.06-.46,2.16-.42,3.24.02.54.09,1.07.22,1.58.13.51.32.99.56,1.44.49.89,1.18,1.65,2.08,2.25.91.61,1.93,1.09,3.01,1.31,1.07.28,2.2.32,3.31.14,1.11-.19,2.18-.57,3.19-1.12,1.95-1.24,3.54-3.05,5.03-5.02.66-1.05,1.27-2.14,1.86-3.26.29-.56.58-1.13.85-1.71.14-.29.27-.58.4-.88.12-.3.25-.59.37-.89.22-.61.47-1.2.7-1.81.22-.61.45-1.23.68-1.84.24-.61.45-1.24.68-1.87.22-.63.44-1.25.65-1.89.21-.64.44-1.27.68-1.91l.09-.24.12-.26c.08-.17.15-.35.25-.51l.27-.48.29-.46c.09-.15.2-.3.3-.44.1-.14.2-.29.31-.43.21-.28.42-.57.63-.84.21-.28.42-.56.64-.84l.31-.42.04-.06.07-.09.15-.19c.1-.12.2-.26.3-.38.47,0,.94,0,1.42,0,.34,0,.69,0,1.03,0,.69,0,1.38,0,2.07.01,1.38,0,2.77.02,4.17,0,2.79.04,5.61.07,8.45,0,.85.08,1.7.12,2.55.14.43,0,.85,0,1.28,0,.68,0,1.35-.02,2.03-.02,0,.51.02,1.01.03,1.52h-1.54s-.14,0-.14,0h-.07s-.3,0-.3,0c-.43,0-.85,0-1.28,0-.85.01-1.7.04-2.55.08-2.84.17-5.66-.07-8.45,0-1.4-.12-2.79-.1-4.17-.06-.69.02-1.38.04-2.07.06-.34,0-.69.01-1.03.01h-.51s-.06,0-.06,0h-.01s-.02,0-.02,0h-.04s-.03.02-.03.02l-.06.07c-.11.12-.22.25-.33.38l-.32.38-.31.38c-.21.25-.4.52-.6.78-.1.13-.19.26-.28.4-.09.13-.19.26-.27.4l-.25.4-.22.41c-.08.14-.13.27-.19.41l-.09.21-.08.24c-.22.64-.42,1.27-.61,1.91-.21.64-.42,1.27-.62,1.91-.21.63-.41,1.27-.65,1.9-.23.63-.46,1.25-.7,1.88-.25.62-.53,1.23-.81,1.83-.08.33-.18.65-.29.96-.11.31-.24.62-.37.92-.27.6-.58,1.19-.91,1.76-.66,1.15-1.4,2.24-2.1,3.35-.8,1.05-1.6,2.08-2.51,3.04-.91.95-1.92,1.82-3.09,2.45-1.14.69-2.44,1.09-3.74,1.25-1.31.15-2.62.07-3.89-.15-1.26-.32-2.45-.82-3.52-1.5-.54-.34-1.06-.76-1.5-1.25-.44-.49-.8-1.05-1.06-1.65-.33-.56-.54-1.19-.66-1.81-.12-.62-.15-1.24-.14-1.85.03-1.21.23-2.36.35-3.49.18-1.12.38-2.2.58-3.28.2-1.08.4-2.14.61-3.19h0c.43.14.85.27,1.27.41-.6.9-1.07,1.85-1.5,2.8-.43.95-.82,1.91-1.27,2.84-.48.92-.94,1.85-1.51,2.72-.57.87-1.27,1.7-2.18,2.27-.84.64-1.85,1.06-2.86,1.23-.5.09-1.01.12-1.51.12-.12,0-.25,0-.37,0l-.36-.02c-.24-.01-.48-.02-.73-.05-.24-.04-.48-.07-.71-.13-.23-.07-.46-.13-.69-.21-.22-.09-.44-.18-.66-.27l-.16-.07-.16-.08-.31-.16c-.1-.05-.21-.1-.31-.16l-.3-.18c-.2-.12-.41-.22-.59-.34-.19-.12-.39-.23-.6-.34-.19-.12-.39-.23-.6-.34-.73-.55-1.28-1.27-1.75-2.01-.47-.74-.84-1.49-1.28-2.22-.43-.73-.66-1.54-.78-2.33-.12-.8-.15-1.58-.2-2.34-.05-.76-.04-1.5-.01-2.23.03-.72.09-1.43.17-2.11.18-1.54.46-2.97.76-4.31.08-.33.16-.66.23-.98.04-.16.08-.32.12-.48.03-.12.06-.24.1-.36.06-.21.12-.42.17-.62v-.04s.01,0,0,0h-.09s-.15,0-.15,0c-.1,0-.2,0-.3,0-2.32-.04-4.3-.08-5.9-.11l-5.04-.23Z"/>
        </g>
        <path d="M60.34,42.56c-.1.04-.23-.02-.39-.16-.03-.02-.05-.05-.08-.08-.04-.02-.08-.05-.08-.09.11-.09-.27.02-.09-.1.04-.07-.03-.09-.09-.12-.06-.03.05-.13-.09-.13-.27.05.24-.21-.1-.14-.09-.03-.09-.09-.1-.15.17-.13-.04-.12-.1-.16.21-.15.08-.17-.1-.17.29-.19.22-.23-.1-.18-.04-.06.06-.18-.11-.19-.05-.06-.14-.11-.11-.2-.24.01-.26-.06-.11-.21-.26.02-.2-.09-.11-.22.1-.13-.26-.08-.11-.23-.02-.08-.11-.14-.11-.23.06-.12.13-.24-.11-.24-.09-.06-.2-.12-.11-.25-.28.01-.2-.12-.11-.25-.07-.07.06-.23-.11-.26,0-.1-.18-.13-.11-.27.04-.12.07-.24-.1-.27-.19-.03,0-.2-.1-.26.19-.18-.14-.14-.09-.26-.06-.08.06-.22-.09-.26-.07-.07-.15-.13-.08-.25-.38.06.03-.2-.08-.25.12-.14-.08-.15-.08-.24-.1-.05.1-.22-.07-.23,0-.09-.17-.1-.06-.23-.2,0,.09-.2-.06-.22-.03-.07-.06-.13-.05-.21.25-.17,0-.15-.05-.21,0-.08-.21-.06-.04-.2,0-.07.1-.17-.04-.19-.06-.04.35-.27-.03-.18-.09-.03.24-.22-.03-.17-.25.04,0-.11-.02-.16,0-.05-.01-.1-.01-.15-.03-.43.02-.7.17-.76.16-.06.42.14.73.56.03.04.24.01.09.13.02.05.19.04.1.14.28-.05.09.09.1.15.03.05-.02.14.1.16.17,0-.02.15.1.17-.13.12-.06.17.11.18-.13.13.08.12.11.19-.21.16-.01.17.11.2.11.04.02.16.11.21-.02.09.12.13.11.22.14.03.21.09.11.23.11.05.08.15.11.24.13.04.05.17.11.24.08.06-.18.27.11.25.07.07.03.19.11.26,0,.1,0,.2.11.26-.22.19-.03.22.11.27.11.06.11.16.1.27.06.08.08.17.1.26.11.06-.04.21.09.26.14.04-.05.21.09.26.11.05.18.12.08.25.03.08-.17.25.08.25.08.06.4.02.08.24.12.04-.11.22.07.23-.23.18.04.15.06.23-.02.09-.08.2.06.22.15.02-.01.16.05.21.18,0-.14.21.05.21,0,.08.07.12.04.2.38-.08.05.12.04.19-.03.08.28.02.03.18.29-.05.08.09.03.17-.06.08.15.06.02.16.21-.03-.07.13.01.15-.11.09.03.08,0,.14.06.02.06.06,0,.12,0,.04,0,.08,0,.11-.02.21-.07.34-.17.38Z"/>
        <path d="M47.6,34.38c0-.11.09-.21.27-.32.03-.02.06-.03.1-.05.03-.03.07-.06.11-.05.05.14.07-.26.13-.05.05.06.09,0,.14-.05.05-.05.11.08.15-.05.04-.27.13.29.16-.05.05-.08.11-.06.17-.05.07.2.12,0,.19-.04.08.25.14.13.19-.04.09.34.15.28.21-.04.07-.01.15.11.21-.04.07-.03.14-.09.22-.04.06-.23.14-.23.23-.04.06-.25.15-.16.24-.04.09.13.15-.22.25-.03.09.01.17-.07.26-.03.09.1.19.2.26-.03.09-.07.17-.15.27-.03.07-.27.17-.16.27-.02.09-.05.19.13.28-.02.1.04.18-.13.28-.02.1.07.2.14.28-.01.08-.17.19.06.28-.01.11.24.18-.09.27,0,.09-.03.19.13.27,0,.08-.05.17-.1.26,0,.06-.38.18.09.26,0,.09.15.16-.03.25,0,.08-.08.17.16.24,0,.08.03.15-.13.23.01.07-.19.16.15.23.01.07,0,.15-.02.22.02.09.29.14.04.21.02.07.03.12-.17.2.02.06.02.14.15.19.02.06-.05.14.42.18.03.05-.07.13.3.17.03.04-.25.11.02.16.03.05.01.1.02.14.03.41.1.65.24.66.4.01.18-.27.36-.75.52-.05.02-.09.22-.15.05-.05,0-.1.16-.16.05-.04.28-.11.06-.17.05-.06.02-.13-.07-.19.05-.05.16-.13-.07-.19.04-.08-.17-.14-.12-.21.04-.08-.16-.14.04-.21.04-.09-.25-.15-.07-.22.04-.07.1-.16-.03-.23.04-.08-.04-.16.07-.24.04-.08.12-.16.17-.25.03-.08.09-.17.03-.25.03-.08.1-.18,0-.26.03-.08.06-.19-.26-.27.03-.09.04-.18-.03-.27.02-.09-.03-.19-.06-.28.02-.11-.27-.19-.09-.28.02-.09.08-.19.05-.28.02-.09.03-.19.02-.28.01-.09.09-.19-.11-.27,0-.08.12-.19-.11-.27,0-.08.09-.17.13-.26,0-.09,0-.19-.24-.26,0-.08.06-.15.38-.25,0-.08.1-.17-.17-.24,0-.1-.28-.16,0-.23,0-.08-.05-.16-.14-.23-.01-.07.14-.15-.06-.22-.02-.06.17-.15-.2-.21-.02-.07-.03-.13.03-.2-.02-.04.38-.13,0-.19-.02-.06-.05-.1.26-.18-.03-.04.29-.11.05-.17-.03-.06-.08-.1.13-.16-.03-.04.2-.1-.11-.14-.03-.05-.13-.09,0-.13-.04-.04.05-.08.03-.12-.04-.04-.01-.07-.03-.1-.04-.19-.08-.3-.18-.31-.28Z"/>
        <path d="M56.9,33.81s-.52-.27-1.45-.86c-.47-.29-1.05-.65-1.75-1.05-.7-.4-1.52-.84-2.46-1.28-.63-.3-1.32-.59-2.07-.87-.75-.26-1.56-.51-2.42-.74-.41-.18-.88-.22-1.35-.24-.47-.03-.94-.04-1.42-.18-.48-.06-.99-.08-1.49-.04-.51.04-1.02.12-1.54.24-.51.12-1.03.24-1.55.42-.51.18-1.02.41-1.47.76-.41.41-.89.68-1.37,1.03-.47.35-.93.77-1.15,1.36-.66,1.02-1.23,2.14-1.65,3.38-.3.59-.47,1.25-.57,1.92-.1.67-.13,1.37-.17,2.06-.19.69-.25,1.41-.24,2.13.02.73.12,1.46.25,2.19-.11.75-.11,1.52,0,2.28.05.38.14.76.24,1.13.11.38.23.77.37,1.15.23,1.59.26,3.23.46,4.92.04.84.04,1.7,0,2.57-.05.87-.15,1.76-.39,2.64-.05.45-.13.93-.25,1.35-.11.43-.23.84-.37,1.26-.27.83-.59,1.65-.94,2.46-.29,1.76-.87,3.45-1.41,5.18-.28.87-.41,1.77-.52,2.68-.11.91-.2,1.81-.38,2.72-.08.91-.1,1.83-.02,2.72.08.89.26,1.76.62,2.46.19.43.46.79.82,1.05.18.13.38.23.6.31.12.03.22.07.34.09l.16.03s.05,0,.07,0c.03,0,.06,0,.09-.01.03-.02.05-.04.06-.06,0-.01.02-.02.03-.04,0-.02,0-.01.04-.06.05-.07.09-.15.14-.23.18-.32.34-.67.49-1.04.43-.87.83-1.78,1.26-2.68.43-.91.87-1.81,1.38-2.7.65-1.94,1.68-3.75,2.81-5.51.49-.92,1.05-1.82,1.63-2.71.59-.89,1.2-1.77,1.82-2.67.7-.84,1.42-1.7,2.37-2.42.47-.36,1.01-.69,1.66-.89.32-.1.67-.16,1.03-.16.36,0,.72.06,1.06.18.34.12.67.29.95.51.28.22.51.48.71.75.38.55.6,1.12.77,1.69.32,1.13.44,2.23.55,3.32.12,1.09.06,2.17-.05,3.23-.11,1.06-.27,2.1-.37,3.14-.51,2.04-.54,4.12-.99,6.11-.17,1-.39,1.99-.59,2.97-.2.98-.39,1.96-.46,2.93-.04.39-.08.78-.1,1.14,0,.09,0,.18,0,.26,0,.06,0,.04,0,.05v.02s.02.05.05.06l.15.07c.1.06.21.08.31.13.21.06.41.12.62.13.41.03.84-.04,1.28-.22.62-.51,1.25-1.06,1.88-1.68.63-.63,1.23-1.33,1.67-2.13.55-.74.98-1.55,1.36-2.38.39-.83.73-1.67,1.11-2.5.64-1.69,1.5-3.29,1.93-5.01.3-.83.55-1.67.81-2.51.13-.42.26-.83.4-1.25.14-.41.33-.85.54-1.25.28-.87.76-1.63,1.26-2.34.51-.71,1.04-1.38,1.51-2.08,1.04-1.33,2.13-2.57,3.28-3.69.33-.24.64-.49.94-.75.29-.26.56-.53.81-.82.52-.57.97-1.17,1.45-1.74.49-.56.92-1.16,1.32-1.75.41-.59.8-1.18,1.25-1.72.37-.59.73-1.18,1.05-1.79.31-.61.56-1.23.71-1.87.18-.62.45-1.22.62-1.83.17-.61.25-1.25.05-1.86-.03-.6-.01-1.2-.08-1.78-.06-.58-.21-1.16-.54-1.63-.32-.47-.57-.95-.84-1.42-.26-.47-.54-.93-.89-1.32-.35-.39-.73-.74-1.12-1.07-.39-.32-.8-.61-1.21-.88-.93-.59-1.87-1.06-2.79-1.43-.92-.37-1.81-.65-2.65-.87-1.68-.44-3.16-.66-4.36-.79-2.4-.26-3.71-.27-3.71-.36,0-.04.4-.09,1.18-.12.78-.03,1.93-.04,3.43.09.75.06,1.58.16,2.49.32.91.16,1.9.38,2.94.7,1.04.33,2.15.75,3.26,1.35,1.11.6,2.23,1.38,3.23,2.42.39.42.81.84,1.17,1.34.36.49.67,1.04.82,1.66.24.58.46,1.19.61,1.83.15.64.22,1.31.16,1.99.14.67.08,1.37-.06,2.05-.14.68-.38,1.35-.61,2.01-.22.67-.5,1.33-.82,1.98-.32.65-.66,1.29-1,1.95-.31.68-.76,1.29-1.22,1.88-.47.6-.97,1.17-1.42,1.8-.57.53-1.11,1.09-1.65,1.66-.27.29-.54.57-.8.87-.26.29-.51.59-.76.89-1.21,1.01-2.14,2.33-3.13,3.6-.6.56-1.09,1.22-1.51,1.92-.42.71-.76,1.46-1.04,2.22-.14.38-.27.75-.4,1.16-.13.41-.27.82-.42,1.23-.28.83-.58,1.67-.85,2.52-.63,1.67-1.17,3.43-1.93,5.12-.62,1.75-1.4,3.51-2.54,5.1-.48.85-1.04,1.68-1.71,2.45-.68.76-1.47,1.5-2.51,2.01-.6.33-1.34.52-2.09.48-.37-.02-.74-.11-1.09-.22-.17-.07-.34-.13-.49-.21-.08-.04-.14-.07-.26-.14-.11-.07-.23-.14-.34-.21l-.2-.18c-.06-.06-.11-.14-.16-.22-.08-.16-.13-.33-.16-.52-.01-.09-.02-.18-.02-.28,0-.09,0-.2,0-.25,0-.12,0-.23.02-.34.03-.44.08-.85.14-1.27.12-1.01.37-1.99.58-2.97.22-.98.41-1.97.46-2.99.33-2,.75-3.99.96-6.02.15-1.01.28-2.03.36-3.05.08-1.02.11-2.04.04-3.05.11-1.01.03-2.04-.26-2.94-.14-.45-.35-.87-.61-1.17-.26-.31-.56-.49-.89-.56-.34-.08-.68-.06-1.05.06-.37.12-.75.34-1.12.61-.75.55-1.44,1.27-2.08,2.05-1.22,1.6-2.29,3.36-3.3,5.14-.91,1.83-2,3.56-2.78,5.43-.39.93-.85,1.83-1.32,2.72-.47.89-.93,1.78-1.36,2.71-.18.37-.37.75-.6,1.13-.06.09-.12.19-.19.29-.03.04-.09.13-.15.2-.06.08-.12.15-.19.21-.13.13-.28.25-.45.33-.08.04-.17.07-.26.08l-.28.02c-.14-.01-.28-.02-.41-.03l-.16-.02-.13-.02c-.18-.02-.35-.08-.53-.12-.35-.12-.7-.27-1.01-.48-.63-.42-1.1-1.03-1.38-1.65-.27-.51-.44-1.04-.54-1.57-.1-.52-.15-1.04-.18-1.55-.05-1.02,0-2-.05-2.98.12-1.94.18-3.89.98-5.62.34-1.84,1.1-3.52,1.48-5.27.4-.81.68-1.66.92-2.5.12-.42.24-.84.35-1.25.12-.42.2-.8.3-1.19.21-.78.34-1.59.41-2.41.07-.81.08-1.63,0-2.44-.09-.81-.12-1.6-.16-2.4-.05-.79-.1-1.58-.23-2.36-.09-.38-.16-.76-.21-1.15-.05-.39-.09-.79-.11-1.18-.06-.79-.09-1.57-.24-2.33-.07-1.54-.14-3.06.05-4.53-.12-.75-.02-1.49.17-2.2.19-.71.47-1.38.7-2.04.24-.66.44-1.33.72-1.97.28-.64.64-1.24,1.15-1.7.28-.63.73-1.15,1.24-1.57.51-.42,1.08-.75,1.64-1.04.56-.29,1.1-.58,1.66-.81.56-.23,1.14-.4,1.72-.43.55-.2,1.12-.24,1.67-.22.55.02,1.08.1,1.6.09,1.02.21,2,.27,2.9.53.91.19,1.74.48,2.48.85.76.31,1.45.64,2.08.97.95.49,1.75.99,2.43,1.43.69.44,1.24.85,1.68,1.18.88.68,1.31,1.07,1.28,1.11Z"/>
      </g>
    </g>
  </g>
</svg>