<?xml version="1.0" encoding="UTF-8"?>
<svg xmlns="http://www.w3.org/2000/svg" version="1.1" viewBox="0 0 109 114">
  <!-- Generator: Adobe Illustrator 28.7.1, SVG Export Plug-In . SVG Version: 1.2.0 Build 142)  -->
  <g>
    <g id="Calque_1">
      <g>
        <path d="M53.34,31.13s-.18,0-.51-.09c-.33-.09-.82-.21-1.46-.38-.32-.08-.68-.17-1.08-.27-.4-.09-.84-.2-1.31-.29-.95-.2-2.05-.41-3.31-.56-.83-.1-1.74-.18-2.7-.22-.96-.03-1.98,0-3.06.05-.54-.03-1.09.08-1.64.23-.55.13-1.1.29-1.7.33-.58.12-1.16.29-1.74.52-.57.23-1.14.51-1.69.84-.55.33-1.1.67-1.63,1.07-.53.4-1.02.87-1.42,1.43-.34.61-.79,1.12-1.19,1.71-.4.59-.75,1.25-.82,2.01-.39,1.42-.62,2.94-.63,4.53-.1.79-.05,1.61.09,2.42.14.81.35,1.63.56,2.45.07.85.28,1.7.56,2.53.29.83.67,1.64,1.08,2.44.19.89.49,1.76.91,2.59.2.42.44.82.69,1.21.26.4.53.8.81,1.2.86,1.73,1.54,3.59,2.36,5.44.35.95.68,1.93.95,2.94.26,1.01.48,2.06.55,3.14.1.53.18,1.1.2,1.62.03.53.04,1.05.04,1.58,0,1.05-.05,2.11-.13,3.17.28,2.13.27,4.28.33,6.47.02,1.1.2,2.19.4,3.28.21,1.09.44,2.17.59,3.27.25,1.08.57,2.14,1.01,3.14.43,1,.97,1.94,1.68,2.64.41.44.89.76,1.43.92.27.09.56.11.86.12.15,0,.3,0,.45-.04l.22-.03.12-.03c.08,0,.12-.08.14-.15l.03-.08s.03-.09.04-.14c.03-.1.05-.21.08-.31.09-.43.15-.89.18-1.36.17-1.16.3-2.35.45-3.55.15-1.2.32-2.4.55-3.61.07-2.46.55-4.91,1.15-7.36.21-1.24.51-2.47.84-3.71.33-1.23.7-2.47,1.08-3.72.48-1.22.98-2.46,1.78-3.62.4-.58.89-1.14,1.53-1.59.32-.22.68-.42,1.07-.54.39-.13.81-.19,1.22-.19.42,0,.84.08,1.22.22.39.14.74.34,1.05.57.62.46,1.08,1.03,1.48,1.6.78,1.15,1.32,2.36,1.84,3.57.52,1.2.86,2.46,1.14,3.7.28,1.25.5,2.5.76,3.72.23,2.51.91,4.91,1.16,7.36.18,1.21.3,2.42.45,3.62s.3,2.39.57,3.53c.09.46.19.91.3,1.33.03.1.06.21.09.3.03.09.08.22.07.2.01.03.03.06.07.05l.08.02.21.03c.15.03.29.03.43.04.28,0,.56-.01.82-.08.52-.12,1.02-.39,1.47-.79.57-.81,1.1-1.71,1.58-2.68.48-.97.89-2.02,1.1-3.11.33-1.06.52-2.16.66-3.26.14-1.1.22-2.2.33-3.29.12-2.18.45-4.34.33-6.47.03-1.07,0-2.12,0-3.18,0-.53-.02-1.05,0-1.58,0-.52.05-1.09.13-1.62,0-1.09.26-2.14.56-3.14.3-1,.66-1.97.94-2.94.68-1.91,1.47-3.73,2.36-5.44.28-.4.53-.81.77-1.23.23-.41.44-.82.63-1.25.38-.84.69-1.7,1.02-2.53.35-.83.62-1.67.87-2.5.25-.84.48-1.66.77-2.46.2-.82.39-1.64.52-2.45.12-.81.18-1.63.12-2.42-.02-.79.04-1.58,0-2.35-.05-.77-.2-1.53-.62-2.17-.26-.69-.48-1.38-.78-2.03-.3-.65-.69-1.25-1.24-1.69-.53-.44-1.01-.9-1.5-1.34-.49-.44-.99-.85-1.55-1.17-.56-.31-1.13-.58-1.7-.8-.57-.22-1.15-.4-1.72-.56-1.29-.33-2.55-.51-3.74-.58-1.2-.07-2.32-.06-3.37.01-2.1.14-3.87.45-5.29.75-2.85.61-4.34,1.12-4.37,1.02-.01-.04.43-.24,1.31-.56.88-.32,2.2-.75,3.96-1.16.88-.21,1.87-.41,2.97-.56,1.1-.15,2.31-.27,3.62-.29,1.31-.01,2.73.06,4.22.33,1.49.28,3.06.74,4.58,1.56.6.33,1.23.67,1.81,1.1.58.43,1.14.94,1.56,1.57.49.57.96,1.18,1.36,1.85.4.67.73,1.41.92,2.19.38.72.58,1.53.68,2.36.1.83.09,1.67.08,2.51,0,.85-.07,1.7-.19,2.56-.12.86-.27,1.72-.42,2.59-.12.88-.39,1.74-.69,2.6-.3.86-.66,1.7-.95,2.58-.44.82-.84,1.67-1.25,2.52-.2.43-.41.86-.6,1.29-.19.43-.38.86-.55,1.3-.49.81-.89,1.68-1.24,2.58-.35.9-.67,1.82-1,2.74-.45.88-.76,1.82-.98,2.79-.22.97-.35,1.96-.39,2.95-.02.49-.04.97-.03,1.49,0,.52,0,1.04,0,1.57-.01,1.06-.03,2.12-.02,3.2-.08,2.15-.06,4.35-.29,6.58-.08,2.24-.32,4.53-.99,6.78-.23,1.15-.56,2.3-1.04,3.42-.24.56-.52,1.12-.85,1.66-.34.54-.73,1.06-1.22,1.53-.56.59-1.32,1.07-2.17,1.29-.43.12-.86.14-1.29.14-.21-.02-.43-.02-.63-.06-.11-.02-.2-.03-.32-.06l-.44-.11c-.1-.04-.2-.08-.29-.13-.09-.06-.17-.13-.25-.2-.14-.16-.25-.35-.34-.55-.1-.23-.12-.33-.17-.47-.04-.13-.07-.26-.1-.38-.12-.5-.22-.98-.31-1.46-.24-1.2-.33-2.41-.46-3.61-.13-1.21-.28-2.41-.58-3.6-.37-2.41-.65-4.85-1.16-7.27-.21-1.21-.45-2.43-.75-3.63-.29-1.2-.64-2.39-1.1-3.53-.29-1.19-.76-2.35-1.45-3.3-.34-.47-.74-.88-1.17-1.16-.44-.28-.88-.39-1.33-.36-.46.03-.88.19-1.29.49-.4.29-.77.7-1.11,1.16-.66.93-1.18,2.04-1.63,3.17-.81,2.31-1.37,4.74-1.86,7.15-.38,2.44-.93,4.84-1.15,7.27-.11,1.22-.29,2.42-.49,3.62-.19,1.2-.39,2.39-.54,3.61-.07.49-.15.97-.27,1.48-.03.13-.06.26-.1.39-.02.07-.04.13-.06.2l-.04.12c-.02.05-.04.1-.06.16-.09.21-.2.41-.35.57-.08.08-.16.15-.25.21-.09.06-.2.09-.3.13l-.44.11s-.06.01-.09.02h-.08s-.16.04-.16.04c-.21.04-.42.05-.64.06-.43,0-.88-.03-1.3-.15-.86-.23-1.61-.73-2.16-1.32-.49-.47-.87-1-1.19-1.55-.31-.55-.56-1.12-.78-1.68-.44-1.13-.76-2.26-1.15-3.38-.58-2.26-1.18-4.51-.99-6.78-.29-2.23-.09-4.43-.3-6.58.12-1.08.12-2.15.09-3.2-.02-.53-.04-1.05-.06-1.57-.02-.52-.06-1-.1-1.49-.06-.98-.22-1.97-.45-2.93-.23-.96-.53-1.91-.92-2.81-.39-.9-.73-1.8-1.09-2.7-.36-.89-.72-1.78-1.16-2.62-.24-.41-.46-.82-.67-1.24-.2-.43-.41-.86-.59-1.3-.37-.87-.7-1.75-1.14-2.57-.33-.87-.66-1.72-.94-2.59-.28-.86-.53-1.73-.7-2.6-.38-.82-.55-1.7-.61-2.57-.06-.87-.01-1.74,0-2.58.02-.85,0-1.68.1-2.51.09-.83.27-1.64.65-2.36.11-.81.43-1.56.84-2.24.41-.67.92-1.26,1.44-1.81.52-.54,1.03-1.07,1.59-1.54.55-.47,1.14-.87,1.78-1.13.56-.42,1.19-.67,1.82-.87.63-.19,1.26-.31,1.85-.5,1.23-.17,2.38-.45,3.5-.49,1.11-.12,2.17-.09,3.15.03.98.07,1.9.19,2.75.32,1.27.21,2.38.46,3.32.71.48.12.91.25,1.31.37.4.12.75.24,1.07.34.63.22,1.11.39,1.42.53.31.13.47.21.46.24Z"/>
        <path d="M41.96,38.83c.1.03.04.57-.16,1.54-.03.16-.07.33-.11.52-.03.19-.06.39-.13.59-.2.16.12.49-.16.65-.13.21-.15.46-.18.72-.03.26-.24.47-.2.78.09.17-.02.28-.13.4-.11.13-.19.21-.11.52-.03.19-.07.38-.13.57-.14.05-.28.09-.42.13-.14.04-.28.07-.42.11-.36-.1-.61.19-.92.32-.39-.14-.69.06-.98.33-.11-.06-.21-.09-.31-.1-.07-.02-.12-.02-.17,0-.1.04-.14.15-.02.28-.05.02-.14.02-.23.03-.08.01-.16.04-.05.09-.03.02-.03.04-.04.06-.02.02-.05.03-.2.04.06,0,.12,0,.17,0,.63.02.46,0,.13.08.33-.03.4-.05.41-.03,0,.01-.07.05-.09.11-.03.06.09.04.15.01l.04-.02h0s.03,0,.04,0c.03,0,.05.01.08.02.11.03.2.07.3.15.42.14.86.21,1.28.38.16.09.31.18.48.25.27.11.56.2.88.26.07.15.15.3.25.45l.12.3.03.07.02.04.04.08c.05.11.09.22.13.33.08.22.14.45.14.69.19.19.3.4.36.63.03.12.05.24.06.36,0,.03,0,.07,0,.08,0,0-.01,0-.02.02-.01.01-.03.03-.04.05.03.02,0,.08,0,.15,0,.07.02.16.06.05,0,.08.03.06.04.03.01-.02.02-.05.03.17h0c.01.1.03.16.05.13.02-.03.04-.15.01-.34-.03-.2-.02-.16,0-.15.03.02.07,0,.06-.05.03,0,.05,0,.07,0,0,0,.02,0,.02-.01,0-.01.02-.05.03-.08.04-.11.06-.23.08-.35.03-.24.04-.48.16-.7.06-.23.16-.44.25-.66.04-.11.09-.22.12-.33l.02-.09.03-.12c.02-.1.04-.21.06-.32.05-.19.09-.37.14-.56.3-.11.63-.22.94-.31.17-.05.34-.08.53-.09.32-.49.89-.17,1.28-.38.12,0,.23,0,.33-.04l.08-.02h.04s0-.02,0-.02c.01,0,.03-.01.04-.02.05-.04.05-.08.12-.07,0-.04.09-.02.2-.02.11,0,.24-.01.11-.05.08,0,.06-.03.05-.04,0-.02-.02-.02.17-.04.03,0,.06,0,.09,0-.35-.01-.24-.02-.17-.04.08-.02.13-.06-.07-.06-.11-.03-.22-.06-.28-.12.1-.12,0-.17-.09-.17-.05,0-.08.01-.14.02-.09,0-.18-.02-.27-.04-.33-.13-.72-.05-.98-.34-.31-.12-.59-.34-.92-.32-.01,0-.02,0-.04,0l-.05-.02s-.07-.03-.1-.04c-.07-.03-.13-.07-.18-.11-.11-.08-.21-.16-.31-.22-.03-.19-.08-.31-.28-.41-.03-.05-.04-.11-.06-.16,0-.03-.01-.06-.02-.08,0-.02,0-.04,0-.06,0-.08,0-.15.01-.23,0-.15,0-.3-.18-.39-.31-.19-.13-.53-.2-.78-.06-.25-.12-.49-.18-.72-.5-2.05-.71-3.26-.56-3.3.17-.05.76,1.33,1.65,3.74.09.24.36.43.27.75.04.13.12.26.18.39.03.06.06.13.08.2,0,.02,0,.04.01.05,0,0,0,.02,0,.02,0,.02,0,.03-.02.06.11,0,.15,0,.15.04.02,0,.03.04.05.07,0,.01.02.03.03.04,0,0,.01.01.02.02,0,0,0,0,.01,0h.03c.31.09.59.27.94.27.37-.05.63.27,1,.27.07.07.15.12.23.16.11.05.26.1.39.14.28.07.58.12.97.15.21.15.49.23.84.31.34.07.75.15,1.07.25.05.15.27.23.64.32.37.09.89.17,1.4.28.09.02.18.04.26.06-.23.1-.59.19-.94.29-.35.09-.69.19-.94.29-.41.1-.72.21-1.06.33-.33.12-.68.25-1.08.34-.3.16-.67.31-1.07.44-.1.03-.2.06-.3.09l-.08.02h-.04s-.08.02-.08.02c-.11.02-.22.03-.34.03-.4.21-.84.28-1.27.41-.16.09-.32.15-.5.19-.03,0-.03,0-.05,0-.01,0-.03,0-.04,0,0,0-.01.02-.01.04,0,.01,0,.02,0,.02h0s-.02.04-.02.04l-.04.08c-.05.1-.11.21-.16.31-.11.21-.19.43-.12.7-.05.23-.13.46-.21.68-.04.11-.08.23-.11.34l-.07.26c-.03.11-.06.22-.09.33-.15.42-.29.83-.43,1.25-.13.42-.26.86-.37,1.37-.19.17-.32.47-.44.94-.12.46-.24,1.09-.38,1.72h0c-.14-.31-.28-.75-.42-1.22-.14-.47-.27-.97-.4-1.45-.28-.83-.55-1.75-.8-2.62-.04-.1-.08-.21-.12-.32l-.05-.16-.03-.09c-.03-.12-.05-.23-.08-.35-.05-.24-.09-.47-.22-.68-.13-.21-.16-.44-.2-.67-.02-.12-.04-.23-.07-.35l-.02-.08v-.04s-.02,0-.02,0c0,0-.02-.01-.03-.01-.02,0-.04,0-.05,0h-.04s0,.02-.01.02h0s0,0,0,0c0,0,0,0-.01,0-.17-.06-.33-.13-.48-.24-.43-.13-.78-.5-1.27-.41-.11-.02-.22-.02-.34-.03h-.09s-.02,0-.04,0h-.08c-.11-.03-.21-.05-.32-.08-.42-.09-.87-.25-1.03-.5-.43-.08-.75-.23-1.04-.36-.3-.13-.56-.24-1.1-.32-.02-.14-.25-.22-.6-.31-.35-.09-.83-.17-1.19-.27.05-.02.11-.04.18-.06.43-.1.86-.2,1.22-.29.36-.09.64-.19.83-.31.18-.12.56-.22.92-.3.37-.08.72-.15.99-.25.22-.15.6-.21.91-.26.08-.01.16-.02.23-.04l.11-.02.1-.02c.09-.02.17-.06.24-.12.35-.07.66-.23,1-.27.21-.46.63-.19.95-.25h.05s.02-.01.03-.02c.02-.01.03-.02.04-.04.02-.03.03-.06.05-.08,0-.05.02-.06.14-.05-.02-.03-.05-.05-.06-.08,0,0-.01-.02-.02-.03,0-.02,0-.04,0-.06,0-.08.03-.14.07-.21.08-.13.2-.24.27-.36.16-.24.05-.56.27-.75-.12-.3.25-.45.26-.69.2-.19.14-.44.24-.63.02-.21.09-.4.22-.56.07-.18.14-.34.2-.49.38-.91.63-1.4.73-1.37Z"/>
        <path d="M88.39,24.38c.1.03.04.58-.16,1.54-.03.16-.07.33-.11.52-.03.19-.06.39-.13.59-.2.16.12.49-.16.65-.13.21-.15.46-.18.72-.03.26-.24.48-.2.78.09.17-.02.28-.13.4-.11.12-.2.21-.11.52-.03.19-.07.38-.12.57-.14.05-.28.09-.42.13-.14.04-.28.07-.42.11-.36-.1-.61.19-.92.32-.39-.14-.69.06-.98.33-.11-.06-.21-.09-.31-.1-.07-.02-.12-.02-.17,0-.1.04-.14.15-.03.28-.05.02-.14.02-.23.03-.08.01-.16.04-.05.09-.03.02-.03.04-.04.06-.02.02-.05.03-.2.04.06,0,.11,0,.17,0,.64.02.46,0,.14.08.33-.03.4-.04.4-.03,0,0-.07.05-.09.11-.03.06.09.04.15.01l.04-.02s0,0,.01,0h.04s.05.02.08.03c.11.03.21.08.3.16.42.14.86.21,1.28.38.16.09.31.18.48.25.27.11.56.2.88.26.07.15.15.3.25.46l.11.3.03.08.02.04.04.08c.05.11.09.21.13.33.08.22.14.45.14.69.19.19.3.4.36.64.03.12.04.24.05.36v.05s0,.03,0,.03c0,0-.01,0-.02.02-.01.01-.03.03-.04.05.03.02,0,.07,0,.15,0,.07.01.16.06.05,0,.08.03.06.04.03.01-.02.02-.05.03.17h0c0,.1.03.17.05.14.02-.03.04-.15.01-.34-.03-.19-.02-.16,0-.15.03.02.08,0,.06-.05.03,0,.05,0,.07,0,0,0,.02,0,.02-.01,0,0,0-.02.02-.03l.02-.04c.04-.11.06-.23.08-.35.03-.24.05-.48.16-.7.06-.23.16-.44.25-.66.04-.11.09-.22.12-.33l.02-.08.03-.12c.02-.1.04-.21.06-.32.05-.19.09-.38.14-.56.3-.11.63-.22.94-.31.17-.05.34-.08.53-.09.32-.49.89-.17,1.28-.38.12,0,.23,0,.33-.04l.08-.02h.04s0-.02,0-.02c.01,0,.03-.02.04-.02.04-.04.05-.07.12-.07,0-.04.09-.02.2-.02.11,0,.24-.01.11-.05.08,0,.07-.03.05-.04,0-.01-.02-.02.17-.03.03,0,.06,0,.09,0-.35-.01-.24-.02-.17-.04.08-.02.13-.06-.07-.06-.11-.04-.22-.06-.28-.12.1-.12,0-.17-.09-.17-.02,0-.05,0-.07,0h-.03s-.01.01-.04.01c-.09,0-.18-.01-.27-.04-.33-.13-.71-.04-.98-.33-.31-.12-.59-.34-.92-.32-.01,0-.02,0-.04,0l-.05-.02s-.07-.03-.1-.04c-.07-.03-.13-.07-.18-.11-.11-.08-.21-.16-.31-.22-.03-.19-.08-.31-.28-.41-.03-.05-.04-.11-.06-.16,0-.03-.01-.06-.02-.08,0-.02,0-.04,0-.06,0-.07,0-.15.01-.23,0-.15,0-.29-.18-.39-.31-.19-.13-.53-.2-.78-.06-.25-.12-.49-.18-.72-.5-2.05-.71-3.25-.56-3.3.17-.05.76,1.33,1.65,3.74.09.24.36.44.27.75.04.13.12.26.19.39.03.06.06.13.08.2,0,.02,0,.04.01.05,0,0,0,.02,0,.02,0,.02,0,.04-.02.06.11,0,.15,0,.15.04.02.01.03.04.05.07,0,.01.02.03.03.04,0,0,.01.01.02.02,0,0,0,0,.01,0h.03c.31.09.59.27.94.27.37-.05.63.27,1,.27.07.07.15.12.23.16.01,0,.06.03.09.04l.1.04c.07.02.13.04.2.06.28.07.58.12.97.15.21.15.49.23.84.31.34.08.75.15,1.07.25.05.15.27.23.64.32.37.09.89.18,1.4.28.09.02.18.04.26.06-.23.1-.59.19-.94.29-.35.09-.69.19-.94.29-.41.1-.72.21-1.06.33-.33.12-.68.25-1.08.34-.3.16-.67.31-1.07.44-.1.03-.2.06-.3.09l-.07.02h-.04s-.08.02-.08.02c-.11.02-.22.03-.34.03-.4.21-.84.28-1.27.41-.16.09-.32.15-.49.19-.04,0-.06,0-.09,0,0,.01-.01.03-.01.04,0,.01,0,.02,0,.02h0s-.02.04-.02.04l-.04.08c-.05.11-.11.21-.16.32-.11.21-.18.43-.12.7-.05.23-.13.45-.21.68-.04.11-.08.23-.11.34l-.08.26c-.03.11-.06.22-.09.33-.15.42-.29.83-.43,1.25-.13.42-.26.86-.38,1.37-.19.17-.32.47-.44.94-.12.46-.24,1.09-.38,1.73h0c-.14-.31-.28-.75-.42-1.22-.14-.47-.27-.97-.4-1.45-.28-.83-.55-1.76-.8-2.63-.04-.1-.08-.21-.12-.32l-.05-.16-.03-.1c-.03-.12-.05-.23-.08-.35-.04-.24-.09-.47-.22-.68-.12-.21-.16-.44-.2-.67-.02-.12-.04-.23-.07-.35l-.03-.08v-.04s-.02,0-.02,0c0,0-.02-.01-.03-.01-.02,0-.04,0-.05,0-.04.01-.04.02-.06,0-.17-.06-.33-.13-.48-.24-.43-.13-.79-.5-1.28-.41-.11-.02-.22-.02-.34-.03h-.08s-.04,0-.04,0h-.08c-.11-.03-.21-.05-.32-.07-.42-.09-.87-.25-1.03-.5-.43-.08-.75-.23-1.04-.36-.3-.13-.56-.24-1.1-.32-.02-.14-.25-.23-.61-.31-.35-.09-.83-.17-1.19-.27.05-.02.11-.04.18-.06.43-.1.86-.2,1.22-.29.36-.09.64-.19.82-.31.18-.13.56-.22.92-.3.37-.08.72-.15.99-.26.22-.15.6-.21.91-.26.08-.01.16-.02.23-.03l.11-.02.1-.02c.09-.02.17-.06.24-.12.35-.07.66-.23,1-.27.21-.46.63-.19.94-.26h.05s.02-.01.03-.02c.02,0,.03-.02.04-.04.02-.03.03-.06.05-.08,0-.05.02-.05.14-.05-.02-.03-.04-.05-.06-.07,0,0-.01-.02-.02-.03,0-.02,0-.04,0-.06,0-.07.03-.14.07-.21.08-.13.19-.24.27-.36.16-.24.04-.56.27-.75-.12-.3.25-.45.26-.69.2-.19.14-.44.24-.63.02-.22.09-.4.22-.56.07-.18.14-.34.2-.49.38-.91.63-1.4.73-1.37Z"/>
        <path d="M20.01,20.16c.1.03.04.57-.16,1.54-.04.16-.07.33-.11.52-.03.19-.06.39-.13.59-.2.16.12.49-.16.65-.13.21-.15.46-.18.72-.03.26-.24.48-.2.78.09.17-.02.29-.13.4-.05.06-.1.12-.13.19,0,.02,0,.04-.01.05,0,.03,0,.05,0,.08,0,.06.01.12.03.2-.03.19-.07.38-.12.57-.14.05-.28.09-.43.13-.14.04-.28.07-.42.11-.36-.1-.61.19-.92.32-.39-.14-.69.06-.98.33-.11-.06-.21-.09-.31-.1-.07-.02-.12-.02-.17,0-.1.04-.14.15-.02.28-.05.02-.14.02-.23.03-.08.01-.16.04-.05.09-.03.02-.03.04-.04.06-.02.02-.05.03-.2.04.06,0,.11,0,.17,0,.65.02.47,0,.14.08.33-.03.4-.04.4-.03,0,0-.07.05-.09.11-.03.06.09.04.15.01l.04-.02s0,0,.01,0h.04s.05.02.08.03c.11.03.21.07.3.16.42.14.86.21,1.28.38.16.09.31.18.47.25.27.11.56.2.88.26.07.15.15.31.25.46l.12.3.03.07.02.04.04.08c.05.11.09.21.13.33.08.22.14.45.14.69.19.19.3.4.36.64.03.12.05.24.06.36v.04s0,.02,0,.02h0s-.01.01-.02.02c-.01.01-.03.03-.04.05.03.02,0,.07,0,.15,0,.07.02.16.06.05,0,.08.02.06.04.03.01-.02.02-.05.02.17h0c.01.11.03.17.05.14.02-.03.04-.15.01-.33-.03-.19-.02-.16,0-.15.03.02.08,0,.06-.05.03,0,.05,0,.07,0,0,0,.02,0,.02-.01,0-.01.02-.05.03-.08.04-.11.06-.23.08-.35.03-.24.04-.48.16-.7.06-.23.16-.44.25-.66.05-.11.09-.22.12-.33l.02-.08.03-.13c.02-.1.04-.21.06-.32.05-.18.09-.37.14-.55.16-.05.31-.11.47-.16l.24-.08.23-.07c.17-.05.35-.08.53-.1.32-.49.89-.17,1.28-.38.12,0,.23,0,.33-.04l.08-.02h.04s0-.02,0-.02c.01,0,.03-.01.04-.02.05-.04.05-.08.12-.07,0-.04.09-.02.2-.02.11,0,.24-.01.11-.05.08,0,.07-.03.05-.04,0-.02-.02-.02.16-.03.03,0,.06,0,.09,0-.35-.01-.24-.02-.17-.05.08-.02.13-.06-.07-.05-.11-.04-.22-.06-.28-.12.1-.12,0-.17-.09-.17-.05,0-.08.01-.14.02-.09,0-.18-.01-.27-.04-.33-.13-.71-.04-.98-.33-.31-.12-.59-.34-.93-.32-.01,0-.02,0-.04,0l-.05-.02s-.07-.03-.1-.04c-.07-.03-.13-.07-.19-.11-.11-.08-.21-.16-.31-.22-.02-.19-.08-.31-.28-.41-.03-.05-.04-.11-.06-.16,0-.03-.01-.06-.02-.08,0-.02,0-.04,0-.06,0-.08,0-.15.01-.23,0-.15,0-.3-.18-.39-.31-.19-.13-.53-.2-.78-.06-.25-.12-.49-.18-.72-.5-2.06-.71-3.26-.56-3.3.17-.05.76,1.33,1.65,3.74.09.24.36.44.27.75.04.13.12.26.19.39.03.06.06.13.08.2,0,.02,0,.04.01.05,0,0,0,.02,0,.02,0,.02,0,.04-.02.06.11,0,.14,0,.15.04.02,0,.03.04.05.07,0,.02.02.03.03.04,0,0,.01.01.02.02,0,0,0,0,.01,0h.03c.31.09.59.27.95.27.37-.05.63.28,1,.27.07.07.15.12.23.16.11.05.26.1.39.14.28.07.58.12.97.15.21.15.5.23.84.31.34.07.75.15,1.07.25.05.15.27.23.64.32.37.09.89.18,1.4.28.09.02.18.04.27.06-.23.1-.59.19-.94.29-.35.09-.69.19-.94.29-.41.1-.72.21-1.06.33-.33.12-.68.25-1.08.34-.3.16-.67.31-1.06.44-.1.03-.2.06-.3.09l-.08.02h-.05s-.08.03-.08.03c-.11.02-.22.03-.34.03-.4.21-.84.28-1.28.41-.16.09-.33.15-.5.19-.01,0-.02,0-.02,0h-.03s-.03,0-.04,0c0,.01-.01.02-.01.04,0,.01,0,.02,0,.02h0s-.01.03-.02.04l-.04.08c-.05.1-.11.21-.16.31-.11.21-.19.43-.12.7-.05.23-.13.46-.21.68-.04.11-.08.23-.11.34l-.07.26c-.03.11-.06.22-.09.33-.15.42-.29.83-.43,1.25-.13.42-.26.86-.38,1.37-.19.17-.32.47-.44.95-.12.46-.24,1.09-.38,1.73v.02c-.14-.31-.28-.75-.42-1.22-.14-.47-.27-.97-.4-1.44-.28-.83-.55-1.76-.8-2.63-.04-.1-.08-.21-.12-.32l-.05-.16-.03-.11c-.03-.12-.05-.23-.07-.35-.04-.24-.09-.47-.22-.68-.12-.21-.16-.44-.2-.68-.02-.12-.04-.23-.07-.34l-.02-.08v-.04s-.02,0-.02-.01c0,0-.02-.01-.03-.01-.02,0-.04,0-.05,0-.04.01-.04.02-.06,0-.17-.06-.33-.14-.48-.24-.43-.13-.79-.5-1.28-.41-.11-.02-.22-.02-.34-.03h-.09s-.04,0-.04,0h-.08c-.11-.03-.21-.05-.32-.07-.42-.09-.87-.25-1.03-.5-.43-.08-.75-.23-1.04-.36-.3-.13-.56-.24-1.1-.32-.02-.14-.25-.23-.61-.31-.35-.09-.84-.17-1.2-.27.05-.02.11-.04.17-.06.43-.1.86-.2,1.22-.29.36-.09.64-.19.83-.31.18-.12.56-.22.92-.3.37-.08.72-.15.99-.26.22-.15.6-.21.91-.26.16-.02.32-.05.44-.08.09-.02.17-.06.24-.12.35-.07.66-.23,1-.27.21-.46.63-.19.95-.25h.05s.02-.02.03-.02c.02,0,.03-.02.04-.04.02-.03.03-.06.05-.08,0-.05.02-.05.14-.05-.02-.03-.04-.05-.06-.07,0,0-.01-.02-.02-.03,0-.02,0-.04,0-.06,0-.08.04-.14.07-.21.08-.13.2-.24.27-.36.16-.24.04-.56.27-.75-.12-.3.25-.45.26-.69.2-.19.14-.44.24-.63.02-.22.09-.4.22-.56.07-.18.14-.34.2-.49.38-.91.63-1.4.73-1.37Z"/>
      </g>
    </g>
  </g>
</svg>