<?xml version="1.0" encoding="UTF-8"?>
<svg xmlns="http://www.w3.org/2000/svg" version="1.1" viewBox="0 0 109 114">
  <!-- Generator: Adobe Illustrator 28.7.1, SVG Export Plug-In . SVG Version: 1.2.0 Build 142)  -->
  <g>
    <g id="Calque_1">
      <g>
        <path d="M53.77,59.38c-.02.05-.48-.04-1.35-.27-.88-.19-2.16-.52-3.86-.71-.28-.03-.57-.05-.88-.08-.08,0-.15-.01-.23-.02-.08,0-.15,0-.23,0-.16,0-.32-.01-.48-.02-.16,0-.33-.01-.49,0-.17,0-.34,0-.51.02-.17,0-.35,0-.52.01-.18.01-.35.02-.54.03-.37-.06-.73.06-1.1.17-.19.05-.37.11-.55.16-.19.04-.38.07-.59.06-.78.14-1.55.48-2.28.92-.18.12-.35.23-.54.34-.05.03-.09.05-.14.08l-.13.1c-.09.06-.18.13-.27.19-.18.12-.34.28-.5.44-.08.08-.16.16-.23.24-.07.09-.13.19-.19.28-.05.11-.11.21-.17.3-.06.09-.12.19-.19.28-.13.18-.3.35-.43.55-.13.19-.29.38-.38.61-.05.11-.09.23-.12.35-.01.06-.03.12-.04.18,0,.06,0,.13,0,.19-.23.95-.4,1.95-.41,3.01-.03.13-.04.27-.05.4,0,.13,0,.27,0,.41,0,.14,0,.27.03.41.02.14.04.27.07.41.05.27.1.54.18.81.08.27.14.54.22.82.02,1.17.51,2.28,1.11,3.33.04.31.11.61.2.91.05.15.09.3.15.44.06.14.13.28.2.42.14.28.3.55.49.81.19.27.39.53.61.79.59,1.18,1.01,2.45,1.62,3.7.25.65.47,1.31.66,2.01.18.69.33,1.41.37,2.16.09.37.15.76.18,1.12.03.36.04.71.04,1.07,0,.71-.05,1.42-.13,2.15.27,1.43.23,2.88.23,4.36,0,.74.13,1.47.28,2.2.15.73.32,1.45.39,2.19.16.72.39,1.43.67,2.08.29.65.64,1.26,1.07,1.7.4.46.92.72,1.54.66l.13-.02s.06-.01.09-.02c.05-.04.06-.11.07-.16,0-.01,0-.03.01-.08,0-.04.02-.08.03-.13.02-.09.03-.18.04-.28.02-.19.04-.38.04-.58.21-1.56.31-3.21.67-4.83-.04-1.68.32-3.34.78-5,.14-.85.35-1.68.58-2.52.24-.85.48-1.69.73-2.55.33-.84.67-1.69,1.23-2.52.28-.41.63-.82,1.1-1.15.23-.17.5-.31.79-.4.29-.1.61-.14.91-.14.31.01.63.06.92.17.29.11.55.26.77.43.45.34.78.75,1.06,1.15.54.81.92,1.64,1.3,2.46.39.82.61,1.68.79,2.53.18.85.32,1.71.51,2.54.08,1.72.65,3.33.79,4.99.12.82.2,1.64.29,2.45.09.81.19,1.62.39,2.38.04.19.08.38.13.56.02.09.05.18.07.27.01.04.02.08.04.13.02.05.02.06.02.06.01.02.02.05.05.06h.04s-.02,0,.08.02c.57.05,1.04-.09,1.53-.48.3-.55.64-1.11.98-1.74.33-.63.64-1.32.77-2.05.5-1.41.5-2.93.67-4.39.06-1.47.36-2.92.23-4.36.03-.72,0-1.43-.02-2.15,0-.36-.01-.71,0-1.07,0-.36.04-.75.11-1.12-.03-.76.16-1.48.38-2.16.22-.68.48-1.34.65-2.01.47-1.3,1-2.54,1.62-3.7.21-.26.39-.53.56-.81.16-.28.29-.56.42-.84.06-.14.12-.29.18-.43.06-.14.11-.29.16-.44.1-.29.21-.57.32-.85.47-1.12.66-2.27,1.11-3.33.27-1.1.55-2.19.44-3.25-.02-.26,0-.52.02-.79,0-.26.02-.52.03-.78,0-.26-.04-.51-.1-.76-.03-.13-.08-.24-.14-.35-.06-.11-.13-.22-.21-.32l-.06-.17c-.02-.05-.05-.11-.07-.17-.04-.11-.08-.23-.12-.34-.06-.23-.16-.45-.25-.67-.08-.23-.2-.43-.34-.62-.07-.09-.13-.19-.22-.27-.09-.08-.18-.15-.28-.22-.1-.07-.18-.14-.27-.21-.09-.07-.18-.13-.26-.21-.16-.15-.31-.31-.47-.45-.08-.07-.16-.15-.24-.22l-.12-.11s-.08-.07-.13-.1c-.17-.13-.34-.26-.52-.37-.74-.42-1.52-.7-2.28-.92-1.73-.44-3.37-.49-4.77-.41-.09,0-.18,0-.26.01-.09,0-.17.02-.26.02-.17.02-.34.03-.5.05-.33.02-.64.07-.94.11-.6.07-1.14.18-1.62.27-.96.2-1.7.37-2.2.5-.5.12-.76.16-.78.12-.01-.04.28-.18.87-.41.15-.06.31-.12.5-.19.19-.06.39-.13.62-.2.22-.07.46-.15.72-.22.26-.07.54-.14.84-.22,1.19-.28,2.69-.57,4.48-.61.45-.02.91,0,1.39.03.24.01.49.05.73.07.12.01.25.03.38.04.13.02.25.05.38.07,1.02.18,2.1.49,3.15,1.05.2.12.42.23.63.35.05.03.11.06.16.09l.16.1c.1.07.21.14.31.21.21.13.4.31.58.49.09.09.18.18.26.28.08.11.15.22.21.33.08.1.17.2.26.3.09.1.16.21.24.31.16.21.33.42.46.66.13.23.29.46.38.73.05.13.1.26.15.39l.06.2c.02.07.03.14.04.2.07.12.14.25.2.38.06.13.12.26.15.4.07.28.13.56.16.84.02.29.03.58.04.86,0,.29-.02.58-.02.87,0,1.17-.24,2.33-.4,3.53-.04.3-.1.6-.17.9-.04.15-.08.3-.14.44-.05.15-.1.29-.16.44-.05.15-.11.29-.16.44-.05.15-.12.29-.17.43-.11.29-.22.59-.31.89-.16.27-.32.55-.46.84-.14.29-.28.57-.42.86-.14.29-.27.59-.39.89-.12.29-.24.59-.35.89-.71,1.07-1.06,2.35-1.5,3.58-.67,1.15-.88,2.52-.9,3.82,0,.33-.01.64,0,.99,0,.35,0,.7-.01,1.06-.01.72-.03,1.44-.01,2.17-.07,1.46-.02,2.96-.19,4.47-.01,1.52-.17,3.09-.67,4.63-.15.79-.37,1.58-.71,2.36-.34.78-.77,1.56-1.48,2.25-.33.35-.77.67-1.28.85-.51.19-1.06.23-1.57.17-.09-.01-.33-.06-.51-.1-.09-.03-.17-.06-.26-.09l-.13-.05-.06-.03h-.03s0-.03,0-.03h0s0,0,0,0h0s-.01-.01-.01-.01c-.31-.19-.46-.55-.57-.9-.03-.09-.06-.18-.07-.22-.01-.06-.03-.11-.04-.17-.03-.11-.05-.22-.07-.32-.04-.21-.08-.42-.12-.62-.33-1.64-.2-3.29-.71-4.89-.26-1.63-.43-3.28-.79-4.91-.28-1.63-.61-3.29-1.24-4.8-.15-.81-.46-1.58-.91-2.19-.22-.3-.48-.56-.75-.71-.27-.16-.51-.19-.74-.17-.25.03-.47.11-.7.29-.23.17-.47.42-.68.72-.43.59-.78,1.32-1.08,2.07-.53,1.54-.91,3.17-1.24,4.8-.23,1.64-.67,3.26-.78,4.91-.05.82-.19,1.64-.33,2.45-.14.81-.28,1.62-.37,2.45-.03.21-.06.42-.09.63-.02.11-.04.22-.06.33-.01.05-.03.11-.04.17,0,.05-.04.14-.07.23-.12.36-.28.73-.6.92h-.01s0,.01,0,.01h0s.01.02,0,.01h-.03s-.06.04-.06.04l-.13.05c-.09.03-.17.06-.26.09-.09.02-.19.04-.29.06h-.07s-.05.02-.05.02h-.1c-.51.07-1.08.01-1.58-.18-.51-.19-.94-.52-1.27-.88-.35-.34-.62-.72-.84-1.11-.22-.39-.38-.79-.53-1.18-.3-.79-.52-1.56-.82-2.32-.42-1.54-.92-3.07-.67-4.63-.22-1.51,0-3.02-.19-4.47.13-.73.13-1.46.1-2.17-.01-.36-.04-.71-.06-1.06-.02-.35-.05-.66-.07-.99-.03-.65-.13-1.31-.27-1.95-.15-.64-.35-1.28-.63-1.87-.57-1.18-.9-2.45-1.5-3.58-.18-.27-.33-.55-.46-.83-.14-.29-.26-.6-.38-.9-.06-.15-.12-.3-.18-.45-.06-.15-.11-.3-.18-.45-.12-.3-.26-.58-.42-.85-.43-1.19-.89-2.35-1.11-3.54-.16-.27-.26-.56-.33-.86-.08-.29-.1-.6-.12-.9,0-.15,0-.3-.01-.45,0-.15.02-.3.02-.45,0-.15.02-.3.02-.44,0-.15,0-.29.02-.44.02-.29.01-.58.01-.87.01-.29.02-.58.03-.86.03-.29.08-.57.15-.84.03-.14.09-.27.14-.4.06-.13.12-.26.2-.38,0-.07,0-.14.02-.21.01-.07.03-.14.04-.21.03-.14.07-.27.12-.4.08-.27.23-.5.37-.74.14-.24.32-.44.5-.65.09-.1.17-.21.26-.3.09-.09.19-.19.28-.28.09-.09.18-.19.27-.28.09-.09.19-.18.28-.27.18-.18.35-.37.55-.52.1-.08.19-.16.29-.24l.15-.11s.1-.07.16-.1c.21-.12.42-.24.65-.32.19-.15.39-.27.6-.37.05-.03.1-.05.16-.07l.16-.06c.11-.03.22-.07.33-.1.11-.03.22-.06.33-.09.11-.03.22-.04.33-.07.21-.04.42-.1.62-.17.86-.06,1.63-.31,2.4-.32.19-.02.38-.04.56-.06.18-.01.37,0,.55,0,.18,0,.35.01.53.02.17.01.34.05.51.07.17.01.33.03.49.04.08,0,.16.01.24.02.08.01.16.02.24.03.31.05.61.09.9.13,1.72.29,3,.72,3.86,1.01.85.32,1.28.51,1.26.56Z"/>
        <path d="M66.55,28.96c-.05.09-.24.1-.53.04-.05,0-.1-.02-.15-.04-.06,0-.12,0-.17-.05.02-.15-.24.16-.19-.06-.03-.09-.12-.07-.2-.07s-.08-.15-.22-.08c-.21.2.01-.34-.23-.09-.11.02-.18-.04-.25-.1.03-.22-.16-.09-.26-.11.04-.26-.1-.22-.27-.12.08-.35-.03-.35-.28-.13-.1-.04-.12-.21-.29-.14-.11-.04-.24-.04-.3-.15-.21.14-.31.07-.31-.15-.23.15-.28,0-.32-.16-.04-.18-.32.06-.33-.17-.1-.08-.25-.08-.34-.18-.06-.15-.12-.32-.35-.18-.14-.01-.3,0-.35-.19-.25.16-.31,0-.36-.2-.14-.03-.17-.26-.36-.2-.1-.11-.3-.04-.37-.21-.08-.14-.17-.28-.36-.21-.21.07-.21-.2-.36-.21,0-.28-.28-.07-.35-.21-.13-.05-.16-.26-.34-.21-.14-.03-.27-.05-.33-.21-.3.26-.17-.21-.32-.21-.03-.2-.23-.1-.31-.2-.14,0-.12-.27-.3-.2-.09-.09-.26-.01-.29-.19-.19.1-.12-.25-.28-.19-.09-.06-.2-.1-.27-.19.06-.31-.16-.15-.25-.18-.07-.08-.26.05-.24-.18-.07-.07-.09-.23-.22-.17-.1,0,.06-.46-.21-.16-.11.02,0-.34-.19-.16-.19.17-.12-.1-.18-.15-.06-.05-.11-.1-.16-.14-.46-.41-.68-.71-.6-.85.09-.15.54-.08,1.24.16.07.03.24-.12.22.08.07.04.22-.05.23.09.21-.19.17.04.25.1.08.03.12.16.26.11.16-.09.13.17.27.12,0,.2.11.21.28.13,0,.2.2.08.29.14-.03.27.15.18.3.15.14-.02.18.15.31.15.08.1.24.06.32.16.16-.04.29-.02.33.17.15,0,.23.11.34.18.16-.02.22.14.35.18.14.02.1.37.35.19.13.04.21.17.36.2.1.1.2.2.36.2-.02.31.19.23.37.21.16,0,.26.11.36.21.14.05.25.13.36.21.16,0,.18.24.35.21.17-.03.17.24.34.21.15,0,.29.02.33.21.11.06.1.34.32.21.13.02.4-.19.31.2.15-.02.12.28.3.2-.04.3.2.13.29.19.07.1.12.24.28.19.16-.06.15.17.27.19.17-.09.08.29.25.18.07.08.19.08.24.18.27-.28.16.1.22.17.05.09.28-.13.21.16.22-.21.16.05.19.16.03.11.19-.03.18.15.16-.14.07.17.16.14,0,.15.11.07.14.13.08,0,.12.03.13.12.04.04.07.08.11.12.2.22.28.39.23.48Z"/>
        <path d="M42.52,28.98c-.05-.09.03-.26.23-.48.03-.04.07-.08.11-.12.03-.05.07-.1.13-.12.12.09-.02-.29.14-.13.09.02.12-.06.16-.14.04-.08.17,0,.18-.15-.07-.27.29.18.19-.16.04-.11.12-.13.21-.16.18.13.16-.09.22-.17.21.17.24.03.24-.17.26.25.32.15.25-.18.09-.06.24,0,.26-.19.08-.08.15-.19.28-.19-.02-.26.09-.31.29-.2-.02-.27.13-.25.3-.2.17.06.11-.31.31-.2.12-.05.19-.17.32-.2.16.02.33.06.33-.21.08-.12.16-.26.34-.21-.01-.29.16-.26.35-.21.1-.11.31-.01.36-.21.14-.03.18-.24.36-.21.16,0,.32,0,.37-.21.04-.22.28-.08.36-.2.24.14.2-.21.36-.2.1-.09.3-.01.35-.19.09-.11.18-.21.35-.19-.08-.39.27-.04.34-.18.19.08.2-.15.33-.17.07-.12.3.03.32-.16.12-.03.14-.22.31-.15,0-.22.28.02.3-.15.1-.06.18-.12.29-.14.24.2.21-.06.28-.13.1-.02.09-.24.27-.12.09-.03.24.04.26-.11.06-.08.37.28.25-.1.04-.1.29.18.23-.09-.05-.25.15-.05.22-.08.07-.02.14-.05.2-.07.58-.19.96-.23,1.04-.1.09.15-.2.51-.76.99-.06.05-.02.27-.18.15-.07.04-.06.22-.19.16.06.28-.12.13-.21.16-.07.06-.2.03-.22.17,0,.19-.21.03-.24.17-.17-.09-.24,0-.25.18-.17-.09-.17.14-.26.19-.22-.16-.23.04-.28.19-.05.14-.22.08-.29.2-.13.02-.17.17-.3.2-.05.16-.13.26-.31.2-.07.13-.21.14-.32.2-.06.15-.23.12-.33.21-.09.11-.36-.1-.34.21-.1.1-.26.1-.35.21-.14.04-.28.08-.36.21-.26-.17-.3.05-.37.21-.08.14-.23.18-.37.21-.11.09-.23.15-.36.21-.08.14-.3.03-.36.2-.06.17-.3.03-.35.19-.08.14-.17.24-.35.18-.11.06-.35-.09-.34.18-.08.11-.03.44-.33.17-.06.14-.3-.04-.32.16-.24-.18-.21.11-.31.15-.13.01-.27-.02-.3.15-.03.17-.22.05-.29.14-.01.19-.29-.08-.28.13-.11.02-.16.12-.27.12.11.38-.16.09-.26.11-.11,0-.03.31-.25.1.07.29-.13.12-.23.09-.11-.03-.07.18-.22.08.04.21-.18-.02-.2.07-.13-.08-.12.06-.19.06-.03.07-.09.08-.17.05-.05.01-.1.03-.15.04-.29.06-.47.05-.53-.04Z"/>
        <path d="M54.53,22.05s.51-.28,1.54-.66c.26-.09.55-.19.87-.3.32-.1.68-.22,1.06-.34.38-.12.8-.23,1.25-.36.45-.12.93-.25,1.44-.37.34-.08.7-.16,1.06-.25.37-.08.75-.15,1.14-.23.4-.08.8-.16,1.23-.23.42-.06.86-.14,1.31-.17.23.01.46-.01.69-.05.23-.03.46-.08.7-.13.47-.1.97-.16,1.47-.08,1.01.03,2.06-.02,3.17,0,1.11.02,2.24.3,3.44.41.31,0,.61.05.91.13.29.09.59.2.88.32.29.13.58.24.88.35.3.11.61.18.94.23,1.23.42,2.44,1.06,3.56,1.9.51.48,1.04.94,1.58,1.41.54.47,1.07.98,1.54,1.56.34.67.72,1.31,1.09,1.97.37.66.75,1.32,1.09,2.03.2,1.58.56,3.06,1.01,4.65.15,1.62-.05,3.26-.09,4.94-.17,1.67-.47,3.36-.99,5.01-.25,1.73-.84,3.41-1.71,4.99-.45,1.75-1.33,3.36-2.28,4.93-.23.39-.44.79-.63,1.2-.1.21-.19.41-.28.62l-.25.54-.13.29-.07.15s-.02.06-.04.07h-.08c-.38.01-.77.02-1.15.03-.23,0-.46.02-.69.02-.46,0-.93-.01-1.4-.06-.56,0-1.13,0-1.7,0-.84,0-1.68.01-2.53.02,0-.65,0-1.3,0-1.95,0-.38,0-.76.01-1.14.1-1.92.21-3.86-.01-5.82-.02-.49-.03-.98-.05-1.48,0-.25-.01-.49-.02-.74,0-.15-.02-.19-.02-.28,0-.07-.03-.15-.05-.22-.09-.3-.27-.59-.52-.85-.26-.26-.58-.48-.94-.65-.4-.08-.8-.12-1.2-.11l-.73.02c-.25,0-.51,0-.76,0-1.01-.01-2.03-.08-3.05-.15-2.04.04-4.11-.14-6.19,0-2.08-.04-4.18.12-6.29,0-2.11-.08-4.21-.15-6.29,0-2.08.17-4.14-.07-6.19,0-1.02-.12-2.04-.1-3.05-.06-.25.01-.51.02-.76.03l-.38.02h-.19c-.07,0-.11.01-.16.02-.41.03-.82.11-1.2.23-.37.15-.71.35-.99.6-.27.25-.48.55-.58.87-.02.08-.04.16-.05.24,0,.09-.02.15-.02.29,0,.25,0,.49,0,.74,0,.49.02.99.05,1.48.05,1.96.09,3.9-.01,5.82.08.38.12.76.14,1.13v.15s0,.28,0,.28v.56c0,.37,0,.74,0,1.1-.57-.01-1.14-.03-1.69-.05h-.21s-.08-.01-.08-.01h-.05s-.21-.02-.21-.02l-.43-.03c-.57-.04-1.14-.06-1.7-.04-.47-.04-.93-.06-1.4-.06-.23,0-.46,0-.7,0-.37,0-.75,0-1.12.01-.02,0-.05,0-.07,0l-.04-.07-.07-.13-.14-.27-.27-.52c-.11-.2-.21-.4-.32-.6-.21-.4-.42-.8-.61-1.21-.21-.39-.43-.81-.62-1.22-.2-.41-.37-.83-.55-1.25-.18-.41-.35-.84-.53-1.24-.18-.41-.36-.82-.58-1.21-.65-1.66-1.38-3.28-1.71-4.99-.08-.2-.15-.41-.22-.61-.06-.21-.12-.41-.16-.62-.1-.42-.17-.84-.24-1.26-.07-.42-.11-.85-.17-1.26-.05-.42-.12-.83-.2-1.25-.19-1.66-.27-3.32-.09-4.93.21-.79.34-1.58.47-2.36.12-.78.29-1.55.54-2.29.28-.73.56-1.45.9-2.14.35-.68.77-1.32,1.29-1.86.47-.58.98-1.1,1.51-1.59.54-.48,1.07-.94,1.61-1.38.27-.22.58-.38.88-.54.31-.15.62-.29.93-.41.31-.13.61-.26.91-.41.29-.15.57-.32.84-.53.29-.15.61-.23.91-.33.31-.08.62-.14.93-.21.31-.06.61-.12.9-.2.3-.07.59-.16.87-.29.28-.11.57-.2.86-.26.29-.05.58-.08.87-.11.29-.01.58-.02.86-.02.28,0,.56,0,.84-.02,1.1-.06,2.16-.05,3.17,0,1.13.06,2.2.17,3.2.3,1,.14,1.93.3,2.79.48,1.72.35,3.15.75,4.31,1.1.57.18,1.08.34,1.52.5.43.15.8.28,1.09.4.58.23.87.37.86.41-.01.04-.4-.04-1.14-.24-.37-.1-.83-.22-1.37-.36-.54-.13-1.17-.3-1.89-.46-1.43-.32-3.19-.69-5.28-.95-2.09-.25-4.5-.42-7.17-.21-1.07.08-2.14.42-3.29.47-1.13.23-2.22.7-3.4,1.05-.26.18-.53.33-.79.48-.27.14-.55.28-.83.42-.28.13-.56.28-.84.43-.27.16-.56.31-.82.5-.52.37-1.03.79-1.52,1.24-.48.45-.92.97-1.3,1.53-.34.59-.73,1.15-1.08,1.75-.35.6-.67,1.24-.86,1.93-.64,1.29-.91,2.8-.87,4.32-.08.37-.11.76-.13,1.14,0,.19,0,.39,0,.58,0,.19,0,.39.02.58.03.39.06.78.11,1.17.04.39.1.78.14,1.18-.02.4.01.81.05,1.21.06.4.12.8.22,1.2.1.4.2.8.33,1.19.06.2.12.39.19.59.07.2.13.39.2.59.54,1.58.97,3.22,1.69,4.8.16.4.32.81.5,1.21.18.4.37.8.56,1.19.2.39.39.79.6,1.19.2.4.4.79.6,1.2.23.4.46.8.68,1.2.11.2.22.41.33.61l.02.03h0s0,0,0,0h0s0,.02.02.02c0,0,.02,0,.03,0h.14c.23,0,.46,0,.7.02.46.01.93.04,1.4.07.57-.03,1.13-.04,1.7-.04.25,0,.5,0,.75,0h.12s0-.07,0-.07v-.04s0-.02,0-.02v-.14c0-.38,0-.75,0-1.13-.1-1.92.01-3.86-.01-5.82-.01-.49,0-.98.02-1.48,0-.25.02-.49.03-.74,0-.11.02-.29.04-.45.02-.16.06-.32.1-.48.19-.63.56-1.17.99-1.6.44-.43.94-.77,1.47-1.05.56-.23,1.16-.34,1.75-.36.07,0,.16,0,.22,0h.57c.25,0,.51,0,.76.01,1.01,0,2.03.02,3.05-.01,2.04.04,4.11.07,6.19,0,2.08.28,4.18.11,6.29,0,2.11-.08,4.21-.04,6.29,0,2.08-.03,4.14-.01,6.19,0,1.02-.04,2.04-.01,3.05.02.51.01,1.03.02,1.54.03.59.02,1.18.12,1.76.31.57.19,1.12.51,1.58.95.45.44.81,1.02.98,1.68.03.16.07.33.08.5,0,.16.02.36,0,.46,0,.25,0,.49-.01.74,0,.49,0,.99.03,1.48.08,1.96.12,3.91-.01,5.82,0,.38-.01.76-.02,1.14v.14s-.01.03-.01.03v.06s-.04.14-.04.14c.05.01.12.02.19.03h.03s0,0,0,0h.03s.05,0,.05,0h.21s.43,0,.43,0c.57,0,1.13-.03,1.7-.1.47-.01.93-.04,1.4-.07.23-.01.46-.03.69-.04h.09s.04,0,.04,0h0s0,0,0-.01c0,0,0-.01,0-.02s0,0,0,0h0s0,.01.01-.03c.1-.21.21-.41.33-.62.23-.4.48-.79.77-1.16.19-.42.38-.81.59-1.21.21-.39.42-.78.62-1.17.21-.39.4-.79.58-1.18.18-.4.33-.81.46-1.22.92-1.5,1.24-3.21,1.69-4.81.5-1.59.93-3.18,1-4.78.01-.4.05-.79.07-1.19.01-.19.04-.39.05-.58.01-.19.03-.39.04-.58.02-.19.02-.39.03-.58,0-.19.02-.39.02-.58,0-.38,0-.76-.06-1.14-.14-.75-.2-1.49-.29-2.22-.09-.73-.26-1.45-.58-2.1-.22-.68-.52-1.32-.85-1.94-.34-.61-.71-1.18-1.09-1.74-.57-.42-.99-.91-1.43-1.4-.44-.48-.87-.99-1.39-1.38-.25-.21-.53-.36-.8-.53-.28-.15-.56-.29-.85-.42-.29-.13-.56-.27-.84-.4-.14-.07-.27-.15-.4-.22-.13-.08-.27-.16-.39-.25-.31-.06-.61-.11-.89-.2-.29-.08-.57-.17-.84-.28-.28-.1-.55-.2-.83-.3-.28-.09-.55-.19-.83-.27-1.12-.31-2.24-.24-3.29-.47-1.07.13-2.09-.19-3.08-.09-.99-.09-1.92.09-2.8.16-.44.06-.87.14-1.28.18-.42.05-.82.1-1.22.12-.39.07-.77.13-1.14.19-.37.07-.72.13-1.06.2-.51.1-.99.2-1.44.3-.45.11-.87.2-1.25.29-.39.1-.75.18-1.07.26-.33.09-.62.16-.88.23-1.05.28-1.61.42-1.63.36Z"/>
        <path d="M54.13,71.43c-.11,0-.21-.23-.3-.64-.02-.07-.03-.14-.05-.22-.03-.08-.06-.16-.04-.25.14-.09-.26-.18-.04-.28.06-.1,0-.2-.04-.31-.05-.11.09-.22-.04-.34-.27-.12.3-.24-.04-.36-.07-.12-.05-.25-.04-.39.21-.13,0-.27-.03-.41.25-.14.14-.28-.03-.43.34-.15.29-.3-.03-.45-.01-.15.12-.31-.03-.47-.02-.16-.09-.33-.03-.49-.23-.17-.22-.34-.02-.51-.25-.17-.15-.35-.02-.53.14-.18-.22-.36-.02-.55.02-.18-.06-.37-.02-.56.1-.19.21-.38-.01-.58-.06-.19-.14-.39,0-.59-.26-.2-.15-.4,0-.6-.04-.2.14-.41,0-.61.04-.2-.12-.41,0-.62.08-.21.16-.41,0-.62-.17-.21.07-.41,0-.61.25-.2-.08-.4,0-.6-.02-.2.14-.39,0-.59-.04-.19-.09-.39.01-.58-.38-.19.1-.38.02-.56.16-.19-.02-.37.02-.55-.07-.18.17-.36.02-.53.03-.17-.12-.34.02-.51-.19-.17.16-.33.03-.49,0-.16-.01-.32.03-.47.3-.15.05-.31.03-.45.03-.15-.17-.29.03-.43.02-.14.15-.28.03-.41-.04-.13.43-.26.04-.39-.07-.12.3-.25.04-.36-.24-.12.03-.23.04-.34.01-.11.03-.21.04-.31.13-.88.28-1.39.43-1.39.18,0,.34.62.48,1.7.01.11.22.22.04.34,0,.11.16.24.04.36.27.12.05.25.04.39.01.13-.07.27.04.41.16.14-.08.28.03.43-.17.15-.12.3.03.45-.16.15.03.31.03.47-.25.16-.08.33.03.49.09.17-.04.34.02.51-.05.17.06.35.02.53.12.18.16.36.02.55.08.18.01.37.01.56.1.19-.01.38.01.58.05.19-.27.39,0,.59.04.2-.04.4,0,.6-.04.2-.07.41,0,.61-.27.21-.1.41,0,.62.08.21.04.42,0,.62.03.21.01.41,0,.61.08.2-.12.4,0,.6.12.2-.12.39,0,.59.08.19.12.39-.01.58,0,.19-.25.38-.01.56.05.18.36.37-.02.55.1.18-.18.36-.02.53-.28.17-.01.34-.02.51-.05.17-.15.33-.03.49.13.16-.07.32-.03.47.16.15-.21.31-.03.45-.04.15.02.29-.03.43.38.14,0,.28-.04.41-.05.13.25.26-.04.39.29.12.04.25-.04.36-.08.12.12.23-.04.34.2.11-.11.21-.04.31-.13.1,0,.19-.04.28.05.09.03.17-.04.25-.02.08-.03.15-.04.22-.09.41-.2.64-.3.64Z"/>
        <path d="M54.13,71.42c-.08.07-.2.09-.36.05-.03,0-.05-.01-.08-.02-.04,0-.08,0-.09-.03.08-.12-.23.13-.09-.04.02-.07-.04-.05-.1-.05-.06,0,.02-.11-.11-.05-.22.16.17-.26-.11-.06-.08.02-.1-.02-.11-.07.12-.17-.06-.07-.12-.08.15-.2.04-.17-.12-.08.22-.27.15-.27-.12-.09-.04-.03.02-.16-.13-.1-.05-.02-.14-.02-.13-.1-.2.11-.24.07-.13-.11-.22.12-.19.02-.13-.11.06-.14-.24.06-.14-.12-.03-.06-.12-.05-.14-.13.03-.11.07-.24-.14-.13-.09,0-.19,0-.14-.14-.24.13-.2,0-.14-.14-.08-.02.01-.2-.14-.14-.02-.08-.18-.02-.14-.15.01-.1.02-.21-.14-.15-.17.06-.04-.15-.13-.15.14-.22-.15-.04-.13-.15-.06-.03.02-.19-.12-.15-.08-.02-.15-.03-.12-.15-.32.21-.01-.16-.11-.15.08-.15-.1-.07-.11-.15-.09,0,.05-.2-.1-.14-.02-.06-.17,0-.1-.14-.17.09.04-.19-.09-.14-.04-.04-.08-.07-.09-.13.18-.24-.03-.11-.08-.13,0-.06-.19.04-.07-.13-.01-.05.05-.17-.07-.12-.06,0,.26-.35-.06-.12-.08.02.17-.26-.05-.11-.21.14-.03-.08-.05-.11-.01-.04-.03-.07-.04-.1-.1-.3-.11-.53,0-.63.13-.12.39-.08.73.09.04.02.21-.1.11.05.02.03.17-.05.11.06.23-.16.09.03.11.07.04.02,0,.12.12.08.15-.07,0,.12.12.08-.09.15-.02.16.12.09-.09.15.09.05.13.1-.15.21.02.13.13.1.1-.02.05.11.13.11,0,.08.13.04.13.11.13-.04.2-.02.14.12.1-.01.09.08.14.12.12-.02.08.1.14.13.08.01-.11.28.14.14.07.02.06.13.14.14.02.07.04.15.14.15-.16.24.02.17.14.15.11,0,.12.08.14.15.07.03.1.09.13.15.11,0,0,.18.13.15.13-.03,0,.18.12.15.1,0,.18,0,.12.15.04.05-.1.26.11.15.08,0,.35-.16.11.14.11-.02-.06.21.1.14-.17.23.07.09.1.14,0,.08-.04.18.09.14.13-.05.02.13.09.13.15-.07-.09.22.08.13,0,.06.08.05.07.13.31-.22.06.07.07.12-.01.07.24-.11.06.12.24-.16.08.03.05.11-.04.08.14-.03.04.11.17-.11-.03.13.04.1-.08.11.04.05.03.1.05,0,.06.02.02.09,0,.03.01.06.02.08.02.16,0,.29-.08.36Z"/>
        <path d="M54.13,71.44c-.08-.07-.1-.19-.08-.36,0-.03,0-.06.02-.09,0-.04,0-.08.02-.09.12.07-.15-.22.03-.1.07.02.05-.05.04-.1-.01-.06.11,0,.04-.11-.17-.21.27.15.05-.11-.03-.08.02-.1.06-.12.18.11.06-.06.07-.12.21.14.17.03.07-.13.29.2.28.12.08-.13.03-.05.16,0,.09-.13.02-.05,0-.14.09-.14-.13-.2-.08-.23.1-.14-.14-.21-.03-.18.1-.14.14.05-.08-.23.11-.14.05-.04.04-.13.11-.15.12.02.24.05.12-.15,0-.09-.02-.19.12-.15-.15-.22-.02-.19.13-.15.01-.08.2,0,.13-.15.08-.02,0-.18.14-.15.1,0,.21,0,.14-.15-.08-.16.14-.05.14-.15.23.12.03-.15.14-.14.03-.06.19,0,.14-.14,0-.08.02-.16.14-.13-.24-.3.16-.03.14-.12.16.06.06-.11.13-.12-.01-.09.21.03.13-.11.06-.02-.01-.17.13-.11-.1-.17.19.03.13-.1.04-.04.06-.09.13-.1.25.16.1-.04.12-.09.06-.01-.06-.18.12-.08.05-.02.18.04.12-.08,0-.06.37.23.11-.07-.02-.08.28.15.11-.06-.15-.19.07-.04.1-.05.04-.02.07-.03.1-.05.29-.13.51-.15.63-.04.13.12.11.38-.03.74-.01.04.11.2-.05.11-.03.03.06.16-.05.11.17.22-.02.1-.06.12-.02.04-.11.01-.06.12.08.14-.12.02-.07.13-.16-.08-.16-.01-.08.13-.16-.07-.04.1-.09.13-.22-.13-.13.03-.09.14.03.1-.1.06-.1.14-.07,0-.03.13-.1.14.05.12.04.2-.11.15.02.1-.07.1-.11.15.03.11-.09.08-.12.15,0,.08-.29-.09-.12.15-.02.07-.12.07-.13.15-.07.03-.14.05-.13.15-.25-.14-.17.03-.14.15.01.1-.07.13-.14.15-.03.07-.08.11-.14.14.02.1-.18.02-.14.14.04.13-.18.01-.14.14.02.1,0,.18-.14.13-.04.05-.27-.08-.14.13,0,.08.19.34-.14.12.03.11-.22-.04-.13.11-.24-.15-.09.07-.13.11-.08,0-.18-.02-.13.1.06.13-.12.03-.13.1.08.15-.22-.07-.12.09-.06.01-.05.09-.12.08.25.29-.06.07-.12.08-.07,0,.13.23-.11.07.18.22-.03.08-.11.06-.09-.03.04.14-.1.05.12.16-.13-.02-.1.05-.12-.07-.05.04-.09.04.01.05-.02.06-.09.03-.03,0-.06.02-.08.02-.16.04-.29.02-.36-.05Z"/>
      </g>
    </g>
  </g>
</svg>