<?xml version="1.0" encoding="UTF-8"?>
<svg xmlns="http://www.w3.org/2000/svg" version="1.1" viewBox="0 0 109 114">
  <!-- Generator: Adobe Illustrator 28.7.1, SVG Export Plug-In . SVG Version: 1.2.0 Build 142)  -->
  <g>
    <g id="Calque_1">
      <g>
        <path d="M14.41,61.85c.05,0,.12.7.19,2.03.01.33.06.7.09,1.11.04.41.08.86.12,1.34.05.48.13,1,.19,1.56.04.28.07.57.11.86.05.29.1.6.15.91.04.21.07.42.11.64.04.22.07.44.12.66.09.44.19.9.29,1.38.09.48.25.95.37,1.45.06.25.13.5.19.76.06.26.15.51.22.78.04.27.12.54.21.8.05.13.1.26.15.4.05.13.12.26.18.39.12.26.24.53.34.8.11.27.17.57.24.86.1.29.2.57.32.86.06.14.11.29.17.43.06.14.12.29.19.43.14.28.28.57.42.86.15.29.28.58.45.86.16.29.31.58.47.88.08.15.15.3.23.45.08.15.17.3.25.44.17.3.34.6.52.89.18.3.4.58.62.86.13.13.24.27.35.41.1.15.21.29.31.44.21.3.39.61.58.92.18.32.41.62.64.91.12.15.24.29.37.42.07.07.13.13.21.2.07.06.15.12.23.18.27.27.53.54.8.82.13.14.27.27.41.41.14.14.28.27.42.41.14.14.28.28.42.42.14.14.29.27.44.4.3.26.58.54.89.8.28.29.58.57.89.83.15.14.32.25.49.37.17.12.34.24.51.35.17.12.34.23.52.34.18.1.36.21.55.32.37.21.72.43,1.1.63.34.26.69.53,1.06.74.38.22.76.42,1.16.61.4.17.82.33,1.23.49.21.08.42.14.64.21.21.06.43.12.65.18,1.56.95,3.4,1.41,5.3,1.42,1.84.32,3.76.61,5.71.44,1.95-.05,3.93-.33,5.92-.7,1.93-.64,3.87-1.28,5.86-1.94,1.81-1.08,3.68-2.04,5.5-3.22.47-.28.88-.63,1.3-.98.43-.34.8-.74,1.2-1.12.78-.77,1.52-1.59,2.33-2.36,1.48-1.66,2.73-3.56,3.89-5.53,1.21-1.94,2.26-4.06,2.79-6.37.69-2.25,1.15-4.58,1.66-6.94.01-.3.03-.6.05-.91.02-.3.06-.6.07-.9.04-.6.09-1.21.16-1.81.05-.6.1-1.21.17-1.82l.05-.46.03-.46.03-.46.02-.23v-.12s.01-.06.01-.06h0c0-.06,0-.1,0-.15-.04,0-.09,0-.13-.01-.6-.01-1.21-.02-1.81-.03-1.26-.02-2.53-.03-3.8.04-2.54-.04-5.1.12-7.68,0-.3,0-.61-.02-.91-.03h-.09s-.05-.02-.05-.02c-.01,0-.04-.01-.04,0v.09s-.02.05-.02.05c0,.02,0,0,0,.11-.02.32-.03.64-.05.96-.06,1.29-.11,2.57-.12,3.85,0,2.57-.48,5.08-.75,7.58-.29,1.23-.47,2.48-.68,3.72-.2,1.24-.43,2.48-.83,3.68-.35,1.21-.8,2.4-1.48,3.55-.17.28-.36.57-.59.84-.22.27-.48.54-.82.78-.17.12-.36.22-.57.3-.21.08-.45.13-.7.14-.12,0-.25,0-.38-.02-.13-.02-.27-.05-.39-.1-.26-.09-.49-.25-.67-.45-.09-.1-.16-.22-.23-.34-.06-.12-.11-.25-.15-.37-.06-.22-.09-.4-.12-.59-.04-.36-.05-.68-.05-.99,0-.62.01-1.21.02-1.79.01-1.16-.02-2.3-.08-3.44-.31-1.11-.47-2.21-.67-3.32-.19-1.11-.41-2.21-.82-3.26-.29-1.08-.7-2.12-1.17-3.12-.23-.5-.48-1-.72-1.49-.13-.25-.25-.49-.37-.73l-.19-.37-.08-.17-.02-.04s-.04-.05-.05-.07c0-.02-.02-.01-.04,0h-.04c-.18.04-.36.06-.54.09-.57.05-1.13.12-1.69.13-1.12.06-2.24.03-3.35.05-.28-.02-.55-.04-.83-.06-.28-.02-.55-.06-.82-.08-.27-.03-.55-.05-.82-.1-.18-.03-.16-.02-.2-.03h-.08s-.02,0-.02.02l-.02.04-.04.08c-.12.23-.24.46-.35.69-.24.46-.48.91-.72,1.36-.34.97-.77,1.88-1.17,2.8-.4.92-.76,1.85-.96,2.81-.53,1.88-.86,3.77-1.04,5.63-.22.92-.24,1.86-.2,2.78.02.46.06.92.09,1.4.02.47.06.95-.04,1.51-.01.07-.03.14-.06.22-.02.08-.05.17-.09.26-.08.17-.18.33-.3.47-.25.27-.62.42-.98.47-.35.05-.7,0-1-.12-.3-.12-.55-.28-.76-.46-.42-.36-.73-.77-.97-1.18-.25-.42-.43-.84-.57-1.28-.36-.84-.6-1.68-.83-2.51-.22-.83-.42-1.65-.66-2.45-.4-1.62-.2-3.28-.8-4.75-.28-1.53-.08-3.06-.47-4.47-.37-1.42-.2-2.83-.27-4.16-.07-1.33-.11-2.61-.14-3.83,0-.22,0-.43,0-.64,0-.01,0-.03,0-.03h-.11s-.14,0-.14,0c-.1,0-.19,0-.29,0-.64,0-1.27-.02-1.87-.02-1.22-.02-2.36-.04-3.43-.05-2.13-.03-3.94-.07-5.41-.11-1.47-.04-2.6-.07-3.35-.11-.76-.04-1.15-.08-1.15-.12,0-.04.49-.09,1.42-.13.93-.04,2.32-.08,4.12-.12,1.8-.04,4.01-.08,6.61-.12.65,0,1.32-.02,2.02-.03.35,0,.71,0,1.07-.01.26,0,.52,0,.78,0,.13,0,.27,0,.4,0h.1s.05,0,.05,0c.01,0,.01,0,.01.01v.22c.03.48.05.98.07,1.48.02.38.04.77.06,1.16.04.78.09,1.59.15,2.41.09,1.32.4,2.68.35,4.12.13,1.43.45,2.88.54,4.41.48,1.48.52,3.06.86,4.65.18.79.36,1.59.59,2.39.23.79.51,1.59.89,2.32.2.36.4.72.61,1.06.21.34.44.65.69.89.25.23.5.35.7.33.09,0,.16-.04.22-.1.03-.03.04-.07.05-.1,0-.02,0-.04.01-.07,0-.03.01-.07.02-.11.1-.33.13-.79.14-1.24,0-.46,0-.92-.01-1.4-.02-.95-.06-1.91-.06-2.9.31-1.94.47-3.95,1.03-5.92.79-1.89,1.36-3.87,2.16-5.84.2-.49.42-.97.66-1.45.12-.24.24-.47.37-.71l.33-.62.17-.31.08-.16.02-.04s0-.03.03-.02l.09.02c.43.08.86.15,1.29.23.25.05.51.08.76.11.25.03.51.07.77.08.26.01.52.03.78.04,1.04.08,2.09.07,3.14-.04.53-.03,1.05-.13,1.58-.19.37-.06.74-.13,1.11-.19l.37-.06.18-.03s.03-.01.04,0l.02.04.04.08.35.67c.17.3.34.6.51.89.14.25.27.5.41.75.26.51.52,1.02.75,1.54.47,1.05.88,2.14,1.19,3.27.83,2.18,1.34,4.53,1.59,6.94.18,1.2.22,2.42.19,3.63-.02.59-.04,1.18-.06,1.78,0,.28,0,.56.02.8.01.11.03.23.05.29,0,.02,0,.03.02.04,0,0,.01.02.02.03.02.01.03.03.05.03,0,0,.02,0,.03,0,.02,0,.03,0,.06,0,.05,0,.1,0,.16-.02.06-.02.14-.06.22-.1.33-.2.68-.62.97-1.08.58-.94,1-2.07,1.21-3.24.63-2.29,1.15-4.69,1.44-7.15.37-2.44.64-4.94.73-7.46.22-1.25.31-2.52.34-3.79,0-.32.01-.64.01-.96,0-.56.01-1.11.02-1.67v-.11s.02-.02.03-.02h.05s.21,0,.21,0h.43s.88-.03.88-.03c.34-.01.68-.03,1.02-.04,2.58-.08,5.14-.04,7.68,0,1.27-.01,2.54-.02,3.8-.01.66,0,1.31,0,1.96,0h.89s.44,0,.44,0h.22s.11,0,.11,0h.05s.03,0,.03,0v.03c-.01.59-.03,1.18-.04,1.76v.53s0,.48,0,.48v.47s-.04.47-.04.47c-.04.63-.09,1.26-.15,1.89-.15,1.25-.3,2.49-.45,3.73-.05.62-.18,1.23-.3,1.84-.06.31-.12.61-.19.91-.08.3-.16.6-.24.9-.08.3-.16.6-.24.89-.08.3-.18.59-.27.89-.18.59-.33,1.18-.51,1.77-.7,2.35-1.64,4.62-2.94,6.65-.15.26-.31.51-.46.77-.16.25-.31.51-.49.75-.17.24-.34.49-.52.73-.18.24-.34.49-.52.72-.18.23-.36.47-.54.7-.18.23-.34.48-.53.7-.18.23-.36.46-.53.7-.17.24-.34.48-.52.71-.76.89-1.5,1.8-2.33,2.61-.42.4-.84.8-1.31,1.14-.47.34-.94.67-1.46.92-.22.18-.45.35-.68.52-.22.17-.47.31-.71.46-.24.15-.48.3-.72.44-.24.14-.5.27-.74.4-.25.13-.49.27-.74.4-.25.12-.5.25-.75.37-.25.12-.49.25-.74.38-.25.12-.49.25-.74.38-.27.08-.52.17-.79.26-.26.08-.52.17-.78.26-.26.09-.51.2-.76.28-.26.09-.51.18-.77.27-.5.2-1.02.35-1.53.52-.51.17-1.03.29-1.55.41-2.09.4-4.17.53-6.21.68-.51.06-1.02.04-1.53.03-.51,0-1.01-.07-1.51-.12-.5-.04-.99-.13-1.48-.2-.24-.04-.49-.06-.73-.11-.24-.04-.48-.08-.73-.12-.25-.02-.49-.05-.73-.09-.24-.05-.48-.1-.71-.16-.24-.06-.47-.12-.7-.18-.23-.08-.46-.15-.69-.23-.23-.07-.45-.15-.68-.23-.23-.07-.45-.16-.67-.24-.44-.16-.9-.28-1.35-.42-.22-.09-.43-.17-.65-.26-.21-.09-.43-.17-.64-.27-.42-.19-.84-.37-1.26-.56-.41-.21-.81-.41-1.21-.62-.4-.21-.78-.45-1.15-.68-.44-.13-.83-.34-1.21-.57-.19-.11-.37-.23-.55-.35-.18-.12-.35-.27-.52-.4-.17-.14-.33-.28-.5-.42-.16-.14-.33-.28-.48-.43-.31-.29-.62-.58-.94-.85-.31-.28-.62-.56-.94-.82-.16-.13-.32-.26-.48-.39-.15-.14-.3-.27-.46-.41-.15-.14-.3-.28-.44-.42-.15-.14-.29-.28-.42-.44-.26-.31-.5-.62-.71-.96-.08-.06-.16-.12-.23-.19-.07-.07-.14-.14-.21-.2-.14-.14-.27-.28-.4-.42-.25-.29-.5-.58-.71-.91-.21-.32-.41-.64-.61-.96l-.15-.24-.14-.24c-.09-.16-.18-.32-.27-.48-.18-.32-.39-.62-.57-.92-.18-.31-.37-.6-.56-.9-.09-.15-.18-.3-.28-.45-.09-.15-.16-.3-.24-.46-.15-.31-.3-.62-.42-.94-.21-.27-.35-.57-.49-.87-.14-.3-.26-.61-.37-.91-.06-.15-.11-.3-.16-.46-.05-.15-.1-.3-.15-.45-.1-.3-.21-.59-.34-.87-.09-.29-.16-.59-.25-.88-.09-.29-.19-.56-.29-.84-.05-.14-.1-.27-.15-.41-.04-.14-.09-.27-.13-.41-.08-.27-.16-.54-.23-.81-.09-.26-.18-.52-.25-.78-.07-.26-.13-.52-.19-.78-.11-.51-.23-1.01-.27-1.5-.09-.48-.17-.95-.25-1.41-.04-.23-.07-.45-.1-.67-.03-.22-.06-.44-.08-.65-.04-.32-.08-.63-.12-.93-.04-.3-.05-.59-.08-.88-.04-.57-.09-1.09-.12-1.59-.02-.49-.03-.95-.05-1.36,0-.41-.03-.79-.02-1.12.02-1.34.06-2.04.12-2.04Z"/>
        <path d="M46.76,41.64s.14-.05.41-.08c.13-.02.3-.05.5-.08.2-.04.43-.08.68-.15.51-.13,1.13-.33,1.83-.65.71-.31,1.49-.74,2.37-1.25.58-.35,1.21-.73,1.88-1.13.67-.41,1.38-.85,2.19-1.23.43-.13.83-.38,1.25-.6.43-.22.89-.43,1.41-.44.99-.18,2.06-.37,3.21-.22.57.07,1.13.26,1.66.52.53.26,1.04.58,1.56.91.57.28.97.79,1.31,1.32.34.54.63,1.09,1.08,1.59.66,1.13,1.02,2.47,1.14,3.84-.02.35-.03.69-.03,1.04-.01.34-.02.68,0,1.03.02.34,0,.69,0,1.04,0,.18,0,.35,0,.53,0,.18-.02.35-.04.53-.4,1.38-.56,2.81-.82,4.31-.76,1.34-1.26,2.74-1.74,4.28l-.14.26-.16.26c-.11.17-.21.34-.32.51-.22.33-.46.66-.69.99-.49.64-.98,1.29-1.49,1.95l-.04.05v.02s-.04.03-.04.03c0,.01-.02.02-.02.03v.04s0,.04,0,.04h0v.12s0,.3,0,.3c0,.4,0,.81-.02,1.22-.02.82-.05,1.64-.12,2.47.15,1.68.03,3.38-.31,5.09.1,1.74-.19,3.49-.56,5.25-.38,1.75-.34,3.61-.96,5.39-.22.9-.45,1.82-.74,2.73-.29.91-.64,1.83-1.16,2.71-.28.43-.6.86-1.03,1.25-.22.19-.46.38-.76.52-.3.15-.66.23-1.03.22-.18-.01-.39-.05-.58-.12-.19-.07-.37-.17-.52-.3-.15-.13-.27-.3-.36-.48-.09-.18-.15-.38-.19-.52-.07-.3-.1-.57-.13-.83-.02-.25-.05-.5-.07-.76,0-.98-.01-1.91-.05-2.86-.04-.94-.1-1.88-.16-2.83-.51-1.84-.84-3.71-1.33-5.61-.66-1.83-1.27-3.73-2.3-5.45-.11-.22-.22-.45-.33-.67-.02-.03-.04-.08-.06-.09l-.06.02h-.03s-.01.01-.01.01l-.09.02-.39.07-.39.06-.79.11-.8.06-.4.02h-.4c-.27,0-.54,0-.8,0l-.8-.05-.4-.02-.4-.04-.79-.08-.79-.1-.39-.05-.39-.06-.12-.02h-.05s-.08-.01-.08-.01h-.01s0,.03,0,.03l-.02.04s-.02.06-.03.08c-.09.21-.2.45-.29.68-.74,1.86-1.74,3.58-2.3,5.45-.43.89-.68,1.83-.86,2.78-.19.95-.3,1.9-.47,2.83-.11.94-.22,1.88-.27,2.83-.05.95-.03,1.88.06,2.86.01.25.02.5.01.76,0,.26-.01.54-.07.86-.03.15-.08.36-.18.56-.09.2-.22.38-.39.53-.16.15-.35.26-.56.34-.21.08-.43.12-.63.13-.4.02-.8-.08-1.12-.25-.32-.16-.57-.37-.78-.58-.42-.43-.7-.88-.94-1.34-.67-.8-1.02-1.75-1.26-2.68-.25-.93-.39-1.87-.65-2.76-.27-1.84-.75-3.6-.96-5.39-.32-1.77-.26-3.54-.56-5.25-.11-1.72-.38-3.41-.31-5.09-.13-.83-.13-1.66-.11-2.47,0-.41.02-.82.02-1.22v-.3s0-.13,0-.13v-.05s0-.05,0-.05c0-.01-.02-.02-.03-.03l-.04-.03s-.02,0-.06-.05c-.56-.6-1.07-1.25-1.54-1.91-.23-.33-.45-.67-.66-1.01-.1-.17-.2-.35-.3-.52l-.15-.26-.13-.26c-.12-.38-.28-.74-.42-1.11-.08-.18-.16-.36-.24-.53-.08-.18-.15-.35-.23-.53-.08-.17-.17-.35-.24-.52-.07-.18-.15-.35-.22-.53-.16-.35-.28-.71-.39-1.07-.39-1.44-.86-2.86-.82-4.31-.02-.18-.03-.35-.05-.53-.01-.18-.01-.35-.02-.53,0-.35-.03-.7-.02-1.04,0-.35,0-.69,0-1.03,0-.35,0-.7,0-1.04.04-.69.28-1.35.52-1.97.25-.62.49-1.21.61-1.88.27-.6.68-1.11,1.11-1.56.43-.46.88-.87,1.27-1.36.41-.48.95-.81,1.51-1.02.56-.22,1.15-.32,1.71-.41,1.14-.18,2.23-.03,3.21.22.55.14,1.07.34,1.56.54.49.2.95.43,1.39.66.88.46,1.66.93,2.39,1.37,1.45.88,2.69,1.61,3.75,2.08,1.05.48,1.92.69,2.51.8.15.02.28.04.39.06.11.02.21.02.28.04.15.02.23.04.23.06,0,.02-.1.04-.29.06-.1,0-.22.02-.36.01-.14,0-.31,0-.5-.02-.76-.06-1.88-.32-3.21-.91-.67-.29-1.39-.66-2.17-1.08-.78-.42-1.62-.89-2.53-1.37-.91-.47-1.9-.95-3-1.28-.54-.17-1.12-.3-1.71-.36-.15,0-.3-.03-.45-.03-.15,0-.3,0-.45,0-.3.01-.6.03-.9.09-.48.09-.95.29-1.39.53-.45.24-.87.51-1.35.77-.42.33-.78.75-1.1,1.2-.33.45-.62.93-.94,1.42-.14.58-.34,1.12-.52,1.68-.18.56-.36,1.15-.42,1.77-.03.31-.04.62-.05.94,0,.33,0,.65,0,.98,0,.33.03.66.06,1,.02.17.03.34.05.5.03.17.05.33.09.5.04.17.07.33.1.5.03.17.06.34.09.5.05.34.09.68.15,1.02.06.34.1.69.19,1.03.08.34.17.69.3,1.01.24,1.41.84,2.77,1.69,3.99l.11.26c.04.08.08.17.13.25.09.17.18.33.27.49.19.32.42.63.64.93.47.59.97,1.17,1.49,1.73.02.03.08.11.13.18l.16.2.08.1.04.05s0,.04,0,.06v.26s-.03.73-.03.73c0,.4,0,.81.03,1.21.05.81.16,1.63.25,2.45.17,1.64.15,3.33.36,5.03.1,1.71.39,3.42.59,5.16.36,1.72.7,3.46.97,5.23.25.86.48,1.72.76,2.57.28.84.59,1.68,1.01,2.42.23.35.48.68.73.91.12.12.25.21.35.26.11.06.18.07.25.07.03,0,.05,0,.06,0,.02,0,.03,0,.04-.02.01,0,.02-.02.03-.03,0,0,.02-.04.04-.12.07-.31.07-.78.06-1.24-.05-.94-.01-1.94.06-2.93.06-.99.15-1.99.15-3.01.23-2.01.79-3.98,1.39-5.93.68-1.93,1.53-3.8,2.38-5.68.15-.22.29-.42.43-.66l.34-.58.16-.29.08-.14s.03-.05.04-.07l.08.02.66.12.58.1c.12.02.24.04.37.06l.37.04c.25.02.49.05.74.06.25,0,.5.01.75.02h.37s.37,0,.37,0l.75-.02.74-.04.37-.02.37-.03.74-.06.73-.09.37-.04.37-.06c.45-.07.9-.15,1.35-.22h.04s.03-.02.04,0l.04.08.08.16.17.32.33.64.34.7c.95,1.84,1.75,3.74,2.39,5.68.73,1.92,1.02,3.95,1.39,5.93.19.99.24,2.01.23,3,0,1-.07,1.99-.03,2.93,0,.23.01.46.03.68.01.21.04.41.08.56.02.08.03.09.04.1,0,0,.01.01.02.02,0,0,.02,0,.02,0h.01s.02,0,.03,0c.06,0,.13,0,.23-.06.1-.05.23-.13.35-.25.25-.23.51-.55.75-.89.42-.73.8-1.54,1.12-2.38.31-.84.55-1.71.64-2.61.36-1.76.35-3.55.97-5.23.15-1.75.61-3.45.59-5.16.42-1.68.27-3.38.35-5.03.07-.82.14-1.64.18-2.45.02-.41.04-.81.04-1.21,0-.25,0-.49,0-.74v-.26s.04-.07.06-.11l.08-.1.17-.2.08-.1.03-.04.02-.03c.48-.6.95-1.2,1.42-1.79.22-.3.45-.6.66-.91.1-.16.2-.31.3-.47.05-.08.1-.16.14-.24l.13-.25c.14-.35.31-.67.47-1,.08-.16.17-.32.25-.49.08-.16.16-.33.24-.49.08-.16.17-.32.24-.49.07-.16.14-.33.2-.5.14-.33.22-.68.28-1.03.44-1.35.64-2.73.84-4.07-.03-.17-.05-.34-.05-.51,0-.17-.02-.34-.02-.5,0-.33.05-.66.07-.99.03-.33.08-.66.12-.98.03-.31.05-.63.02-.94-.03-.62-.21-1.21-.41-1.78-.2-.56-.41-1.1-.55-1.68-.39-.45-.7-.91-1.01-1.36-.31-.45-.64-.89-1.03-1.26-.39-.37-.86-.62-1.33-.81-.47-.2-.94-.33-1.41-.49-.5.02-.95-.02-1.44-.03-.48-.01-.96.02-1.4.16-.47.05-.91.2-1.32.36-.41.17-.81.37-1.2.54-.75.41-1.48.8-2.19,1.12-.68.37-1.32.73-1.93,1.05-.91.48-1.74.87-2.49,1.15-.74.28-1.4.45-1.94.53-.27.05-.51.06-.71.08-.2,0-.38,0-.52,0-.28-.02-.42-.04-.42-.07Z"/>
        <path d="M62.06,40.2c.07-.08.23-.07.47.02.04.01.08.03.13.05.05.01.11.02.14.07-.06.13.26-.12.15.08,0,.08.08.09.16.1.08.01.03.16.16.11.24-.14-.12.31.17.13.1,0,.14.07.18.14-.1.19.1.12.18.17-.14.23,0,.22.19.18-.21.28-.12.31.2.19.07.07.01.23.19.22.07.07.18.12.19.24.25-.04.31.05.19.25.26-.03.24.12.18.28-.07.16.3.09.18.29.04.11.15.19.16.31-.04.15-.1.3.16.32.11.08.22.18.13.34.29.03.22.2.13.36.09.11-.07.28.1.37,0,.13.17.23.09.38-.05.14-.11.28.06.39.18.11-.03.26.05.38-.23.15.09.24.01.37.03.12-.13.25,0,.37.04.12.09.24-.02.36.37.13-.1.23-.03.34-.16.1,0,.22-.05.33.06.12-.2.19-.06.32-.04.1.1.23-.07.3.17.13-.19.17-.08.29-.02.09-.02.19-.08.28-.31.03-.09.16-.09.26-.05.08.12.21-.1.24-.04.08-.19.12-.09.23.02.09-.46.02-.1.2.04.09-.33.05-.1.19.21.14-.07.12-.1.17-.03.05-.06.11-.09.16-.3.44-.54.65-.69.58-.17-.07-.18-.46-.12-1.05,0-.06-.17-.18.02-.18.02-.06-.11-.17.02-.2-.24-.14,0-.14.03-.21,0-.07.11-.12.02-.22-.13-.11.11-.13.03-.23.18-.04.16-.13.03-.24.17-.05,0-.17.02-.25.26-.04.11-.16.02-.26-.07-.1.07-.17.01-.27.06-.08-.04-.19,0-.27-.11-.1-.14-.2,0-.28-.08-.1,0-.19,0-.29-.1-.1.02-.19,0-.29-.06-.09.26-.21-.03-.29-.04-.1.04-.2-.02-.3.02-.1.04-.21-.05-.3.26-.14.08-.23-.05-.3-.1-.09-.08-.19-.07-.3-.05-.09-.05-.19-.07-.29-.11-.07.05-.22-.09-.28-.14-.05.06-.23-.09-.28-.11-.06-.19-.12-.1-.27-.04-.08.15-.28-.1-.26-.09-.06-.41.02-.12-.25-.13-.03.07-.25-.11-.24.2-.22-.09-.15-.12-.23,0-.1.03-.23-.12-.22-.16.01-.03-.18-.12-.22-.18.04.06-.25-.12-.2-.02-.08-.12-.1-.12-.2-.33.19-.08-.11-.11-.19,0-.09-.28.07-.12-.17-.25.15-.12-.07-.1-.17.02-.1-.17,0-.1-.16-.18.1,0-.16-.09-.15.05-.13-.07-.08-.08-.13-.07,0-.09-.04-.07-.12-.02-.04-.04-.08-.06-.12-.1-.22-.13-.38-.06-.46Z"/>
        <path d="M56.98,22.27c.11,0,.21.73.3,2.07.01.22.03.46.05.72.03.25.06.53.04.81-.14.29.26.59.04.91-.03.16-.03.32-.02.49,0,.08.02.17.03.25.01.04.02.09.03.14.03.11-.02.26-.02.4.07,0,.15-.01.23-.06.09-.07.13-.08.17-.07.04,0,.07.04.12.08.01.02.07.03.12.04.05.01.1.02.15.02.1,0,.2-.03.3-.11.4-.07.82-.05,1.25-.04.43.21.87,0,1.33-.04.46.25.92.14,1.4-.03.48.34.97.29,1.47-.03.5-.01,1.01.12,1.54-.03.52-.02,1.06-.09,1.6-.03.54-.23,1.1-.22,1.66-.02.56-.25,1.13-.15,1.72-.02.58.14,1.17-.22,1.77-.02.6.02,1.2-.06,1.82-.02.61.1,1.24.21,1.86-.01.63-.06,1.26-.14,1.91,0,.64-.26,1.29-.15,1.95,0,.65-.04,1.31.14,1.98,0,.33.02.67,0,1-.03.03,0,.02,0,.02,0h0s.01,0,.01,0c0,0,.02,0,.02,0,.02,0,.04.01.09.04h0s.04-.02.05-.05c0-.01.02-.03.02-.04v-.03s0-.01,0-.01c0,0,0,0,0-.03,0-.34,0-.67-.09-1-.17-.67.07-1.33,0-1.98.12-.33.1-.65.06-.98l-.03-.24v-.03s0,0,0,0h0s-.01-.03-.01-.03c-.01-.02-.02-.04,0-.08,0-.01,0-.03,0-.05-.03,0-.06-.04-.12-.05h-.02s-.01,0-.01,0h-.03c-.07,0-.13,0-.2,0-.13,0-.27.02-.4.05-.63.04-1.25.09-1.86-.01-.61.38-1.22-.1-1.82-.02-.6-.16-1.19.02-1.77-.02-.58.07-1.15-.17-1.72-.02-.56-.03-1.12.12-1.66-.02-.54.19-1.08-.16-1.6-.03-.52,0-1.04.01-1.54-.03-.5-.29-.99-.05-1.47-.03-.48-.03-.95.17-1.4-.03-.46-.02-.9-.15-1.33-.03-.43.04-.85-.43-1.25-.04-.4.07-.79-.3-1.17-.04-.38.24-.74-.03-1.09-.04-.35-.01-.68-.03-1-.04-2.87-.13-4.51-.28-4.51-.43,0-.18,2.03-.34,5.51-.48.35-.01.71-.22,1.09-.04.38,0,.77-.16,1.17-.04.4-.27.82-.05,1.25-.04.43-.01.87.08,1.33-.03.46-.16.92.08,1.4-.03.48.17.97.12,1.47-.03.5.16,1.01-.03,1.54-.03.52.25,1.06.08,1.6-.03.54-.09,1.1.04,1.66-.02.56.05,1.13-.07,1.72-.02.58-.12,1.17-.16,1.77-.02.6-.08,1.2-.02,1.82-.02.61-.1,1.24.01,1.86-.01.13-.01.27,0,.4,0,.07,0,.13.01.2.02l.35.03c.48.04.91.07,1.43.02.02.16.05.31.09.47,0,.3.01.6,0,.9v.43s-.01.24-.01.24c0,.32-.02.65,0,.98-.04.66-.07,1.32,0,1.98-.14.33-.16.67-.14,1,.02.55.09,1.2.14,1.88h0c-.3.02-.61.03-.93.04h-.48s-.47,0-.47,0c-.33,0-.67-.02-1-.04-.67.03-1.33.01-1.98,0-.66.08-1.3-.12-1.95,0-.64.12-1.28-.13-1.91-.01-.63.08-1.25.12-1.86-.01-.61,0-1.22-.25-1.82-.02-.6.05-1.19.36-1.77-.02-.58.1-1.15-.18-1.72-.02-.56-.28-1.12-.01-1.66-.02-.54-.06-1.08-.15-1.6-.03-.52.13-1.04-.07-1.54-.03-.5.16-.99-.21-1.47-.03-.48-.04-.95.02-1.4-.03-.45.38-.9,0-1.33-.03-.43-.05-.85.25-1.25-.04-.1.07-.2.11-.3.12-.05,0-.1.01-.15,0-.05,0-.09,0-.18-.02-.33-.04-.61-.12-.87-.15-.17-.03-.35-.02-.54-.01-.01-.18-.03-.35-.04-.54,0-.18,0-.38.06-.57-.05-.12-.07-.25-.07-.39,0-.09.02-.17.04-.26.04-.17.1-.33.07-.49.13-.32,0-.62.04-.91-.04-.29-.03-.56.04-.81.02-.26.03-.5.05-.72.09-1.34.19-2.07.3-2.07Z"/>
        <path d="M83.77,21.11c.11,0,.21.51.3,1.45.01.16.03.33.05.5.03.18.06.37.05.57-.14.2.26.41.04.64-.06.22,0,.46.04.7.05.24-.09.5.04.76.27.26-.3.54.04.82.07.28.05.58.04.88-.21.3,0,.61.04.93-.13.16-.16.32-.14.49,0,.08.03.16.06.25.03.05.07.07.12.1-.25.15-.29.42-.17.43.09-.04.2-.11.29-.2.06,0,.1.02.16.04.02,0,.03,0,.05,0h.04s.07,0,.07,0c.09,0,.18-.03.27-.07.37-.02.74-.09,1.12-.03.38-.23.77-.22,1.17-.02.4-.25.8-.15,1.21-.02.41.14.82-.22,1.24-.02.42.01.85-.06,1.28-.02.43.1.87.21,1.31-.01.44-.06.89-.14,1.34-.01.45-.26.91-.15,1.37,0,.46-.04.92.14,1.39,0,.12.01.23,0,.35,0h.04s.03,0,.03,0h.01s.01-.02.02-.02c.03-.02.02-.03.11.03h0s.08-.02.09-.08c0-.01,0-.03,0-.04,0,0,0-.01,0-.02,0,0,0-.02,0-.03v-.04c-.02-.12-.04-.23-.08-.35-.17-.47.07-.93,0-1.39.25-.46-.08-.92,0-1.37-.02-.45.14-.9,0-1.34-.04-.44-.09-.88.01-1.31-.19-.22-.16-.43-.1-.64.03-.11.07-.21.1-.32.01-.05.02-.11.03-.16,0-.03,0-.05,0-.08,0,0,0-.01,0-.01.06-.04.07-.09.07-.13,0-.04-.03-.06-.04-.08-.04.01-.06.02-.08,0-.06.04-.08,0-.13-.04,0,0-.07-.02-.11-.02-.05,0-.1,0-.15,0-.1,0-.2.01-.3.05-.4-.03-.79.12-1.17-.02-.38.19-.76-.16-1.12-.03-.37,0-.73.01-1.08-.03-.35-.3-.7-.05-1.03-.03-.34-.03-.66.17-.98-.03-.32-.02-.63-.15-.93-.03-.3.04-.59-.43-.88-.04-.28.07-.56-.3-.82-.04-.27.24-.52-.03-.76-.04-.24-.01-.48-.03-.7-.04-2.02-.13-3.17-.28-3.17-.43,0-.18,1.42-.34,3.87-.48.25-.01.5-.22.76-.04.26,0,.54-.16.82-.04.28-.27.58-.05.88-.04.3-.01.61.07.93-.04.32-.16.65.08.98-.03.34.17.68.12,1.03-.03.35.16.71-.03,1.08-.03.37.25.74.08,1.12-.03.38-.09.77.04,1.17-.02.1.01.2.01.3.01h.15c.06-.01.08-.02.19-.02.36-.02.74-.04,1.1-.01.22-.03.45-.06.68-.08.05.51.05,1.15-.06,1.72v.14s.02.08.02.08c0,.05,0,.11.01.16,0,.11,0,.21,0,.32,0,.21-.02.43-.02.64.1.43-.01.87.01,1.31.05.44-.27.89.01,1.34.04.45-.04.91,0,1.37-.04.46-.07.92,0,1.39-.07.12-.11.23-.13.35v.04s-.01.03-.01.05v.15c0,.1,0,.2,0,.31.02.41.09.87.14,1.38h0c-.41.04-.87.05-1.32.04h-.34s-.17-.01-.17-.01h-.06s-.04,0-.04,0l-.35-.03c-.47.03-.93.01-1.39,0-.46.08-.91-.12-1.37,0-.45.12-.9-.13-1.34-.01-.44.08-.88.12-1.31-.01-.43,0-.86-.25-1.28-.02-.42.05-.83.37-1.24-.02-.41.1-.81-.18-1.21-.02-.4-.28-.79-.02-1.17-.02-.38-.05-.76-.15-1.12-.03-.09.03-.18.05-.27.05h-.07s-.1,0-.1,0c-.08,0-.16-.01-.24-.02-.31-.03-.59-.07-.91-.05-.19.04-.37.05-.52.04.02-.24.07-.5.09-.72.03-.23.04-.42-.03-.61,0-.14.01-.29.01-.41,0-.08,0-.17,0-.25,0-.16,0-.33.02-.49-.38-.32,0-.63.04-.93.05-.3-.25-.6.04-.88-.29-.28-.04-.56.04-.82.08-.26-.12-.52.04-.76-.2-.25.11-.48.04-.7.13-.22,0-.44.04-.64-.05-.2-.03-.39.04-.57.02-.18.03-.35.05-.5.09-.94.2-1.45.3-1.45Z"/>
        <path d="M50.05,17.52c0,.05-.15.1-.42.17-.27.07-.67.16-1.16.32-.16.06-.34.12-.52.2-.18.09-.36.19-.56.27-.13-.02-.21.09-.28.19-.08.1-.15.2-.31.16-.24.07-.43.26-.61.45-.18.19-.48.27-.59.56,0,.19-.16.24-.3.3-.15.06-.29.14-.25.37-.13.28-.32.52-.49.79-.34.18-.31.58-.39.89-.36.22-.36.62-.26.99-.41.27-.41.69-.1,1.07,0,.17-.03.38-.04.59-.01.21,0,.41.07.63.02.42.09.85.03,1.29.23.44.22.88.02,1.34.25.45.15.91.02,1.38-.14.47.22.94.02,1.42,0,.24,0,.48.02.73,0,.12.01.24.01.37v.18s0,.05,0,.05c0,.01,0,.04,0,.03v.02c-.07.05-.13.19-.12.28.06,0,.17-.04.24-.13.03-.02.04-.03.07-.05.13-.01.25-.03.38-.03.25-.01.51,0,.77.07.52-.26,1.04-.15,1.57,0,.53-.04,1.06.14,1.6,0,.54.04,1.08-.12,1.62,0,.54.08,1.08.15,1.62,0,.54-.17,1.07.07,1.59,0,.53.24,1.05-.08,1.57,0,.26-.01.52.02.77.04.13.01.25.02.38.02.04,0,.06-.02.07-.05.03-.02.04-.04.06-.05-.01-.05,0-.06.06-.1-.02,0-.04-.01-.06-.02,0,0-.02-.02-.02-.03,0-.02-.01-.03-.02-.05-.02-.06-.04-.12-.04-.18,0-.12.01-.25.04-.37.06-.25.16-.49.12-.73.16-.48-.02-.96.02-1.43-.07-.47.17-.93.02-1.38.03-.45-.12-.9.02-1.34-.19-.44.16-.87.03-1.29,0-.21,0-.42,0-.62,0-.21.01-.42.03-.59.14-.19.14-.38.09-.55-.05-.18-.14-.34-.19-.51-.04-.36-.33-.61-.26-.99-.1-.32-.13-.68-.39-.9-.1-.13-.09-.31-.13-.48-.04-.16-.12-.31-.36-.3-.12-.09-.16-.25-.22-.4-.06-.14-.14-.27-.34-.27-.37-.02-.39-.39-.59-.56-.2-.17-.41-.32-.61-.45-.91-.6-1.76-.86-2.34-1.02-.58-.15-.92-.21-.92-.29,0-.08.41-.2,1.21-.15.39.03.88.1,1.44.28.55.17,1.17.45,1.79.87.24.17.63.22.74.58.23.22.58.37.71.73.44.11.47.55.64.88.2.32.29.7.54,1.03.15.16.2.36.23.57.03.21.05.41.15.61-.08.45.02.85.18,1.29-.07.23-.07.43-.04.64.03.21.08.42.07.62-.25.42-.08.85.03,1.29.09.44-.04.88.02,1.34-.05.45.06.91.02,1.38.12.47.16.94.02,1.43.04.24.04.48.04.73,0,.12,0,.24-.01.37v.18s0,.28,0,.28c.06.55.04,1.12.03,1.66-.4-.01-.78-.02-1.16-.01-.23.01-.48,0-.7-.02-.13-.02-.25-.04-.38-.07-.26-.04-.51-.05-.77.09-.52.04-1.04-.04-1.57,0-.53-.04-1.06-.07-1.59,0-.54-.28-1.08-.11-1.62,0-.54.08-1.08.04-1.62,0-.54.03-1.07.01-1.6,0-.53.08-1.05-.12-1.57,0-.26.06-.52.03-.77,0-.13-.02-.26-.03-.38-.04-.22,0-.46,0-.7.03-.4.03-.81.06-1.22.07-.02-.55,0-1.16.08-1.71v-.17s0-.04,0-.06v-.05c.01-.06.02-.12.03-.18.02-.12.04-.25.06-.37.03-.25.04-.49-.08-.73-.05-.48-.36-.96.02-1.42-.1-.47.18-.93.02-1.38.28-.45.01-.9.02-1.34.05-.44.15-.87.03-1.29-.07-.21-.05-.42-.02-.63.03-.21.07-.41.05-.64-.07-.23,0-.45.07-.66.08-.21.16-.41.11-.63.12-.41.18-.82.38-1.18-.1-.25-.02-.45.11-.6.13-.16.32-.28.42-.43.12-.15.16-.34.24-.51.08-.17.18-.32.41-.37,0-.46.43-.56.71-.73.29-.16.4-.52.74-.58.13-.34.54-.24.74-.44.3-.02.47-.25.71-.32.21-.14.43-.21.66-.21.21-.06.41-.09.59-.13.56-.09.99-.08,1.28-.05s.44.09.44.14Z"/>
        <path d="M43.83,53.58c-.1-.03-.13-.29-.09-.72,0-.07.02-.15.02-.24,0-.09,0-.18.03-.26.16-.05-.19-.26.04-.29.09-.08.07-.2.05-.32-.01-.12.15-.19.06-.35-.22-.2.36-.15.07-.37-.03-.15.03-.27.08-.4.24-.07.08-.27.09-.42.28-.07.22-.24.1-.44.37-.05.37-.21.11-.46.04-.16.21-.28.12-.48.03-.17.02-.35.13-.5-.17-.23-.11-.4.13-.52-.18-.25-.04-.39.14-.53.19-.14-.09-.42.15-.55.07-.18.06-.39.16-.56.15-.16.32-.32.16-.58,0-.21-.02-.43.17-.59-.19-.27-.02-.44.18-.6.02-.21.26-.36.18-.61.1-.19.02-.45.19-.62.14-.19.28-.37.19-.62-.1-.25.19-.39.19-.61.3-.13.05-.42.19-.59.04-.21.26-.35.19-.58.02-.21.03-.41.19-.57-.3-.3.21-.35.19-.56.21-.14.09-.37.18-.54-.01-.2.28-.3.18-.52.08-.16-.01-.38.18-.5-.13-.22.25-.29.18-.49.05-.16.09-.32.17-.46.33-.07.14-.29.17-.44.08-.14-.07-.34.16-.42.06-.13.23-.23.16-.4,0-.14.49-.13.15-.37-.03-.15.36-.16.15-.35-.2-.19.1-.22.14-.32.05-.1.09-.2.13-.3.39-.84.69-1.31.84-1.26.17.05.13.72-.06,1.84-.02.11.14.28-.07.35-.04.12.08.28-.07.37.22.21-.03.27-.08.4-.03.14-.15.25-.09.42.11.19-.16.26-.1.44-.21.1-.21.26-.11.46-.2.11-.06.32-.12.48-.29.09-.17.3-.13.5.04.2-.14.33-.13.52-.1.16-.04.37-.14.53.06.21.04.41-.15.55.02.21-.1.38-.16.56.04.22-.13.38-.16.58,0,.21-.38.31-.17.59-.03.21-.16.38-.18.6-.1.19-.19.38-.18.61-.33.13-.23.38-.19.62.01.23-.09.43-.19.62-.04.21-.11.41-.19.61.02.23-.24.37-.19.6.05.23-.24.36-.19.58.02.22,0,.42-.19.57-.06.19-.35.3-.19.56,0,.2.24.47-.18.54.04.21-.29.3-.18.52-.32.09-.12.34-.18.5-.1.15-.24.29-.18.49.08.2-.17.3-.17.46.11.2-.29.24-.17.44-.08.14-.07.3-.16.42.32.25-.09.28-.16.4-.09.12.16.33-.15.38.23.21-.04.26-.15.35-.11.09.05.26-.14.32.16.17-.17.18-.13.29-.16.06-.07.19-.13.27.02.1-.02.18-.12.24-.04.08-.08.14-.11.21-.22.38-.38.58-.48.55Z"/>
      </g>
    </g>
  </g>
</svg>